<svg width="19" height="34" viewBox="0 0 19 34" fill="none" xmlns="http://www.w3.org/2000/svg">
<path d="M18.672 22.476C18.672 23.7427 18.3553 24.9333 17.722 26.048C17.114 27.1627 16.202 28.1 14.986 28.86C13.7953 29.62 12.3767 30.076 10.73 30.228V33.306H8.26V30.228C5.87867 30 3.95333 29.2527 2.484 27.986C1.01467 26.7193 0.28 25.0473 0.28 22.97H4.916C4.992 23.958 5.30867 24.7813 5.866 25.44C6.42333 26.0733 7.22133 26.4787 8.26 26.656V18.296C6.56267 17.8653 5.182 17.4347 4.118 17.004C3.054 16.548 2.142 15.8387 1.382 14.876C0.647333 13.9133 0.28 12.596 0.28 10.924C0.28 8.82133 1.01467 7.086 2.484 5.718C3.95333 4.32467 5.87867 3.514 8.26 3.286V0.207999H10.73V3.286C12.9593 3.48867 14.7453 4.198 16.088 5.414C17.456 6.60467 18.2287 8.25133 18.406 10.354H13.77C13.694 9.56867 13.39 8.872 12.858 8.264C12.326 7.63067 11.6167 7.2 10.73 6.972V15.18C12.4273 15.5853 13.808 16.016 14.872 16.472C15.936 16.9027 16.8353 17.5993 17.57 18.562C18.3047 19.4993 18.672 20.804 18.672 22.476ZM4.688 10.696C4.688 11.7347 4.992 12.5453 5.6 13.128C6.23333 13.7107 7.12 14.1793 8.26 14.534V6.858C7.17067 6.98467 6.29667 7.37733 5.638 8.036C5.00467 8.69467 4.688 9.58133 4.688 10.696ZM10.73 26.656C11.8447 26.4787 12.7187 26.0353 13.352 25.326C13.9853 24.5913 14.302 23.7173 14.302 22.704C14.302 21.6907 13.9853 20.9053 13.352 20.348C12.744 19.7653 11.87 19.2967 10.73 18.942V26.656Z" fill="white"/>
</svg>
