<svg width="24" height="24" viewBox="0 0 24 24" fill="none" xmlns="http://www.w3.org/2000/svg">
<path d="M23.3457 16.9284H4.65541C5.01962 16.1596 5.38929 15.359 5.75241 14.5431C7.39899 14.8406 9.3956 13.5451 11.7095 10.6778C12.1566 12.1285 13.0584 14.2187 14.6134 14.5361C15.7126 14.7606 16.8139 14.1035 17.9644 12.5376C18.6055 13.498 20.0569 14.5772 23.3457 14.5772C23.5193 14.5772 23.6857 14.5029 23.8084 14.3706C23.9311 14.2384 24 14.0589 24 13.8719C24 13.6848 23.9311 13.5054 23.8084 13.3731C23.6857 13.2408 23.5193 13.1665 23.3457 13.1665C18.949 13.1665 18.7724 11.1516 18.7658 11.0364C18.7628 10.8698 18.7051 10.7099 18.6031 10.5848C18.5011 10.4597 18.3613 10.3775 18.2085 10.3529C18.0557 10.3282 17.8997 10.3627 17.7682 10.4501C17.6367 10.5376 17.5382 10.6724 17.49 10.8306C16.4803 12.4682 15.5479 13.2911 14.8577 13.1501C14.3124 13.0396 13.7443 12.3119 13.2623 11.1022C13.0007 10.4315 12.7945 9.73715 12.6462 9.0273C12.6189 8.88417 12.551 8.75373 12.452 8.65399C12.3529 8.55425 12.2275 8.49015 12.0932 8.47053C11.9589 8.45091 11.8223 8.47675 11.7021 8.54448C11.582 8.61221 11.4844 8.71848 11.4227 8.84861C9.41523 11.5407 7.62907 13.0478 6.35434 13.1571C8.95179 7.03469 9.74018 3.13881 8.75878 1.26728C8.45672 0.691243 7.82971 0 6.5528 0H6.5299C4.89422 0.0117558 3.59768 1.73046 2.96522 4.71879C2.22698 8.22908 2.64462 12.4612 4.54855 13.9894C4.09601 15.0063 3.63257 15.9985 3.18331 16.9284H0.664367C0.490844 16.9284 0.324428 17.0027 0.201729 17.135C0.0790291 17.2673 0.0100974 17.4467 0.0100974 17.6337C0.0100974 17.8208 0.0790291 18.0002 0.201729 18.1325C0.324428 18.2648 0.490844 18.3391 0.664367 18.3391H2.49196C1.17143 20.9936 0.119142 22.8839 0.103876 22.9133C0.0565298 22.9927 0.0244532 23.0816 0.00954767 23.1746C-0.00535789 23.2676 -0.00278914 23.3629 0.0171015 23.4549C0.0369922 23.5468 0.0738 23.6335 0.125344 23.7098C0.176887 23.7861 0.242118 23.8505 0.31717 23.8992C0.392221 23.9478 0.475566 23.9797 0.562266 23.993C0.648965 24.0063 0.737255 24.0006 0.821901 23.9765C0.906548 23.9523 0.985829 23.91 1.05505 23.8522C1.12426 23.7944 1.18201 23.7221 1.22486 23.6398C1.24231 23.6092 2.48542 21.3745 3.97388 18.3391H23.3457C23.5193 18.3391 23.6857 18.2648 23.8084 18.1325C23.9311 18.0002 24 17.8208 24 17.6337C24 17.4467 23.9311 17.2673 23.8084 17.135C23.6857 17.0027 23.5193 16.9284 23.3457 16.9284ZM4.24541 5.03385C4.70994 2.83551 5.61392 1.4107 6.5528 1.4107C7.24632 1.4107 7.48949 1.70577 7.62362 1.96205C8.0598 2.78496 8.27789 5.27131 5.12976 12.6599C4.00442 11.4467 3.58568 8.14914 4.24541 5.03385Z" fill="black"/>
</svg>
