<svg width="25" height="25" viewBox="0 0 25 25" fill="none" xmlns="http://www.w3.org/2000/svg">
<path d="M22.5 12.5C22.5 6.98 18.02 2.5 12.5 2.5C6.98 2.5 2.5 6.98 2.5 12.5C2.5 17.34 5.94 21.37 10.5 22.3V15.5H8.5V12.5H10.5V10C10.5 8.07 12.07 6.5 14 6.5H16.5V9.5H14.5C13.95 9.5 13.5 9.95 13.5 10.5V12.5H16.5V15.5H13.5V22.45C18.55 21.95 22.5 17.69 22.5 12.5Z" fill="black"/>
<path d="M21.9054 0.5H3.09459C1.66164 0.5 0.5 1.66164 0.5 3.09459V21.9054C0.5 23.3384 1.66164 24.5 3.09459 24.5H21.9054C23.3384 24.5 24.5 23.3384 24.5 21.9054V3.09459C24.5 1.66164 23.3384 0.5 21.9054 0.5Z" stroke="black" stroke-linecap="round" stroke-linejoin="round"/>
</svg>
