<svg width="15" height="15" viewBox="0 0 15 15" fill="none" xmlns="http://www.w3.org/2000/svg">
<path fill-rule="evenodd" clip-rule="evenodd" d="M14.8722 3.27007C14.9704 3.41904 15.0141 3.59733 14.996 3.77482C14.9779 3.95231 14.8992 4.11812 14.773 4.24427L5.27679 13.7404C5.17964 13.8375 5.05843 13.907 4.92557 13.9418L0.970261 14.9749C0.839516 15.009 0.702126 15.0083 0.571728 14.9729C0.44133 14.9375 0.32246 14.8686 0.226917 14.7731C0.131373 14.6775 0.0624784 14.5586 0.0270718 14.4282C-0.00833476 14.2978 -0.00902244 14.1604 0.0250774 14.0296L1.05806 10.075C1.08822 9.95629 1.14511 9.84604 1.22438 9.75268L10.7558 0.226597C10.901 0.0814997 11.0979 0 11.3032 0C11.5085 0 11.7055 0.0814997 11.8507 0.226597L14.773 3.14816C14.8101 3.18536 14.8433 3.2262 14.8722 3.27007ZM13.1296 3.6957L11.3032 1.87024L2.50425 10.6701L1.85863 13.1422L4.33057 12.4965L13.1296 3.6957Z" fill="white"/>
</svg>
