<svg width="25" height="25" viewBox="0 0 25 25" fill="none" xmlns="http://www.w3.org/2000/svg">
<path d="M21.9054 0.5H3.09459C1.66164 0.5 0.5 1.66164 0.5 3.09459V21.9054C0.5 23.3384 1.66164 24.5 3.09459 24.5H21.9054C23.3384 24.5 24.5 23.3384 24.5 21.9054V3.09459C24.5 1.66164 23.3384 0.5 21.9054 0.5Z" stroke="black" stroke-linecap="round" stroke-linejoin="round"/>
<path d="M18.1755 9.5809C17.4444 9.5809 16.7432 9.29045 16.2262 8.77346C15.7092 8.25647 15.4187 7.55528 15.4187 6.82414C15.4187 6.093 15.1283 5.39181 14.6113 4.87482C14.0943 4.35783 13.3931 4.06738 12.662 4.06738H12.3377C11.6065 4.06738 10.9053 4.35783 10.3883 4.87482C9.87134 5.39181 9.5809 6.093 9.5809 6.82414C9.5809 7.55528 9.29045 8.25647 8.77346 8.77346C8.25647 9.29045 7.55528 9.5809 6.82414 9.5809C6.093 9.5809 5.39181 9.87134 4.87482 10.3883C4.35783 10.9053 4.06738 11.6065 4.06738 12.3377V12.662C4.06738 13.3931 4.35783 14.0943 4.87482 14.6113C5.39181 15.1283 6.093 15.4187 6.82414 15.4187C7.55528 15.4187 8.25647 15.7092 8.77346 16.2262C9.29045 16.7432 9.5809 17.4444 9.5809 18.1755C9.5809 18.9066 9.87134 19.6078 10.3883 20.1248C10.9053 20.6418 11.6065 20.9322 12.3377 20.9322H12.662C13.3931 20.9322 14.0943 20.6418 14.6113 20.1248C15.1283 19.6078 15.4187 18.9066 15.4187 18.1755C15.4187 17.4444 15.7092 16.7432 16.2262 16.2262C16.7432 15.7092 17.4444 15.4187 18.1755 15.4187C18.9066 15.4187 19.6078 15.1283 20.1248 14.6113C20.6418 14.0943 20.9322 13.3931 20.9322 12.662V12.3377C20.9322 11.6065 20.6418 10.9053 20.1248 10.3883C19.6078 9.87134 18.9066 9.5809 18.1755 9.5809Z" stroke="black" stroke-linecap="round" stroke-linejoin="round"/>
<path d="M18.5776 14.4489C18.0607 13.9319 17.7703 13.2308 17.7703 12.4997C17.7703 11.7687 18.0607 11.0675 18.5776 10.5505C19.0945 10.0336 19.3849 9.33242 19.3849 8.60135C19.3849 7.87028 19.0945 7.16914 18.5776 6.65216L18.3479 6.42254C17.831 5.90563 17.1298 5.61523 16.3988 5.61523C15.6677 5.61523 14.9665 5.90563 14.4496 6.42254C14.1936 6.67858 13.8896 6.88169 13.5551 7.02027C13.2206 7.15884 12.8621 7.23016 12.5001 7.23016C12.138 7.23016 11.7795 7.15884 11.445 7.02027C11.1105 6.88169 10.8065 6.67858 10.5505 6.42254C10.0336 5.90563 9.33242 5.61523 8.60135 5.61523C7.87028 5.61523 7.16914 5.90563 6.65216 6.42254L6.42254 6.65151C5.90563 7.16849 5.61523 7.86963 5.61523 8.6007C5.61523 9.33177 5.90563 10.0329 6.42254 10.5499C6.67858 10.8059 6.88169 11.1098 7.02027 11.4443C7.15884 11.7788 7.23016 12.1373 7.23016 12.4994C7.23016 12.8615 7.15884 13.22 7.02027 13.5545C6.88169 13.889 6.67858 14.1929 6.42254 14.4489C5.90563 14.9659 5.61523 15.667 5.61523 16.3981C5.61523 17.1292 5.90563 17.8303 6.42254 18.3473L6.65151 18.5769C7.16849 19.0938 7.86963 19.3842 8.6007 19.3842C9.33177 19.3842 10.0329 19.0938 10.5499 18.5769C10.8059 18.3209 11.1098 18.1178 11.4443 17.9792C11.7788 17.8406 12.1373 17.7693 12.4994 17.7693C12.8615 17.7693 13.22 17.8406 13.5545 17.9792C13.889 18.1178 14.1929 18.3209 14.4489 18.5769C14.9659 19.0938 15.667 19.3842 16.3981 19.3842C17.1292 19.3842 17.8303 19.0938 18.3473 18.5769L18.5769 18.3479C19.0938 17.831 19.3842 17.1298 19.3842 16.3988C19.3842 15.6677 19.0938 14.9665 18.5769 14.4496" stroke="black" stroke-linecap="round" stroke-linejoin="round"/>
</svg>
