<svg width="202" height="60" viewBox="0 0 202 60" fill="none" xmlns="http://www.w3.org/2000/svg">
<circle cx="30" cy="30" r="30" fill="white"/>
<path fill-rule="evenodd" clip-rule="evenodd" d="M30 18C28.6412 18 27.338 18.5332 26.3772 19.4824C25.4163 20.4315 24.8765 21.7188 24.8765 23.0611V28.9452C24.8765 29.6098 25.009 30.2679 25.2665 30.882C25.524 31.496 25.9014 32.054 26.3772 32.5239C26.8529 32.9939 27.4177 33.3667 28.0393 33.621C28.6609 33.8754 29.3272 34.0063 30 34.0063C30.6728 34.0063 31.3391 33.8754 31.9607 33.621C32.5823 33.3667 33.1471 32.9939 33.6228 32.5239C34.0986 32.054 34.476 31.496 34.7335 30.882C34.991 30.2679 35.1235 29.6098 35.1235 28.9452V23.0611C35.1235 21.7188 34.5837 20.4315 33.6228 19.4824C32.662 18.5332 31.3588 18 30 18ZM28.6957 38.6293V40.7115C28.6957 41.0532 28.8331 41.381 29.0777 41.6226C29.3223 41.8643 29.6541 42 30 42C30.3459 42 30.6777 41.8643 30.9223 41.6226C31.1669 41.381 31.3043 41.0532 31.3043 40.7115V38.6276C33.6479 38.5173 35.8586 37.5199 37.4777 35.8425C39.0967 34.1651 40 31.9363 40 29.6186C40 29.2769 39.8626 28.9492 39.618 28.7075C39.3734 28.4659 39.0416 28.3301 38.6957 28.3301C38.3497 28.3301 38.018 28.4659 37.7733 28.7075C37.5287 28.9492 37.3913 29.2769 37.3913 29.6186C37.3913 31.3272 36.7042 32.9659 35.4811 34.1741C34.2581 35.3822 32.5992 36.061 30.8696 36.061H29.1304C27.4008 36.061 25.7419 35.3822 24.5189 34.1741C23.2958 32.9659 22.6087 31.3272 22.6087 29.6186C22.6087 29.4494 22.575 29.2819 22.5094 29.1255C22.4439 28.9692 22.3478 28.8272 22.2267 28.7075C22.1055 28.5879 21.9618 28.493 21.8035 28.4282C21.6452 28.3635 21.4756 28.3301 21.3043 28.3301C21.1331 28.3301 20.9634 28.3635 20.8052 28.4282C20.6469 28.493 20.5032 28.5879 20.382 28.7075C20.2609 28.8272 20.1648 28.9692 20.0993 29.1255C20.0337 29.2819 20 29.4494 20 29.6186C19.9996 31.9366 20.9026 34.1658 22.5217 35.8436C24.1409 37.5214 26.3518 38.519 28.6957 38.6293Z" fill="#022C49"/>
<circle cx="172" cy="30" r="30" fill="white"/>
<path fill-rule="evenodd" clip-rule="evenodd" d="M165 23C164.204 23 163.441 23.3161 162.879 23.8787C162.316 24.4413 162 25.2044 162 26V34C162 34.7956 162.316 35.5587 162.879 36.1213C163.441 36.6839 164.204 37 165 37H175C175.796 37 176.559 36.6839 177.121 36.1213C177.684 35.5587 178 34.7956 178 34V32.414L180.293 34.707C180.433 34.8468 180.611 34.942 180.805 34.9806C180.999 35.0192 181.2 34.9993 181.383 34.9237C181.565 34.848 181.722 34.7199 181.831 34.5555C181.941 34.391 182 34.1978 182 34V26C182 25.8022 181.941 25.609 181.831 25.4445C181.722 25.2801 181.565 25.152 181.383 25.0763C181.2 25.0007 180.999 24.9808 180.805 25.0194C180.611 25.058 180.433 25.1532 180.293 25.293L178 27.586V26C178 25.2044 177.684 24.4413 177.121 23.8787C176.559 23.3161 175.796 23 175 23H165Z" fill="#022C49"/>
<rect x="71" width="60" height="60" rx="15" fill="#F44747"/>
<path d="M98.647 28.2497L100.742 26.4572C101.314 25.9661 101.717 25.3264 101.898 24.6201C102.078 23.9138 102.029 23.1732 101.756 22.4933L100.863 20.2654C100.529 19.4337 99.8681 18.7521 99.0152 18.3595C98.1622 17.9669 97.181 17.8928 96.2716 18.1523C92.9249 19.1087 90.3525 22.0142 91.1443 25.4644C91.665 27.7342 92.6616 30.5832 94.5495 33.6144C96.4412 36.6529 98.6021 38.8972 100.455 40.4747C103.252 42.852 107.25 42.2581 109.822 40.0175C110.512 39.417 110.93 38.5934 110.992 37.7147C111.054 36.836 110.755 35.9683 110.156 35.2885L108.517 33.4304C108.023 32.8686 107.36 32.4576 106.614 32.2505C105.868 32.0434 105.073 32.0496 104.33 32.2682L101.623 33.0643C100.924 32.3904 100.311 31.6428 99.7977 30.8364C99.3018 30.021 98.9153 29.1516 98.647 28.2479" fill="white"/>
</svg>
