<svg width="67" height="43" viewBox="0 0 67 43" fill="none" xmlns="http://www.w3.org/2000/svg">
<rect width="66.8888" height="43" rx="5" fill="black"/>
<path d="M18.1646 40.2864V37.7414C18.1646 36.7656 17.5706 36.1295 16.5525 36.1295C16.0435 36.1295 15.4921 36.2992 15.1102 36.8506C14.8134 36.384 14.3893 36.1295 13.753 36.1295C13.3287 36.1295 12.9047 36.2567 12.5652 36.7233V36.2143H11.6745V40.2864H12.5652V38.0382C12.5652 37.3173 12.9471 36.9778 13.541 36.9778C14.1346 36.9778 14.4318 37.3596 14.4318 38.0382V40.2864H15.3226V38.0382C15.3226 37.3173 15.7465 36.9778 16.298 36.9778C16.892 36.9778 17.1888 37.3596 17.1888 38.0382V40.2864H18.1646ZM31.3565 36.2143H29.9144V34.9842H29.0236V36.2143H28.2177V37.0201H29.0234V38.8867C29.0234 39.82 29.4053 40.3712 30.4234 40.3712C30.8052 40.3712 31.2291 40.2441 31.5263 40.0745L31.2716 39.3108C31.0172 39.4805 30.7204 39.523 30.5082 39.523C30.0841 39.523 29.9144 39.2685 29.9144 38.8442V37.0201H31.3565V36.2143ZM38.9071 36.1293C38.3981 36.1293 38.0588 36.384 37.8466 36.7233V36.2143H36.9558V40.2864H37.8466V37.9959C37.8466 37.3173 38.1434 36.9355 38.6949 36.9355C38.8645 36.9355 39.0767 36.978 39.2464 37.0203L39.5008 36.172C39.3312 36.1295 39.0767 36.1295 38.9071 36.1295M27.4965 36.5538C27.0722 36.2568 26.4784 36.1297 25.8421 36.1297C24.8242 36.1297 24.1456 36.6387 24.1456 37.4446C24.1456 38.1234 24.6546 38.5051 25.5453 38.6324L25.9695 38.6749C26.4361 38.7595 26.6906 38.8869 26.6906 39.099C26.6906 39.3958 26.3513 39.608 25.7573 39.608C25.1635 39.608 24.6969 39.3958 24.3999 39.1839L23.9757 39.8625C24.4424 40.2018 25.0787 40.3714 25.7148 40.3714C26.9026 40.3714 27.5814 39.8202 27.5814 39.0565C27.5814 38.3354 27.0299 37.9536 26.1814 37.8264L25.7573 37.7839C25.3755 37.7414 25.0787 37.6568 25.0787 37.4023C25.0787 37.1053 25.3755 36.9357 25.8421 36.9357C26.3513 36.9357 26.8602 37.1476 27.1147 37.275L27.4965 36.5538ZM51.166 36.1297C50.6569 36.1297 50.3176 36.3842 50.1054 36.7235V36.2145H49.2146V40.2866H50.1054V37.9961C50.1054 37.3175 50.4024 36.9357 50.9537 36.9357C51.1235 36.9357 51.3357 36.9782 51.5053 37.0205L51.7598 36.1722C51.5902 36.1297 51.3357 36.1297 51.166 36.1297ZM39.7978 38.2506C39.7978 39.4807 40.6461 40.3714 41.9612 40.3714C42.555 40.3714 42.9791 40.2443 43.4033 39.905L42.9791 39.1839C42.6398 39.4383 42.3005 39.5655 41.9187 39.5655C41.1976 39.5655 40.6886 39.0565 40.6886 38.2506C40.6886 37.4871 41.1976 36.978 41.9187 36.9357C42.3005 36.9357 42.6398 37.0628 42.9791 37.3175L43.4033 36.5963C42.9791 36.2568 42.555 36.1297 41.9612 36.1297C40.6461 36.1297 39.7978 37.0205 39.7978 38.2506ZM48.027 38.2506V36.2145H47.1362V36.7235C46.8393 36.3419 46.4151 36.1297 45.8636 36.1297C44.7184 36.1297 43.8276 37.0205 43.8276 38.2506C43.8276 39.4807 44.7184 40.3714 45.8636 40.3714C46.4574 40.3714 46.8818 40.1595 47.1362 39.7777V40.2866H48.027V38.2506ZM44.7607 38.2506C44.7607 37.5294 45.2273 36.9357 45.9908 36.9357C46.7119 36.9357 47.2211 37.4871 47.2211 38.2506C47.2211 38.9717 46.7119 39.5655 45.9908 39.5655C45.2273 39.523 44.7607 38.9717 44.7607 38.2506ZM34.1138 36.1297C32.9261 36.1297 32.0776 36.978 32.0776 38.2506C32.0776 39.5232 32.9259 40.3714 34.1562 40.3714C34.7499 40.3714 35.3439 40.2018 35.8106 39.8202L35.3862 39.1839C35.0469 39.4383 34.6228 39.608 34.1987 39.608C33.6472 39.608 33.0957 39.3535 32.9684 38.6322H35.9802V38.2931C36.0227 36.978 35.2593 36.1297 34.1138 36.1297ZM34.1136 36.8931C34.6649 36.8931 35.0469 37.2326 35.1316 37.8689H33.0107C33.0955 37.3175 33.4773 36.8931 34.1136 36.8931ZM56.2135 38.2506V34.6026H55.3227V36.7235C55.0257 36.3419 54.6016 36.1297 54.0501 36.1297C52.9049 36.1297 52.0141 37.0205 52.0141 38.2506C52.0141 39.4807 52.9049 40.3714 54.0501 40.3714C54.6441 40.3714 55.0683 40.1595 55.3227 39.7777V40.2866H56.2135V38.2506ZM52.9474 38.2506C52.9474 37.5294 53.4138 36.9357 54.1775 36.9357C54.8986 36.9357 55.4076 37.4871 55.4076 38.2506C55.4076 38.9717 54.8986 39.5655 54.1775 39.5655C53.4138 39.523 52.9474 38.9717 52.9474 38.2506ZM23.1696 38.2506V36.2145H22.2788V36.7235C21.9818 36.3419 21.5577 36.1297 21.0062 36.1297C19.861 36.1297 18.9702 37.0205 18.9702 38.2506C18.9702 39.4807 19.861 40.3714 21.0062 40.3714C21.6002 40.3714 22.0243 40.1595 22.2788 39.7777V40.2866H23.1696V38.2506ZM19.861 38.2506C19.861 37.5294 20.3276 36.9357 21.091 36.9357C21.8122 36.9357 22.3213 37.4871 22.3213 38.2506C22.3213 38.9717 21.8122 39.5655 21.091 39.5655C20.3276 39.523 19.861 38.9717 19.861 38.2506Z" fill="white"/>
<path d="M27.1995 5.29138H40.5612V29.3002H27.1995V5.29138Z" fill="#FF5F00"/>
<path d="M28.0479 17.2958C28.0479 12.4178 30.3384 8.091 33.8591 5.29131C31.2717 3.25527 28.0056 2.02518 24.4425 2.02518C16.0009 2.02518 9.17166 8.85444 9.17166 17.2958C9.17166 25.737 16.0009 32.5664 24.4423 32.5664C28.0054 32.5664 31.2715 31.3363 33.8591 29.3001C30.3384 26.5429 28.0479 22.1738 28.0479 17.2958Z" fill="#EB001B"/>
<path d="M58.5894 17.2958C58.5894 25.737 51.7601 32.5664 43.3188 32.5664C39.7557 32.5664 36.4895 31.3363 33.902 29.3001C37.4651 26.5006 39.7133 22.1738 39.7133 17.2958C39.7133 12.4178 37.4226 8.091 33.902 5.29131C36.4893 3.25527 39.7557 2.02518 43.3188 2.02518C51.7601 2.02518 58.5894 8.89695 58.5894 17.2958Z" fill="#F79E1B"/>
</svg>
