<svg width="123" height="23" viewBox="0 0 123 23" fill="none" xmlns="http://www.w3.org/2000/svg">
<path d="M21.8206 9.24786C21.7692 9.43868 21.6727 9.61034 21.5425 9.74811L21.4683 9.81528L16.9687 13.8909L16.7527 14.0866L16.8159 14.3711L18.1638 20.439L18.164 20.4402C18.2146 20.6649 18.2 20.9 18.1227 21.1155C18.0455 21.3309 17.9098 21.515 17.7355 21.6466C17.5614 21.778 17.356 21.8518 17.145 21.8613C16.9344 21.8707 16.7245 21.8158 16.5411 21.7013C16.5408 21.7011 16.5406 21.701 16.5404 21.7008L11.4423 18.4916L11.175 18.3234L10.9079 18.4919L5.82121 21.7008C5.82096 21.701 5.82072 21.7011 5.82048 21.7013C5.63709 21.8158 5.42715 21.8707 5.21652 21.8613C5.00558 21.8518 4.80015 21.778 4.62606 21.6466C4.45173 21.515 4.31605 21.3309 4.23881 21.1155C4.16152 20.9 4.147 20.6649 4.19752 20.4402L4.19781 20.4389L5.54371 14.3773L5.60683 14.093L5.39112 13.8973L0.890483 9.8155L0.89049 9.81549L0.888051 9.8133C0.723826 9.6663 0.602788 9.47008 0.542934 9.24786L0.0589425 9.37823L0.542934 9.24786C0.483055 9.02556 0.48779 8.78955 0.556396 8.57023C0.624968 8.35102 0.753513 8.16052 0.923073 8.021C1.09241 7.88166 1.2954 7.79897 1.5062 7.78059L1.50753 7.78047L7.43987 7.2472L7.745 7.21977L7.85975 6.93572L10.1754 1.20334L10.1757 1.20257C10.2608 0.990918 10.4031 0.8131 10.582 0.68942C10.7606 0.565907 10.9684 0.501242 11.1793 0.501242C11.3902 0.501242 11.598 0.565907 11.7766 0.68942C11.9554 0.813099 12.0977 0.990917 12.1828 1.20257L12.1833 1.20382L14.506 6.9362L14.6209 7.2198L14.9257 7.2472L20.856 7.78047L20.8573 7.78059C21.0682 7.79897 21.2711 7.88166 21.4405 8.021C21.61 8.16052 21.7386 8.35102 21.8072 8.57023C21.8758 8.78955 21.8805 9.02556 21.8206 9.24786L22.3046 9.37823L21.8206 9.24786Z" fill="#FFFF00" stroke="black"/>
<path d="M46.9796 9.24786C46.9282 9.43868 46.8317 9.61034 46.7015 9.74811L46.6273 9.81528L42.1277 13.8909L41.9117 14.0866L41.9749 14.3711L43.3228 20.439L43.323 20.4402C43.3736 20.6649 43.359 20.9 43.2817 21.1155C43.2045 21.3309 43.0688 21.515 42.8945 21.6466C42.7204 21.778 42.515 21.8518 42.304 21.8613C42.0934 21.8707 41.8835 21.8158 41.7001 21.7013C41.6998 21.7011 41.6996 21.701 41.6994 21.7008L36.6013 18.4916L36.334 18.3234L36.0669 18.4919L30.9802 21.7008C30.98 21.701 30.9797 21.7011 30.9795 21.7013C30.7961 21.8158 30.5861 21.8707 30.3755 21.8613C30.1646 21.8518 29.9592 21.778 29.7851 21.6466C29.6107 21.515 29.4751 21.3309 29.3978 21.1155C29.3205 20.9 29.306 20.6649 29.3565 20.4402L29.3568 20.4389L30.7027 14.3773L30.7658 14.093L30.5501 13.8973L26.0495 9.8155L26.0495 9.81549L26.0471 9.8133C25.8828 9.6663 25.7618 9.47008 25.7019 9.24786L25.2179 9.37823L25.7019 9.24786C25.6421 9.02556 25.6468 8.78955 25.7154 8.57023C25.784 8.35102 25.9125 8.16052 26.0821 8.021C26.2514 7.88166 26.4544 7.79897 26.6652 7.78059L26.6665 7.78047L32.5989 7.2472L32.904 7.21977L33.0188 6.93572L35.3344 1.20334L35.3347 1.20257C35.4198 0.990918 35.5621 0.8131 35.741 0.68942C35.9196 0.565907 36.1274 0.501242 36.3383 0.501242C36.5492 0.501242 36.757 0.565907 36.9356 0.68942C37.1144 0.813099 37.2568 0.990917 37.3418 1.20257L37.3423 1.20382L39.665 6.9362L39.7799 7.2198L40.0847 7.2472L46.015 7.78047L46.0164 7.78059C46.2272 7.79897 46.4301 7.88166 46.5995 8.021C46.769 8.16052 46.8976 8.35102 46.9662 8.57023C47.0348 8.78955 47.0395 9.02556 46.9796 9.24786L47.4636 9.37823L46.9796 9.24786Z" fill="#FFFF00" stroke="black"/>
<path d="M72.1386 9.24786C72.0872 9.43868 71.9907 9.61034 71.8605 9.74811L71.7863 9.81528L67.2867 13.8909L67.0707 14.0866L67.1339 14.3711L68.4818 20.439L68.482 20.4402C68.5326 20.6649 68.518 20.9 68.4408 21.1155C68.3635 21.3309 68.2278 21.515 68.0535 21.6466C67.8794 21.778 67.674 21.8518 67.463 21.8613C67.2524 21.8707 67.0425 21.8158 66.8591 21.7013C66.8588 21.7011 66.8586 21.701 66.8584 21.7008L61.7603 18.4916L61.493 18.3234L61.2259 18.4919L56.1392 21.7008C56.139 21.701 56.1387 21.7011 56.1385 21.7013C55.9551 21.8158 55.7451 21.8707 55.5345 21.8613C55.3236 21.8518 55.1182 21.778 54.9441 21.6466C54.7697 21.515 54.6341 21.3309 54.5568 21.1155C54.4795 20.9 54.465 20.6649 54.5155 20.4402L54.5158 20.4389L55.8617 14.3773L55.9248 14.093L55.7091 13.8973L51.2085 9.8155L51.2085 9.81549L51.2061 9.8133C51.0418 9.6663 50.9208 9.47008 50.8609 9.24786L50.3769 9.37823L50.8609 9.24786C50.8011 9.02556 50.8058 8.78955 50.8744 8.57023C50.943 8.35102 51.0715 8.16052 51.2411 8.021C51.4104 7.88166 51.6134 7.79897 51.8242 7.78059L51.8255 7.78047L57.7579 7.2472L58.063 7.21977L58.1778 6.93572L60.4934 1.20334L60.4937 1.20257C60.5788 0.990918 60.7211 0.8131 60.9 0.68942C61.0786 0.565907 61.2864 0.501242 61.4973 0.501242C61.7082 0.501242 61.916 0.565907 62.0946 0.68942C62.2734 0.813099 62.4158 0.990917 62.5008 1.20257L62.5013 1.20382L64.824 6.9362L64.9389 7.2198L65.2437 7.2472L71.174 7.78047L71.1754 7.78059C71.3862 7.79897 71.5891 7.88166 71.7585 8.021C71.928 8.16052 72.0566 8.35102 72.1252 8.57023C72.1938 8.78955 72.1985 9.02556 72.1386 9.24786L72.6226 9.37823L72.1386 9.24786Z" fill="#FFFF00" stroke="black"/>
<path d="M97.2976 9.24786C97.2462 9.43868 97.1497 9.61034 97.0195 9.74811L96.9453 9.81528L92.4457 13.8909L92.2297 14.0866L92.2929 14.3711L93.6408 20.439L93.641 20.4402C93.6916 20.6649 93.677 20.9 93.5998 21.1155C93.5225 21.3309 93.3868 21.515 93.2125 21.6466C93.0384 21.778 92.833 21.8518 92.622 21.8613C92.4114 21.8707 92.2015 21.8158 92.0181 21.7013C92.0178 21.7011 92.0176 21.701 92.0174 21.7008L86.9193 18.4916L86.652 18.3234L86.3849 18.4919L81.2982 21.7008C81.298 21.701 81.2977 21.7011 81.2975 21.7013C81.1141 21.8158 80.9042 21.8707 80.6935 21.8613C80.4826 21.8518 80.2772 21.778 80.1031 21.6466C79.9287 21.515 79.7931 21.3309 79.7158 21.1155C79.6385 20.9 79.624 20.6649 79.6745 20.4402L79.6748 20.4389L81.0207 14.3773L81.0838 14.093L80.8681 13.8973L76.3675 9.8155L76.3675 9.81549L76.3651 9.8133C76.2008 9.6663 76.0798 9.47008 76.0199 9.24786L75.5359 9.37823L76.0199 9.24786C75.9601 9.02556 75.9648 8.78955 76.0334 8.57023C76.102 8.35102 76.2305 8.16052 76.4001 8.021C76.5694 7.88166 76.7724 7.79897 76.9832 7.78059L76.9845 7.78047L82.9169 7.2472L83.222 7.21977L83.3368 6.93572L85.6524 1.20334L85.6527 1.20257C85.7378 0.990918 85.8802 0.8131 86.059 0.68942C86.2376 0.565907 86.4454 0.501242 86.6563 0.501242C86.8672 0.501242 87.075 0.565907 87.2536 0.68942C87.4324 0.813099 87.5748 0.990917 87.6598 1.20257L87.6604 1.20382L89.983 6.9362L90.0979 7.2198L90.4027 7.2472L96.333 7.78047L96.3344 7.78059C96.5452 7.79897 96.7481 7.88166 96.9175 8.021C97.087 8.16052 97.2156 8.35102 97.2842 8.57023C97.3528 8.78955 97.3575 9.02556 97.2976 9.24786L97.7816 9.37823L97.2976 9.24786Z" fill="#FFFF00" stroke="black"/>
<path d="M122.457 9.24786C122.405 9.43868 122.309 9.61034 122.178 9.74811L122.104 9.81528L117.605 13.8909L117.389 14.0866L117.452 14.3711L118.8 20.439L118.8 20.4402C118.851 20.6649 118.836 20.9 118.759 21.1155C118.682 21.3309 118.546 21.515 118.372 21.6466C118.197 21.778 117.992 21.8518 117.781 21.8613C117.57 21.8707 117.36 21.8158 117.177 21.7013C117.177 21.7011 117.177 21.701 117.176 21.7008L112.078 18.4916L111.811 18.3234L111.544 18.4919L106.457 21.7008C106.457 21.701 106.457 21.7011 106.456 21.7013C106.273 21.8158 106.063 21.8707 105.853 21.8613C105.642 21.8518 105.436 21.778 105.262 21.6466C105.088 21.515 104.952 21.3309 104.875 21.1155C104.798 20.9 104.783 20.6649 104.834 20.4402L104.834 20.4389L106.18 14.3773L106.243 14.093L106.027 13.8973L101.526 9.8155L101.526 9.81549L101.524 9.8133C101.36 9.6663 101.239 9.47008 101.179 9.24786L100.695 9.37823L101.179 9.24786C101.119 9.02556 101.124 8.78955 101.192 8.57023C101.261 8.35102 101.39 8.16052 101.559 8.021C101.728 7.88166 101.931 7.79897 102.142 7.78059L102.144 7.78047L108.076 7.2472L108.381 7.21977L108.496 6.93572L110.811 1.20334L110.812 1.20257C110.897 0.990918 111.039 0.8131 111.218 0.68942C111.397 0.565907 111.604 0.501242 111.815 0.501242C112.026 0.501242 112.234 0.565907 112.413 0.68942C112.591 0.813099 112.734 0.990917 112.819 1.20257L112.819 1.20382L115.142 6.9362L115.257 7.2198L115.562 7.2472L121.492 7.78047L121.493 7.78059C121.704 7.79897 121.907 7.88166 122.076 8.021C122.246 8.16052 122.375 8.35102 122.443 8.57023C122.512 8.78955 122.517 9.02556 122.457 9.24786L122.941 9.37823L122.457 9.24786Z" fill="#FFFF00" stroke="black"/>
</svg>
