<svg width="25" height="25" viewBox="0 0 25 25" fill="none" xmlns="http://www.w3.org/2000/svg">
<path d="M11.5073 5.5H15.5073V6.83279H11.5073V5.5ZM18.1867 9.75761L19.1427 8.80199L18.2 7.85971L17.2447 8.81465C16.1979 7.9762 14.9001 7.51302 13.5588 7.49925C12.2175 7.48547 10.9104 7.92191 9.84667 8.73869L10.7933 9.6983C11.5843 9.13676 12.5299 8.8341 13.5 8.83198L13.5067 8.83265V13.4841L16.8087 16.7881C16.1568 17.4427 15.3252 17.8892 14.4192 18.071C13.5132 18.2528 12.5737 18.1617 11.7196 17.8092C10.8654 17.4567 10.1352 16.8587 9.6214 16.091C9.10759 15.3233 8.83332 14.4204 8.83333 13.4968H10.8333L8.16667 10.8312L5.5 13.4968H7.5C7.49909 14.4551 7.72796 15.3998 8.16744 16.2516C8.60692 17.1033 9.2442 17.8374 10.0259 18.3924C10.8076 18.9473 11.711 19.3069 12.6603 19.441C13.6096 19.5751 14.5773 19.4799 15.4823 19.1632C16.3872 18.8466 17.2031 18.3178 17.8615 17.6211C18.5199 16.9245 19.0017 16.0802 19.2665 15.1592C19.5314 14.2381 19.5716 13.2669 19.3837 12.3271C19.1958 11.3873 18.7853 10.5062 18.1867 9.75761Z" fill="black"/>
<path d="M21.9054 0.5H3.09459C1.66164 0.5 0.5 1.66164 0.5 3.09459V21.9054C0.5 23.3384 1.66164 24.5 3.09459 24.5H21.9054C23.3384 24.5 24.5 23.3384 24.5 21.9054V3.09459C24.5 1.66164 23.3384 0.5 21.9054 0.5Z" stroke="black" stroke-linecap="round" stroke-linejoin="round"/>
</svg>
