<svg width="27" height="27" viewBox="0 0 27 27" fill="none" xmlns="http://www.w3.org/2000/svg">
<path d="M13.8077 10.1154C16.1868 10.1154 18.1154 8.18677 18.1154 5.80769C18.1154 3.42862 16.1868 1.5 13.8077 1.5C11.4286 1.5 9.5 3.42862 9.5 5.80769C9.5 8.18677 11.4286 10.1154 13.8077 10.1154Z" fill="white" stroke="#022C49" stroke-width="3" stroke-linecap="round" stroke-linejoin="round"/>
<path d="M1.5 24.2692C1.5 18.8313 6.45932 14.4231 12.5769 14.4231" stroke="#022C49" stroke-width="3" stroke-linecap="round" stroke-linejoin="round"/>
<path d="M19.9613 25.5C23.0201 25.5 25.4998 23.0204 25.4998 19.9616C25.4998 16.9027 23.0201 14.4231 19.9613 14.4231C16.9025 14.4231 14.4229 16.9027 14.4229 19.9616C14.4229 23.0204 16.9025 25.5 19.9613 25.5Z" fill="white" stroke="#022C49" stroke-width="3"/>
<path d="M19.3457 18.1155V20.577H21.8072" stroke="#022C49" stroke-width="3" stroke-linecap="round" stroke-linejoin="round"/>
</svg>
