<svg width="167" height="42" viewBox="0 0 167 42" fill="none" xmlns="http://www.w3.org/2000/svg">
<rect width="167" height="42" rx="21" fill="white"/>
<line x1="47" y1="22" x2="112" y2="22" stroke="#0189CD" stroke-width="2"/>
<line x1="63" y1="21.55" x2="128" y2="21.55" stroke="#0189CD" stroke-width="0.9"/>
<circle cx="114.5" cy="21.5" r="3.5" fill="#0189CD"/>
<path d="M29.26 12.3001C29.4165 12.1881 29.5997 12.1192 29.7911 12.1001C29.9826 12.0811 30.1758 12.1126 30.3512 12.1915C30.5267 12.2705 30.6785 12.3941 30.7912 12.55C30.904 12.7059 30.9739 12.8887 30.994 13.0801L31 13.1941V28.8061C31.0001 28.9985 30.9496 29.1876 30.8538 29.3545C30.7579 29.5213 30.6199 29.6601 30.4536 29.7569C30.2874 29.8538 30.0986 29.9053 29.9061 29.9064C29.7137 29.9075 29.5244 29.8581 29.357 29.7631L29.261 29.7011L22.68 25.0001H20C19.4954 25.0002 19.0094 24.8097 18.6395 24.4666C18.2695 24.1235 18.0428 23.6532 18.005 23.1501L18 23.0001V19.0001C17.9998 18.4955 18.1904 18.0095 18.5335 17.6395C18.8766 17.2695 19.3468 17.0429 19.85 17.0051L20 17.0001H22.68L29.26 12.3001ZM35.667 15.7831C36.4017 16.439 36.9894 17.2429 37.3915 18.1421C37.7935 19.0412 38.0009 20.0152 38 21.0001C38.0009 21.985 37.7935 22.959 37.3915 23.8581C36.9894 24.7572 36.4017 25.5611 35.667 26.2171C35.5694 26.3061 35.4551 26.3749 35.3308 26.4195C35.2064 26.4641 35.0745 26.4837 34.9426 26.477C34.8106 26.4703 34.6813 26.4376 34.5621 26.3806C34.4429 26.3237 34.3362 26.2437 34.2481 26.1453C34.1599 26.0469 34.0922 25.932 34.0487 25.8072C34.0053 25.6825 33.987 25.5503 33.9949 25.4185C34.0028 25.2866 34.0367 25.1576 34.0948 25.0389C34.1528 24.9203 34.2338 24.8143 34.333 24.7271C34.8582 24.2587 35.2782 23.6844 35.5656 23.0421C35.8529 22.3997 36.0009 21.7038 36 21.0001C36 19.5201 35.358 18.1901 34.333 17.2731C34.2338 17.1859 34.1528 17.0799 34.0948 16.9612C34.0367 16.8425 34.0028 16.7135 33.9949 16.5817C33.987 16.4498 34.0053 16.3177 34.0487 16.1929C34.0922 16.0682 34.1599 15.9533 34.2481 15.8549C34.3362 15.7564 34.4429 15.6764 34.5621 15.6195C34.6813 15.5626 34.8106 15.5298 34.9426 15.5232C35.0745 15.5165 35.2064 15.536 35.3308 15.5806C35.4551 15.6252 35.5694 15.694 35.667 15.7831ZM33.667 18.0191C34.0866 18.3938 34.4223 18.853 34.652 19.3666C34.8818 19.8801 35.0003 20.4365 35 20.9991C35.0007 21.562 34.8823 22.1187 34.6525 22.6327C34.4228 23.1466 34.0869 23.6061 33.667 23.9811C33.4774 24.1495 33.2308 24.2396 32.9773 24.233C32.7237 24.2265 32.4821 24.1239 32.3014 23.946C32.1206 23.768 32.0143 23.5281 32.0038 23.2747C31.9933 23.0212 32.0796 22.7733 32.245 22.5811L32.333 22.4911C32.743 22.1231 33 21.5921 33 21.0001C33.0012 20.488 32.8049 19.9951 32.452 19.6241L32.333 19.5091C32.2338 19.4219 32.1528 19.3159 32.0948 19.1972C32.0367 19.0785 32.0028 18.9495 31.9949 18.8177C31.987 18.6858 32.0053 18.5537 32.0487 18.4289C32.0922 18.3042 32.1599 18.1893 32.2481 18.0909C32.3362 17.9924 32.4429 17.9124 32.5621 17.8555C32.6813 17.7986 32.8106 17.7658 32.9426 17.7592C33.0745 17.7525 33.2064 17.772 33.3308 17.8166C33.4551 17.8612 33.5694 17.93 33.667 18.0191Z" fill="#0189CD"/>
</svg>
