<svg width="24" height="24" viewBox="0 0 24 24" fill="none" xmlns="http://www.w3.org/2000/svg">
<path opacity="0.3" d="M17.4126 2.62988C15.5646 2.62988 13.7646 3.92471 13.1406 5.71653H10.8966C10.2606 3.92471 8.4606 2.62988 6.6126 2.62988C4.2126 2.62988 2.4126 4.59174 2.4126 7.20754C2.4126 10.9874 6.1806 14.7149 11.8926 20.352L12.0126 20.4827L12.1326 20.352C17.8446 14.7149 21.6126 10.9874 21.6126 7.20754C21.6126 4.59174 19.8126 2.62988 17.4126 2.62988Z" fill="#0189CD"/>
<path d="M17.4 0C15.312 0 13.308 1.0594 12 2.73352C10.692 1.0594 8.688 0 6.6 0C2.904 0 0 3.16512 0 7.19346C0 12.1373 4.08 16.1657 10.26 22.2866L12 24L13.74 22.2736C19.92 16.1657 24 12.1373 24 7.19346C24 3.16512 21.096 0 17.4 0ZM12.12 20.3379L12 20.4687L11.88 20.3379C6.168 14.7008 2.4 10.9733 2.4 7.19346C2.4 4.57766 4.2 2.6158 6.6 2.6158C8.448 2.6158 10.248 3.91063 10.884 5.70245H13.128C13.752 3.91063 15.552 2.6158 17.4 2.6158C19.8 2.6158 21.6 4.57766 21.6 7.19346C21.6 10.9733 17.832 14.7008 12.12 20.3379Z" fill="white"/>
</svg>
