<svg width="30" height="430" viewBox="0 0 30 430" fill="none" xmlns="http://www.w3.org/2000/svg">
<path d="M15.15 25.4223L15 25.5858L14.835 25.4223C7.71 18.376 3 13.7166 3 8.99183C3 5.72207 5.25 3.26975 8.25 3.26975C10.56 3.26975 12.81 4.90463 13.605 7.12807H16.395C17.19 4.90463 19.44 3.26975 21.75 3.26975C24.75 3.26975 27 5.72207 27 8.99183C27 13.7166 22.29 18.376 15.15 25.4223ZM21.75 0C19.14 0 16.635 1.32425 15 3.40054C13.365 1.32425 10.86 0 8.25 0C3.63 0 0 3.94005 0 8.99183C0 15.1553 5.1 20.2071 12.825 27.842L15 30L17.175 27.842C24.9 20.2071 30 15.1553 30 8.99183C30 3.94005 26.37 0 21.75 0Z" fill="black"/>
<path d="M15.15 225.422L15 225.586L14.835 225.422C7.71 218.376 3 213.717 3 208.992C3 205.722 5.25 203.27 8.25 203.27C10.56 203.27 12.81 204.905 13.605 207.128H16.395C17.19 204.905 19.44 203.27 21.75 203.27C24.75 203.27 27 205.722 27 208.992C27 213.717 22.29 218.376 15.15 225.422ZM21.75 200C19.14 200 16.635 201.324 15 203.401C13.365 201.324 10.86 200 8.25 200C3.63 200 0 203.94 0 208.992C0 215.155 5.1 220.207 12.825 227.842L15 230L17.175 227.842C24.9 220.207 30 215.155 30 208.992C30 203.94 26.37 200 21.75 200Z" fill="black"/>
<path d="M15.15 425.422L15 425.586L14.835 425.422C7.71 418.376 3 413.717 3 408.992C3 405.722 5.25 403.27 8.25 403.27C10.56 403.27 12.81 404.905 13.605 407.128H16.395C17.19 404.905 19.44 403.27 21.75 403.27C24.75 403.27 27 405.722 27 408.992C27 413.717 22.29 418.376 15.15 425.422ZM21.75 400C19.14 400 16.635 401.324 15 403.401C13.365 401.324 10.86 400 8.25 400C3.63 400 0 403.94 0 408.992C0 415.155 5.1 420.207 12.825 427.842L15 430L17.175 427.842C24.9 420.207 30 415.155 30 408.992C30 403.94 26.37 400 21.75 400Z" fill="black"/>
</svg>
