<svg width="24" height="24" viewBox="0 0 24 24" fill="none" xmlns="http://www.w3.org/2000/svg">
<path d="M24 5.62522C24 4.75599 23.3733 3.96378 22.4133 3.61169L13.08 0.189799C12.3867 -0.0632665 11.6 -0.0632665 10.92 0.189799L1.58667 3.61169C0.626667 3.96378 0 4.75599 0 5.62522V10.7966C0 16.9032 5.12 22.6136 12 24C15.0667 23.3838 17.7733 21.9095 19.84 19.9179L15.68 16.485C14.3982 17.1841 12.863 17.4959 11.3344 17.3676C9.80591 17.2393 8.37819 16.6787 7.29333 15.7809C6.04451 14.7488 5.34308 13.3499 5.34308 11.8913C5.34308 10.4328 6.04451 9.03393 7.29333 8.00183C8.54404 6.97128 10.2392 6.39245 12.0067 6.39245C13.7741 6.39245 15.4693 6.97128 16.72 8.00183C17.8053 8.89837 18.4828 10.0763 18.6382 11.337C18.7936 12.5977 18.4176 13.8641 17.5733 14.9226L21.44 18.1135C23.0533 15.9569 24 13.4152 24 10.7966V5.62522Z" fill="white"/>
<path d="M12 15C13.6569 15 15 13.6569 15 12C15 10.3431 13.6569 9 12 9C10.3431 9 9 10.3431 9 12C9 13.6569 10.3431 15 12 15Z" fill="white"/>
</svg>
