<svg width="23" height="28" viewBox="0 0 23 28" fill="none" xmlns="http://www.w3.org/2000/svg">
<path d="M11.2 0C5.01689 0 0 4.03187 0 8.99998C0 17 11.2 27.9999 11.2 27.9999C11.2 27.9999 22.4 17 22.4 8.99998C22.4 4.03187 17.3831 0 11.2 0ZM11.2 14C10.3139 14 9.44776 13.7654 8.71103 13.3259C7.9743 12.8863 7.40008 12.2616 7.061 11.5307C6.72192 10.7998 6.63321 9.99554 6.80607 9.21962C6.97893 8.4437 7.40561 7.73097 8.03214 7.17156C8.65868 6.61215 9.45694 6.23119 10.326 6.07685C11.195 5.92251 12.0958 6.00172 12.9144 6.30447C13.733 6.60722 14.4327 7.11991 14.925 7.7777C15.4172 8.4355 15.68 9.20886 15.68 9.99998C15.6787 11.0605 15.2063 12.0772 14.3664 12.8271C13.5265 13.577 12.3877 13.9988 11.2 14Z" fill="black" fill-opacity="0.5"/>
</svg>
