<svg width="25" height="25" viewBox="0 0 25 25" fill="none" xmlns="http://www.w3.org/2000/svg">
<path d="M6.50781 10.5605V15.6214M18.493 10.5605V15.6214" stroke="black" stroke-linecap="round" stroke-linejoin="round"/>
<path d="M12.5004 15.6217C15.81 15.6217 18.493 13.3559 18.493 10.5608C18.493 7.76582 15.81 5.5 12.5004 5.5C9.19079 5.5 6.50781 7.76582 6.50781 10.5608C6.50781 13.3559 9.19079 15.6217 12.5004 15.6217Z" stroke="black" stroke-linecap="round" stroke-linejoin="round"/>
<path d="M12.5004 13.8198C14.6315 13.8198 16.3591 12.3608 16.3591 10.561C16.3591 8.76125 14.6315 7.30225 12.5004 7.30225C10.3692 7.30225 8.6416 8.76125 8.6416 10.561C8.6416 12.3608 10.3692 13.8198 12.5004 13.8198Z" stroke="black" stroke-linecap="round" stroke-linejoin="round"/>
<path d="M12.5003 12.0175C13.453 12.0175 14.2252 11.3653 14.2252 10.5607C14.2252 9.7562 13.453 9.104 12.5003 9.104C11.5477 9.104 10.7754 9.7562 10.7754 10.5607C10.7754 11.3653 11.5477 12.0175 12.5003 12.0175Z" stroke="black" stroke-linecap="round" stroke-linejoin="round"/>
<path d="M5.5 15.6216H7.51482V18.6495C7.5147 18.8751 7.40852 19.0914 7.2196 19.2509C7.03069 19.4104 6.77452 19.5 6.50741 19.5C6.24023 19.5 5.98399 19.4103 5.79506 19.2508C5.60614 19.0912 5.5 18.8748 5.5 18.6492V15.6216ZM17.4856 15.6216H19.5V18.6495C19.4999 18.8751 19.3937 19.0914 19.2048 19.2509C19.0159 19.4104 18.7597 19.5 18.4926 19.5C18.2254 19.5 17.9692 19.4103 17.7802 19.2508C17.5913 19.0912 17.4852 18.8748 17.4852 18.6492L17.4856 15.6216Z" stroke="black" stroke-linecap="round" stroke-linejoin="round"/>
<path d="M21.9054 0.5H3.09459C1.66164 0.5 0.5 1.66164 0.5 3.09459V21.9054C0.5 23.3384 1.66164 24.5 3.09459 24.5H21.9054C23.3384 24.5 24.5 23.3384 24.5 21.9054V3.09459C24.5 1.66164 23.3384 0.5 21.9054 0.5Z" stroke="black" stroke-linecap="round" stroke-linejoin="round"/>
</svg>
