<svg width="400" height="400" viewBox="0 0 400 400" fill="none" xmlns="http://www.w3.org/2000/svg">
<rect width="400" height="400" rx="25" fill="white"/>
<rect x="0.5" y="0.5" width="399" height="399" rx="24.5" stroke="black" stroke-opacity="0.4"/>
<path d="M354.052 210.698H351.081V210.19C351.079 208.802 350.527 207.472 349.546 206.491C348.565 205.51 347.234 204.958 345.847 204.956H343.835C342.446 204.956 341.115 205.507 340.132 206.489C339.149 207.47 338.596 208.801 338.594 210.19V210.698H335.63C335.234 210.697 334.842 210.774 334.476 210.925C334.11 211.077 333.777 211.299 333.497 211.579C333.217 211.859 332.995 212.191 332.844 212.558C332.693 212.924 332.615 213.316 332.616 213.712V227.444C332.616 228.244 332.934 229.01 333.499 229.575C334.064 230.141 334.831 230.458 335.63 230.458H354.052C354.851 230.456 355.616 230.138 356.181 229.573C356.746 229.008 357.064 228.243 357.066 227.444V213.712C357.066 212.913 356.748 212.146 356.183 211.581C355.618 211.016 354.851 210.698 354.052 210.698ZM340.026 210.19C340.028 209.181 340.43 208.214 341.144 207.501C341.859 206.788 342.826 206.388 343.835 206.388H345.847C346.855 206.388 347.822 206.788 348.535 207.501C349.248 208.214 349.649 209.181 349.649 210.19V210.698H340.026V210.19Z" fill="#263238"/>
<path d="M350.329 219.175H346.535V215.387H343.141V219.175H339.347V222.576H343.141V226.363H346.535V222.576H350.329V219.175Z" fill="white"/>
<path d="M348.18 128.865C347.59 128.865 347.006 128.748 346.461 128.522C345.916 128.296 345.421 127.965 345.004 127.547C344.587 127.13 344.256 126.634 344.031 126.088C343.806 125.543 343.69 124.958 343.691 124.368V112.254C343.69 111.664 343.806 111.08 344.031 110.534C344.256 109.989 344.587 109.493 345.004 109.076C345.421 108.658 345.916 108.327 346.461 108.101C347.006 107.875 347.59 107.758 348.18 107.758C348.771 107.758 349.355 107.875 349.9 108.101C350.445 108.327 350.94 108.658 351.357 109.076C351.774 109.493 352.105 109.989 352.33 110.534C352.555 111.08 352.67 111.664 352.669 112.254V124.347C352.673 124.939 352.56 125.526 352.336 126.074C352.112 126.622 351.782 127.12 351.365 127.54C350.948 127.96 350.451 128.293 349.905 128.52C349.358 128.748 348.772 128.865 348.18 128.865Z" fill="white" stroke="#263238" stroke-linecap="round" stroke-linejoin="round"/>
<path d="M348.18 128.865C347.59 128.865 347.006 128.748 346.461 128.522C345.916 128.296 345.421 127.965 345.004 127.547C344.587 127.13 344.256 126.634 344.031 126.088C343.806 125.543 343.69 124.959 343.691 124.368V118.319H352.669V124.368C352.67 124.959 352.555 125.543 352.33 126.088C352.105 126.634 351.774 127.13 351.357 127.547C350.94 127.965 350.445 128.296 349.9 128.522C349.355 128.748 348.771 128.865 348.18 128.865Z" fill="#263238" stroke="#263238" stroke-linecap="round" stroke-linejoin="round"/>
<path d="M325.6 111.023C325.23 110.562 324.956 110.033 324.792 109.465C324.628 108.898 324.578 108.304 324.645 107.717C324.711 107.13 324.893 106.562 325.18 106.046C325.467 105.53 325.852 105.075 326.315 104.709L335.745 97.1338C336.678 96.3916 337.868 96.0502 339.054 96.1844C340.239 96.3186 341.322 96.9176 342.066 97.8498C342.808 98.7824 343.15 99.9713 343.015 101.155C342.881 102.339 342.282 103.422 341.35 104.164L331.914 111.732C331.453 112.101 330.924 112.375 330.357 112.539C329.79 112.703 329.196 112.753 328.61 112.687C328.023 112.621 327.456 112.441 326.939 112.155C326.422 111.87 325.967 111.485 325.6 111.023Z" fill="white" stroke="#263238" stroke-linecap="round" stroke-linejoin="round"/>
<path d="M325.6 111.023C325.23 110.562 324.956 110.033 324.792 109.465C324.628 108.898 324.578 108.304 324.645 107.717C324.711 107.13 324.893 106.562 325.18 106.046C325.467 105.53 325.852 105.075 326.315 104.709L331.034 100.921L336.654 107.93L331.936 111.711C331.475 112.084 330.946 112.362 330.378 112.53C329.809 112.697 329.213 112.75 328.624 112.686C328.035 112.623 327.465 112.443 326.946 112.157C326.427 111.872 325.969 111.486 325.6 111.023Z" fill="#263238" stroke="#263238" stroke-linecap="round" stroke-linejoin="round"/>
<path d="M280.703 78.0607C280.143 78.061 279.597 78.2362 279.142 78.5619L268.71 70.4645C269.222 69.5183 269.461 68.4492 269.403 67.3753C269.345 66.3014 268.991 65.2644 268.381 64.3789L274.753 56.2314C275.292 56.4393 275.884 56.4692 276.441 56.3165C276.999 56.1639 277.493 55.8368 277.851 55.3832C278.209 54.9296 278.412 54.3732 278.431 53.7956C278.451 53.2179 278.284 52.6494 277.957 52.1731C277.629 51.6968 277.158 51.3379 276.612 51.1489C276.066 50.9598 275.473 50.9506 274.922 51.1225C274.37 51.2944 273.888 51.6385 273.545 52.1043C273.203 52.5702 273.019 53.1333 273.02 53.7112C273.017 54.2682 273.19 54.812 273.514 55.2648L267.314 63.2047C266.483 62.5046 265.473 62.05 264.397 61.8919C263.322 61.7339 262.224 61.8785 261.226 62.3098C260.228 62.741 259.37 63.4417 258.749 64.3332C258.127 65.2248 257.766 66.272 257.706 67.3573H250.461C250.382 66.7141 250.074 66.1207 249.595 65.6849C249.115 65.2491 248.495 64.9999 247.847 64.9824C247.2 64.965 246.567 65.1806 246.065 65.5899C245.563 65.9993 245.224 66.5753 245.11 67.2133C244.997 67.8512 245.116 68.5088 245.446 69.0664C245.776 69.624 246.295 70.0446 246.909 70.2519C247.523 70.4591 248.191 70.4392 248.791 70.1958C249.392 69.9523 249.885 69.5015 250.181 68.9252H257.842C258.066 69.9662 258.57 70.9264 259.299 71.7025C260.028 72.4786 260.955 73.0412 261.98 73.3298C263.005 73.6185 264.089 73.6222 265.116 73.3406C266.143 73.059 267.074 72.5028 267.808 71.7317L278.182 79.8005C277.978 80.3387 277.951 80.9282 278.105 81.483C278.259 82.0377 278.587 82.5286 279.04 82.8839C279.493 83.2392 280.048 83.4403 280.623 83.4578C281.199 83.4753 281.765 83.3082 282.239 82.9811C282.713 82.654 283.069 82.1839 283.257 81.6396C283.445 81.0952 283.453 80.5051 283.282 79.9555C283.11 79.4059 282.767 78.9255 282.303 78.5846C281.839 78.2437 281.278 78.0602 280.703 78.0607Z" fill="#263238"/>
<path d="M68.8022 128.95C67.935 128.949 67.1039 128.603 66.4907 127.99C65.8775 127.377 65.5322 126.546 65.5303 125.679V98.4724H72.0741V125.679C72.0741 126.546 71.7294 127.379 71.1158 127.992C70.5022 128.606 69.6699 128.95 68.8022 128.95Z" fill="white" stroke="#263238" stroke-linecap="round" stroke-linejoin="round"/>
<path d="M68.8022 128.95C67.935 128.949 67.1039 128.603 66.4907 127.99C65.8775 127.377 65.5322 126.546 65.5303 125.679V108.947H72.0741V125.679C72.0741 126.546 71.7294 127.379 71.1158 127.992C70.5022 128.606 69.6699 128.95 68.8022 128.95Z" fill="#263238" stroke="#263238" stroke-linecap="round" stroke-linejoin="round"/>
<path d="M73.012 96.8831H64.5996V99.2672H73.012V96.8831Z" fill="white" stroke="#263238" stroke-linecap="round" stroke-linejoin="round"/>
<path d="M58.8862 128.95C58.019 128.949 57.1879 128.603 56.5747 127.99C55.9615 127.377 55.6161 126.546 55.6143 125.679V98.4724H62.1581V125.679C62.1581 126.546 61.8133 127.379 61.1997 127.992C60.5861 128.606 59.7539 128.95 58.8862 128.95Z" fill="white" stroke="#263238" stroke-linecap="round" stroke-linejoin="round"/>
<path d="M58.8862 128.95C58.019 128.949 57.1879 128.603 56.5747 127.99C55.9615 127.377 55.6161 126.546 55.6143 125.679V108.947H62.1581V125.679C62.1581 126.546 61.8133 127.379 61.1997 127.992C60.5861 128.606 59.7539 128.95 58.8862 128.95Z" fill="#263238" stroke="#263238" stroke-linecap="round" stroke-linejoin="round"/>
<path d="M63.096 96.8831H54.6836V99.2672H63.096V96.8831Z" fill="white" stroke="#263238" stroke-linecap="round" stroke-linejoin="round"/>
<path d="M153.285 70.0637L155.891 63.8063C155.935 63.7055 156.009 63.6202 156.102 63.5615C156.195 63.5028 156.303 63.4734 156.414 63.4769C156.524 63.4824 156.63 63.5218 156.717 63.5897C156.804 63.6576 156.868 63.7508 156.9 63.8564L160.058 74.2663L162.463 66.5985C162.496 66.4906 162.563 66.3959 162.653 66.3278C162.743 66.2596 162.852 66.2216 162.964 66.219C163.076 66.2221 163.184 66.2576 163.276 66.3211C163.367 66.3847 163.438 66.4737 163.48 66.577L164.819 70.4288H172.057C173.538 68.8807 174.4 66.8425 174.477 64.7012C174.491 62.7012 173.765 60.7665 172.439 59.2689C171.114 57.7712 169.281 56.8161 167.294 56.5871C165.307 56.358 163.306 56.8711 161.674 58.0278C160.043 59.1846 158.896 60.9033 158.454 62.8541C157.999 60.917 156.848 59.2147 155.22 58.0709C153.592 56.9271 151.6 56.4216 149.624 56.6505C147.647 56.8795 145.824 57.8269 144.5 59.3126C143.177 60.7983 142.445 62.7186 142.445 64.7084C142.525 66.6914 143.269 68.5901 144.557 70.0995L153.285 70.0637Z" fill="#263238"/>
<path d="M164.44 71.5028C164.328 71.5032 164.219 71.469 164.128 71.4049C164.037 71.3407 163.968 71.2498 163.931 71.1448L163 68.4672L160.559 76.2496C160.524 76.3592 160.456 76.4549 160.363 76.5231C160.27 76.5913 160.159 76.6283 160.044 76.629C159.928 76.6286 159.816 76.5907 159.725 76.5209C159.633 76.4511 159.566 76.3534 159.535 76.2424L156.306 65.5962L154.158 70.8083C154.118 70.9057 154.049 70.9889 153.961 71.0475C153.873 71.1061 153.77 71.1374 153.664 71.1377H145.424C147.192 73.1137 149.397 74.8606 151.044 76.4858C153.536 78.9487 155.977 81.4975 158.519 83.8744C161.776 80.6598 165.055 77.4309 168.284 74.2163C169.179 73.3213 170.153 72.4335 171.055 71.5028H164.44Z" fill="#263238"/>
<path d="M43.6642 231.527L47.1748 232.745L50.9734 221.794L47.4628 220.576L43.6642 231.527Z" fill="white" stroke="#263238" stroke-miterlimit="10"/>
<path d="M41.9999 233.266L47.418 235.146L48.1336 233.082L42.7155 231.203L41.9999 233.266Z" fill="white" stroke="#263238" stroke-miterlimit="10"/>
<path d="M43.5921 223.395L52.2705 226.405L59.1521 206.566L50.4737 203.555L43.5921 223.395Z" fill="white" stroke="#263238" stroke-miterlimit="10"/>
<path d="M47.8121 214.907L54.2178 217.129L58.0164 206.178L51.6107 203.956L47.8121 214.907Z" fill="#263238" stroke="#263238" stroke-miterlimit="10"/>
<path d="M46.6789 222.846L50.1895 224.064L53.9881 213.113L50.4775 211.895L46.6789 222.846Z" fill="#263238" stroke="#263238" stroke-miterlimit="10"/>
<path d="M42.9793 223.186L52.8955 226.626L53.7566 224.144L43.8403 220.704L42.9793 223.186Z" fill="white" stroke="#263238" stroke-miterlimit="10"/>
<path d="M52.589 203.142L57.7568 204.934L58.9042 201.627L53.7363 199.834L52.589 203.142Z" fill="white" stroke="#263238" stroke-miterlimit="10"/>
<path d="M49.6443 203.966L59.5605 207.405L60.4216 204.923L50.5054 201.483L49.6443 203.966Z" fill="white" stroke="#263238" stroke-miterlimit="10"/>
<path d="M56.374 200.281L60.5265 188.296" stroke="#263238" stroke-miterlimit="10"/>
<path d="M287.254 349.234C307.946 349.234 324.72 345.452 324.72 340.786C324.72 336.12 307.946 332.338 287.254 332.338C266.562 332.338 249.788 336.12 249.788 340.786C249.788 345.452 266.562 349.234 287.254 349.234Z" fill="#263238" stroke="#263238" stroke-linecap="round" stroke-linejoin="round"/>
<path d="M258.365 149.828C258.365 149.828 253.296 152.928 253.353 154.288C253.411 155.648 251.463 180.456 251.241 183.556C251.019 186.656 248.07 193.057 247.84 195.964C247.611 198.87 248.342 201.784 249.194 203.123C250.046 204.462 253.174 208.743 253.174 208.743L261.587 195.749C261.793 192.911 261.836 190.064 261.716 187.222C261.587 181.029 258.365 149.828 258.365 149.828Z" fill="white" stroke="#263238" stroke-linecap="round" stroke-linejoin="round"/>
<path d="M290.733 88.3559C290.733 88.3559 281.784 87.7831 276.686 93.9904C271.589 100.198 272.684 109.691 272.649 112.605C272.613 115.519 263.957 124.06 264.916 127.54C265.876 131.019 268.424 131.413 267.608 134.32C266.792 137.227 261.465 138.974 262.239 142.661C263.012 146.348 265.818 151.574 265.818 151.574L317.367 151.925C317.367 151.925 319.207 146.498 317.245 142.425C315.283 138.351 312.498 137.005 312.949 135.065C313.401 133.124 315.892 128.471 314.933 124.984C313.973 121.497 310.637 120.531 310.286 114.323C309.935 108.116 309.019 97.8566 304.093 92.8449C299.167 87.8333 290.733 88.3559 290.733 88.3559Z" fill="#263238" stroke="#263238" stroke-linecap="round" stroke-linejoin="round"/>
<path d="M274.882 327.563C273.299 330.613 271.377 333.476 269.154 336.097C265.861 339.784 262.668 341.724 262.775 343.664C262.882 345.605 270.071 345.984 273.872 344.624C277.674 343.263 280.438 340.55 281.204 340.328C281.97 340.106 284.11 340.328 284.161 337.607C284.211 334.887 283.795 327.14 283.795 327.14L274.882 327.563Z" fill="white" stroke="#263238" stroke-linecap="round" stroke-linejoin="round"/>
<path d="M273.858 344.624C277.667 343.263 280.424 340.55 281.19 340.328C281.956 340.106 284.096 340.328 284.147 337.607C284.147 336.175 284.068 333.312 283.968 330.97C283.404 332.027 282.57 332.915 281.552 333.544C280.533 334.173 279.365 334.52 278.168 334.55C278.168 334.55 278.097 333.19 276.021 330.87C274.682 329.352 273.329 330.548 272.541 331.586L271.904 332.545L271.854 332.639C271.027 333.858 270.123 335.022 269.147 336.125C265.854 339.812 262.661 341.753 262.768 343.693C262.876 345.633 270.057 345.984 273.858 344.624Z" fill="white" stroke="#263238" stroke-linecap="round" stroke-linejoin="round"/>
<path d="M301.408 327.548C303.332 330.609 305.563 333.467 308.067 336.075C311.754 339.755 315.155 341.688 315.226 343.628C315.298 345.569 308.181 345.955 304.229 344.602C300.277 343.249 297.227 340.536 296.447 340.342C295.666 340.149 293.533 340.342 293.196 337.636C292.86 334.93 292.438 327.169 292.438 327.169L301.408 327.548Z" fill="white" stroke="#263238" stroke-linecap="round" stroke-linejoin="round"/>
<path d="M304.257 344.602C300.312 343.249 297.255 340.536 296.475 340.342C295.694 340.149 293.561 340.342 293.224 337.636C293.045 336.204 292.845 333.34 292.694 330.992C293.356 332.042 294.266 332.913 295.343 333.53C296.42 334.146 297.632 334.489 298.873 334.529C298.873 334.529 298.801 333.168 300.613 330.842C301.794 329.331 303.276 330.519 304.193 331.558C304.429 331.873 304.672 332.188 304.908 332.517L304.973 332.61C305.935 333.827 306.963 334.991 308.052 336.097C311.739 339.777 315.139 341.71 315.211 343.65C315.283 345.59 308.209 345.955 304.257 344.602Z" fill="white" stroke="#263238" stroke-linecap="round" stroke-linejoin="round"/>
<path d="M259.31 225.232C259.31 225.232 260.505 265.547 262.095 273.494C263.684 281.441 270.779 326.99 270.779 326.99C272.948 327.907 275.283 328.366 277.638 328.336H285.392L286.108 294.414L286.373 245.178L290.26 328.522C290.26 328.522 300.942 328.901 302.095 328.708C303.248 328.515 304.207 328.321 304.207 328.321L311.073 275.592L315.003 240.51L315.218 226.556C315.218 226.556 282.399 225.418 272.863 224.645C263.326 223.871 259.403 223.678 259.403 223.678L259.31 225.232Z" fill="#0574B2" stroke="#263238" stroke-linecap="round" stroke-linejoin="round"/>
<path d="M303.628 296.412C303.542 297.085 303.456 297.707 303.355 298.28" stroke="#263238" stroke-linecap="round" stroke-linejoin="round"/>
<path d="M304.508 247.877C304.508 247.877 305.174 276.601 304.007 292.195" stroke="#263238" stroke-linecap="round" stroke-linejoin="round"/>
<path d="M269.319 245.572C269.319 245.572 270.143 264.573 270.959 268.833" stroke="#263238" stroke-linecap="round" stroke-linejoin="round"/>
<path d="M299.911 233.465V247.97C301.77 248.47 303.67 248.799 305.589 248.951C308.531 249.144 314.023 248.951 314.023 248.951L314.416 243.46L299.911 233.465Z" fill="#263238" stroke="#263238" stroke-linecap="round" stroke-linejoin="round"/>
<path d="M259.919 244.634C259.919 244.634 267.372 246.989 270.508 247.183C273.644 247.376 276.579 247.77 276.579 247.77L276.193 243.854L259.525 242.286L259.919 244.634Z" fill="#263238" stroke="#263238" stroke-linecap="round" stroke-linejoin="round"/>
<path d="M282.543 134.499L276.693 141.093L260.47 152.928L263.928 224.659C263.928 224.659 276.858 228.138 287.955 229.105C299.052 230.071 313.321 227.53 313.321 227.53L311.224 152.355C311.224 152.355 304.909 143.047 301.673 140.534C298.437 138.022 296.955 135.695 292.666 135.308C288.378 134.921 282.543 134.499 282.543 134.499Z" fill="#0574B2" stroke="#263238" stroke-linecap="round" stroke-linejoin="round"/>
<path d="M275.756 138.029L258.365 149.863L261.093 193.472L260.169 197.854L252.859 206.273L255.974 221.065L254.585 241.935C254.585 241.935 261.494 244.262 266.176 244.834C269.662 245.208 273.166 245.402 276.672 245.414L277.273 216.919C277.273 216.919 279.586 169.616 279.858 167.519C280.13 165.421 282.543 134.585 282.543 134.585L275.756 138.029Z" fill="white" stroke="#263238" stroke-linecap="round" stroke-linejoin="round"/>
<path d="M276.035 139.812L267.615 160.925L276.701 164.698L268.124 166.259L275.72 196.021" stroke="#263238" stroke-linecap="round" stroke-linejoin="round"/>
<path d="M281.082 128.879C281.082 128.879 284.103 149.033 286.48 153.687C288.857 158.34 289.53 159.887 289.53 159.887C289.53 159.887 294.699 144.179 295.738 141.852C296.776 139.525 297.885 131.191 297.885 131.191C297.885 131.191 287.583 134.492 281.082 128.879Z" fill="white" stroke="#263238" stroke-linecap="round" stroke-linejoin="round"/>
<path d="M281.082 128.879C281.082 128.879 281.354 130.712 281.798 133.397C283.309 134.549 287.311 137.399 290.268 137.549C292.523 137.664 295.387 136.203 297.291 135.036C297.635 132.924 297.871 131.191 297.871 131.191C297.871 131.191 287.583 134.492 281.082 128.879Z" fill="#263238" stroke="#263238" stroke-linecap="round" stroke-linejoin="round"/>
<path d="M276.98 114.946C276.98 114.946 274.918 112.011 273.529 114.946C272.14 117.882 275.677 122.228 276.665 122.822C279.471 124.49 278.727 121.39 278.727 121.39L276.98 114.946Z" fill="white" stroke="#263238" stroke-linecap="round" stroke-linejoin="round"/>
<path d="M302.59 116.214C302.59 116.214 304.33 113.178 306.034 116.042C307.738 118.906 304.666 123.409 303.75 124.046C301.129 125.857 301.545 122.75 301.545 122.75L302.59 116.214Z" fill="white" stroke="#263238" stroke-linecap="round" stroke-linejoin="round"/>
<path d="M276.492 112.355C276.492 112.355 283.967 110.608 287.733 108.381C290.039 106.988 292.051 105.156 293.654 102.99C293.654 102.99 296.89 109.104 299.739 111.581C302.589 114.059 303.183 114.202 303.183 114.202C303.183 114.202 301.815 124.905 300.269 128.628C298.722 132.351 293.675 135.974 288.964 134.929C286.286 134.342 281.647 132.408 280.301 129.151C278.955 125.893 276.492 112.355 276.492 112.355Z" fill="white" stroke="#263238" stroke-linecap="round" stroke-linejoin="round"/>
<path d="M295.566 120.581C293.246 120.638 285.478 120.652 281.469 118.233C279.861 117.297 278.357 116.196 276.979 114.946C277.123 115.662 277.295 116.557 277.481 117.488L278.354 118.125L280.545 126.402L279.521 126.623C279.737 127.47 279.998 128.304 280.302 129.122C281.648 132.38 286.287 134.313 288.965 134.9C293.668 135.938 298.701 132.337 300.262 128.621C299.894 127.899 299.785 127.072 299.954 126.28C300.405 123.939 300.964 119.836 300.964 119.836L302.56 118.404C302.646 117.882 302.718 117.381 302.79 116.922C300.856 118.261 297.234 120.538 295.566 120.581Z" fill="#0574B2" stroke="#263238" stroke-linecap="round" stroke-linejoin="round"/>
<path d="M287.038 117.123C287.038 117.123 284.54 114.087 281.261 114.367" stroke="#263238" stroke-linecap="round" stroke-linejoin="round"/>
<path d="M293.476 117.724C294.273 116.886 295.263 116.256 296.36 115.889C297.457 115.522 298.628 115.429 299.769 115.619" stroke="#263238" stroke-linecap="round" stroke-linejoin="round"/>
<path d="M279.822 112.848C279.822 112.848 283.402 111.417 286.574 112.09" stroke="#263238" stroke-linecap="round" stroke-linejoin="round"/>
<path d="M293.769 112.87C294.712 112.388 295.78 112.208 296.829 112.354C297.878 112.5 298.857 112.965 299.632 113.686" stroke="#263238" stroke-linecap="round" stroke-linejoin="round"/>
<path d="M284.634 116.128C284.65 116.238 284.644 116.35 284.617 116.458C284.59 116.566 284.541 116.667 284.475 116.756C284.408 116.845 284.325 116.92 284.229 116.977C284.134 117.034 284.028 117.071 283.918 117.087C283.694 117.062 283.488 116.952 283.341 116.781C283.195 116.609 283.12 116.389 283.13 116.163C283.113 116.053 283.118 115.941 283.145 115.833C283.172 115.724 283.22 115.623 283.286 115.533C283.353 115.444 283.437 115.369 283.533 115.312C283.629 115.256 283.736 115.219 283.846 115.204C284.069 115.231 284.274 115.341 284.42 115.512C284.566 115.683 284.642 115.903 284.634 116.128Z" fill="#263238"/>
<path d="M297.599 117.059C297.618 117.169 297.615 117.282 297.589 117.391C297.563 117.5 297.515 117.603 297.448 117.692C297.381 117.782 297.296 117.857 297.199 117.913C297.102 117.969 296.994 118.005 296.883 118.018C296.659 117.994 296.453 117.886 296.307 117.716C296.161 117.546 296.085 117.326 296.095 117.101C296.076 116.991 296.079 116.878 296.105 116.769C296.131 116.66 296.179 116.557 296.247 116.467C296.314 116.378 296.398 116.302 296.495 116.247C296.592 116.191 296.7 116.155 296.811 116.142C297.035 116.166 297.241 116.274 297.387 116.444C297.533 116.614 297.609 116.834 297.599 117.059Z" fill="#263238"/>
<path d="M316.88 145.718C316.88 145.718 321.054 147.651 322.607 150.73C324.161 153.808 336.583 187.164 336.526 189.685C336.468 192.205 332.359 195.112 328.507 195.505C324.655 195.899 319.042 188.919 318.204 187.759C317.367 186.599 317.216 173.024 317.216 173.024L316.88 145.718Z" fill="white" stroke="#263238" stroke-linecap="round" stroke-linejoin="round"/>
<path d="M297.205 136.812L299.238 203.495L299.954 245.557C303.853 246.516 307.847 247.032 311.861 247.097C315.209 247.167 318.537 246.573 321.655 245.35C321.655 245.35 320.438 219.182 320.223 214.915C320.008 210.648 318.591 202.507 318.591 202.507L316.901 145.718C316.901 145.718 301.171 138.358 297.205 136.812Z" fill="white" stroke="#263238" stroke-linecap="round" stroke-linejoin="round"/>
<path d="M301.673 140.491L308.882 164.01L302.31 165.793L308.703 168.893L300.728 194.231" fill="white"/>
<path d="M301.673 140.491L308.882 164.01L302.31 165.793L308.703 168.893L300.728 194.231" stroke="#263238" stroke-linecap="round" stroke-linejoin="round"/>
<path d="M306.699 162.006L297.757 204.848C297.757 204.848 303.871 206.781 308.339 206.996C312.806 207.211 322.114 207.182 322.114 207.182L331.421 167.247C331.421 167.247 313.1 165.493 306.699 162.006Z" fill="#263238" stroke="#263238" stroke-linecap="round" stroke-linejoin="round"/>
<path d="M309.812 201.934L310.106 188.546L317.201 190.042C317.201 190.042 312.512 200.374 309.812 201.934Z" fill="white" stroke="#263238" stroke-linecap="round" stroke-linejoin="round"/>
<path d="M315.248 183.706C315.248 183.706 313.358 181 312.749 180.413C312.141 179.826 309.134 178.093 308.554 178.093C307.974 178.093 304.859 177.9 304.258 177.9C303.657 177.9 302.976 179.26 303.592 179.84C304.208 180.42 306.349 180.613 306.349 180.613L307.816 182.761L301.194 182.181C301.194 182.181 300.091 183.348 300.342 184.329C300.529 184.994 300.769 185.642 301.058 186.269C301.033 187.693 301.107 189.116 301.28 190.529C301.537 191.696 302.712 192.083 304.322 193.049C305.933 194.016 311.324 193.436 311.324 193.436H313.816L315.248 183.706Z" fill="white" stroke="#263238" stroke-linecap="round" stroke-linejoin="round"/>
<path d="M331.391 185.052L314.208 182.74C314.208 182.74 312.87 193.794 311.516 197.474C310.163 201.154 309.812 201.934 309.812 201.934C309.812 201.934 327.819 201.533 332.064 201.147C336.31 200.76 338.694 198.233 338.508 194.746C338.322 191.26 336.195 187.766 336.195 187.766" fill="white"/>
<path d="M331.391 185.052L314.208 182.74C314.208 182.74 312.87 193.794 311.516 197.474C310.163 201.154 309.812 201.934 309.812 201.934C309.812 201.934 327.819 201.533 332.064 201.147C336.31 200.76 338.694 198.233 338.508 194.746C338.322 191.26 336.195 187.766 336.195 187.766" stroke="#263238" stroke-linecap="round" stroke-linejoin="round"/>
<path d="M259.739 197.123C259.739 197.123 263.748 199.636 264.751 200.417C265.753 201.197 265.839 206.23 266.476 207.197C267.113 208.163 266.362 208.75 265.202 208.75C264.042 208.75 262.288 205.07 262.288 205.07L262.216 203.71L254.026 206.431L251.878 202.751C251.878 202.751 254.312 197.123 259.739 197.123Z" fill="white" stroke="#263238" stroke-linecap="round" stroke-linejoin="round"/>
<path d="M200.071 349.235C220.763 349.235 237.537 345.452 237.537 340.787C237.537 336.121 220.763 332.338 200.071 332.338C179.379 332.338 162.605 336.121 162.605 340.787C162.605 345.452 179.379 349.235 200.071 349.235Z" fill="#263238" stroke="#263238" stroke-linecap="round" stroke-linejoin="round"/>
<path d="M229.333 140.027C229.333 140.027 234.245 164.677 235.118 169.237C235.992 173.798 237.595 184.638 239.414 189.391C241.232 194.145 240.638 200.231 239.729 201.942C238.817 203.429 237.77 204.829 236.6 206.123L230.5 198.169C230.5 198.169 226.87 159.193 226.734 153.673C226.598 148.153 229.333 140.027 229.333 140.027Z" fill="white" stroke="#263238" stroke-linecap="round" stroke-linejoin="round"/>
<path d="M232.568 197.195C232.568 197.195 236.434 199.608 237.114 200.632C237.795 201.656 238.281 202.959 237.752 204.068C237.222 205.178 234.337 208.529 233.606 209.18C232.876 209.832 232.26 207.233 232.174 204.999C232.088 202.765 232.568 197.195 232.568 197.195Z" fill="white" stroke="#263238" stroke-linecap="round" stroke-linejoin="round"/>
<path d="M211.778 332.367C211.778 332.367 223.899 338.259 224.665 339.405C225.431 340.55 222.667 342.075 215.443 342.075C208.219 342.075 208.004 341.123 205.134 340.364C202.263 339.605 196.542 340.171 195.769 338.46C194.996 336.749 196.342 330.856 196.342 330.856L211.778 332.367Z" fill="white" stroke="#263238" stroke-linecap="round" stroke-linejoin="round"/>
<path d="M195.682 335.41C195.682 335.41 205.706 341.496 204.825 343.586C203.944 345.677 196.699 345.677 192.883 345.104C189.067 344.531 180.955 339.376 180.526 337.501C180.096 335.625 181.17 332.747 187.048 332.181C192.926 331.615 195.682 335.41 195.682 335.41Z" fill="white" stroke="#263238" stroke-linecap="round" stroke-linejoin="round"/>
<path d="M226.111 235.971C226.111 235.971 220.383 280.081 219.388 286.546C218.393 293.011 215.236 303.278 213.532 311.075C212.566 315.66 211.849 320.294 211.384 324.957C211.21 326.283 211.241 327.628 211.477 328.945C211.72 330.849 211.756 332.367 211.756 332.367C209.207 333.007 206.612 333.452 203.995 333.699C200.766 333.892 196.392 333.892 196.392 333.892L194.96 321.535C194.96 321.535 196.027 303.278 196.657 297.958C197.287 292.639 197.96 250.806 197.931 249.66C197.903 248.515 197.652 238.441 197.652 238.441L217.162 236.351C217.162 236.351 219.825 228.747 223.827 229.127C227.829 229.506 226.111 235.971 226.111 235.971Z" fill="white" stroke="#263238" stroke-linecap="round" stroke-linejoin="round"/>
<path d="M223.856 229.127C219.854 228.747 217.19 236.351 217.19 236.351L197.659 238.441C197.659 238.441 197.724 241.119 197.788 243.868C199.871 244.054 201.797 244.162 203.444 244.162C209.702 244.152 215.954 243.8 222.173 243.109L223.011 234.346L224.321 243.274L225.223 242.98C225.782 238.728 226.14 235.957 226.14 235.957C226.14 235.957 227.858 229.506 223.856 229.127Z" fill="#263238" stroke="#263238" stroke-linecap="round" stroke-linejoin="round"/>
<path d="M177.283 237.303C177.283 237.303 177.283 237.575 177.326 238.069C177.591 243.267 179.166 273.387 179.646 278.943C180.183 285.028 177.498 291.68 177.634 297.192C177.77 302.705 179.066 332.56 179.066 332.56L180.498 337.5C180.498 337.5 183.863 335.224 187.092 335.224C190.321 335.224 195.683 335.41 195.683 335.41C195.683 335.41 195.962 331.415 195.934 330.09C195.905 328.766 195.783 324.005 195.783 324.005C195.783 324.005 201.246 299.097 201.575 297.006C201.905 294.916 206.143 258.789 206.115 257.629C206.086 256.469 207.01 240.324 207.01 240.324L177.283 237.303Z" fill="white" stroke="#263238" stroke-linecap="round" stroke-linejoin="round"/>
<path d="M206.809 244.126C206.931 241.921 207.017 240.346 207.017 240.346L177.283 237.303C177.283 237.303 177.283 237.575 177.326 238.069C177.326 238.699 177.405 239.694 177.477 240.933C184.428 242.179 196.492 244.14 203.444 244.14C204.59 244.162 205.706 244.147 206.809 244.126Z" fill="#263238" stroke="#263238" stroke-linecap="round" stroke-linejoin="round"/>
<path d="M199.191 120.56C199.191 120.56 196.048 121.09 194.853 122.493C193.654 123.858 192.576 125.324 191.631 126.874C191.466 127.404 172.98 138.623 172.98 138.623L174.312 192.119C174.312 192.119 174.863 200.36 173.882 203.166C172.225 208.684 171.421 214.423 171.498 220.184C171.67 227.022 172.114 238.083 172.114 238.083C172.114 238.083 193.27 242.293 203.444 242.293C209.702 242.278 215.954 241.922 222.173 241.226L223.011 232.456L224.285 241.405L228.631 239.973L232.211 213.483C232.211 213.483 234.702 207.87 234.674 206.639C234.645 205.407 235.304 203.832 234.581 202.78C233.858 201.727 232.569 199.622 232.569 199.622C232.569 199.622 229.333 141.609 229.333 140.026C229.333 138.444 219.76 129.158 219.052 128.808C218.343 128.457 213.976 121.963 208.312 120.216C202.649 118.469 199.191 120.56 199.191 120.56Z" fill="white" stroke="#263238" stroke-linecap="round" stroke-linejoin="round"/>
<path d="M193.428 128.629L191.309 147.895L200.015 151.94L197.838 158.477L219.61 196.737" stroke="#263238" stroke-linecap="round" stroke-linejoin="round"/>
<path d="M217.749 130.791L224.278 146.033L221.479 149.763L226.147 156.293L224.278 198.291" stroke="#263238" stroke-linecap="round" stroke-linejoin="round"/>
<path d="M198.382 123.195C198.541 126.953 199.223 130.671 200.408 134.242C202.291 139.504 214.77 175.81 214.77 175.81L222.839 204.219C222.839 204.219 221.772 175.28 221.743 174.056C221.715 172.831 215.629 132.659 215.629 132.659C215.629 132.659 214.591 126.173 212.951 123.717C211.312 121.261 200.322 116.701 198.382 123.195Z" fill="#0574B2" stroke="#263238" stroke-linecap="round" stroke-linejoin="round"/>
<path d="M197.609 120.388C197.609 120.388 192.533 120.911 193.428 128.629C194.323 136.346 195.504 141.609 195.504 141.609" stroke="#263238" stroke-width="2" stroke-linecap="round" stroke-linejoin="round"/>
<path d="M194.881 151.782C194.881 151.782 197.029 160.725 198.496 163.18C199.964 165.636 204.403 168.092 207.56 168.092" stroke="#263238" stroke-linecap="round" stroke-linejoin="round"/>
<path d="M201.668 149.677C201.668 149.677 204.031 160.023 204.424 161.956C204.818 163.889 203.515 167.562 201.324 171.263" stroke="#263238" stroke-linecap="round" stroke-linejoin="round"/>
<path d="M200.694 172.488C200.468 172.364 200.301 172.156 200.229 171.909C200.156 171.662 200.185 171.397 200.307 171.17L200.558 170.712C200.619 170.603 200.702 170.507 200.802 170.429C200.901 170.352 201.014 170.296 201.136 170.263C201.257 170.231 201.384 170.222 201.508 170.239C201.633 170.256 201.753 170.298 201.861 170.361C202.086 170.486 202.254 170.693 202.327 170.94C202.401 171.186 202.375 171.451 202.255 171.679L202.004 172.13C201.942 172.24 201.859 172.337 201.76 172.415C201.66 172.493 201.546 172.55 201.424 172.583C201.302 172.617 201.175 172.625 201.049 172.609C200.924 172.593 200.803 172.551 200.694 172.488Z" fill="#263238"/>
<path d="M208.735 168.285C208.735 168.412 208.71 168.537 208.66 168.653C208.611 168.769 208.539 168.874 208.448 168.962C208.357 169.049 208.249 169.117 208.131 169.162C208.013 169.207 207.888 169.228 207.761 169.223H207.239C206.981 169.218 206.736 169.111 206.556 168.926C206.377 168.741 206.277 168.493 206.279 168.235C206.278 168.109 206.303 167.985 206.351 167.868C206.4 167.752 206.472 167.647 206.562 167.559C206.652 167.472 206.759 167.403 206.877 167.358C206.995 167.313 207.12 167.292 207.246 167.297H207.769C208.026 167.305 208.271 167.412 208.451 167.596C208.632 167.78 208.733 168.028 208.735 168.285Z" fill="#263238"/>
<path d="M194.895 152.484L193.692 144.859C193.558 144.073 193.728 143.265 194.169 142.6C194.609 141.935 195.286 141.463 196.062 141.28C196.898 141.089 197.776 141.231 198.51 141.674C199.245 142.117 199.778 142.828 200 143.657L202.055 151.246" stroke="#263238" stroke-width="2" stroke-linecap="round" stroke-linejoin="round"/>
<path d="M223.195 157.637C224.919 157.465 226.154 155.714 225.955 153.727C225.756 151.74 224.198 150.27 222.475 150.442C220.751 150.615 219.516 152.366 219.715 154.352C219.914 156.339 221.472 157.81 223.195 157.637Z" fill="white" stroke="#263238" stroke-linecap="round" stroke-linejoin="round"/>
<path d="M214.391 123.603C214.391 123.603 221.285 133.304 223.483 153.079" stroke="#263238" stroke-width="2" stroke-linecap="round" stroke-linejoin="round"/>
<path d="M223.666 155.368C224.607 155.28 225.287 154.319 225.185 153.221C225.083 152.122 224.238 151.303 223.297 151.39C222.356 151.477 221.676 152.439 221.778 153.537C221.88 154.636 222.725 155.455 223.666 155.368Z" fill="white" stroke="#263238" stroke-linecap="round" stroke-linejoin="round"/>
<path d="M233.743 198.706C233.32 200.016 232.973 201.35 232.705 202.701C232.705 203.274 232.569 204.985 231.23 204.598C229.891 204.212 230.292 197.374 230.464 196.615C230.636 195.856 233.893 198.312 233.893 198.312" fill="white"/>
<path d="M233.743 198.706C233.32 200.016 232.973 201.35 232.705 202.701C232.705 203.274 232.569 204.985 231.23 204.598C229.891 204.212 230.292 197.374 230.464 196.615C230.636 195.856 233.893 198.312 233.893 198.312" stroke="#263238" stroke-linecap="round" stroke-linejoin="round"/>
<path d="M190.285 192.649C191.476 193.305 192.806 193.665 194.165 193.701C196.27 193.701 200.115 192.985 201.525 193.351C202.936 193.716 206.537 198.255 206.537 198.255C206.537 198.255 207.611 199.307 207.103 199.837C206.594 200.367 205.556 201.269 204.84 200.711C204.124 200.152 200.544 197.202 200.544 197.202L191.516 200.89L187.808 198.956L190.285 192.649Z" fill="white" stroke="#263238" stroke-linecap="round" stroke-linejoin="round"/>
<path d="M176.46 137.399C176.46 137.399 170.51 138.115 169.501 139.676C168.491 141.237 152.189 177.034 152.225 178.617C152.26 180.199 184.822 205.823 184.822 205.823L191.853 192.442L174.262 176.132L181.894 158.42" fill="white"/>
<path d="M176.46 137.399C176.46 137.399 170.51 138.115 169.501 139.676C168.491 141.237 152.189 177.034 152.225 178.617C152.26 180.199 184.822 205.823 184.822 205.823L191.853 192.442L174.262 176.132L181.894 158.42" stroke="#263238" stroke-linecap="round" stroke-linejoin="round"/>
<path d="M187.435 212.288L204.632 212.638L204.546 201.942" stroke="#263238" stroke-linecap="round" stroke-linejoin="round"/>
<path d="M191.538 200.89L186.991 202.586" stroke="#263238" stroke-linecap="round" stroke-linejoin="round"/>
<path d="M196.72 112.842C196.72 112.842 198.675 128.106 199.964 130.383C201.252 132.66 210.417 141.781 210.417 141.781C210.417 141.781 213.28 131.263 213.603 128.808C213.925 126.352 214.175 116.529 214.175 116.529L196.685 111.618L196.72 112.842Z" fill="white" stroke="#263238" stroke-linecap="round" stroke-linejoin="round"/>
<path d="M196.72 112.842C196.72 112.842 196.949 114.632 197.3 117.073C198.671 118.35 200.237 119.399 201.94 120.18C204.195 121.176 210.209 121.734 214.011 121.29C214.111 118.72 214.175 116.529 214.175 116.529L196.685 111.618L196.72 112.842Z" fill="#263238" stroke="#263238" stroke-linecap="round" stroke-linejoin="round"/>
<path d="M191.652 99.518C191.652 99.518 189.311 97.0623 188.151 99.8616C186.991 102.661 189.583 106.878 190.965 107.057C191.785 107.164 192.618 107.103 193.413 106.878C193.413 106.878 194.394 110.916 195.296 112.14C197.072 114.385 199.347 116.185 201.94 117.395C205.134 118.827 215.823 119.336 217.176 117.395C218.529 115.455 218.45 105.117 218.429 104.243C218.407 103.37 218.257 90.8693 218.257 90.8693C218.257 90.8693 219.216 86.5306 217.913 83.5451C216.61 80.5596 203.53 76.3856 200.244 78.111C196.957 79.8365 193.17 82.8435 192.912 86.7024C192.655 90.5614 192.812 96.8761 192.812 96.8761L191.652 99.518Z" fill="white" stroke="#263238" stroke-linecap="round" stroke-linejoin="round"/>
<path d="M210.983 94.0769C210.983 94.0769 213.167 104.1 212.665 105.303C212.164 106.506 210.596 106.527 208.635 105.475C206.673 104.422 207.697 103.019 207.697 103.019" stroke="#263238" stroke-linecap="round" stroke-linejoin="round"/>
<path d="M203.38 105.654C203.38 105.654 204.325 108.281 206.079 108.46C207.833 108.639 212.236 108.983 212.236 108.983" stroke="#263238" stroke-linecap="round" stroke-linejoin="round"/>
<path d="M197.115 94.4277L197.394 98.6375C197.394 98.6375 198.998 99.5181 202.678 99.5181C206.358 99.5181 207.568 98.6375 207.568 98.6375L207.468 94.4277C207.468 94.4277 202.127 91.2703 197.115 94.4277Z" stroke="#263238" stroke-linecap="round" stroke-linejoin="round"/>
<path d="M210.997 94.4276L212.329 98.8164C212.329 98.8164 212.873 99.5324 216.56 99.5324C220.247 99.5324 221.457 98.6518 221.457 98.6518L221.35 94.442C221.35 94.442 216.002 91.2703 210.997 94.4276Z" stroke="#263238" stroke-linecap="round" stroke-linejoin="round"/>
<path d="M207.489 94.4277H210.997" stroke="#263238" stroke-linecap="round" stroke-linejoin="round"/>
<path d="M197.137 94.4277L190.221 98.4657" stroke="#263238" stroke-linecap="round" stroke-linejoin="round"/>
<path d="M198.841 92.3227C198.841 92.3227 200.717 90.2178 204.969 91.9719" stroke="#263238" stroke-linecap="round" stroke-linejoin="round"/>
<path d="M211.642 92.3227C212.273 91.8159 213.035 91.498 213.839 91.4056C214.644 91.3131 215.458 91.4498 216.188 91.8" stroke="#263238" stroke-linecap="round" stroke-linejoin="round"/>
<path d="M203.322 96.3606C203.322 97.1338 203.043 97.7925 202.656 97.7925C202.27 97.7925 201.94 97.1625 201.94 96.3606C201.94 95.5587 202.22 94.9287 202.613 94.9287C203.007 94.9287 203.308 95.5802 203.322 96.3606Z" fill="#263238"/>
<path d="M214.549 96.1817C214.549 96.9549 214.27 97.6136 213.883 97.6136C213.496 97.6136 213.167 96.9835 213.167 96.1817C213.167 95.3798 213.446 94.7498 213.833 94.7498C214.219 94.7498 214.527 95.4084 214.549 96.1817Z" fill="#263238"/>
<path d="M202.534 79.9582C202.534 79.9582 204.224 83.6883 202.126 85.0486C201.478 85.4232 200.744 85.6205 199.996 85.6205C199.248 85.6205 198.513 85.4232 197.866 85.0486C198.424 85.819 198.735 86.7402 198.759 87.6909C198.784 88.6417 198.52 89.5775 198.002 90.3753C196.974 92.0887 195.774 93.6935 194.422 95.165C194.422 95.165 194.802 99.697 194.014 100.227C193.227 100.757 191.079 99.9619 191.043 98.6302C191.007 97.2986 190.148 94.6352 190.112 93.3036C190.076 91.9719 189.461 88.5067 189.461 88.5067C189.461 88.5067 184.077 86.1083 186.933 83.18C189.79 80.2518 195.854 77.8533 195.854 77.8533C195.854 77.8533 195.99 72.5266 199.677 70.9301C203.364 69.3335 211.297 66.9351 211.362 69.5984C211.462 70.9691 211.216 72.3431 210.646 73.5934C210.646 73.5934 217.297 73.3285 221.936 77.8891C226.576 82.4497 226.418 86.681 224.02 86.681C221.621 86.681 220.841 87.2108 220.841 87.2108C220.841 87.2108 225.43 89.8742 223.067 91.2058C220.705 92.5375 218.27 90.9409 218.27 90.9409C218.27 90.9409 219.287 89.0795 216.294 86.6452C213.302 84.211 202.534 79.9582 202.534 79.9582Z" fill="#263238" stroke="#263238" stroke-linecap="round" stroke-linejoin="round"/>
<path d="M111.687 349.235C132.379 349.235 149.153 345.452 149.153 340.786C149.153 336.121 132.379 332.338 111.687 332.338C90.9957 332.338 74.2217 336.121 74.2217 340.786C74.2217 345.452 90.9957 349.235 111.687 349.235Z" fill="#263238" stroke="#263238" stroke-linecap="round" stroke-linejoin="round"/>
<path d="M136.359 166.044V172.889L146.311 177.449C146.311 177.449 147.349 172.889 146.519 164.798L136.359 166.044Z" fill="#999999" stroke="#263238" stroke-linecap="round" stroke-linejoin="round"/>
<path d="M86.966 330.29C84.6881 332.246 82.536 334.343 80.5224 336.569C77.6586 339.798 77.1001 343.013 79.7635 344.552C82.4268 346.092 86.608 345.691 91.1686 342.841C95.7292 339.992 95.5431 338.846 98.2064 337.901C100.87 336.956 102.581 335.037 102.581 332.002C102.581 328.966 92.8797 328.579 90.7891 328.422C88.6986 328.264 86.966 330.29 86.966 330.29Z" fill="white" stroke="#263238" stroke-linecap="round" stroke-linejoin="round"/>
<path d="M102.559 332.001C102.559 332.001 98.2631 333.906 96.1796 335.639C94.0962 337.371 89.9437 343.607 85.0896 343.607C82.6176 343.609 80.1866 342.976 78.0303 341.767C78.0334 342.343 78.1946 342.908 78.4963 343.399C78.7981 343.89 79.2287 344.289 79.7414 344.552C82.4047 346.07 86.5859 345.69 91.1465 342.841C95.7071 339.991 95.521 338.846 98.1843 337.901C100.848 336.956 102.559 335.044 102.559 332.001Z" stroke="#263238" stroke-linecap="round" stroke-linejoin="round"/>
<path d="M135.214 330.29C137.491 332.246 139.643 334.343 141.657 336.569C144.521 339.798 145.079 343.013 142.416 344.552C139.753 346.092 135.572 345.691 131.011 342.841C126.45 339.992 126.636 338.846 123.973 337.901C121.31 336.956 119.599 335.037 119.599 332.002C119.599 328.966 129.3 328.579 131.39 328.422C133.481 328.264 135.214 330.29 135.214 330.29Z" fill="white" stroke="#263238" stroke-linecap="round" stroke-linejoin="round"/>
<path d="M119.621 332.001C119.621 332.001 123.917 333.906 126 335.639C128.084 337.371 132.236 343.607 137.09 343.607C139.562 343.609 141.993 342.976 144.15 341.767C144.146 342.343 143.985 342.908 143.684 343.399C143.382 343.89 142.951 344.289 142.438 344.552C139.775 346.07 135.594 345.69 131.033 342.841C126.473 339.991 126.659 338.846 123.996 337.901C121.332 336.956 119.621 335.044 119.621 332.001Z" stroke="#263238" stroke-linecap="round" stroke-linejoin="round"/>
<path d="M81.4531 222.296C81.4531 222.296 82.5915 265.074 83.1642 271.353C83.737 277.632 85.4267 291.887 85.4267 292.674C85.4267 293.462 86.3717 325 86.3717 325L84.6606 327.863L85.2334 331.858L92.8368 333.376C96.6385 334.135 101.586 335.281 102.345 334.522C103.104 333.763 103.297 332.238 103.676 330.147C104.056 328.057 104.815 324.248 104.056 321.212C103.297 318.176 105.008 285.844 105.201 285.085C105.395 284.326 109.769 253.096 109.769 253.096C109.769 253.096 112.633 278.771 114.709 286.56C116.785 294.35 116.041 305.955 116.8 310.516C117.559 315.076 119.084 330.484 119.277 331.622C119.47 332.76 119.842 334.486 119.842 334.486C119.842 334.486 129.35 333.154 131.061 332.388C132.796 331.749 134.577 331.242 136.388 330.87C136.388 330.87 136.954 320.031 136.195 315.656C135.642 312.583 135.323 309.471 135.243 306.349C135.243 305.017 136.195 262.812 136.195 262.812L135.243 221.931C135.243 221.931 109.576 224.594 99.6884 222.69C89.8011 220.786 81.6464 219.647 81.6464 219.647L81.4531 222.296Z" fill="#0574B2" stroke="#263238" stroke-linecap="round" stroke-linejoin="round"/>
<path d="M99.7027 222.676C89.8154 220.778 81.6464 219.647 81.6464 219.647L81.4531 222.303C81.4531 222.303 81.5176 224.759 81.625 228.568C86.1569 229.835 95.3641 232.062 104.263 232.062C113.671 232.062 128.656 229.198 135.4 227.831L135.257 221.924C135.257 221.924 109.59 224.58 99.7027 222.676Z" fill="#263238" stroke="#263238" stroke-linecap="round" stroke-linejoin="round"/>
<path d="M132.729 319.014C132.851 320.324 132.93 321.076 132.93 321.076" stroke="#263238" stroke-linecap="round" stroke-linejoin="round"/>
<path d="M129.815 232.334C129.815 232.334 130.531 269.077 130.531 282.945C130.531 292.538 131.691 307.101 132.407 315.162" stroke="#263238" stroke-linecap="round" stroke-linejoin="round"/>
<path d="M91.333 230.258L93.0656 270.122" stroke="#263238" stroke-linecap="round" stroke-linejoin="round"/>
<path d="M92.7148 273.236V279.823" stroke="#263238" stroke-linecap="round" stroke-linejoin="round"/>
<path d="M101.729 121.877C100.793 121.882 99.8712 122.11 99.0407 122.542C98.2103 122.974 97.4947 123.598 96.9533 124.361C95.7693 125.924 94.4517 127.38 93.0156 128.714L76.0117 137.843L77.6727 202.751L78.2956 224.945C78.2956 224.945 91.3546 229.298 103.798 229.298C116.241 229.298 138.428 224.287 138.428 224.287C138.428 224.287 136.567 137.814 137.19 137.814C137.813 137.814 124.954 126.645 119.148 123.71C113.341 120.774 101.729 121.877 101.729 121.877Z" fill="#0574B2" stroke="#263238" stroke-linecap="round" stroke-linejoin="round"/>
<path d="M96.8818 129.724C96.8818 129.724 103.469 141.859 106.246 147.408C109.024 152.957 114.208 160.939 114.208 160.939L122.878 137.714" stroke="#263238" stroke-linecap="round" stroke-linejoin="round"/>
<path d="M101.75 206.696L101.414 197.009L81.8467 195.871C81.8467 195.871 82.04 210.132 82.4194 210.906" stroke="#263238" stroke-linecap="round" stroke-linejoin="round"/>
<path d="M101.987 213.555L101.894 210.834" stroke="#263238" stroke-linecap="round" stroke-linejoin="round"/>
<path d="M125.183 212.029L124.61 196.064C124.61 196.064 131.455 196.629 137.161 192.828" stroke="#263238" stroke-linecap="round" stroke-linejoin="round"/>
<path d="M95.8439 158.018C96.4453 159.915 98.2781 161.032 99.932 160.502C101.586 159.973 102.423 158.004 101.815 156.107C101.206 154.209 99.3807 153.092 97.7268 153.622C96.073 154.152 95.2353 156.121 95.8439 158.018Z" stroke="#263238" stroke-linecap="round" stroke-linejoin="round"/>
<path d="M96.037 124.798C96.037 124.798 93.8391 133.246 98.8364 156.178" stroke="#263238" stroke-width="2" stroke-linecap="round" stroke-linejoin="round"/>
<path d="M100.376 156.966C100.228 157.263 99.9988 157.511 99.7144 157.682C99.4301 157.852 99.1027 157.938 98.7713 157.928C98.4399 157.918 98.1183 157.813 97.8447 157.626C97.5711 157.438 97.357 157.176 97.2278 156.871C97.0986 156.566 97.0597 156.23 97.1158 155.903C97.1719 155.576 97.3206 155.272 97.5442 155.027C97.7678 154.783 98.057 154.607 98.3774 154.522C98.6978 154.436 99.036 154.445 99.3518 154.546C99.8066 154.733 100.169 155.092 100.361 155.546C100.553 155.999 100.558 156.509 100.376 156.966Z" stroke="#263238" stroke-linecap="round" stroke-linejoin="round"/>
<path d="M136.359 136.597C136.359 136.597 139.466 138.881 139.674 139.711C139.882 140.542 150.456 165.836 150.456 165.836L135.113 168.099L135.321 153.164" fill="#0574B2"/>
<path d="M136.359 136.597C136.359 136.597 139.466 138.881 139.674 139.711C139.882 140.542 150.456 165.836 150.456 165.836L135.113 168.099L135.321 153.164" stroke="#263238" stroke-linecap="round" stroke-linejoin="round"/>
<path d="M78.0881 137.012C78.0881 137.012 74.5585 137.427 73.728 140.119C72.8975 142.811 66.8906 170.189 66.8906 170.189L88.8703 168.099L86.7941 147.565" fill="#0574B2"/>
<path d="M78.0881 137.012C78.0881 137.012 74.5585 137.427 73.728 140.119C72.8975 142.811 66.8906 170.189 66.8906 170.189L88.8703 168.099L86.7941 147.565" stroke="#263238" stroke-linecap="round" stroke-linejoin="round"/>
<path d="M120.544 123.509C120.544 123.509 125.992 126.617 126.529 134.349C127.066 142.081 126.529 144.043 126.529 144.043" stroke="#263238" stroke-width="2" stroke-linecap="round" stroke-linejoin="round"/>
<path d="M128.993 153.944C128.993 153.944 128.506 163.087 127.511 165.729C126.515 168.371 122.578 171.499 119.456 172.001" stroke="#263238" stroke-linecap="round" stroke-linejoin="round"/>
<path d="M121.94 152.956C121.94 152.956 121.504 163.502 121.461 165.464C121.418 167.426 123.394 170.841 126.229 174.113" stroke="#263238" stroke-linecap="round" stroke-linejoin="round"/>
<path d="M127.041 175.261L127.125 175.194C127.515 174.878 127.575 174.305 127.258 173.915L126.857 173.42C126.541 173.03 125.968 172.97 125.578 173.286L125.495 173.354C125.105 173.67 125.045 174.243 125.361 174.633L125.762 175.128C126.079 175.518 126.651 175.578 127.041 175.261Z" fill="#263238"/>
<path d="M118.335 172.335L118.355 172.44C118.449 172.934 118.924 173.258 119.418 173.164L120.044 173.046C120.537 172.952 120.861 172.477 120.768 171.983L120.748 171.878C120.654 171.384 120.179 171.06 119.685 171.154L119.059 171.272C118.566 171.366 118.242 171.841 118.335 172.335Z" fill="#263238"/>
<path d="M129.1 154.639L128.893 146.957C128.873 146.155 128.556 145.39 128.003 144.81C127.449 144.23 126.699 143.878 125.9 143.821C125.051 143.758 124.211 144.033 123.564 144.587C122.918 145.141 122.517 145.929 122.449 146.778L121.805 154.567" stroke="#263238" stroke-width="2" stroke-linecap="round" stroke-linejoin="round"/>
<path d="M146.934 172.266L141.987 171.228L124.568 168.328L100.139 163.674L94.3472 161.118C94.3472 161.118 88.8702 153.959 88.3976 153.243C87.9251 152.527 81.7321 155.026 81.9541 155.978C82.176 156.93 82.9063 166.445 83.386 167.046C83.8657 167.648 89.2138 167.641 89.2138 167.641C89.2138 167.641 114.73 179.955 115.79 180.406C130.517 186.613 137.619 186.556 140.132 186.964C142.645 187.372 144.285 186.356 145.731 184.695C147.177 183.034 146.934 172.266 146.934 172.266Z" fill="#999999" stroke="#263238" stroke-linecap="round" stroke-linejoin="round"/>
<path d="M87.6532 153.143C87.6532 153.143 84.682 153.264 80.2789 156.235C78.6394 157.345 77.7803 158.14 77.7803 158.62C77.8741 159.19 78.0351 159.748 78.26 160.281C81.1147 158.906 84.1042 157.831 87.1807 157.073" fill="#999999"/>
<path d="M87.6532 153.143C87.6532 153.143 84.682 153.264 80.2789 156.235C78.6394 157.345 77.7803 158.14 77.7803 158.62C77.8741 159.19 78.0351 159.748 78.26 160.281C81.1147 158.906 84.1042 157.831 87.1807 157.073" stroke="#263238" stroke-linecap="round" stroke-linejoin="round"/>
<path d="M88.8421 160.76C88.8421 160.76 80.759 162.779 79.4488 163.022C78.1386 163.266 77.9023 161.949 77.9023 161.476C77.9023 161.003 78.2603 160.28 79.6851 159.572C81.1098 158.863 88.2765 156.951 88.2765 156.951" fill="#999999"/>
<path d="M88.8421 160.76C88.8421 160.76 80.759 162.779 79.4488 163.022C78.1386 163.266 77.9023 161.949 77.9023 161.476C77.9023 161.003 78.2603 160.28 79.6851 159.572C81.1098 158.863 88.2765 156.951 88.2765 156.951" stroke="#263238" stroke-linecap="round" stroke-linejoin="round"/>
<path d="M89.68 164.448C89.68 164.448 80.2795 165.4 79.5636 164.806C79.3445 164.567 79.1784 164.285 79.0759 163.978C78.9735 163.67 78.9372 163.345 78.9694 163.023L87.4176 161.233" fill="#999999"/>
<path d="M89.68 164.448C89.68 164.448 80.2795 165.4 79.5636 164.806C79.3445 164.567 79.1784 164.285 79.0759 163.978C78.9735 163.67 78.9372 163.345 78.9694 163.023L87.4176 161.233" stroke="#263238" stroke-linecap="round" stroke-linejoin="round"/>
<path d="M87.0592 164.92L79.8066 165.278C79.8066 165.278 80.1575 166.352 80.5226 166.466C82.2408 166.891 83.9914 167.171 85.7562 167.304C86.9135 167.342 88.0666 167.462 89.2071 167.662" fill="#999999"/>
<path d="M87.0592 164.92L79.8066 165.278C79.8066 165.278 80.1575 166.352 80.5226 166.466C82.2408 166.891 83.9914 167.171 85.7562 167.304C86.9135 167.342 88.0666 167.462 89.2071 167.662" stroke="#263238" stroke-linecap="round" stroke-linejoin="round"/>
<path d="M71.4512 169.774C71.4512 169.774 74.766 184.093 75.5965 185.124C76.427 186.155 83.2715 185.124 90.116 183.048C96.9605 180.972 125.992 168.535 125.992 168.535L130.138 169.359C130.138 169.359 128.477 164.175 125.577 163.968C122.678 163.76 88.8703 168.099 88.8703 168.099L71.4512 169.774Z" fill="#999999" stroke="#263238" stroke-linecap="round" stroke-linejoin="round"/>
<path d="M100.461 112.749C100.461 112.749 100.461 113.056 100.461 113.579C100.525 116.307 100.79 124.97 101.485 127.06C102.315 129.545 113.513 150.494 114.372 148.832C115.231 147.171 120.386 124.569 120.386 124.569V115.655C120.386 115.655 117.687 117.932 112.711 117.932C107.735 117.932 100.461 112.749 100.461 112.749Z" fill="#999999" stroke="#263238" stroke-linecap="round" stroke-linejoin="round"/>
<path d="M117.071 125.034C118.232 124.325 119.342 123.536 120.393 122.672V115.655C120.393 115.655 117.694 117.932 112.718 117.932C107.742 117.932 100.461 112.749 100.461 112.749C100.461 112.749 100.461 113.056 100.461 113.579C100.461 114.538 100.533 116.235 100.618 118.125C100.815 118.44 101.035 118.739 101.277 119.02C102.709 120.674 109.568 124.827 111.229 125.242C112.89 125.657 115.202 126.065 117.071 125.034Z" fill="#263238" stroke="#263238" stroke-linecap="round" stroke-linejoin="round"/>
<path d="M125.369 100.721C125.369 100.721 128.684 98.8519 128.684 102.382C128.684 105.911 125.577 110.057 125.577 110.057L125.369 100.721Z" fill="#999999" stroke="#263238" stroke-linecap="round" stroke-linejoin="round"/>
<path d="M95.7152 100.928C95.7152 100.928 91.1475 99.6824 91.1475 103.835C91.1475 107.987 95.3 110.672 95.3 110.672H98.1638C98.1638 110.672 99.8248 114.825 101.278 116.479C102.732 118.132 109.569 122.285 111.23 122.7C112.891 123.115 115.168 123.531 117.036 122.493C119.384 121.029 121.547 119.289 123.48 117.309C124.31 116.278 125.764 109.226 125.764 109.226C125.764 109.226 126.179 96.5752 125.348 92.2222C124.518 87.8692 119.127 81.0247 111.659 80.1942C104.192 79.3637 97.14 85.3777 96.109 90.1459C95.078 94.9142 95.7152 100.928 95.7152 100.928Z" fill="#999999" stroke="#263238" stroke-linecap="round" stroke-linejoin="round"/>
<path d="M109.189 104.25C109.189 104.25 107.757 107.15 110.227 107.98C112.697 108.811 115.826 108.603 116.449 107.357C117.072 106.112 116.034 104.665 116.034 104.665" stroke="#263238" stroke-linecap="round" stroke-linejoin="round"/>
<path d="M106.705 109.434C106.705 109.434 111.889 113.787 118.941 109.641" stroke="#263238" stroke-linecap="round" stroke-linejoin="round"/>
<path d="M109.604 113.371C109.604 113.371 113.965 115.863 116.864 112.956" stroke="#263238" stroke-linecap="round" stroke-linejoin="round"/>
<path d="M107.12 101.759C107.694 101.759 108.158 101.015 108.158 100.098C108.158 99.1802 107.694 98.4365 107.12 98.4365C106.547 98.4365 106.082 99.1802 106.082 100.098C106.082 101.015 106.547 101.759 107.12 101.759Z" fill="#263238"/>
<path d="M118.317 99.8902C118.317 100.807 117.852 101.551 117.279 101.551C116.707 101.551 116.241 100.835 116.241 99.8902C116.241 98.9451 116.707 98.2363 117.279 98.2363C117.852 98.2363 118.317 98.9738 118.317 99.8902Z" fill="#263238"/>
<path d="M104.213 97.821C104.213 97.821 105.251 96.1599 109.225 96.7828" stroke="#263238" stroke-linecap="round" stroke-linejoin="round"/>
<path d="M115.618 96.9906C115.618 96.9906 117.487 94.0839 120.394 96.9906" stroke="#263238" stroke-linecap="round" stroke-linejoin="round"/>
<path d="M125.369 92.208C125.1 90.9765 124.633 89.7967 123.987 88.7141C123.746 89.862 123.661 91.0374 123.737 92.208C124.037 93.7258 125.104 95.845 125.104 96.9046C125.104 97.9642 124.947 102.21 125.705 101.608C125.781 101.529 125.841 101.437 125.884 101.336C125.932 98.2851 125.76 95.2344 125.369 92.208Z" fill="#263238" stroke="#263238" stroke-linecap="round" stroke-linejoin="round"/>
<path d="M114.945 83.6165C116.277 83.546 117.602 83.3857 118.911 83.1368C116.796 81.5533 114.303 80.5512 111.68 80.2301C104.213 79.3996 97.1609 85.4136 96.1299 90.1818C95.0989 94.95 95.7146 100.964 95.7146 100.964C95.7146 100.964 97.3613 102.11 97.9699 100.9C98.5784 99.6896 97.9699 97.7136 98.5785 95.5944C99.187 93.4752 100.089 92.4084 100.239 90.7403C100.39 89.0721 99.3302 86.6522 99.9388 85.2847C100.547 83.9172 104.335 81.347 106.762 82.2562C109.373 83.2453 112.154 83.7076 114.945 83.6165Z" fill="#263238" stroke="#263238" stroke-linecap="round" stroke-linejoin="round"/>
</svg>
