<svg width="24" height="24" viewBox="0 0 24 24" fill="none" xmlns="http://www.w3.org/2000/svg">
<path d="M16.4211 15C15.3684 15 14.4737 14.5625 13.7368 13.6875C13 12.8125 12.6316 11.75 12.6316 10.5C12.6316 9.25 13 8.1875 13.7368 7.3125C14.4737 6.4375 15.3684 6 16.4211 6C17.4737 6 18.3684 6.4375 19.1053 7.3125C19.8421 8.1875 20.2105 9.25 20.2105 10.5C20.2105 11.75 19.8421 12.8125 19.1053 13.6875C18.3684 14.5625 17.4737 15 16.4211 15ZM8.8421 24V21.15C8.8421 20.625 8.94737 20.125 9.15789 19.65C9.36842 19.175 9.66316 18.8 10.0421 18.525C10.9895 17.85 11.9949 17.344 13.0585 17.007C14.1221 16.67 15.2429 16.501 16.4211 16.5C17.6 16.5 18.7213 16.669 19.7848 17.007C20.8484 17.345 21.8535 17.851 22.8 18.525C23.1789 18.8 23.4737 19.175 23.6842 19.65C23.8947 20.125 24 20.625 24 21.15V24H8.8421ZM0 15V12H10.1053V15H0ZM0 3V0H15.1579V3H0ZM10.2316 9H0V6H11.3684C11.0737 6.425 10.8371 6.8875 10.6585 7.3875C10.48 7.8875 10.3377 8.425 10.2316 9Z" fill="white"/>
</svg>
