<svg width="303" height="282" viewBox="0 0 303 282" fill="none" xmlns="http://www.w3.org/2000/svg">
<path d="M151.439 282C235.077 282 302.878 247.29 302.878 204.472C302.878 161.655 235.077 126.944 151.439 126.944C67.8016 126.944 0 161.655 0 204.472C0 247.29 67.8016 282 151.439 282Z" fill="#FAFAFA"/>
<path d="M237.773 254.52C260.561 254.52 279.034 243.109 279.034 229.033C279.034 214.957 260.561 203.546 237.773 203.546C214.986 203.546 196.513 214.957 196.513 229.033C196.513 243.109 214.986 254.52 237.773 254.52Z" fill="#E0E0E0"/>
<path d="M139.828 183.299L113.389 168.04C112.95 167.815 112.464 167.698 111.971 167.698C111.477 167.698 110.991 167.815 110.552 168.04L22.9236 218.64C22.7519 218.697 22.6026 218.807 22.4967 218.954C22.3909 219.101 22.334 219.278 22.334 219.459C22.334 219.64 22.3909 219.816 22.4967 219.963C22.6026 220.11 22.7519 220.22 22.9236 220.277L49.3563 235.543C49.7966 235.763 50.2821 235.877 50.7744 235.877C51.2666 235.877 51.7521 235.763 52.1924 235.543L60.003 231.032L132.011 189.568L139.834 184.968C140.011 184.911 140.165 184.799 140.274 184.649C140.383 184.498 140.442 184.317 140.441 184.131C140.44 183.945 140.38 183.765 140.27 183.615C140.16 183.466 140.005 183.355 139.828 183.299Z" fill="#E0E0E0"/>
<path d="M258.68 219.554L254.594 217.384C254.594 217.384 254.993 197.436 259.13 181.986C263.369 166.168 275.703 148.694 287.359 155.242C299.014 161.79 278.298 175.248 272.067 188.236C265.837 201.224 258.68 219.554 258.68 219.554Z" fill="#022C49"/>
<path opacity="0.15" d="M258.68 219.554L254.594 217.384C254.594 217.384 254.993 197.436 259.13 181.986C263.369 166.168 275.703 148.694 287.359 155.242C299.014 161.79 278.298 175.248 272.067 188.236C265.837 201.224 258.68 219.554 258.68 219.554Z" fill="black"/>
<path d="M258.14 214.821C258.086 214.819 258.033 214.807 257.983 214.784C257.934 214.762 257.889 214.73 257.852 214.691C257.815 214.651 257.786 214.605 257.767 214.554C257.748 214.504 257.739 214.45 257.74 214.396C258.616 183.439 272.15 164.538 283.475 157.761C283.569 157.705 283.682 157.688 283.789 157.715C283.895 157.742 283.987 157.81 284.043 157.904C284.099 157.998 284.116 158.111 284.089 158.218C284.063 158.324 283.995 158.416 283.9 158.472C272.752 165.14 259.435 183.794 258.565 214.415C258.564 214.469 258.553 214.523 258.531 214.573C258.509 214.624 258.477 214.669 258.438 214.707C258.398 214.744 258.352 214.774 258.3 214.794C258.249 214.813 258.195 214.822 258.14 214.821Z" fill="white"/>
<path d="M260.526 220.506L256.878 218.634C256.878 218.634 257.328 208.837 264.834 196.072C271.496 184.733 284.998 175.85 290.671 179.017C295.074 181.466 296.089 186.833 291.87 190.406C287.65 193.978 268.172 201.471 260.526 220.506Z" fill="#022C49"/>
<path d="M259.06 217.378C259.695 217.504 259.917 215.937 260.044 215.538C260.285 214.789 260.539 214.053 260.818 213.317C261.364 211.886 261.985 210.484 262.677 209.117C264.009 206.487 265.57 203.98 267.34 201.623C268.995 199.417 270.799 197.327 272.74 195.367C274.491 193.605 276.334 191.936 278.26 190.368C279.872 189.048 281.547 187.798 283.266 186.624C284.535 185.761 285.804 184.936 287.13 184.162C287.822 183.756 288.513 183.356 289.23 182.988L289.433 182.887C289.547 182.831 289.634 182.733 289.675 182.613C289.716 182.494 289.708 182.363 289.652 182.249C289.597 182.136 289.498 182.049 289.379 182.008C289.259 181.967 289.128 181.975 289.014 182.03C288.57 182.246 288.145 182.487 287.746 182.728C286.629 183.363 285.537 183.997 284.465 184.708C282.875 185.736 281.322 186.823 279.808 187.969C277.93 189.39 276.126 190.898 274.396 192.493C272.424 194.299 270.567 196.227 268.838 198.267C266.963 200.466 265.265 202.81 263.762 205.278C262.163 207.89 260.824 210.653 259.765 213.526C259.566 214.08 259.376 214.632 259.194 215.182C258.927 215.731 258.765 216.325 258.718 216.933C258.726 217.03 258.76 217.123 258.817 217.201C258.874 217.279 258.952 217.341 259.041 217.378H259.06Z" fill="white"/>
<path d="M52.0089 202.156C52.0089 202.156 52.1105 189.714 47.2186 179.416C42.3267 169.119 34.6748 162.152 26.915 160.559C19.1553 158.967 11.9983 165.375 19.739 171.346C27.4797 177.316 41.6985 184.226 46.2415 203.565L52.0089 202.156Z" fill="#022C49"/>
<path opacity="0.15" d="M52.0089 202.156C52.0089 202.156 52.1105 189.714 47.2186 179.416C42.3267 169.119 34.6748 162.152 26.915 160.559C19.1553 158.967 11.9983 165.375 19.739 171.346C27.4797 177.316 41.6985 184.226 46.2415 203.565L52.0089 202.156Z" fill="black"/>
<path d="M48.7729 200.005C48.692 200.005 48.6141 199.975 48.5551 199.919C48.4961 199.864 48.4606 199.788 48.4557 199.707C47.2629 179.791 30.8551 166.841 22.7463 164.633C22.6658 164.61 22.5973 164.557 22.5557 164.485C22.5142 164.412 22.5029 164.326 22.5243 164.246C22.5466 164.164 22.6004 164.093 22.674 164.051C22.7477 164.008 22.8352 163.996 22.9176 164.017C31.166 166.27 47.8783 179.435 49.0902 199.669C49.0922 199.752 49.0625 199.833 49.0072 199.896C48.9519 199.958 48.875 199.997 48.792 200.005H48.7729Z" fill="white"/>
<path d="M53.0113 219.237C54.5831 217.253 55.6378 214.91 56.0808 212.419C56.5238 209.927 56.3411 207.364 55.5492 204.961C55.0886 203.509 54.3518 202.161 53.3793 200.989C52.5989 200.069 51.4758 199.593 50.5622 198.825C48.5953 197.195 46.3111 195.462 45.6005 192.874C45.0294 190.812 45.15 188.857 44.0079 186.922C43.335 185.71 42.2634 184.769 40.9751 184.257C39.2937 183.623 37.441 184.042 35.6644 184.257C33.1265 184.543 31.223 183.667 29.0277 182.5C26.6103 181.231 23.7869 180.228 21.1664 181.009C20.3142 181.261 19.5245 181.69 18.8486 182.267C18.1727 182.845 17.6256 183.557 17.2427 184.359C16.8599 185.162 16.6499 186.035 16.6263 186.924C16.6027 187.812 16.766 188.696 17.1057 189.517C17.6895 190.939 18.7681 192.093 19.5612 193.413C20.3543 194.733 20.7731 196.243 20.1957 197.683C19.7515 198.749 18.9267 199.587 18.5968 200.672C17.6577 203.527 18.1844 206.065 21.0205 207.537C23.9836 209.053 28.6343 207.911 30.119 211.635C30.6774 213.05 30.6964 214.618 31.001 216.109C31.6261 219.109 33.3708 221.759 35.8802 223.519C39.2873 225.886 43.9128 225.309 47.4468 223.659C49.6181 222.634 51.5226 221.12 53.0113 219.237Z" fill="#022C49"/>
<path d="M26.2994 201.217C26.3687 201.229 26.44 201.218 26.5024 201.185C29.0015 200.219 31.6833 199.819 34.3556 200.012C37.0279 200.205 39.6243 200.987 41.9585 202.302C42.0385 202.345 42.1321 202.354 42.2189 202.328C42.3058 202.302 42.3787 202.242 42.4217 202.163C42.444 202.124 42.4582 202.08 42.4635 202.036C42.4689 201.991 42.4652 201.946 42.4528 201.903C42.4404 201.86 42.4195 201.819 42.3912 201.785C42.363 201.75 42.328 201.721 42.2884 201.699C39.8633 200.337 37.1666 199.53 34.3921 199.335C31.6176 199.139 28.8343 199.561 26.2423 200.57C26.1813 200.603 26.132 200.655 26.1008 200.717C26.0697 200.779 26.0581 200.849 26.0678 200.918C26.0774 200.987 26.1078 201.051 26.1548 201.102C26.2018 201.153 26.2633 201.189 26.3311 201.205L26.2994 201.217Z" fill="white"/>
<path d="M48.4556 219.344C48.3725 219.346 48.2921 219.315 48.2316 219.258C48.171 219.201 48.1353 219.123 48.132 219.04C47.5419 204.701 33.1454 189.536 23.4949 185.412C23.4559 185.396 23.4205 185.373 23.3907 185.343C23.361 185.313 23.3374 185.278 23.3215 185.239C23.3055 185.2 23.2975 185.158 23.2979 185.116C23.2982 185.074 23.307 185.032 23.3236 184.993C23.3583 184.915 23.4225 184.854 23.5021 184.823C23.5818 184.792 23.6704 184.794 23.7487 184.828C33.5515 189.029 48.1701 204.447 48.7728 219.027C48.7745 219.07 48.7678 219.112 48.7531 219.152C48.7384 219.192 48.716 219.229 48.6871 219.26C48.6582 219.291 48.6235 219.316 48.5848 219.334C48.5462 219.352 48.5044 219.362 48.4619 219.363L48.4556 219.344Z" fill="white"/>
<path d="M127.918 14.4499L56.1068 55.8945C55.3957 56.3587 54.8047 56.9849 54.3823 57.7216C53.9599 58.4583 53.7181 59.2847 53.6768 60.1329V229.242C53.6768 230.791 54.7681 231.419 56.1068 230.638L127.918 189.181C128.624 188.718 129.212 188.095 129.634 187.364C130.056 186.632 130.301 185.811 130.348 184.968V15.8331C130.348 14.2849 129.257 13.6504 127.918 14.4499ZM126.852 172.437C126.852 173.763 125.919 174.607 124.771 175.267L59.0128 213.247C57.8707 213.881 56.9317 213.374 56.9317 212.041V71.4077C56.9319 70.6805 57.1238 69.9663 57.4881 69.3369C57.8523 68.7075 58.3761 68.1853 59.0064 67.8228L124.765 29.8362C124.976 29.7136 125.215 29.6488 125.459 29.6482C125.703 29.6476 125.943 29.7113 126.155 29.8328C126.366 29.9544 126.542 30.1295 126.665 30.3406C126.787 30.5517 126.852 30.7913 126.852 31.0354V172.437Z" fill="#455A64"/>
<path d="M126.852 172.437C126.852 173.763 125.919 174.607 124.771 175.267L59.0128 213.247C57.8707 213.882 56.9316 213.374 56.9316 212.042V71.4077C56.9319 70.6805 57.1238 69.9663 57.4881 69.3369C57.8523 68.7076 58.376 68.1853 59.0064 67.8229L124.765 29.8362C124.976 29.7136 125.215 29.6488 125.459 29.6482C125.703 29.6476 125.943 29.7113 126.155 29.8329C126.366 29.9544 126.542 30.1295 126.664 30.3406C126.787 30.5517 126.852 30.7913 126.852 31.0354V172.437Z" fill="#263238"/>
<path d="M59.0128 213.247L124.771 175.279C125.232 175.03 125.659 174.721 126.04 174.359L56.9316 135.44V212.042C56.9316 213.374 57.8707 213.907 59.0128 213.247Z" fill="#37474F"/>
<path d="M121.529 169.969V31.7079L59.0064 67.8228C58.376 68.1853 57.8523 68.7075 57.4881 69.3369C57.1238 69.9662 56.9319 70.6805 56.9316 71.4077V208.894L119.448 172.799C120.596 172.139 121.529 171.295 121.529 169.969Z" fill="#022C49"/>
<path d="M55.8023 230.81C55.0772 231.115 54.2943 231.26 53.5078 231.234C52.7213 231.208 51.9498 231.011 51.2467 230.657L48.4677 229.052C47.7585 228.593 47.1681 227.972 46.7446 227.241C46.3212 226.51 46.0767 225.689 46.0312 224.846V55.6916C46.0472 55.0647 46.1897 54.4475 46.45 53.8769C46.5388 53.6802 46.634 53.4899 46.7419 53.2932L54.3557 57.7346C54.1957 58.0206 54.0557 58.3174 53.9369 58.6229C53.7521 59.1033 53.6512 59.612 53.6387 60.1266V229.242C53.6768 230.67 54.6032 231.317 55.8023 230.81Z" fill="#263238"/>
<path d="M94.157 196.738C95.7115 196.738 95.8765 198.483 95.8765 199.231C95.7836 200.731 95.3438 202.189 94.5919 203.491C93.8399 204.792 92.7962 205.901 91.5429 206.731C91.0401 207.05 90.4629 207.234 89.8679 207.264C88.3134 207.264 88.1484 205.519 88.1484 204.77C88.2421 203.27 88.6814 201.812 89.4321 200.51C90.1827 199.208 91.2244 198.097 92.4756 197.264C92.9828 196.95 93.5611 196.769 94.157 196.738Z" fill="#022C49"/>
<path d="M91.9614 37.8688C92.5959 37.4882 93.1479 37.7927 93.1479 38.5541C93.1248 38.9657 93.0055 39.3662 92.7994 39.7232C92.5933 40.0803 92.3063 40.384 91.9614 40.6098C91.3269 40.9842 90.7686 40.6796 90.7686 39.9246C90.7903 39.5119 90.9098 39.1103 91.1172 38.7529C91.3245 38.3955 91.6139 38.0925 91.9614 37.8688Z" fill="#263238"/>
<path d="M84.2974 47.8873C84.8811 47.551 85.3506 47.8238 85.3506 48.5218C85.3313 48.8869 85.2258 49.2422 85.0427 49.5587C84.8596 49.8752 84.6042 50.1439 84.2974 50.3427C83.7137 50.679 83.2441 50.4062 83.2441 49.7082C83.2645 49.3434 83.3704 48.9884 83.5534 48.672C83.7364 48.3557 83.9912 48.0869 84.2974 47.8873Z" fill="#263238"/>
<path d="M87.8178 45.8062L99.6129 38.9981C100.247 38.6238 100.78 38.8903 100.78 39.5882C100.749 39.9801 100.628 40.3595 100.425 40.6965C100.223 41.0334 99.9446 41.3186 99.6129 41.5297L87.8178 48.3378C87.1834 48.7121 86.6504 48.4456 86.6504 47.7477C86.6813 47.3558 86.8029 46.9764 87.0055 46.6394C87.2081 46.3025 87.4862 46.0172 87.8178 45.8062Z" fill="#263238"/>
<path d="M130.323 15.4461C130.145 14.1771 129.136 13.7266 127.924 14.4309L56.1004 55.8946C55.3817 56.3407 54.7913 56.966 54.3873 57.7092L46.7734 53.2678C47.1838 52.5305 47.7757 51.9103 48.4929 51.4658L120.272 10.0085C121.025 9.62671 121.858 9.42773 122.702 9.42773C123.547 9.42773 124.379 9.62671 125.132 10.0085L127.924 11.6074C128.575 12.039 129.125 12.6049 129.539 13.267C129.953 13.9291 130.22 14.6721 130.323 15.4461Z" fill="#37474F"/>
<path d="M111.485 20.5791C111.112 20.7782 110.698 20.886 110.275 20.8937C109.853 20.9014 109.435 20.8088 109.055 20.6235C108.928 20.5693 108.818 20.4817 108.736 20.37C108.655 20.2583 108.605 20.1267 108.592 19.989C108.592 19.8114 108.592 19.1515 108.592 18.9675C108.612 18.8092 108.673 18.6588 108.769 18.531C108.864 18.4031 108.991 18.3021 109.137 18.2378L116.834 13.7964C117.208 13.5988 117.624 13.4918 118.047 13.4841C118.47 13.4764 118.889 13.5682 119.27 13.752C119.395 13.8088 119.503 13.8972 119.583 14.0085C119.663 14.1198 119.713 14.2501 119.727 14.3865C119.727 14.5705 119.727 15.2558 119.727 15.4334C119.707 15.5927 119.646 15.7441 119.551 15.873C119.455 16.002 119.328 16.1041 119.181 16.1694L111.485 20.5791Z" fill="#022C49"/>
<path opacity="0.25" d="M111.485 20.5791C111.112 20.7782 110.698 20.886 110.275 20.8937C109.853 20.9014 109.435 20.8088 109.055 20.6235C108.928 20.5693 108.818 20.4817 108.736 20.37C108.655 20.2583 108.605 20.1267 108.592 19.989C108.592 19.8114 108.592 19.1515 108.592 18.9675C108.612 18.8092 108.673 18.6588 108.769 18.531C108.864 18.4031 108.991 18.3021 109.137 18.2378L116.834 13.7964C117.208 13.5988 117.624 13.4918 118.047 13.4841C118.47 13.4764 118.889 13.5682 119.27 13.752C119.395 13.8088 119.503 13.8972 119.583 14.0085C119.663 14.1198 119.713 14.2501 119.727 14.3865C119.727 14.5705 119.727 15.2558 119.727 15.4334C119.707 15.5927 119.646 15.7441 119.551 15.873C119.455 16.002 119.328 16.1041 119.181 16.1694L111.485 20.5791Z" fill="black"/>
<path d="M111.485 19.5703L119.182 15.1289C119.879 14.7228 119.911 14.0946 119.264 13.7203C118.883 13.5364 118.464 13.4446 118.041 13.4524C117.617 13.4601 117.202 13.5671 116.828 13.7647L109.131 18.2061C108.44 18.6058 108.402 19.234 109.055 19.6083C109.435 19.7931 109.853 19.886 110.275 19.8794C110.697 19.8727 111.112 19.7668 111.485 19.5703Z" fill="#022C49"/>
<path opacity="0.3" d="M111.485 19.5703L119.182 15.1289C119.879 14.7228 119.911 14.0946 119.264 13.7203C118.883 13.5364 118.464 13.4446 118.041 13.4524C117.617 13.4601 117.202 13.5671 116.828 13.7647L109.131 18.2061C108.44 18.6058 108.402 19.234 109.055 19.6083C109.435 19.7931 109.853 19.886 110.275 19.8794C110.697 19.8727 111.112 19.7668 111.485 19.5703Z" fill="black"/>
<path d="M50.8403 81.1788C50.8253 80.7565 50.7105 80.3438 50.5054 79.9744C50.3003 79.6049 50.0106 79.2893 49.6602 79.0533C49.5454 78.9685 49.4093 78.9171 49.2671 78.9047C49.1249 78.8924 48.9821 78.9197 48.8544 78.9835C48.7084 79.0723 48.1247 79.3959 47.9724 79.491C47.845 79.5876 47.7447 79.7154 47.6814 79.8622C47.618 80.009 47.5937 80.1696 47.6108 80.3286V99.1855C47.6261 99.607 47.7403 100.019 47.9442 100.388C48.1481 100.757 48.436 101.074 48.7846 101.311C48.8993 101.388 49.0319 101.435 49.1697 101.446C49.3075 101.457 49.4458 101.432 49.5713 101.374C49.7363 101.292 50.3264 100.949 50.485 100.854C50.6124 100.758 50.7127 100.63 50.7761 100.483C50.8395 100.336 50.8638 100.176 50.8467 100.017L50.8403 81.1788Z" fill="#022C49"/>
<path opacity="0.3" d="M50.8403 81.1788C50.8253 80.7565 50.7105 80.3438 50.5054 79.9744C50.3003 79.6049 50.0106 79.2893 49.6602 79.0533C49.5454 78.9685 49.4093 78.9171 49.2671 78.9047C49.1249 78.8924 48.9821 78.9197 48.8544 78.9835C48.7084 79.0723 48.1247 79.3959 47.9724 79.491C47.845 79.5876 47.7447 79.7154 47.6814 79.8622C47.618 80.009 47.5937 80.1696 47.6108 80.3286V99.1855C47.6261 99.607 47.7403 100.019 47.9442 100.388C48.1481 100.757 48.436 101.074 48.7846 101.311C48.8993 101.388 49.0319 101.435 49.1697 101.446C49.3075 101.457 49.4458 101.432 49.5713 101.374C49.7363 101.292 50.3264 100.949 50.485 100.854C50.6124 100.758 50.7127 100.63 50.7761 100.483C50.8395 100.336 50.8638 100.176 50.8467 100.017L50.8403 81.1788Z" fill="black"/>
<path d="M49.9653 81.7053V100.562C49.9653 101.362 49.4386 101.704 48.7851 101.33C48.4365 101.092 48.1487 100.776 47.9448 100.407C47.7409 100.038 47.6267 99.6259 47.6113 99.2044V80.3285C47.6113 79.5227 48.138 79.1801 48.7851 79.5544C49.1383 79.7937 49.4295 80.1135 49.6347 80.4875C49.8399 80.8615 49.9532 81.2789 49.9653 81.7053Z" fill="#022C49"/>
<path opacity="0.4" d="M49.9653 81.7053V100.562C49.9653 101.362 49.4386 101.704 48.7851 101.33C48.4365 101.092 48.1487 100.776 47.9448 100.407C47.7409 100.038 47.6267 99.6259 47.6113 99.2044V80.3285C47.6113 79.5227 48.138 79.1801 48.7851 79.5544C49.1383 79.7937 49.4295 80.1135 49.6347 80.4875C49.8399 80.8615 49.9532 81.2789 49.9653 81.7053Z" fill="black"/>
<path d="M50.8403 106.45C50.8253 106.028 50.7105 105.615 50.5054 105.246C50.3003 104.876 50.0106 104.561 49.6602 104.325C49.5454 104.24 49.4093 104.189 49.2671 104.176C49.1249 104.164 48.9821 104.191 48.8544 104.255C48.7084 104.344 48.1247 104.667 47.9724 104.763C47.845 104.859 47.7447 104.987 47.6814 105.134C47.618 105.28 47.5937 105.441 47.6108 105.6V114.483C47.6271 114.903 47.7418 115.314 47.9456 115.682C48.1495 116.05 48.4368 116.365 48.7846 116.602C48.8955 116.684 49.0264 116.735 49.1636 116.75C49.3008 116.764 49.4394 116.742 49.565 116.685C49.73 116.602 50.32 116.259 50.4787 116.164C50.6056 116.069 50.7056 115.942 50.769 115.796C50.8323 115.651 50.8569 115.491 50.8403 115.333V106.45Z" fill="#022C49"/>
<path opacity="0.3" d="M50.8403 106.45C50.8253 106.028 50.7105 105.615 50.5054 105.246C50.3003 104.876 50.0106 104.561 49.6602 104.325C49.5454 104.24 49.4093 104.189 49.2671 104.176C49.1249 104.164 48.9821 104.191 48.8544 104.255C48.7084 104.344 48.1247 104.667 47.9724 104.763C47.845 104.859 47.7447 104.987 47.6814 105.134C47.618 105.28 47.5937 105.441 47.6108 105.6V114.483C47.6271 114.903 47.7418 115.314 47.9456 115.682C48.1495 116.05 48.4368 116.365 48.7846 116.602C48.8955 116.684 49.0264 116.735 49.1636 116.75C49.3008 116.764 49.4394 116.742 49.565 116.685C49.73 116.602 50.32 116.259 50.4787 116.164C50.6056 116.069 50.7056 115.942 50.769 115.796C50.8323 115.651 50.8569 115.491 50.8403 115.333V106.45Z" fill="black"/>
<path d="M49.9653 106.926V115.809C49.9653 116.608 49.4386 116.957 48.7851 116.577C48.4365 116.339 48.1487 116.023 47.9448 115.654C47.7409 115.285 47.6267 114.873 47.6113 114.451V105.568C47.6113 104.769 48.138 104.42 48.7851 104.794C49.135 105.032 49.4241 105.349 49.6291 105.72C49.834 106.09 49.9492 106.503 49.9653 106.926Z" fill="#022C49"/>
<path opacity="0.4" d="M49.9653 106.926V115.809C49.9653 116.608 49.4386 116.957 48.7851 116.577C48.4365 116.339 48.1487 116.023 47.9448 115.654C47.7409 115.285 47.6267 114.873 47.6113 114.451V105.568C47.6113 104.769 48.138 104.42 48.7851 104.794C49.135 105.032 49.4241 105.349 49.6291 105.72C49.834 106.09 49.9492 106.503 49.9653 106.926Z" fill="black"/>
<path d="M71.868 90.7088C71.9311 91.0168 72.0159 91.32 72.1218 91.6161C72.5342 92.7328 73.2765 93.7861 73.2131 94.9789C73.1433 96.324 72.0837 97.3645 71.2716 98.4368C70.2161 99.8546 69.5127 101.503 69.2192 103.246C68.9258 104.989 69.0508 106.777 69.5838 108.462C70.3639 110.514 71.446 112.439 72.7943 114.172L75.8589 118.518C76.7855 119.735 77.9682 120.734 79.3232 121.443C81.9565 122.932 84.8947 123.8 87.9141 123.981C92.8772 124.316 97.814 123.022 101.974 120.295C106.384 117.376 104.442 109.889 108.954 107.155C114.41 103.855 117.012 92.3965 110.324 87.6125C110.324 87.6125 111.403 80.5951 109.423 78.8058C107.45 77.1551 105.009 76.1653 102.444 75.976C98.9034 75.608 95.3567 76.2996 91.8226 76.2869C88.1845 76.2752 84.5496 76.502 80.9411 76.9658C79.6722 77.1371 77.8829 77.6003 77.1977 78.8376C77.0042 79.3228 76.9514 79.8528 77.0454 80.3667C77.0356 81.1819 76.7442 81.9687 76.2206 82.5937C75.4338 83.5454 74.3171 84.1863 73.4796 85.0809C72.7885 85.8269 72.2825 86.725 72.0026 87.7026C71.7226 88.6803 71.6765 89.7101 71.868 90.7088Z" fill="#263238"/>
<path d="M107.082 100.835C112.792 100.994 113.535 102.212 118.649 107.275C122.9 111.482 136.985 124.482 136.985 124.482L153.863 128.975L149.878 139.272C149.878 139.272 146.071 139.114 138.457 139.107C133.781 139.107 132.157 138.06 127.449 134.92C125.051 133.315 111.517 124.457 111.517 124.457L107.082 100.835Z" fill="#E6E6E6"/>
<path d="M172.536 108.151L141.605 119.051L133.077 155.852L133.769 156.588L163.177 145.617L173.221 108.887L172.536 108.151Z" fill="#022C49"/>
<path opacity="0.35" d="M142.29 119.787L133.769 156.587L133.077 155.851L141.605 119.051L142.29 119.787Z" fill="black"/>
<path opacity="0.25" d="M173.221 108.887L142.29 119.787L133.769 156.587L163.177 145.617L173.221 108.887Z" fill="black"/>
<g opacity="0.2">
<path d="M158.578 138.13C158.864 138.854 161.237 140.446 164.669 140.161L165.247 138.042L158.578 138.13Z" fill="black"/>
</g>
<g opacity="0.1">
<path d="M163.906 116.425L164.16 115.187C164.3 114.508 162.485 114.864 160.106 115.987L154.522 117.675C152.143 118.798 149.897 119.635 149.751 120.314L149.497 121.545L163.906 116.425Z" fill="black"/>
</g>
<path d="M165.746 110.841C165.835 110.416 165.112 110.505 164.141 110.765L162.358 111.368C162.358 111.368 163.088 109.578 158.869 110.733C154.23 112.002 154.129 114.305 154.129 114.305C153.403 114.62 152.66 114.891 151.902 115.117C150.36 115.619 150.195 115.917 150.068 116.348L149.84 117.129L165.607 111.583C165.607 111.583 165.683 111.266 165.746 110.841Z" fill="#37474F"/>
<path d="M164.084 113.208C162.625 113.842 162.022 114.191 161.8 115.244C161.553 116.444 161.502 116.945 161.502 116.945L153.292 120.181C153.292 120.181 153.736 118.41 153.844 117.82C153.952 117.23 152.867 117.23 151.445 117.884L151.782 116.412L164.554 111.672L164.084 113.208Z" fill="#37474F"/>
<path d="M164.326 116.444C164.326 116.444 164.446 115.892 164.586 115.206C164.725 114.521 162.911 114.883 160.531 116.006L154.948 117.694C152.569 118.817 150.316 119.654 150.177 120.333L149.923 121.602L164.326 116.444Z" fill="#37474F"/>
<path d="M169.782 121.475C169.782 121.475 168.685 125.51 168.393 126.551C168.101 127.591 163.038 129.907 160.506 130.225C155.659 130.827 155.107 131.874 156.268 135.3C157.346 138.473 160.5 139.678 164.878 139.164C166.933 138.923 169.77 137.102 170.886 133.924C172.307 129.863 171.521 125.529 172.111 123.137C172.701 120.745 171.013 120.06 169.782 121.475Z" fill="#FFA8A7"/>
<path d="M121.853 176.967L118.572 178.871L117.196 179.664L99.1509 190.076L96.6891 191.472L92.5332 193.87L93.8022 180.92L96.2259 155.845V155.585L96.3401 154.462L99.5125 121.678L100.902 107.332L101.391 102.187L101.556 100.524H101.644C103.114 100.116 104.667 100.116 106.137 100.524C106.464 100.624 106.783 100.751 107.088 100.905C108.992 101.85 110.261 103.69 111.314 105.626C111.573 106.097 111.806 106.582 112.012 107.079C112.794 108.959 113.398 110.909 113.814 112.903C114.645 116.583 115.717 120.346 116.142 126.278C116.209 127.805 116.129 129.335 115.901 130.846C115.615 134.846 115.567 138.858 115.755 142.864C116.288 151.937 118.572 156.048 121.853 176.967Z" fill="#E0E0E0"/>
<path d="M117.196 179.651L99.1512 190.063L96.6894 191.472L92.5336 193.87L89.672 195.52L72.2998 205.544C72.4838 198.565 72.5663 190.996 72.4013 183.845C72.3506 181.453 72.3315 179.01 72.433 176.51C72.763 167.831 74.4126 158.523 80.326 148.726L80.5989 148.231C81.2968 152.375 87.6417 155.065 93.352 155.699L93.9865 155.756C94.7035 155.826 95.4458 155.858 96.2136 155.858H96.6958C101.524 155.813 107.241 154.678 113.827 152.451C114.461 156.131 115.096 160.959 115.775 166.606C116.079 169.144 116.388 171.849 116.701 174.721C116.828 176.326 117.025 177.97 117.196 179.651Z" fill="#FFA8A7"/>
<path d="M118.573 178.858L117.196 179.651L99.1514 190.063L96.6896 191.472L92.5337 193.87L89.6722 195.52L72.2999 205.544L70.3965 206.642C70.4917 199.13 70.5551 191.77 70.5488 187.151C70.5488 182.855 70.6439 179.036 70.8787 175.647C71.3419 168.96 72.3063 163.928 73.9179 160.122C75.8088 155.955 78.0458 151.954 80.6054 148.161C80.6054 148.161 82.1916 153.517 94.0565 154.36H94.1326C94.8305 154.411 95.5665 154.443 96.3406 154.456H97.2416C112.012 154.456 113.643 150.731 113.643 150.731C115.086 156.208 116.228 161.759 117.063 167.361C117.376 169.341 117.678 171.456 117.97 173.706C118.186 175.356 118.389 177.069 118.573 178.858Z" fill="#022C49"/>
<path opacity="0.4" d="M118.573 178.858L117.196 179.651L99.1514 190.063L96.6896 191.472L92.5337 193.87L89.6722 195.52L72.2999 205.544L70.3965 206.642C70.4917 199.13 70.5551 191.77 70.5488 187.151C70.5488 182.855 70.6439 179.036 70.8787 175.647C71.3419 168.96 72.3063 163.928 73.9179 160.122C75.8088 155.955 78.0458 151.954 80.6054 148.161C80.6054 148.161 82.1916 153.517 94.0565 154.36H94.1326C94.8305 154.411 95.5665 154.443 96.3406 154.456H97.2416C112.012 154.456 113.643 150.731 113.643 150.731C115.086 156.208 116.228 161.759 117.063 167.361C117.376 169.341 117.678 171.456 117.97 173.706C118.186 175.356 118.389 177.069 118.573 178.858Z" fill="black"/>
<path opacity="0.2" d="M110.102 170.438C110.102 170.438 108.453 175.679 101.512 178.617L101.182 180.222L99.1513 190.063L96.6895 191.472L98.1615 180.616L98.796 175.895C103.086 175.45 107.085 173.52 110.102 170.438Z" fill="black"/>
<path d="M88.993 102.041L82.0137 102.777C77.3946 103.906 75.3072 105.949 74.8313 110.029C74.6092 111.932 73.4608 117.008 75.0724 123.353C76.5317 129.114 80.4275 143.213 80.4275 143.213C80.4275 143.213 71.4622 154.912 69.8379 174.975C86.2457 185.685 111.416 179.93 118.224 173.458C117.653 167.329 113.738 150.509 113.249 145.046C113.249 145.046 113.611 136.512 114.29 132.813C119.48 127.147 118.82 121.729 116.492 117.357C112.19 109.287 105.705 102.193 103.605 102.199L88.993 102.041Z" fill="#022C49"/>
<path opacity="0.7" d="M88.993 102.041L82.0137 102.777C77.3946 103.906 75.3072 105.949 74.8313 110.029C74.6092 111.932 73.4608 117.008 75.0724 123.353C76.5317 129.114 80.4275 143.213 80.4275 143.213C80.4275 143.213 71.4622 154.912 69.8379 174.975C86.2457 185.685 111.416 179.93 118.224 173.458C117.653 167.329 113.738 150.509 113.249 145.046C113.249 145.046 113.611 136.512 114.29 132.813C119.48 127.147 118.82 121.729 116.492 117.357C112.19 109.287 105.705 102.193 103.605 102.199L88.993 102.041Z" fill="white"/>
<path d="M95.0393 145.725C95.0393 145.852 95.0393 145.966 95.0393 146.061V146.226C95.0434 146.279 95.0434 146.332 95.0393 146.385C94.7982 148.923 94.5127 151.619 94.2081 154.367C94.2081 154.367 94.2081 154.367 94.2081 154.405C94.1637 154.849 94.1129 155.293 94.0622 155.744C93.1295 164.024 92.0191 172.875 91.1626 180.933C90.9532 182.887 90.7628 184.79 90.5915 186.643C90.325 189.416 90.0395 192.455 89.7477 195.526L72.3754 205.551L70.472 206.648L65.6182 209.447C66.5953 199.834 68.8731 177.564 70.142 167.513C70.288 166.378 70.4783 165.242 70.6941 164.113L70.8654 163.288L70.9415 162.951C71.024 162.571 71.1065 162.203 71.1953 161.828C71.2841 161.454 71.3666 161.137 71.4491 160.8C71.6458 160.033 71.8552 159.278 72.0836 158.542C72.1914 158.186 72.293 157.831 72.4072 157.482C72.5214 157.133 72.6165 156.784 72.7308 156.442C72.9592 155.756 73.1812 155.084 73.416 154.43C73.4132 154.418 73.4132 154.405 73.416 154.392C73.5239 154.081 73.6381 153.758 73.7523 153.466C73.9045 153.034 74.0632 152.616 74.2218 152.197L74.4121 151.696C74.5073 151.467 74.5898 151.245 74.6786 151.023C74.9895 150.243 75.3131 149.5 75.5986 148.809C75.6621 148.656 75.7319 148.504 75.7953 148.358C75.8588 148.212 75.9603 147.997 76.0364 147.819C76.2268 147.375 76.4171 146.962 76.6011 146.55C76.6773 146.372 76.7597 146.201 76.8359 146.036C76.912 145.871 77.0199 145.655 77.1024 145.478L77.2229 145.224L77.3498 144.976C77.3581 144.944 77.3733 144.914 77.3942 144.888C77.4115 144.841 77.4328 144.797 77.4577 144.754C77.473 144.726 77.4858 144.696 77.4957 144.666C77.5486 144.576 77.5952 144.482 77.6353 144.386L78.0604 143.561C78.0604 143.517 78.1048 143.485 78.1175 143.447L78.2825 143.143L73.0036 121.253L70.3768 110.378V110.2C70.4974 109.236 71.3032 104.687 75.9476 103.303C78.5697 102.627 81.2556 102.227 83.9611 102.111C85.0017 102.047 85.9407 102.022 86.7085 102.003H87.9203H88.65C88.6517 102.017 88.6517 102.032 88.65 102.047C88.6881 102.142 88.7959 102.428 88.9609 102.872C88.9787 102.946 89.0043 103.019 89.037 103.088C89.0377 103.098 89.0377 103.109 89.037 103.119C90.1791 106.254 93.3833 115.378 94.9758 123.302C95.255 124.673 95.4834 126.012 95.6484 127.281C96.1242 131.246 95.7753 137.883 95.0393 145.725Z" fill="#FAFAFA"/>
<path d="M78.4541 132.661C78.4541 132.661 79.0885 129.533 80.0212 122.776C81.1062 114.984 80.7192 111.133 79.5454 108.671L72.9277 121.291L78.2066 143.181C78.2066 143.181 72.7817 153.117 70.5928 164.119C75.7829 149.456 81.4615 145.084 81.4615 145.084L78.4541 132.661Z" fill="#E6E6E6"/>
<path d="M101.639 97.1552C103.694 97.1552 103.936 97.4978 105.706 99.8707C106.759 101.286 113.427 112.294 113.427 112.294C113.427 112.294 108.123 105.315 104.12 103.195C103.349 102.744 102.515 102.41 101.645 102.206L101.639 97.1552Z" fill="#EBEBEB"/>
<path d="M86.4361 120.549C86.4361 119.914 86.3726 118.544 86.2648 116.818C85.7381 108.354 85.4844 100.74 88.3395 100.106L88.587 101.273C86.5059 101.724 87.1911 112.618 87.4513 116.716C87.5655 118.48 87.6543 119.889 87.6226 120.574L86.4361 120.549Z" fill="#022C49"/>
<path d="M76.9189 65.1327L81.3603 68.7683C81.6018 68.492 81.7843 68.1693 81.8967 67.8199C82.009 67.4706 82.0489 67.1019 82.0139 66.7366C81.9788 66.3713 81.8696 66.017 81.6929 65.6954C81.5161 65.3738 81.2756 65.0917 80.986 64.8663C80.4021 64.3834 79.6556 64.142 78.8995 64.1915C78.1434 64.2411 77.4349 64.5778 76.9189 65.1327Z" fill="#263238"/>
<path d="M88.5176 97.6945C88.5176 94.9091 82.0268 90.7152 78.6767 84.8589C75.3266 79.0026 77.0016 69.3711 81.5953 67.8927C81.6334 67.8927 81.7603 66.6555 81.7793 66.5666C82.0333 65.4492 82.4615 64.3786 83.0483 63.3942C84.92 60.171 88.8855 57.6838 92.5656 57.1636C107.114 55.0444 113.802 60.6977 116.473 66.9156C117.339 69.0073 117.725 71.2665 117.602 73.527C117.528 75.1872 116.912 76.7773 115.848 78.0547C114.785 79.332 113.333 80.2265 111.714 80.6015L88.5176 97.6945Z" fill="#263238"/>
<path d="M108.701 64.8345C111.55 66.1034 114.259 70.437 114.214 82.6318C114.176 92.9739 111.004 95.588 109.405 96.3557C107.806 97.1235 104.678 96.7301 101.639 96.2669V102.206C101.639 102.206 103.917 104.445 103.117 105.854C102.318 107.263 99.3674 108.455 94.7801 107.015C89.5836 105.384 88.3972 101.939 88.3972 101.939L88.2766 88.9069C88.2766 88.9069 86.5318 90.7405 83.4545 88.0503C80.9166 85.8233 80.0029 82.01 81.9127 79.9162C83.8225 77.8224 86.2716 77.6574 88.4796 79.9987L90.0659 79.1612C92.8957 78.8312 97.0452 78.3554 100.103 76.8136C107.946 72.8226 108.758 68.4955 108.701 64.8345Z" fill="#FFA8A7"/>
<path d="M88.5234 78.311L88.5615 84.0214C88.9282 84.0311 89.293 83.9658 89.6336 83.8293C89.9741 83.6928 90.2831 83.4882 90.5416 83.2279C90.8001 82.9676 91.0026 82.6572 91.1368 82.3157C91.2709 81.9743 91.3338 81.609 91.3215 81.2424C91.3146 80.4898 91.0216 79.768 90.5019 79.2236C89.9823 78.6792 89.2749 78.3529 88.5234 78.311Z" fill="#263238"/>
<path d="M108.967 79.123C108.969 79.3913 109.051 79.653 109.201 79.8754C109.351 80.0979 109.563 80.2715 109.81 80.3746C110.058 80.4778 110.331 80.5059 110.594 80.4556C110.858 80.4053 111.101 80.2787 111.293 80.0916C111.485 79.9044 111.618 79.665 111.676 79.4029C111.733 79.1408 111.713 78.8676 111.616 78.6172C111.52 78.3668 111.352 78.1502 111.134 77.9942C110.915 77.8383 110.656 77.7498 110.388 77.7399C110.203 77.7356 110.02 77.7683 109.848 77.8358C109.676 77.9033 109.52 78.0045 109.387 78.1332C109.255 78.262 109.15 78.4159 109.077 78.5858C109.005 78.7558 108.968 78.9384 108.967 79.123Z" fill="black"/>
<path d="M98.0219 79.7322C98.0108 79.9289 98.0386 80.1259 98.1037 80.3118C98.1688 80.4978 98.27 80.669 98.4015 80.8158C98.5329 80.9626 98.692 81.0819 98.8697 81.1671C99.0474 81.2523 99.2401 81.3015 99.4368 81.3121C99.6365 81.3137 99.8345 81.2759 100.02 81.2009C100.205 81.1258 100.373 81.015 100.515 80.8747C100.657 80.7343 100.77 80.5674 100.847 80.3833C100.925 80.1992 100.965 80.0017 100.966 79.802C100.972 79.6087 100.94 79.416 100.872 79.235C100.804 79.0541 100.701 78.8883 100.568 78.7472C100.436 78.6061 100.277 78.4924 100.101 78.4126C99.925 78.3329 99.7348 78.2886 99.5415 78.2824C99.3482 78.2761 99.1556 78.308 98.9746 78.3762C98.7936 78.4444 98.6278 78.5476 98.4867 78.6799C98.3456 78.8121 98.2319 78.9709 98.1522 79.1471C98.0724 79.3233 98.0282 79.5135 98.0219 79.7068V79.7322Z" fill="black"/>
<path d="M112.597 76.5661L109.062 75.1639C109.144 74.9262 109.274 74.7078 109.444 74.5226C109.614 74.3373 109.821 74.1891 110.05 74.0873C110.28 73.9854 110.529 73.9321 110.78 73.9307C111.032 73.9293 111.281 73.9797 111.512 74.0789C111.977 74.2749 112.35 74.6424 112.552 75.1055C112.754 75.5685 112.77 76.0915 112.597 76.5661Z" fill="black"/>
<path d="M105.617 78.0065L105.439 86.4705L109.989 85.4617L105.617 78.0065Z" fill="#F28F8F"/>
<path d="M100.256 88.1963L104.697 89.5731C104.633 89.8759 104.507 90.1622 104.327 90.4141C104.147 90.6661 103.917 90.8784 103.652 91.0379C103.386 91.1973 103.091 91.3005 102.784 91.3411C102.477 91.3816 102.165 91.3586 101.867 91.2735C101.258 91.0616 100.752 90.6255 100.453 90.0538C100.153 89.4822 100.083 88.818 100.256 88.1963Z" fill="#B16668"/>
<path d="M102.711 91.3496C102.706 90.732 102.457 90.1413 102.018 89.7064C101.58 89.2714 100.987 89.0273 100.37 89.0274C100.308 89.0242 100.247 89.0242 100.186 89.0274C100.208 89.5231 100.38 90.0005 100.677 90.3977C100.975 90.7948 101.385 91.0933 101.854 91.2544C102.13 91.3454 102.422 91.3778 102.711 91.3496Z" fill="#F28F8F"/>
<path d="M101.638 96.2986C98.4341 95.9179 91.8291 94.0779 90.7568 91.394C91.1865 92.7413 92.011 93.9283 93.1235 94.8012C95.1158 96.5143 101.638 98.2972 101.638 98.2972V96.2986Z" fill="#F28F8F"/>
<path d="M88.3644 97.187C87.5269 97.0157 86.7846 97.3837 86.0993 98.5384C85.4141 99.6932 83.9103 102.155 83.9103 102.155C83.9103 102.155 83.1299 110.27 83.9103 112.307C84.5829 114.058 92 120.625 92 120.625C92 120.625 90.0648 127.915 89.9951 130.307C89.9253 132.699 94.4365 141.779 94.9821 146.423C94.9821 146.423 96.5874 131.83 95.8958 126.57C94.7029 117.452 90.4265 105.676 88.4088 101.933L88.3644 97.187Z" fill="#EBEBEB"/>
<path d="M92.9019 127.388C92.4069 126.21 91.8236 125.071 91.1571 123.981C90.1038 122.236 88.8031 120.561 87.6293 120.13C87.4514 120.059 87.2624 120.021 87.071 120.016H87.0075C86.8143 120.027 86.6248 120.074 86.4492 120.155C85.5228 120.568 84.5457 121.83 83.7526 123.283C82.9404 124.742 82.2711 126.277 81.754 127.864C81.4494 128.848 81.5827 130.935 81.9443 133.321C82.655 137.953 84.2348 143.739 85.1168 144.881C85.7632 145.679 86.5269 146.374 87.3819 146.943C86.8584 147.29 86.2935 147.569 85.7005 147.775C85.3651 147.897 85.0107 147.959 84.6536 147.959V148.79H84.7551C85.1323 148.784 85.5065 148.722 85.8655 148.606C86.6971 148.336 87.4824 147.94 88.194 147.432C88.9452 147.879 89.7604 148.209 90.6114 148.409C91.0121 148.505 91.4265 148.531 91.836 148.485L91.7345 147.66C91.3791 147.69 91.0213 147.662 90.6749 147.578C90.0645 147.419 89.4762 147.184 88.9237 146.88C89.7289 146.239 90.4345 145.482 91.0175 144.634C91.5124 143.879 92.1215 141.277 92.5783 138.289C92.8575 136.506 93.0859 134.59 93.2128 132.845C93.3524 130.409 93.2889 128.321 92.9019 127.388ZM90.2815 144.177C89.6862 145.036 88.9555 145.792 88.1179 146.417C87.2281 145.867 86.4349 145.175 85.7703 144.367C84.9455 143.295 83.4227 137.648 82.7375 133.194C82.3885 130.942 82.2616 128.994 82.5408 128.118C83.0582 126.511 83.7429 124.963 84.5838 123.499C85.4594 121.989 86.3921 120.879 87.0393 120.853C87.807 120.853 89.0506 122.243 90.2117 124.026C90.4465 124.375 90.6685 124.755 90.8842 125.136C91.3576 125.956 91.7813 126.803 92.1532 127.674C92.5022 128.537 92.5403 130.485 92.3816 132.75C92.2928 134.019 92.1532 135.345 91.9756 136.665C91.4934 140.11 90.8145 143.339 90.2815 144.158V144.177Z" fill="#455A64"/>
<path d="M92.9715 147.997C92.9814 148.239 92.9192 148.478 92.7928 148.685C92.6663 148.892 92.4814 149.057 92.2613 149.158C92.0413 149.26 91.796 149.294 91.5566 149.256C91.3172 149.218 91.0944 149.11 90.9165 148.945C90.7385 148.781 90.6134 148.567 90.557 148.331C90.5006 148.096 90.5155 147.848 90.5997 147.621C90.6838 147.394 90.8336 147.197 91.0299 147.055C91.2262 146.912 91.4603 146.832 91.7026 146.823C92.0263 146.811 92.3417 146.927 92.5795 147.147C92.8174 147.368 92.9583 147.673 92.9715 147.997Z" fill="#263238"/>
<path d="M85.859 148.327C85.8701 148.569 85.809 148.809 85.6834 149.017C85.5577 149.224 85.3733 149.39 85.1534 149.493C84.9335 149.595 84.6881 149.63 84.4483 149.593C84.2085 149.556 83.9852 149.448 83.8066 149.284C83.628 149.12 83.5023 148.906 83.4453 148.67C83.3884 148.434 83.4028 148.187 83.4867 147.959C83.5707 147.732 83.7203 147.534 83.9168 147.391C84.1132 147.249 84.3475 147.168 84.59 147.159C84.75 147.152 84.9098 147.177 85.0602 147.232C85.2106 147.287 85.3487 147.371 85.4666 147.48C85.5844 147.588 85.6797 147.719 85.7471 147.864C85.8144 148.009 85.8524 148.166 85.859 148.327Z" fill="#263238"/>
<path d="M93.1111 132.832L92.4069 132.782C92.3351 132.775 92.2685 132.741 92.2212 132.687C92.1739 132.632 92.1495 132.562 92.1531 132.49C92.299 130.161 92.2229 128.448 91.9373 127.763C90.7064 124.755 88.1304 120.986 87.0454 121.031C85.9605 121.075 83.7144 125.054 82.7373 128.15C82.5152 128.86 82.585 130.574 82.9213 132.883C82.9323 132.954 82.9153 133.026 82.8738 133.084C82.8322 133.142 82.7696 133.182 82.6992 133.194L82.0013 133.302C81.9281 133.311 81.8544 133.291 81.7961 133.245C81.7379 133.2 81.6999 133.134 81.6904 133.061C81.3034 130.472 81.2589 128.695 81.5508 127.775C82.0711 126.113 84.5265 119.889 86.9947 119.787C89.4628 119.686 92.4386 125.675 93.0985 127.293C93.4601 128.182 93.568 129.958 93.403 132.566C93.3981 132.639 93.365 132.708 93.3106 132.758C93.2562 132.807 93.1848 132.834 93.1111 132.832Z" fill="#022C49"/>
<path d="M77.896 103.221C73.2516 103.145 71.107 104.712 68.163 108.652C65.8281 111.78 56.7423 128.683 53.7285 133.619L37.3207 124.851C34.0023 122.56 32.93 118.943 30.8299 116.831C28.7297 114.718 26.5534 114.293 24.2439 112.548C21.9344 110.803 20.9953 109.445 20.3291 111.076C19.6629 112.706 22.2326 115.346 22.7211 115.999C23.2097 116.653 25.7857 118.106 22.442 118.157C19.0982 118.207 12.4805 114.743 10.8689 114.128C9.25735 113.512 9.35252 115.435 10.1456 116.666C10.9387 117.897 10.9007 121.374 12.2394 123.385C13.6543 125.517 14.4284 126.443 17.5818 127.826C20.5131 129.095 26.6676 129.603 29.783 131.551C32.8983 133.499 40.62 140.364 45.3152 144.482C51.2857 149.716 55.4035 150.674 58.7282 147.533C61.9577 144.152 65.2317 140.186 66.8306 138.175C71.1388 132.75 77.9531 120.409 77.9531 120.409C77.9531 120.409 80.9035 114.064 77.896 103.221Z" fill="#FFA8A7"/>
<path d="M78.5369 102.758C71.6971 102.758 69.6541 105.232 66.1517 110.949C62.6493 116.666 53.665 133.029 53.665 133.029L40.7279 126.253C40.7279 126.253 38.3993 131.379 35.9248 136.665C35.9248 136.665 43.2468 143.009 46.7111 146.011C50.1754 149.012 54.769 151.366 59.0264 147.692C63.5757 143.771 78.3275 123.398 78.3275 123.398C81.8299 117.04 81.0494 107.402 78.5369 102.758Z" fill="#F0F0F0"/>
<path d="M53.665 133.029C55.7779 135.516 58.3349 138.314 58.2206 140.516C58.2206 140.516 59.6673 138.562 54.585 131.36L53.665 133.029Z" fill="#E0E0E0"/>
<path d="M29.1924 72.0106L23.9008 75.0434L23.9198 68.9651L19.9606 66.6809L10.7288 72.0106V82.6699L1.49707 87.9996V98.659L5.45626 100.943L10.7288 97.8976V103.995L14.688 106.279L23.9198 100.943V90.2838L33.1516 84.9541V74.2947L29.1924 72.0106Z" fill="#022C49"/>
<path d="M5.45703 90.2837V100.943L14.6888 95.6134V106.279L23.9206 100.943V90.2837L33.1523 84.954V74.2947L23.8888 79.6434L23.9206 68.965L14.6888 74.2947V84.954L5.45703 90.2837Z" fill="#022C49"/>
<g opacity="0.2">
<path d="M5.45626 100.943L1.49707 98.6589V87.9995L5.45626 90.2837V100.943Z" fill="black"/>
<path d="M14.6877 74.2947L10.7285 72.0105V82.6699L14.6877 84.954V74.2947Z" fill="black"/>
<path d="M14.6877 106.279L10.7285 103.995V97.8974L14.6877 95.6133V106.279Z" fill="black"/>
</g>
<g opacity="0.5">
<path d="M14.688 84.9541L10.7288 82.6699L1.49707 87.9996L5.45626 90.2838L14.688 84.9541Z" fill="white"/>
<path d="M23.9195 68.9651L19.9603 66.6809L10.7285 72.0106L14.6877 74.2947L23.9195 68.9651Z" fill="white"/>
<path d="M33.1512 74.2948L29.192 72.0106L23.9004 75.0435L23.8877 79.6435L33.1512 74.2948Z" fill="white"/>
</g>
<path d="M181.038 50.6157C180.87 50.4704 180.69 50.3409 180.498 50.2286C179.826 49.8289 176.78 48.0777 176.622 47.9825C175.01 46.9547 172.459 47.1831 170.188 48.3315C166.933 49.9748 164.224 53.4455 162.155 59.2256C162.155 59.2256 160.062 57.7219 159.383 57.3222C157.701 56.4022 155.734 56.8463 153.52 58.2866C151.026 59.9109 149.326 62.0174 147.772 65.2025V65.2596C146.424 67.9641 145.688 70.9315 145.614 73.9521C145.614 80.6332 148.349 83.8183 151.908 86.2103C152.924 86.8956 155.607 88.3358 155.874 88.5135C158.022 89.9318 160.398 90.9706 162.898 91.5844L166.406 92.4029L169.915 87.5364C172.47 83.9481 174.815 80.2154 176.939 76.3568C180.498 69.8533 183.284 63.483 183.233 56.8273C183.182 53.9784 182.364 51.8846 181.038 50.6157Z" fill="#022C49"/>
<path opacity="0.3" d="M181.038 50.6157C180.87 50.4704 180.69 50.3409 180.498 50.2286C179.826 49.8289 176.78 48.0777 176.622 47.9825C175.01 46.9547 172.459 47.1831 170.188 48.3315C166.933 49.9748 164.224 53.4455 162.155 59.2256C162.155 59.2256 160.062 57.7219 159.383 57.3222C157.701 56.4022 155.734 56.8463 153.52 58.2866C151.026 59.9109 149.326 62.0174 147.772 65.2025V65.2596C146.424 67.9641 145.688 70.9315 145.614 73.9521C145.614 80.6332 148.349 83.8183 151.908 86.2103C152.924 86.8956 155.607 88.3358 155.874 88.5135C158.022 89.9318 160.398 90.9706 162.898 91.5844L166.406 92.4029L169.915 87.5364C172.47 83.9481 174.815 80.2154 176.939 76.3568C180.498 69.8533 183.284 63.483 183.233 56.8273C183.182 53.9784 182.364 51.8846 181.038 50.6157Z" fill="black"/>
<path d="M181.038 50.6157C180.87 50.4704 180.689 50.3409 180.498 50.2286C179.826 49.8289 176.78 48.0777 176.621 47.9825C175.01 46.9547 172.459 47.1831 170.188 48.3315C166.933 49.9748 164.224 53.4455 162.155 59.2256C162.155 59.2256 160.061 57.7219 159.382 57.3222C157.701 56.4022 155.734 56.8463 153.52 58.2866C151.026 59.9109 149.326 62.0174 147.771 65.2025V65.2596C147.702 65.3992 147.645 65.5388 147.581 65.6784L174.229 81.0456C175.175 79.5102 176.095 77.9557 176.97 76.3568C180.53 69.8533 183.315 63.483 183.265 56.8273C183.182 53.9784 182.364 51.8846 181.038 50.6157Z" fill="#022C49"/>
<path opacity="0.15" d="M181.038 50.6157C180.87 50.4704 180.689 50.3409 180.498 50.2286C179.826 49.8289 176.78 48.0777 176.621 47.9825C175.01 46.9547 172.459 47.1831 170.188 48.3315C166.933 49.9748 164.224 53.4455 162.155 59.2256C162.155 59.2256 160.061 57.7219 159.382 57.3222C157.701 56.4022 155.734 56.8463 153.52 58.2866C151.026 59.9109 149.326 62.0174 147.771 65.2025V65.2596C147.702 65.3992 147.645 65.5388 147.581 65.6784L174.229 81.0456C175.175 79.5102 176.095 77.9557 176.97 76.3568C180.53 69.8533 183.315 63.483 183.265 56.8273C183.182 53.9784 182.364 51.8846 181.038 50.6157Z" fill="black"/>
<path d="M162.137 59.2003L165.703 63.8511L171.451 57.0494L164.954 53.2996C163.797 55.1547 162.852 57.1341 162.137 59.2003Z" fill="#022C49"/>
<path opacity="0.3" d="M162.137 59.2003L165.703 63.8511L171.451 57.0494L164.954 53.2996C163.797 55.1547 162.852 57.1341 162.137 59.2003Z" fill="black"/>
<path d="M181.037 50.6157C179.483 49.2262 176.653 49.3468 174.153 50.6157C170.746 52.3415 167.929 56.066 165.822 62.3728C163.716 58.5024 160.899 58.3818 157.492 60.5962C154.992 62.2205 153.291 64.327 151.743 67.5121L151.711 67.5692C150.369 70.2774 149.635 73.2463 149.561 76.268C149.561 82.9491 152.302 86.1343 155.855 88.5263C158.003 89.9446 160.379 90.9833 162.878 91.5972L166.387 92.4157L169.896 87.5492C172.45 83.9609 174.795 80.2281 176.92 76.3695C180.479 69.866 183.264 63.4958 183.214 56.84C183.182 53.9785 182.363 51.8847 181.037 50.6157Z" fill="#022C49"/>
<g opacity="0.07">
<path d="M178.043 49.9812C179.021 49.9364 179.982 50.2449 180.752 50.8504C180.765 50.8778 180.785 50.9017 180.809 50.9202C182.116 52.113 182.846 54.2322 182.852 56.8717C182.852 63.8193 179.68 70.5639 176.602 76.2362C174.494 80.0823 172.164 83.8024 169.623 87.3778L166.254 92.0666L162.974 91.2989C160.511 90.694 158.17 89.6725 156.051 88.2787C152.879 86.1215 149.884 83.2029 149.909 76.2996C149.977 73.331 150.689 70.4126 151.997 67.7468V67.6897C153.558 64.4855 155.239 62.4615 157.625 60.9134C158.733 60.0915 160.055 59.6068 161.432 59.5175C163.043 59.5175 164.369 60.5136 165.486 62.563C165.514 62.6179 165.557 62.6638 165.609 62.6952C165.662 62.7267 165.723 62.7425 165.784 62.7407H165.816C165.881 62.7346 165.944 62.7098 165.996 62.6693C166.047 62.6288 166.086 62.5743 166.108 62.5123C168.119 56.491 170.79 52.7095 174.267 50.9519C175.428 50.3438 176.714 50.0116 178.024 49.9812M178.024 49.6449C176.661 49.673 175.323 50.0161 174.115 50.6474C170.708 52.3732 167.891 56.0976 165.784 62.4044C164.566 60.1583 163.107 59.1749 161.432 59.1749C159.994 59.2694 158.614 59.7736 157.454 60.6278C154.954 62.2521 153.253 64.3586 151.705 67.5437L151.673 67.6008C150.331 70.3091 149.597 73.278 149.522 76.2996C149.522 82.9808 152.263 86.1659 155.817 88.5579C157.965 89.9762 160.34 91.015 162.84 91.6288L166.349 92.4473L169.858 87.5808C172.412 83.9925 174.757 80.2598 176.881 76.4012C180.441 69.8977 183.226 63.5274 183.176 56.8717C183.176 54.0102 182.344 51.8846 181.018 50.6664C180.181 49.9842 179.122 49.6342 178.043 49.683L178.024 49.6449Z" fill="black"/>
</g>
<path d="M180.651 68.6034L173.824 72.5499L171.286 63.3181C171.25 63.1785 171.167 63.0553 171.052 62.9688C170.937 62.8823 170.795 62.8377 170.651 62.8422C170.503 62.8392 170.358 62.8884 170.242 62.9811C170.126 63.0739 170.046 63.2044 170.017 63.3498L166.064 81.4073L162.739 72.3088C162.733 72.1405 162.659 71.9818 162.535 71.8676C162.412 71.7533 162.248 71.6929 162.079 71.6997C161.911 71.7064 161.752 71.7797 161.638 71.9034C161.524 72.0272 161.464 72.1912 161.47 72.3595L159.224 80.335L151.712 84.6749C151.959 85.0342 152.226 85.3794 152.511 85.7091L160.125 81.3248C160.272 81.2394 160.381 81.1009 160.43 80.9378L162.2 74.6437L165.607 83.9452C165.652 84.0754 165.739 84.1872 165.853 84.2639C165.968 84.3406 166.104 84.378 166.242 84.3703C166.382 84.3633 166.517 84.3096 166.624 84.2177C166.731 84.1257 166.804 84.0009 166.832 83.8627L170.702 66.2114L172.745 73.7046C172.769 73.801 172.816 73.8904 172.881 73.9655C172.946 74.0406 173.028 74.0993 173.12 74.137C173.212 74.1746 173.312 74.1902 173.411 74.1823C173.51 74.1744 173.606 74.1434 173.691 74.0917L179.756 70.5957C180.105 69.9294 180.384 69.2696 180.651 68.6034Z" fill="white"/>
<path d="M209.304 238.29C209.044 239.15 209.022 240.065 209.241 240.936C209.495 241.469 211.081 243.22 214.317 243.855C217.553 244.489 222 243.855 223.917 243.741C225.833 243.626 231.848 244.375 233.757 244.616C236.765 245.022 239.074 244.362 240.197 243.277C240.379 243.059 240.513 242.805 240.591 242.532C240.669 242.259 240.688 241.972 240.648 241.691C240.641 240.967 240.535 240.248 240.331 239.553L209.304 238.29Z" fill="#263238"/>
<path d="M239.836 236.406C239.893 236.653 239.95 236.907 240.001 237.161C240.293 238.438 240.385 239.752 240.273 241.057C239.886 242.008 238.827 242.535 237.97 242.802C235.705 243.525 233.986 243.436 231.479 242.935C228.959 242.568 226.412 242.411 223.866 242.465C221.892 242.599 219.177 242.979 217.204 242.795C215.526 242.725 213.87 242.387 212.299 241.793C210.986 241.234 209.64 240.524 209.317 239.153C208.93 236.298 210.129 235.042 211.48 234.242C212.832 233.443 214.754 233.506 216.81 233.373C218.669 233.246 220.027 233.246 221.683 233.119C223.115 233.05 224.537 232.852 225.934 232.529C227.203 232.136 228.472 230.543 228.992 230.486C228.992 230.486 237.272 230.423 238.059 230.486C238.973 230.562 239.252 233.392 239.366 234.008C239.455 234.49 239.474 235.01 239.601 235.473C239.683 235.784 239.759 236.095 239.836 236.406Z" fill="#37474F"/>
<path d="M214.323 242.414C214.063 240.359 213.688 235.905 217.495 233.329H217.971C216.261 232.834 214.446 232.834 212.737 233.329C209.71 234.134 208.365 236.583 209.12 239.172C209.133 239.147 209.805 241.653 214.323 242.414Z" fill="#FAFAFA"/>
<path d="M225.37 232.675C224.146 233.76 223.721 236.228 223.721 236.228C223.562 237.155 221.887 237.294 222.046 236.4C222.301 235.17 222.795 234.001 223.499 232.961C224.073 232.658 224.732 232.557 225.37 232.675Z" fill="#FAFAFA"/>
<path d="M221.937 233.1C221.014 234.004 220.41 235.185 220.218 236.463C220.047 237.351 218.651 237.338 218.752 236.463C218.752 236.463 218.911 234.274 220.218 233.252C220.471 233.09 220.76 232.992 221.059 232.965C221.358 232.939 221.66 232.985 221.937 233.1Z" fill="#FAFAFA"/>
<path d="M238.314 224.465C238.314 224.465 238.092 229.788 237.8 231.533C237.622 232.574 236.258 233.665 232.863 233.551C230.478 233.468 228.6 233.665 228.695 231.799L228.904 226.362L238.314 224.465Z" fill="#FFA8A7"/>
<path d="M243.636 211.889C243.515 213.342 243.319 214.656 243.915 216.255C244.765 218.552 246.567 219.605 247.627 220.506C248.742 221.61 249.77 222.798 250.704 224.059C251.745 225.328 252.018 226.083 253.578 227.466C254.356 228.065 255.276 228.452 256.248 228.588C257.22 228.725 258.211 228.607 259.124 228.246C260.475 227.669 260.945 227.212 260.862 225.137C260.78 223.063 254.169 222.358 254.169 222.358L243.636 211.889Z" fill="#263238"/>
<path d="M260.006 218.958C260.571 219.161 260.71 220.182 260.799 222.212C260.863 223.748 261.541 226.019 259.314 226.965C257.519 227.745 254.651 227.225 253.439 225.778C251.929 223.97 250.901 222.377 248.744 220.176C246.84 218.272 244.937 217.638 244.093 213.799C243.554 211.337 243.979 210.322 245.717 209.618C248.109 208.647 251.859 211.813 253.737 212.314C255.349 212.74 259.441 218.755 260.006 218.958Z" fill="#37474F"/>
<path d="M253.737 212.315L253.42 212.207C252.35 212.247 251.31 212.566 250.401 213.132C249.493 213.699 248.749 214.493 248.243 215.436C247.925 216.102 248.877 216.623 249.512 216.102C250.844 213.564 253.585 213.019 254.683 212.898C254.413 212.639 254.09 212.44 253.737 212.315Z" fill="#FAFAFA"/>
<path d="M255.28 213.469C254.276 213.563 253.311 213.905 252.471 214.465C251.632 215.024 250.944 215.783 250.471 216.673C250.153 217.308 251.137 217.86 251.74 217.308C252.193 216.514 252.813 215.828 253.558 215.299C254.304 214.77 255.155 214.409 256.054 214.243C255.781 213.99 255.528 213.717 255.28 213.469Z" fill="#FAFAFA"/>
<path d="M260.33 215.29L260.007 219.573C260.007 219.573 257.285 221.559 253.383 219.738C253.268 219.503 252.938 215.671 252.938 215.671L260.33 215.29Z" fill="#FFA8A7"/>
<path d="M245.191 216.623C245.191 216.623 245.375 212.073 251.841 211.445L252.215 211.642C251.48 210.501 250.351 209.67 249.043 209.307C246.898 208.755 245.198 209.307 244.068 210.665C242.939 212.023 244.075 215.741 245.191 216.623Z" fill="#FAFAFA"/>
<path d="M262.214 186.764C261.288 179.27 260.946 175.096 260.946 175.096C260.946 175.096 260.761 164.544 261.402 154.792C261.681 150.516 261.827 145.782 261.916 141.468C262.035 136.717 261.656 131.966 260.787 127.293C260.787 127.293 227.61 120.695 227.197 132.864C226.696 147.457 226.759 172.399 226.195 181.923C225.884 187.271 226.423 191.706 226.759 202.099C227.032 210.716 226.95 231.92 226.95 231.92C230.604 236.939 239.233 233.113 239.233 233.113C239.233 233.113 241.898 203.337 242.292 197.182C242.71 190.564 242.012 187.214 242.012 187.214L245.432 156.385C245.432 156.385 245.692 166.276 245.984 171.612C246.276 176.948 247.057 180.229 248.446 190.184C249.652 198.825 252.215 220.88 252.215 220.88C256.656 223.507 260.946 220.88 260.946 220.88C260.946 220.88 263.141 194.257 262.214 186.764Z" fill="#455A64"/>
<path d="M257.684 144.183C257.684 144.183 253.528 149.488 248.167 151.765C248.167 151.765 245.844 170.413 245.863 170.045L245.261 151.277C245.261 151.277 253.243 147.749 257.684 144.183Z" fill="#37474F"/>
<path d="M257.57 84.2435C261.142 83.4441 265.184 85.9947 267.874 91.6861C270.476 97.1299 277.582 110.879 277.753 114.731C277.937 118.722 260.184 130.827 260.622 130.593C260.762 130.523 257.558 121.437 257.558 121.437L266.18 114.299L261.491 104.642L257.57 84.2435Z" fill="#FFA8A7"/>
<path d="M255.692 83.3869C258.7 83.0189 264.15 84.1546 266.231 87.7712C269.251 93.0057 272.005 99.0587 275.514 106.882C275.514 106.882 272.912 112.516 265.425 113.049L260.94 105.181L255.692 83.3869Z" fill="#37474F"/>
<path d="M240.553 78.6727L241.073 89.7762L252.075 89.1861L251.739 76.287L240.553 78.6727Z" fill="#FFA8A7"/>
<path d="M262.881 88.9768C261.954 85.9503 258.756 83.4567 254.715 83.3362C253.814 83.3362 251.923 83.3362 251.923 83.3362C251.466 85.2079 245.737 85.8741 240.839 84.7511C239.36 85.1445 233.225 86.6545 231.956 87.0352C228.434 88.2027 227.349 91.7939 226.804 103.278C226.804 103.278 226.912 125.917 226.804 136.722C232.996 139.989 242.564 139.583 249.372 138.892C260.07 137.813 261.662 133.936 261.662 133.936C261.212 127.636 261.485 125.263 261.662 119.045C261.796 114.369 263.141 109.426 263.566 104.128C264.194 96.2543 263.509 91.0579 262.881 88.9768Z" fill="#022C49"/>
<path d="M238.834 80.7793C236.296 80.6016 233.123 82.6257 232.305 86.9592L234.373 86.4072L238.834 80.7793Z" fill="#022C49"/>
<path opacity="0.3" d="M238.834 80.7793C236.296 80.6016 233.123 82.6257 232.305 86.9592L234.373 86.4072L238.834 80.7793Z" fill="black"/>
<path d="M240.693 81.7057C242.596 82.3402 248.148 82.2513 250.007 81.7057C251.866 81.16 251.847 80.3352 251.847 80.3352V79.4025C252.919 79.3995 253.966 79.725 254.848 80.3352C256.034 81.2996 258.077 84.7766 258.02 86.4453C257.963 88.114 254.397 92.5173 247.52 92.4094C240.642 92.3016 236.778 89.7573 235.591 88.0823L234.398 86.4009C234.398 86.4009 236.029 83.0508 237.634 81.6422C238.457 80.8444 239.513 80.3289 240.648 80.1702L240.693 81.7057Z" fill="#022C49"/>
<path opacity="0.2" d="M240.693 81.7057C242.596 82.3402 248.148 82.2513 250.007 81.7057C251.866 81.16 251.847 80.3352 251.847 80.3352V79.4025C252.919 79.3995 253.966 79.725 254.848 80.3352C256.034 81.2996 258.077 84.7766 258.02 86.4453C257.963 88.114 254.397 92.5173 247.52 92.4094C240.642 92.3016 236.778 89.7573 235.591 88.0823L234.398 86.4009C234.398 86.4009 236.029 83.0508 237.634 81.6422C238.457 80.8444 239.513 80.3289 240.648 80.1702L240.693 81.7057Z" fill="black"/>
<path d="M233.149 65.0566C233.149 65.0566 230.528 69.0349 230.826 69.4219C231.125 69.8089 233.053 70.1706 233.053 70.1706L233.149 65.0566Z" fill="#F28F8F"/>
<path d="M240.432 54.0419C235.128 55.1649 233.009 56.7194 232.679 65.7862C232.362 74.6056 233.472 77.5115 234.627 78.698C235.407 79.4975 239.753 79.6434 241.942 79.0343C244.683 78.2792 250.882 76.0839 253.782 71.6552C257.196 66.4397 258.09 59.3716 254.416 56.472C249.296 52.3922 242.596 53.5851 240.432 54.0419Z" fill="#FFA8A7"/>
<path d="M234.627 78.6917C235.261 79.3262 238.301 79.5673 240.585 79.2881L240.553 77.9747C238.661 78.6729 236.631 78.9184 234.627 78.6917Z" fill="#F28F8F"/>
<path d="M231.974 57.4491C233.296 58.3965 234.935 58.7904 236.543 58.5468C236.511 59.2577 236.702 59.9608 237.088 60.5581C237.627 61.3726 238.443 61.9635 239.385 62.2205C238.804 63.3587 238.496 64.6163 238.484 65.8942C238.448 66.2952 238.535 66.6977 238.732 67.0489C238.792 67.1765 238.888 67.2843 239.008 67.3597C239.127 67.4352 239.266 67.4752 239.407 67.4752C239.549 67.4752 239.687 67.4352 239.807 67.3597C239.926 67.2843 240.022 67.1765 240.083 67.0489C240.381 66.3739 240.756 65.7353 241.2 65.1455C241.775 64.4572 242.584 64.0054 243.471 63.8765C246.802 63.5148 247.221 67.8738 245.889 69.682C243.706 72.6387 241.853 70.6338 241.853 70.6338C241.768 72.0198 241.979 73.408 242.471 74.7064C242.963 76.0049 243.726 77.1838 244.708 78.1651C247.076 78.8628 249.586 78.9263 251.986 78.3491C254.943 74.2821 256.802 72.3025 258.382 68.7938C261.719 61.3639 260.107 56.7005 257.525 54.7336C257.017 51.3137 254.321 49.7782 251.244 49.0739C246.65 48.0143 242.361 50.7426 237.805 49.7084C237.058 49.5519 236.318 49.3571 235.591 49.1247C235.311 48.9933 234.991 48.9729 234.696 49.0676C234.533 49.1761 234.405 49.3301 234.328 49.5105C234.252 49.6909 234.23 49.8899 234.265 50.0828C234.322 50.9584 235.21 51.9291 235.661 52.3986C234.666 52.4897 233.663 52.4319 232.685 52.2273C232.345 52.1637 231.997 52.1637 231.657 52.2273C231.284 52.3791 230.969 52.6451 230.757 52.9871C230.545 53.3291 230.447 53.7295 230.477 54.1308C230.481 54.7578 230.616 55.3771 230.874 55.9487C231.132 56.5203 231.507 57.0314 231.974 57.4491Z" fill="#263238"/>
<path d="M257.608 55.8376L260.781 53.9341C260.528 53.5134 260.119 53.2102 259.643 53.0912C259.167 52.9723 258.664 53.0472 258.243 53.2996C257.822 53.552 257.519 53.9612 257.4 54.4372C257.281 54.9132 257.356 55.4169 257.608 55.8376Z" fill="#263238"/>
<path d="M216.265 105.816C215.546 102.99 214.852 100.161 214.184 97.3266C213.549 94.7189 212.572 91.6987 213.467 89.0339C213.975 87.87 214.614 86.7675 215.37 85.7472C216.025 84.6719 216.577 83.5375 217.02 82.3591C217.242 81.788 217.445 81.2043 217.655 80.6269C217.864 80.0495 218.162 79.7196 218.023 79.1676C217.559 77.3593 215.224 79.7323 214.749 80.4747C214.537 80.8643 214.291 81.2339 214.013 81.5787C213.708 81.9022 212.966 82.3083 212.61 81.8324C212.492 81.6415 212.426 81.4226 212.42 81.198C212.179 78.4126 213.181 75.919 214.013 73.3177C214.144 72.9761 214.223 72.6168 214.247 72.2517C214.262 72.0694 214.238 71.886 214.175 71.7141C214.113 71.5422 214.014 71.3857 213.886 71.2556C213.679 71.0969 213.434 70.9957 213.175 70.9623C212.917 70.9289 212.654 70.9644 212.414 71.0652C211.944 71.2238 211.538 71.5221 211.069 71.668C210.599 71.8139 210.25 71.8139 209.838 71.9218C208.859 72.1399 207.917 72.4967 207.04 72.9814C205.517 73.876 204.844 75.183 204.445 76.8454C203.964 78.8873 203.802 80.991 203.962 83.0824C204.07 84.4719 204.318 85.8424 204.489 87.2129L205.06 91.8002C205.447 94.8584 205.561 110.137 206.088 113.176C206.614 116.215 207.63 118.252 210.034 119.261C213.524 120.682 219.165 114.261 222.369 110.936L216.265 105.816Z" fill="#FFA8A7"/>
<path d="M214.99 104.084C212.744 105.765 209.946 108.563 209.381 111.368C209.381 111.368 208.823 106.324 214.99 101.85V104.084Z" fill="#F28F8F"/>
<path d="M231.778 87.105C229.621 87.308 226.068 87.3842 222.451 91.2736C218.257 95.8165 211.792 104.775 211.792 104.775C211.792 104.775 212.636 111.907 219.501 114.464C219.501 114.464 229.481 104.947 231.626 100.848C233.771 96.7492 234.253 89.9538 231.778 87.105Z" fill="#37474F"/>
<path d="M228.904 72.0296L226.175 70.5639L227.742 69.2252L222.077 66.573L224.551 65.1391L218.447 61.8905L222.077 65.0947L219.126 66.573L225.782 69.4536L224.139 71.0969L228.904 72.0296Z" fill="#022C49"/>
<path d="M230.293 68.432L228.517 66.7316L229.488 66.0146L227.927 64.1619L229.424 63.6544L228.904 61.3068L229.957 63.8384L228.904 64.2952L230.592 66.1479L229.45 66.96L230.293 68.432Z" fill="#022C49"/>
<path d="M229.259 74.7135L225.909 77.3275L224.672 75.5066L221.741 77.0991L220.541 74.8467L216.005 76.0078L221.252 73.4952L222.756 75.57L225.192 74.263L226.207 76.0078L229.259 74.7135Z" fill="#022C49"/>
<path d="M205.967 121.494C206.069 121.41 206.201 121.369 206.333 121.381C206.465 121.392 206.586 121.456 206.672 121.558C207.32 122.286 208.163 122.815 209.101 123.083C210.039 123.35 211.034 123.345 211.97 123.068C212.033 123.045 212.101 123.036 212.169 123.04C212.236 123.045 212.302 123.063 212.362 123.093C212.423 123.124 212.476 123.166 212.52 123.218C212.563 123.27 212.596 123.33 212.616 123.394C212.636 123.459 212.642 123.527 212.635 123.594C212.627 123.662 212.607 123.727 212.573 123.786C212.54 123.845 212.496 123.896 212.442 123.938C212.388 123.979 212.327 124.009 212.261 124.026C211.14 124.358 209.946 124.362 208.822 124.038C207.698 123.715 206.69 123.076 205.917 122.198C205.873 122.149 205.84 122.092 205.819 122.029C205.798 121.967 205.79 121.901 205.794 121.836C205.799 121.77 205.817 121.706 205.846 121.648C205.876 121.589 205.917 121.537 205.967 121.494Z" fill="#E0E0E0"/>
<path d="M206.475 124.851C206.564 124.776 206.676 124.735 206.792 124.735C206.908 124.735 207.021 124.776 207.11 124.851C207.626 125.224 208.218 125.48 208.844 125.6C209.47 125.721 210.114 125.703 210.733 125.548C210.864 125.524 210.999 125.553 211.11 125.627C211.22 125.702 211.297 125.817 211.323 125.948C211.336 126.012 211.336 126.078 211.323 126.143C211.31 126.207 211.284 126.268 211.248 126.322C211.211 126.376 211.164 126.423 211.11 126.459C211.055 126.495 210.994 126.52 210.929 126.532C210.165 126.709 209.371 126.717 208.603 126.553C207.836 126.39 207.114 126.06 206.488 125.587C206.438 125.544 206.397 125.492 206.367 125.433C206.337 125.375 206.319 125.311 206.315 125.245C206.31 125.179 206.318 125.114 206.339 125.051C206.36 124.989 206.394 124.932 206.437 124.882C206.448 124.87 206.461 124.859 206.475 124.851Z" fill="#E0E0E0"/>
<path d="M268.775 86.3944C268.716 86.4248 268.652 86.4431 268.586 86.4484C268.521 86.4537 268.454 86.4457 268.392 86.425C268.329 86.4043 268.271 86.3713 268.221 86.3279C268.172 86.2845 268.131 86.2316 268.102 86.1723C267.639 85.3137 266.942 84.604 266.092 84.1256C265.242 83.6472 264.273 83.4197 263.299 83.4694C263.233 83.4731 263.167 83.4639 263.105 83.4422C263.043 83.4204 262.986 83.3867 262.936 83.3428C262.837 83.2541 262.777 83.1296 262.769 82.9967C262.762 82.8638 262.807 82.7333 262.896 82.6339C262.985 82.5346 263.109 82.4745 263.242 82.4669C264.412 82.4057 265.574 82.6795 266.594 83.256C267.613 83.8326 268.447 84.688 268.997 85.7218C269.055 85.8408 269.064 85.9776 269.022 86.1032C268.981 86.2289 268.892 86.3333 268.775 86.3944Z" fill="#E0E0E0"/>
<path d="M269.054 83.0316C268.948 83.0875 268.825 83.1029 268.708 83.0749C268.591 83.0469 268.489 82.9774 268.42 82.8794C268.01 82.4008 267.502 82.016 266.931 81.7511C266.359 81.4862 265.737 81.3473 265.108 81.3439C265.042 81.3414 264.977 81.326 264.917 81.2985C264.857 81.271 264.803 81.232 264.759 81.1836C264.714 81.1353 264.679 81.0787 264.656 81.0169C264.633 80.9551 264.623 80.8895 264.625 80.8236C264.628 80.7578 264.643 80.6931 264.671 80.6333C264.698 80.5734 264.737 80.5195 264.786 80.4748C264.834 80.43 264.891 80.3952 264.952 80.3723C265.014 80.3494 265.08 80.3389 265.146 80.3414C265.928 80.3493 266.699 80.5283 267.405 80.8659C268.111 81.2035 268.735 81.6915 269.232 82.2956C269.303 82.403 269.33 82.5341 269.306 82.6609C269.283 82.7877 269.21 82.9002 269.105 82.9745L269.054 83.0316Z" fill="#E0E0E0"/>
<path d="M277.924 119.603C277.86 119.487 277.845 119.351 277.882 119.223C277.919 119.096 278.005 118.989 278.12 118.924C278.956 118.422 279.632 117.692 280.069 116.821C280.506 115.949 280.686 114.971 280.589 114.001C280.581 113.935 280.586 113.869 280.604 113.805C280.622 113.742 280.653 113.683 280.694 113.631C280.736 113.58 280.787 113.537 280.845 113.506C280.903 113.474 280.967 113.455 281.033 113.449C281.165 113.435 281.297 113.473 281.401 113.557C281.504 113.64 281.57 113.761 281.585 113.893C281.698 115.053 281.48 116.222 280.955 117.263C280.431 118.304 279.622 119.175 278.622 119.775C278.565 119.81 278.502 119.834 278.435 119.845C278.369 119.855 278.302 119.852 278.237 119.836C278.172 119.82 278.11 119.792 278.057 119.752C278.003 119.711 277.958 119.661 277.924 119.603Z" fill="#E0E0E0"/>
<path d="M281.293 119.724C281.236 119.621 281.217 119.501 281.239 119.385C281.261 119.269 281.323 119.165 281.414 119.089C281.874 118.659 282.235 118.134 282.473 117.55C282.711 116.966 282.819 116.337 282.79 115.708C282.79 115.575 282.843 115.447 282.937 115.353C283.031 115.259 283.159 115.206 283.292 115.206C283.425 115.206 283.552 115.259 283.646 115.353C283.74 115.447 283.793 115.575 283.793 115.708C283.82 116.489 283.678 117.267 283.375 117.987C283.073 118.708 282.618 119.355 282.042 119.883C281.99 119.923 281.931 119.954 281.868 119.972C281.804 119.99 281.738 119.995 281.673 119.987C281.607 119.98 281.544 119.959 281.486 119.927C281.429 119.895 281.378 119.852 281.337 119.8L281.293 119.724Z" fill="#E0E0E0"/>
<path d="M222.927 180.051C223.045 180.111 223.136 180.215 223.178 180.341C223.221 180.466 223.213 180.604 223.155 180.723C222.753 181.612 222.613 182.596 222.75 183.561C222.887 184.526 223.296 185.432 223.929 186.174C224.015 186.276 224.057 186.408 224.047 186.541C224.036 186.674 223.973 186.797 223.872 186.884C223.772 186.97 223.642 187.013 223.51 187.004C223.378 186.994 223.255 186.933 223.168 186.833C222.407 185.941 221.917 184.851 221.755 183.69C221.593 182.529 221.767 181.345 222.254 180.279C222.314 180.161 222.418 180.071 222.544 180.028C222.67 179.985 222.807 179.993 222.927 180.051Z" fill="#E0E0E0"/>
<path d="M220.085 181.859C220.193 181.91 220.279 181.999 220.328 182.108C220.377 182.217 220.385 182.341 220.351 182.456C220.218 183.072 220.22 183.71 220.357 184.325C220.494 184.941 220.762 185.52 221.144 186.021C221.219 186.13 221.248 186.264 221.226 186.395C221.203 186.525 221.131 186.642 221.024 186.719C220.915 186.796 220.781 186.826 220.65 186.803C220.519 186.781 220.402 186.707 220.326 186.599C219.855 185.971 219.528 185.249 219.366 184.482C219.203 183.715 219.211 182.921 219.387 182.157C219.406 182.094 219.438 182.034 219.481 181.983C219.523 181.932 219.576 181.89 219.635 181.859C219.694 181.829 219.758 181.81 219.825 181.804C219.891 181.799 219.958 181.807 220.021 181.827L220.085 181.859Z" fill="#E0E0E0"/>
<path d="M185.637 5.8527C185.606 5.26106 185.435 4.68523 185.139 4.17239C184.842 3.65956 184.428 3.22432 183.931 2.90234L182.548 2.09654C182.019 1.83188 181.435 1.69409 180.844 1.69409C180.253 1.69409 179.669 1.83188 179.14 2.09654L147.004 20.6679C146.507 20.9907 146.094 21.4261 145.797 21.9388C145.5 22.4515 145.329 23.0269 145.297 23.6183V40.2355C145.33 40.8268 145.501 41.402 145.798 41.9146C146.094 42.4272 146.507 42.8627 147.004 43.1859L148.393 43.9853C148.921 44.2544 149.505 44.3946 150.097 44.3946C150.689 44.3946 151.273 44.2544 151.8 43.9853L183.931 25.4202C184.428 25.0983 184.842 24.663 185.139 24.1502C185.435 23.6374 185.606 23.0615 185.637 22.4699V5.8527Z" fill="#022C49"/>
<path opacity="0.5" d="M185.637 5.8527C185.606 5.26106 185.435 4.68523 185.139 4.17239C184.842 3.65956 184.428 3.22432 183.931 2.90234L182.548 2.09654C182.019 1.83188 181.435 1.69409 180.844 1.69409C180.253 1.69409 179.669 1.83188 179.14 2.09654L147.004 20.6679C146.507 20.9907 146.094 21.4261 145.797 21.9388C145.5 22.4515 145.329 23.0269 145.297 23.6183V40.2355C145.33 40.8268 145.501 41.402 145.798 41.9146C146.094 42.4272 146.507 42.8627 147.004 43.1859L148.393 43.9853C148.921 44.2544 149.505 44.3946 150.097 44.3946C150.689 44.3946 151.273 44.2544 151.8 43.9853L183.931 25.4202C184.428 25.0983 184.842 24.663 185.139 24.1502C185.435 23.6374 185.606 23.0615 185.637 22.4699V5.8527Z" fill="white"/>
<path opacity="0.2" d="M145.297 40.2355C145.33 40.8267 145.501 41.402 145.798 41.9146C146.094 42.4272 146.507 42.8627 147.004 43.1858L148.393 43.9853C148.873 44.2271 149.399 44.3646 149.936 44.3887C150.473 44.4128 151.009 44.3228 151.508 44.1249C150.703 44.4294 150.094 43.9789 150.094 43.0018V26.3846C150.114 25.7905 150.287 25.2116 150.595 24.7032L145.798 21.9369C145.489 22.4449 145.317 23.024 145.297 23.6183V40.2355Z" fill="black"/>
<path opacity="0.3" d="M185.581 5.37053C185.384 4.64722 184.724 4.41246 183.937 4.86929L151.801 23.4343C151.295 23.7447 150.879 24.1822 150.595 24.7033L145.805 21.937C146.088 21.4175 146.501 20.9803 147.004 20.668L179.134 2.10293C179.662 1.83387 180.246 1.6936 180.838 1.6936C181.43 1.6936 182.014 1.83387 182.541 2.10293L183.937 2.90238C184.364 3.18129 184.729 3.54383 185.012 3.96806C185.294 4.39228 185.488 4.86939 185.581 5.37053Z" fill="white"/>
<path d="M150.1 31.7588L145.31 28.9924L139.536 34.5505C139.449 34.6379 139.383 34.744 139.343 34.8606C139.304 34.9772 139.291 35.1014 139.306 35.2236C139.321 35.3459 139.364 35.4631 139.432 35.5663C139.499 35.6696 139.589 35.7561 139.694 35.8195L144.409 38.5605C144.604 38.6626 144.823 38.7087 145.043 38.6937L150.119 37.723V31.7588H150.1Z" fill="#022C49"/>
<path opacity="0.5" d="M150.1 31.7588L145.31 28.9924L139.536 34.5505C139.449 34.6379 139.383 34.744 139.343 34.8606C139.304 34.9772 139.291 35.1014 139.306 35.2236C139.321 35.3459 139.364 35.4631 139.432 35.5663C139.499 35.6696 139.589 35.7561 139.694 35.8195L144.409 38.5605C144.604 38.6626 144.823 38.7087 145.043 38.6937L150.119 37.723V31.7588H150.1Z" fill="white"/>
<path opacity="0.3" d="M144.409 38.5605L141.871 37.1075L141.573 36.9108L140.215 36.124L140.05 36.0225L139.689 35.8131C139.583 35.7498 139.493 35.6632 139.426 35.56C139.358 35.4568 139.316 35.3396 139.3 35.2173C139.285 35.095 139.298 34.9709 139.337 34.8543C139.377 34.7376 139.443 34.6316 139.53 34.5442L145.304 28.9861L150.1 31.7588L144.327 37.2915C144.235 37.373 144.163 37.4743 144.116 37.5877C144.07 37.7012 144.05 37.8238 144.058 37.9461C144.066 38.0685 144.101 38.1875 144.162 38.294C144.223 38.4004 144.308 38.4916 144.409 38.5605Z" fill="white"/>
<path d="M159.485 26.6512C158.822 27.0824 158.27 27.664 157.874 28.3486C157.478 29.0333 157.25 29.8017 157.207 30.5913C157.207 32.038 158.229 32.628 159.485 31.9047C160.147 31.4732 160.698 30.8914 161.092 30.2067C161.487 29.522 161.715 28.7538 161.756 27.9646C161.756 26.5053 160.741 25.9279 159.485 26.6512Z" fill="white"/>
<path d="M167.866 21.8037C167.204 22.2352 166.653 22.817 166.259 23.5017C165.864 24.1864 165.636 24.9546 165.595 25.7439C165.595 27.1905 166.61 27.7806 167.866 27.0509C168.527 26.62 169.078 26.0392 169.472 25.3557C169.867 24.6722 170.095 23.9052 170.138 23.1171C170.125 21.6641 169.122 21.074 167.866 21.8037Z" fill="white"/>
<path d="M176.248 16.9498C175.587 17.3825 175.037 17.9645 174.642 18.649C174.248 19.3335 174.02 20.1011 173.977 20.89C173.977 22.343 174.992 22.9267 176.248 22.2034C176.912 21.7716 177.464 21.189 177.86 20.5031C178.256 19.8173 178.484 19.0476 178.526 18.2569C178.526 16.8166 177.504 16.2265 176.248 16.9498Z" fill="white"/>
<path d="M247.494 38.4272L245.191 34.119L247.043 28.7703V25.4773L241.371 28.7512V32.0252L243.808 36.2509C243.848 36.314 243.905 36.3646 243.972 36.3968L247.494 38.4272Z" fill="#022C49"/>
<path opacity="0.2" d="M247.494 38.4272L245.191 34.119L247.043 28.7703V25.4773L241.371 28.7512V32.0252L243.808 36.2509C243.848 36.314 243.905 36.3646 243.972 36.3968L247.494 38.4272Z" fill="black"/>
<path d="M264.72 4.15871C264.689 3.56873 264.518 2.99453 264.223 2.48292C263.927 1.97131 263.515 1.53676 263.02 1.2147L261.636 0.415244C261.11 0.146243 260.527 0.00598145 259.936 0.00598145C259.345 0.00598145 258.762 0.146243 258.236 0.415244L226.175 18.9359C225.682 19.2619 225.272 19.6982 224.977 20.2103C224.681 20.7224 224.51 21.2962 224.475 21.8862V38.4654C224.506 39.0553 224.677 39.6295 224.972 40.1412C225.268 40.6528 225.68 41.0873 226.175 41.4094L227.558 42.2088C228.086 42.4725 228.668 42.6097 229.259 42.6097C229.849 42.6097 230.431 42.4725 230.959 42.2088L244.918 34.0874L247.354 38.3004C247.389 38.3567 247.439 38.4021 247.499 38.4314C247.559 38.4607 247.625 38.4728 247.691 38.4662C247.757 38.4596 247.82 38.4346 247.873 38.3941C247.925 38.3536 247.965 38.2991 247.989 38.2369L250.565 30.8198L262.988 23.6818C263.483 23.3598 263.895 22.9252 264.191 22.4136C264.486 21.902 264.657 21.3278 264.688 20.7378L264.72 4.15871Z" fill="#022C49"/>
<path d="M234.081 25.0967L259.715 10.2941C260.476 9.85634 261.091 10.1672 261.091 10.9921C261.057 11.4532 260.914 11.8997 260.675 12.2954C260.436 12.6912 260.107 13.025 259.715 13.2699L234.081 28.0724C233.326 28.5102 232.711 28.1993 232.711 27.3745C232.745 26.9141 232.887 26.4681 233.125 26.0725C233.363 25.6769 233.691 25.3427 234.081 25.0967Z" fill="white"/>
<path d="M234.081 31.689L259.715 16.8928C260.476 16.455 261.091 16.7659 261.091 17.5844C261.058 18.0467 260.916 18.4944 260.677 18.8913C260.437 19.2883 260.108 19.6231 259.715 19.8686L234.081 34.6648C233.326 35.1089 232.711 34.7917 232.711 33.9732C232.744 33.5117 232.886 33.0644 233.124 32.6676C233.362 32.2709 233.69 31.9356 234.081 31.689Z" fill="white"/>
<path opacity="0.2" d="M224.475 38.4653C224.506 39.0553 224.677 39.6295 224.972 40.1411C225.268 40.6527 225.68 41.0873 226.175 41.4094L227.558 42.2088C228.037 42.4498 228.562 42.5868 229.098 42.6108C229.634 42.6349 230.168 42.5454 230.667 42.3484C229.868 42.6466 229.259 42.1961 229.259 41.2253V24.6462C229.279 24.055 229.449 23.4786 229.754 22.9712L224.97 20.2048C224.665 20.7145 224.495 21.293 224.475 21.8862V38.4653Z" fill="black"/>
<path opacity="0.2" d="M264.663 3.66371C264.466 2.9404 263.806 2.71198 263.019 3.16246L230.959 21.6895C230.454 21.9993 230.04 22.4371 229.76 22.9584L224.976 20.1984C225.26 19.6798 225.673 19.2429 226.175 18.9294L258.229 0.402452C258.758 0.137793 259.341 0 259.933 0C260.524 0 261.107 0.137793 261.636 0.402452L263.019 1.2019C263.446 1.47871 263.813 1.83985 264.095 2.26318C264.378 2.6865 264.571 3.16309 264.663 3.66371Z" fill="white"/>
</svg>
