<svg width="72" height="64" viewBox="0 0 72 64" fill="none" xmlns="http://www.w3.org/2000/svg">
<path fill-rule="evenodd" clip-rule="evenodd" d="M17.4375 19H53.4375C54.9908 19 56.25 20.1193 56.25 21.5C56.25 22.8807 54.9908 24 53.4375 24H17.4375C15.8842 24 14.625 22.8807 14.625 21.5C14.625 20.1193 15.8842 19 17.4375 19Z" fill="#0574B2"/>
<path fill-rule="evenodd" clip-rule="evenodd" d="M17.4375 29H53.4375C54.9908 29 56.25 30.1193 56.25 31.5C56.25 32.8807 54.9908 34 53.4375 34H17.4375C15.8842 34 14.625 32.8807 14.625 31.5C14.625 30.1193 15.8842 29 17.4375 29Z" fill="#0574B2"/>
<path fill-rule="evenodd" clip-rule="evenodd" d="M17.4375 39H53.4375C54.9908 39 56.25 40.1193 56.25 41.5C56.25 42.8807 54.9908 44 53.4375 44H17.4375C15.8842 44 14.625 42.8807 14.625 41.5C14.625 40.1193 15.8842 39 17.4375 39Z" fill="#0574B2"/>
</svg>