<svg width="280" height="214" viewBox="0 0 280 214" fill="none" xmlns="http://www.w3.org/2000/svg">
<path d="M280 187.877H0V188.018H280V187.877Z" fill="#EBEBEB"/>
<path d="M47.9242 193.247H29.377V193.388H47.9242V193.247Z" fill="#EBEBEB"/>
<path d="M122.019 191.718H95.8389V191.859H122.019V191.718Z" fill="#EBEBEB"/>
<path d="M73.9153 197.606H63.1689V197.747H73.9153V197.606Z" fill="#EBEBEB"/>
<path d="M191.824 195.159H174.906V195.3H191.824V195.159Z" fill="#EBEBEB"/>
<path d="M207.625 195.159H196.806V195.3H207.625V195.159Z" fill="#EBEBEB"/>
<path d="M251.95 197.539H219.156V197.68H251.95V197.539Z" fill="#EBEBEB"/>
<path d="M132.72 162.723H24.5895C23.7424 162.721 22.9305 162.382 22.332 161.778C21.7336 161.174 21.3975 160.356 21.3975 159.503V6.416C21.4048 5.56775 21.7442 4.7567 22.3419 4.15899C22.9395 3.56129 23.7472 3.22521 24.5895 3.22375H132.72C133.568 3.22375 134.381 3.56305 134.981 4.167C135.581 4.77095 135.917 5.59008 135.917 6.44419V159.503C135.917 160.357 135.581 161.176 134.981 161.78C134.381 162.384 133.568 162.723 132.72 162.723ZM24.5895 3.33656C23.7795 3.33805 23.0032 3.66315 22.431 4.24049C21.8588 4.81784 21.5375 5.60025 21.5375 6.416V159.503C21.5375 160.318 21.8588 161.101 22.431 161.678C23.0032 162.255 23.7795 162.58 24.5895 162.582H132.72C133.53 162.58 134.307 162.256 134.88 161.678C135.453 161.101 135.776 160.319 135.777 159.503V6.416C135.776 5.59973 135.453 4.81733 134.88 4.24015C134.307 3.66296 133.53 3.33805 132.72 3.33656H24.5895Z" fill="#EBEBEB"/>
<path d="M253.854 162.723H145.718C144.871 162.721 144.058 162.382 143.459 161.778C142.859 161.174 142.522 160.356 142.521 159.503V6.416C142.529 5.56724 142.87 4.75619 143.469 4.15864C144.067 3.56109 144.875 3.22519 145.718 3.22375H253.854C254.695 3.22669 255.502 3.56342 256.098 4.16097C256.695 4.75852 257.033 5.56873 257.041 6.416V159.503C257.041 160.355 256.705 161.172 256.108 161.776C255.511 162.379 254.7 162.72 253.854 162.723ZM145.718 3.33656C144.908 3.33805 144.131 3.66296 143.558 4.24015C142.985 4.81733 142.662 5.59973 142.661 6.416V159.503C142.662 160.319 142.985 161.101 143.558 161.678C144.131 162.256 144.908 162.58 145.718 162.582H253.854C254.665 162.58 255.441 162.256 256.015 161.678C256.588 161.101 256.91 160.319 256.912 159.503V6.416C256.91 5.59973 256.588 4.81733 256.015 4.24015C255.441 3.66296 254.665 3.33805 253.854 3.33656H145.718Z" fill="#EBEBEB"/>
<path d="M163.996 24.7067H38.4443V103.836H163.996V24.7067Z" fill="#F0F0F0"/>
<path d="M161.543 100.119V28.4291L40.9022 28.4291V100.119L161.543 100.119Z" fill="#FAFAFA"/>
<path d="M56.7793 100.113L69.1553 28.4232H78.2833L65.9073 100.113H56.7793Z" fill="white"/>
<path d="M68.0127 100.113L80.3887 28.4232H84.4711L72.0951 100.113H68.0127Z" fill="white"/>
<path d="M87.9805 100.113L100.356 28.4232H109.479L97.1029 100.113H87.9805Z" fill="white"/>
<path d="M110.985 100.113L123.361 28.4232H127.444L115.068 100.113H110.985Z" fill="white"/>
<path d="M73.2207 100.113V28.4232H72.5991V100.113H73.2207Z" fill="#E0E0E0"/>
<path d="M41.5244 100.113L41.5244 28.4232H40.9028L40.9028 100.113H41.5244Z" fill="#E0E0E0"/>
<path d="M72.5986 100.113V28.4232H70.1402V100.113H72.5986Z" fill="#F0F0F0"/>
<path d="M103.678 100.119V28.4291H103.056V100.119H103.678Z" fill="#E0E0E0"/>
<path d="M103.051 100.119V28.4291H100.592V100.119H103.051Z" fill="#F0F0F0"/>
<path d="M134.148 100.113V28.4232H133.527V100.113H134.148Z" fill="#E0E0E0"/>
<path d="M133.525 100.113V28.4232H131.067V100.113H133.525Z" fill="#F0F0F0"/>
<path d="M164.618 103.836V24.7067H163.997V103.836H164.618Z" fill="#E0E0E0"/>
<path d="M176.753 19.2694H32.8664C32.651 19.268 32.4447 19.1815 32.2919 19.0286C32.139 18.8757 32.0518 18.6686 32.0488 18.4516C32.0488 18.2327 32.1348 18.0227 32.288 17.8674C32.4411 17.7121 32.6491 17.624 32.8664 17.6226H176.753C176.861 17.6226 176.968 17.644 177.068 17.6857C177.168 17.7273 177.258 17.7884 177.335 17.8654C177.411 17.9424 177.472 18.0338 177.513 18.1344C177.555 18.235 177.576 18.3428 177.576 18.4516C177.573 18.6696 177.485 18.8776 177.331 19.0306C177.177 19.1837 176.969 19.2695 176.753 19.2694Z" fill="#E0E0E0"/>
<g opacity="0.8">
<path d="M89.4772 16.0267H34.8828V122.865H89.4772V16.0267Z" fill="#F5F5F5"/>
<path d="M56.2754 124.044H51.7002L52.9882 17.2054H55.0322L56.2754 124.044Z" fill="#E6E6E6"/>
<path d="M46.1837 124.044H43.9717L44.5933 17.2054H45.5789L46.1837 124.044Z" fill="#E6E6E6"/>
<path d="M69.547 124.044H67.335L67.9566 17.2054H68.9422L69.547 124.044Z" fill="#E6E6E6"/>
<path d="M80.7865 124.044H78.5801L79.1961 17.2054H80.1873L80.7865 124.044Z" fill="#E6E6E6"/>
</g>
<g opacity="0.8">
<path d="M173.937 16.021H146.643V122.86H173.937V16.021Z" fill="#F5F5F5"/>
<path d="M157.338 124.038H155.053L155.691 17.2053H156.716L157.338 124.038Z" fill="#E6E6E6"/>
<path d="M152.294 124.038H151.19L151.498 17.2053H151.991L152.294 124.038Z" fill="#E6E6E6"/>
<path d="M163.974 124.038H162.871L163.179 17.2053H163.672L163.974 124.038Z" fill="#E6E6E6"/>
<path d="M169.591 124.038H168.488L168.802 17.2053H169.295L169.591 124.038Z" fill="#E6E6E6"/>
</g>
<path d="M145.202 186.913H150.455V132.983H145.202V186.913Z" fill="#F0F0F0"/>
<path d="M35.9692 132.989L151.732 132.989V129.763H35.9692V132.989Z" fill="#F0F0F0"/>
<path d="M39.3908 187.877H148.316V186.913H39.3908V187.877Z" fill="#F0F0F0"/>
<path d="M145.202 132.983H37.251V186.913H145.202V132.983Z" fill="#FAFAFA"/>
<path d="M140.829 138.99H41.6357V155.538H140.829V138.99Z" fill="#F0F0F0"/>
<path d="M140.829 163.332H41.6357V179.88H140.829V163.332Z" fill="#F0F0F0"/>
<path d="M56.817 140.592H125.641C126.204 140.592 126.66 140.132 126.66 139.565V139.046C126.66 138.479 126.204 138.02 125.641 138.02H56.817C56.2541 138.02 55.7978 138.479 55.7978 139.046V139.565C55.7978 140.132 56.2541 140.592 56.817 140.592Z" fill="#FAFAFA"/>
<path d="M56.817 164.922H125.641C126.204 164.922 126.66 164.463 126.66 163.896V163.377C126.66 162.81 126.204 162.351 125.641 162.351H56.817C56.2541 162.351 55.7978 162.81 55.7978 163.377V163.896C55.7978 164.463 56.2541 164.922 56.817 164.922Z" fill="#FAFAFA"/>
<path d="M232.734 185.367C236.056 182.021 236.056 176.597 232.734 173.251C229.412 169.905 224.026 169.905 220.704 173.251C217.382 176.597 217.382 182.021 220.704 185.367C224.026 188.712 229.412 188.712 232.734 185.367Z" fill="#EBEBEB"/>
<path d="M239.781 187.872C245.642 187.872 250.393 183.087 250.393 177.184C250.393 171.281 245.642 166.496 239.781 166.496C233.92 166.496 229.169 171.281 229.169 177.184C229.169 183.087 233.92 187.872 239.781 187.872Z" fill="#F5F5F5"/>
<path d="M186.423 97.3046L246.226 97.3046V22.1346L186.423 22.1346V97.3046Z" fill="#E6E6E6"/>
<path d="M183.798 97.3046L245.331 97.3046V22.1346L183.798 22.1346V97.3046Z" fill="#F5F5F5"/>
<path d="M243.453 95.2067V24.2329L185.667 24.2329V95.2067H243.453Z" fill="#FAFAFA"/>
<path d="M214.563 72.3138C225.468 72.3138 234.309 63.4103 234.309 52.4272C234.309 41.4441 225.468 32.5405 214.563 32.5405C203.658 32.5405 194.817 41.4441 194.817 52.4272C194.817 63.4103 203.658 72.3138 214.563 72.3138Z" fill="white"/>
<path d="M186.212 95.2067V24.2329H185.674V95.2067H186.212Z" fill="#E6E6E6"/>
<path d="M235.507 48.1803C232.645 46.6067 228.737 47.9208 227.208 48.4397C225.679 48.9586 221.793 50.4024 220.561 47.8757C220 46.7583 219.142 45.8195 218.084 45.1636C217.025 44.5077 215.806 44.1604 214.563 44.1604C213.32 44.1604 212.101 44.5077 211.042 45.1636C209.984 45.8195 209.126 46.7583 208.565 47.8757C207.333 50.3968 203.447 48.9586 201.918 48.4397C200.389 47.9208 196.475 46.6067 193.619 48.1803C190.763 49.7538 193.059 54.0064 195.753 55.8507C198.446 57.695 201.733 54.1587 198.687 53.3578C195.641 52.5569 194.207 52.0155 194.61 50.1317C195.013 48.248 198.967 48.6935 202.041 49.3703L202.747 49.5339C204.722 50.0155 206.498 51.1058 207.828 52.6527C209.158 54.1995 209.976 56.1259 210.167 58.1631V58.2138C210.329 59.9792 210.089 63.6226 209.999 65.591C209.909 67.5593 211.606 72.0544 211.752 73.628C211.897 75.2015 214.552 75.2297 214.552 75.2297C214.552 75.2297 217.212 75.162 217.352 73.628C217.492 72.0939 219.194 67.4973 219.11 65.591C219.026 63.6846 218.78 59.951 218.942 58.2138V58.1574C219.135 56.1197 219.955 54.1936 221.287 52.6476C222.619 51.1017 224.397 50.0132 226.373 49.5339L227.068 49.3703C230.142 48.6935 234.118 48.2423 234.499 50.1317C234.88 52.0211 233.469 52.5513 230.422 53.3578C227.376 54.1643 230.652 57.6893 233.357 55.8507C236.061 54.012 238.363 49.7482 235.507 48.1803Z" fill="#F0F0F0"/>
<path opacity="0.9" d="M236.594 50.267C236.585 49.8719 236.468 49.487 236.257 49.154C236.046 48.8209 235.748 48.5524 235.396 48.3776C234.427 47.8788 233.348 47.6326 232.26 47.6613C230.558 47.724 228.878 48.061 227.282 48.6596L227.108 48.716H227.074C225.268 49.4327 223.314 49.6922 221.385 49.4718C219.761 49.201 217.246 48.5976 214.564 48.5976C211.882 48.5976 209.367 49.201 207.76 49.4718C205.833 49.6956 203.882 49.4399 202.076 48.7273H202.042L201.869 48.6709C200.273 48.073 198.592 47.7359 196.89 47.6726C195.802 47.6439 194.724 47.8901 193.754 48.3889C193.403 48.5637 193.105 48.8322 192.894 49.1652C192.682 49.4983 192.566 49.8832 192.556 50.2783C192.466 52.1677 194.191 54.5026 195.916 55.6701C196.363 55.9839 196.894 56.153 197.439 56.1552C198.626 56.1552 199.618 55.3543 199.707 54.638C199.769 54.1586 199.399 53.7864 198.66 53.589C195.748 52.8219 193.984 52.241 194.421 50.0978C194.628 49.0826 195.709 48.5694 197.635 48.5694C199.143 48.608 200.644 48.797 202.115 49.1334L202.826 49.3026C206.965 50.3121 213.466 53.8597 213.842 58.1292V58.1799C213.982 59.6576 214.295 58.6142 214.189 60.6333C214.189 61.0563 214.15 61.4455 214.133 61.7613C214.082 62.8498 211.893 64.8859 212.414 66.685C212.772 67.9822 213.086 72.889 213.147 73.5771C213.17 73.9437 213.331 74.2878 213.597 74.5393C213.862 74.7908 214.213 74.9308 214.578 74.9308C214.943 74.9308 215.294 74.7908 215.56 74.5393C215.825 74.2878 215.986 73.9437 216.009 73.5771C216.07 72.9116 216.384 67.9822 216.748 66.685C217.246 64.8859 215.068 62.8498 215.023 61.7613C215.023 61.4229 214.99 61.0338 214.967 60.6333C214.861 58.6142 215.18 59.6576 215.314 58.1799V58.1235C215.718 53.854 222.202 50.3065 226.346 49.2969L227.046 49.1334C228.518 48.7962 230.018 48.6073 231.526 48.5694C233.453 48.5694 234.534 49.0826 234.741 50.0978C235.172 52.241 233.408 52.8219 230.496 53.589C229.762 53.7864 229.376 54.153 229.449 54.638C229.544 55.3543 230.53 56.1552 231.689 56.1552C232.235 56.1531 232.769 55.984 233.218 55.6701C234.959 54.4914 236.678 52.1564 236.594 50.267Z" fill="#E0E0E0"/>
<path d="M208.628 53.4819C208.578 53.9218 208.539 54.7904 207.094 55.9409C206.08 56.7475 203.28 56.9731 202.16 56.2399C202.142 56.1569 202.112 56.077 202.071 56.003C202.104 55.9089 202.121 55.8097 202.121 55.7097C202.121 55.5845 202.093 55.4609 202.04 55.3477C201.987 55.2346 201.909 55.1348 201.813 55.0555C201.849 54.9559 201.868 54.8511 201.869 54.7453C201.869 54.5315 201.788 54.3257 201.642 54.1704C201.496 54.0151 201.297 53.9221 201.085 53.9105C201.088 53.8598 201.088 53.809 201.085 53.7583C201.086 53.6477 201.065 53.5381 201.023 53.4358C200.981 53.3335 200.92 53.2405 200.842 53.1624C200.765 53.0842 200.672 53.0223 200.571 52.9803C200.469 52.9384 200.36 52.9172 200.251 52.9179C200.155 52.9179 200.06 52.935 199.971 52.9687C199.91 52.8107 199.803 52.675 199.664 52.5794C199.525 52.4838 199.36 52.4327 199.192 52.4329C199.049 52.4345 198.909 52.4726 198.785 52.5436C198.66 52.6146 198.556 52.7162 198.481 52.8389C198.404 52.7419 198.306 52.6636 198.194 52.6099C198.083 52.5562 197.961 52.5284 197.837 52.5287C197.616 52.5287 197.403 52.6173 197.247 52.7749C197.09 52.9325 197.003 53.1462 197.003 53.3691C197.002 53.4474 197.014 53.5254 197.036 53.6003C196.86 53.6575 196.708 53.772 196.604 53.9257C196.499 54.0794 196.449 54.2637 196.459 54.4496C196.47 54.6355 196.542 54.8125 196.664 54.9528C196.786 55.0931 196.95 55.1887 197.131 55.2247C197.097 55.3128 197.08 55.4065 197.081 55.501C197.081 55.7239 197.169 55.9376 197.325 56.0952C197.482 56.2528 197.694 56.3414 197.915 56.3414C198.088 56.3412 198.256 56.2881 198.397 56.1891C198.372 56.2656 198.359 56.3455 198.358 56.426C198.358 56.6489 198.446 56.8626 198.602 57.0202C198.759 57.1778 198.971 57.2663 199.192 57.2663C199.398 57.2698 199.598 57.1954 199.752 57.0577C199.82 57.2056 199.928 57.3309 200.064 57.4189C200.2 57.5069 200.358 57.5537 200.519 57.554C200.643 57.5543 200.765 57.5265 200.877 57.4728C200.988 57.4191 201.086 57.3409 201.163 57.2438C201.227 57.2524 201.291 57.2524 201.354 57.2438H201.415L201.606 57.3509C201.886 57.5018 202.183 57.6174 202.491 57.695C203.319 57.8997 204.182 57.9132 205.016 57.7345C205.858 57.56 206.628 57.1357 207.228 56.5162C207.723 55.9626 208.306 55.4957 208.953 55.1344C209.119 55.06 209.294 55.0069 209.474 54.9765C209.491 54.4463 209.239 53.6624 208.628 53.4819Z" fill="#FAFAFA"/>
<path d="M232.636 54.3956C232.636 54.2201 232.583 54.0487 232.483 53.9052C232.382 53.7617 232.24 53.6532 232.076 53.5947C232.098 53.5197 232.11 53.4418 232.109 53.3635C231.329 53.183 230.586 52.8662 229.914 52.4272C229.747 52.4275 229.583 52.4788 229.445 52.5744C229.307 52.6701 229.201 52.8056 229.141 52.963C229.05 52.9289 228.953 52.9117 228.856 52.9123C228.634 52.9123 228.422 53.0008 228.266 53.1584C228.109 53.316 228.021 53.5298 228.021 53.7526C228.016 53.8032 228.016 53.8543 228.021 53.9049C227.809 53.9165 227.61 54.0095 227.464 54.1648C227.318 54.3201 227.237 54.5259 227.237 54.7396C227.236 54.8457 227.255 54.9511 227.293 55.0498C227.196 55.128 227.116 55.2275 227.062 55.3408C227.008 55.4541 226.98 55.5783 226.98 55.7041C227.024 55.7869 227.045 55.881 227.038 55.975C227.031 56.069 226.997 56.159 226.941 56.2342C225.821 56.9731 223.049 56.7475 222.029 55.941C220.579 54.813 220.545 53.9218 220.495 53.4819C219.885 53.6624 219.633 54.4464 219.627 54.9878C219.808 55.0181 219.985 55.0711 220.153 55.1457C220.799 55.5071 221.38 55.974 221.873 56.5275C222.481 57.1511 223.261 57.5756 224.113 57.7458C224.947 57.9245 225.81 57.911 226.638 57.7063C226.946 57.6287 227.243 57.5131 227.523 57.3622L227.708 57.2551H227.775C227.836 57.264 227.898 57.264 227.96 57.2551C228.261 57.0927 228.598 57.0077 228.94 57.0077C229.282 57.0077 229.618 57.0927 229.92 57.2551C230.141 57.2551 230.353 57.1665 230.51 57.0089C230.666 56.8513 230.754 56.6376 230.754 56.4147C230.755 56.3345 230.743 56.2547 230.721 56.1778C230.846 56.2653 230.992 56.3166 231.144 56.3263C231.296 56.336 231.447 56.3037 231.582 56.2328C231.717 56.1619 231.83 56.0552 231.909 55.9243C231.989 55.7933 232.031 55.643 232.031 55.4898C232.031 55.3958 232.016 55.3025 231.986 55.2134C232.17 55.1713 232.335 55.0674 232.453 54.9189C232.571 54.7703 232.635 54.5858 232.636 54.3956Z" fill="#FAFAFA"/>
<path d="M230.747 86.5153H198.374C197.873 86.5139 197.394 86.3131 197.041 85.957C196.687 85.6009 196.488 85.1183 196.486 84.6147C196.488 84.111 196.687 83.6285 197.041 83.2723C197.394 82.9162 197.873 82.7155 198.374 82.714H230.747C231.247 82.7155 231.726 82.9162 232.08 83.2723C232.434 83.6285 232.633 84.111 232.634 84.6147C232.633 85.1183 232.434 85.6009 232.08 85.957C231.726 86.3131 231.247 86.5139 230.747 86.5153Z" fill="white"/>
<path d="M140 213.348C199.966 213.348 248.579 210.489 248.579 206.963C248.579 203.437 199.966 200.579 140 200.579C80.0341 200.579 31.4219 203.437 31.4219 206.963C31.4219 210.489 80.0341 213.348 140 213.348Z" fill="#F5F5F5"/>
<path d="M109.693 127.631H107.431V198.475H109.693V127.631Z" fill="#0574B2"/>
<path opacity="0.8" d="M109.693 127.631H107.431V198.475H109.693V127.631Z" fill="white"/>
<path d="M105.168 198.48H107.431L107.431 127.636H105.168L105.168 198.48Z" fill="#0574B2"/>
<path opacity="0.7" d="M105.168 198.48H107.431L107.431 127.636H105.168L105.168 198.48Z" fill="white"/>
<path d="M107.43 202.524C108.404 202.524 109.194 201.729 109.194 200.748C109.194 199.767 108.404 198.971 107.43 198.971C106.456 198.971 105.666 199.767 105.666 200.748C105.666 201.729 106.456 202.524 107.43 202.524Z" fill="#263238"/>
<path d="M109.407 198.48H105.453V199.248H109.407V198.48Z" fill="#263238"/>
<path d="M151.581 127.631V122.278H108.164V127.631H151.581Z" fill="#0574B2"/>
<path opacity="0.8" d="M151.581 127.631V122.278H108.164V127.631H151.581Z" fill="white"/>
<path d="M108.164 127.631V122.278H94.9761V127.631H108.164Z" fill="#0574B2"/>
<path opacity="0.7" d="M108.164 127.631V122.278H94.9761V127.631H108.164Z" fill="white"/>
<path d="M100.604 127.631H98.3418V198.475H100.604V127.631Z" fill="#0574B2"/>
<path opacity="0.8" d="M100.604 127.631H98.3418V198.475H100.604V127.631Z" fill="white"/>
<path d="M96.0735 198.48H98.3359L98.3359 127.636H96.0735L96.0735 198.48Z" fill="#0574B2"/>
<path opacity="0.7" d="M96.0735 198.48H98.3359L98.3359 127.636H96.0735L96.0735 198.48Z" fill="white"/>
<path d="M98.3421 202.524C99.3164 202.524 100.106 201.729 100.106 200.748C100.106 199.767 99.3164 198.971 98.3421 198.971C97.3679 198.971 96.5781 199.767 96.5781 200.748C96.5781 201.729 97.3679 202.524 98.3421 202.524Z" fill="#263238"/>
<path d="M100.319 198.48H96.3652V199.248H100.319V198.48Z" fill="#263238"/>
<path d="M150.315 127.631H148.053V198.475H150.315V127.631Z" fill="#0574B2"/>
<path opacity="0.8" d="M150.315 127.631H148.053V198.475H150.315V127.631Z" fill="white"/>
<path d="M145.79 198.48H148.053V127.636H145.79V198.48Z" fill="#0574B2"/>
<path opacity="0.7" d="M145.79 198.48H148.053V127.636H145.79V198.48Z" fill="white"/>
<path d="M149.817 200.748C149.817 201.099 149.714 201.443 149.52 201.735C149.326 202.027 149.05 202.255 148.728 202.389C148.406 202.524 148.051 202.559 147.709 202.49C147.367 202.422 147.052 202.252 146.806 202.004C146.559 201.756 146.391 201.439 146.323 201.094C146.255 200.75 146.29 200.393 146.423 200.068C146.557 199.743 146.783 199.466 147.073 199.271C147.363 199.075 147.704 198.971 148.053 198.971C148.52 198.973 148.968 199.16 149.299 199.493C149.629 199.826 149.816 200.277 149.817 200.748Z" fill="#263238"/>
<path d="M150.03 198.48H146.076V199.248H150.03V198.48Z" fill="#263238"/>
<path d="M141.227 127.631H138.965V198.475H141.227V127.631Z" fill="#0574B2"/>
<path opacity="0.8" d="M141.227 127.631H138.965V198.475H141.227V127.631Z" fill="white"/>
<path d="M136.702 198.48H138.965V127.636H136.702V198.48Z" fill="#0574B2"/>
<path opacity="0.7" d="M136.702 198.48H138.965V127.636H136.702V198.48Z" fill="white"/>
<path d="M140.729 200.748C140.73 201.101 140.627 201.446 140.433 201.74C140.239 202.034 139.962 202.263 139.639 202.399C139.315 202.535 138.959 202.57 138.615 202.502C138.271 202.433 137.956 202.263 137.708 202.014C137.46 201.764 137.291 201.446 137.223 201.1C137.155 200.754 137.191 200.395 137.325 200.069C137.46 199.743 137.688 199.465 137.979 199.269C138.271 199.074 138.614 198.97 138.965 198.971C139.432 198.973 139.88 199.16 140.21 199.493C140.541 199.826 140.727 200.277 140.729 200.748Z" fill="#263238"/>
<path d="M140.941 198.48H136.987V199.248H140.941V198.48Z" fill="#263238"/>
<path d="M106.636 161.646V158.442H96.5781V161.646H106.636Z" fill="#0574B2"/>
<path opacity="0.7" d="M106.636 161.646V158.442H96.5781V161.646H106.636Z" fill="white"/>
<path d="M149.627 161.634V158.431H108.562V161.634H149.627Z" fill="#0574B2"/>
<path opacity="0.8" d="M149.627 161.634V158.431H108.562V161.634H149.627Z" fill="white"/>
<path d="M124.405 149.328H119.863C119.316 149.328 118.872 149.775 118.872 150.326V157.438C118.872 157.989 119.316 158.436 119.863 158.436H124.405C124.952 158.436 125.396 157.989 125.396 157.438V150.326C125.396 149.775 124.952 149.328 124.405 149.328Z" fill="#0574B2"/>
<path opacity="0.3" d="M124.405 149.328H119.863C119.316 149.328 118.872 149.775 118.872 150.326V157.438C118.872 157.989 119.316 158.436 119.863 158.436H124.405C124.952 158.436 125.396 157.989 125.396 157.438V150.326C125.396 149.775 124.952 149.328 124.405 149.328Z" fill="white"/>
<path d="M125.395 151.933H123.144V156.508H125.395V151.933Z" fill="white"/>
<path d="M122.517 151.933H120.266V156.508H122.517V151.933Z" fill="white"/>
<path d="M124.214 148.093H120.048C119.884 148.093 119.751 148.226 119.751 148.392V149.023C119.751 149.188 119.884 149.322 120.048 149.322H124.214C124.378 149.322 124.511 149.188 124.511 149.023V148.392C124.511 148.226 124.378 148.093 124.214 148.093Z" fill="#0574B2"/>
<path d="M118.378 148.544H113.444C112.851 148.544 112.369 149.029 112.369 149.627V157.353C112.369 157.952 112.851 158.436 113.444 158.436H118.378C118.972 158.436 119.453 157.952 119.453 157.353V149.627C119.453 149.029 118.972 148.544 118.378 148.544Z" fill="#0574B2"/>
<path opacity="0.5" d="M118.378 148.544H113.444C112.851 148.544 112.369 149.029 112.369 149.627V157.353C112.369 157.952 112.851 158.436 113.444 158.436H118.378C118.972 158.436 119.453 157.952 119.453 157.353V149.627C119.453 149.029 118.972 148.544 118.378 148.544Z" fill="white"/>
<path d="M118.709 151.375H114.683V156.344H118.709V151.375Z" fill="white"/>
<path d="M118.178 147.202H113.653C113.474 147.202 113.328 147.348 113.328 147.529V148.211C113.328 148.392 113.474 148.538 113.653 148.538H118.178C118.357 148.538 118.503 148.392 118.503 148.211V147.529C118.503 147.348 118.357 147.202 118.178 147.202Z" fill="#0574B2"/>
<path d="M116.356 112.916H101.236V122.278H116.356V112.916Z" fill="#0574B2"/>
<path opacity="0.2" d="M106.299 122.278H116.356V112.916H106.299V122.278Z" fill="white"/>
<path opacity="0.5" d="M101.236 116.779H116.356V112.91H101.236V116.779Z" fill="white"/>
<path opacity="0.5" d="M101.236 118.409H116.356V117.597H101.236V118.409Z" fill="white"/>
<path d="M115.55 119.267H107.105V121.421H115.55V119.267Z" fill="white"/>
<path d="M135.817 118.624C135.731 118.55 135.677 118.446 135.667 118.333C135.656 118.221 135.69 118.108 135.761 118.02L140.241 112.617C140.314 112.529 140.418 112.474 140.532 112.463C140.645 112.453 140.758 112.488 140.846 112.561C140.931 112.634 140.985 112.738 140.995 112.851C141.006 112.964 140.972 113.076 140.902 113.164L136.422 118.567C136.348 118.655 136.244 118.71 136.131 118.721C136.017 118.731 135.905 118.696 135.817 118.624Z" fill="#0574B2"/>
<path d="M137.273 118.658C137.185 118.584 137.13 118.479 137.12 118.365C137.11 118.25 137.144 118.137 137.217 118.048L141.697 112.651C141.732 112.607 141.775 112.571 141.825 112.544C141.874 112.517 141.928 112.501 141.984 112.495C142.04 112.49 142.097 112.496 142.15 112.513C142.203 112.53 142.253 112.558 142.296 112.595C142.339 112.63 142.376 112.674 142.402 112.724C142.429 112.773 142.445 112.828 142.45 112.884C142.455 112.941 142.449 112.997 142.432 113.051C142.416 113.105 142.388 113.155 142.352 113.198L137.872 118.601C137.799 118.687 137.695 118.741 137.584 118.752C137.472 118.763 137.36 118.729 137.273 118.658Z" fill="#0574B2"/>
<path d="M138.499 118.968C138.456 118.932 138.419 118.887 138.393 118.837C138.366 118.787 138.35 118.732 138.345 118.675C138.339 118.618 138.345 118.561 138.362 118.507C138.379 118.452 138.407 118.402 138.443 118.359L142.923 112.961C142.959 112.917 143.002 112.881 143.052 112.854C143.101 112.827 143.155 112.811 143.211 112.806C143.267 112.8 143.323 112.806 143.377 112.823C143.43 112.84 143.48 112.868 143.523 112.905C143.61 112.977 143.664 113.082 143.675 113.195C143.685 113.308 143.651 113.421 143.579 113.508L139.099 118.911C139.027 118.999 138.923 119.054 138.811 119.064C138.698 119.075 138.586 119.04 138.499 118.968Z" fill="#0574B2"/>
<path d="M132.982 117.676C130.91 117.676 128.57 117.072 126.503 116.548C125.008 116.159 122.751 115.578 122.432 115.911C122.432 115.911 122.37 116.063 122.583 116.576C122.618 116.645 122.638 116.721 122.643 116.798C122.647 116.876 122.636 116.953 122.609 117.026C122.583 117.099 122.542 117.165 122.488 117.221C122.435 117.277 122.371 117.322 122.3 117.352C122.229 117.382 122.153 117.397 122.076 117.395C121.999 117.394 121.923 117.377 121.852 117.345C121.782 117.313 121.72 117.267 121.668 117.209C121.616 117.152 121.577 117.084 121.553 117.01C121.43 116.712 121.049 115.803 121.586 115.172C122.331 114.303 124.101 114.76 126.783 115.454C128.782 115.973 131.05 116.582 132.982 116.582C134.914 116.582 137.177 116.018 139.182 115.454C141.864 114.76 143.662 114.326 144.378 115.172C144.938 115.803 144.535 116.712 144.406 117.01C144.351 117.15 144.242 117.262 144.104 117.321C143.967 117.381 143.812 117.382 143.673 117.326C143.534 117.27 143.423 117.161 143.364 117.022C143.305 116.884 143.303 116.727 143.359 116.587C143.578 116.074 143.51 115.916 143.51 115.916C143.191 115.589 140.934 116.17 139.445 116.559C137.395 117.072 135.049 117.676 132.982 117.676Z" fill="#0574B2"/>
<path opacity="0.5" d="M132.982 117.676C130.91 117.676 128.57 117.072 126.503 116.548C125.008 116.159 122.751 115.578 122.432 115.911C122.432 115.911 122.37 116.063 122.583 116.576C122.618 116.645 122.638 116.721 122.643 116.798C122.647 116.876 122.636 116.953 122.609 117.026C122.583 117.099 122.542 117.165 122.488 117.221C122.435 117.277 122.371 117.322 122.3 117.352C122.229 117.382 122.153 117.397 122.076 117.395C121.999 117.394 121.923 117.377 121.852 117.345C121.782 117.313 121.72 117.267 121.668 117.209C121.616 117.152 121.577 117.084 121.553 117.01C121.43 116.712 121.049 115.803 121.586 115.172C122.331 114.303 124.101 114.76 126.783 115.454C128.782 115.973 131.05 116.582 132.982 116.582C134.914 116.582 137.177 116.018 139.182 115.454C141.864 114.76 143.662 114.326 144.378 115.172C144.938 115.803 144.535 116.712 144.406 117.01C144.351 117.15 144.242 117.262 144.104 117.321C143.967 117.381 143.812 117.382 143.673 117.326C143.534 117.27 143.423 117.161 143.364 117.022C143.305 116.884 143.303 116.727 143.359 116.587C143.578 116.074 143.51 115.916 143.51 115.916C143.191 115.589 140.934 116.17 139.445 116.559C137.395 117.072 135.049 117.676 132.982 117.676Z" fill="white"/>
<path d="M132.983 117.112C127.859 117.112 120.551 113.164 122.069 116.785C123.586 120.406 127.764 122.278 132.983 122.278C138.202 122.278 142.374 120.417 143.892 116.785C145.409 113.153 138.107 117.112 132.983 117.112Z" fill="#0574B2"/>
<path d="M102.9 73.5545C102.945 73.8041 103.076 74.0298 103.269 74.1918L104.949 75.6243C105.109 75.7586 105.302 75.8456 105.508 75.8755C105.714 75.9053 105.924 75.877 106.114 75.7936L107.794 75.0322C109.437 74.2936 110.9 73.2044 112.084 71.8399L112.481 71.3887C112.641 71.2041 112.763 70.9893 112.839 70.7569C112.916 70.5244 112.945 70.279 112.926 70.0348C112.908 69.7907 112.841 69.5528 112.73 69.335C112.619 69.1172 112.466 68.9238 112.28 68.7661L110.555 67.3053C110.225 67.0232 109.806 66.8683 109.373 66.8683C108.941 66.8683 108.522 67.0232 108.192 67.3053L106.181 69.0425C106.181 69.0425 102.519 71.2703 102.9 73.5545Z" fill="#FFB573"/>
<path d="M101.813 74.4456C101.874 73.5799 102.062 72.7282 102.373 71.9189C103.796 71.6538 107.357 74.6204 107.828 75.8669C107.525 76.555 105.812 77.9311 105.812 77.9311C104.72 76.7354 102.665 75.2972 101.813 74.4456Z" fill="#E0E0E0"/>
<path d="M87.1916 65.1678C87.6844 66.8598 88.222 68.5518 88.7652 70.2438C89.3084 71.9358 89.8852 73.6278 90.4452 75.3198C91.0052 77.0118 91.6324 78.6249 92.2708 80.1759C92.59 80.9542 92.9204 81.7043 93.2508 82.3698C93.4076 82.7026 93.57 82.9902 93.7044 83.2384L93.7884 83.3794L93.8276 83.4471C93.7866 83.3938 93.7351 83.3497 93.6764 83.3174L93.3292 83.0297C93.1869 82.9516 93.0341 82.8946 92.8756 82.8605C92.7167 82.8282 92.5529 82.8282 92.394 82.8605C92.226 82.9282 92.5172 82.8944 92.898 82.6631C93.9463 81.9687 94.8894 81.1253 95.698 80.159C96.7023 79.0074 97.6373 77.7964 98.498 76.5324C98.946 75.8895 99.3884 75.224 99.8084 74.5528L100.436 73.5432L100.996 72.5619L108.13 76.2843C107.895 76.7637 107.704 77.1359 107.486 77.5533L106.909 78.7997C106.472 79.5931 106.017 80.3808 105.543 81.1629C104.578 82.7699 103.52 84.318 102.373 85.799C101.755 86.5863 101.095 87.3394 100.396 88.055C99.608 88.8755 98.7415 89.6161 97.8092 90.2658C96.5705 91.1494 95.1504 91.7411 93.654 91.9973C92.6548 92.1485 91.636 92.1064 90.6524 91.8732C89.6691 91.6314 88.74 91.2047 87.914 90.6155H87.886C87.7796 90.5366 87.662 90.4407 87.5612 90.3504C87.3484 90.153 87.1412 89.9444 86.9396 89.73C86.738 89.5157 86.654 89.3973 86.514 89.2224L86.318 88.9743L86.1668 88.7656L85.87 88.337C85.5284 87.8124 85.2316 87.3161 84.9684 86.848C84.442 85.9061 83.9996 85.0094 83.5796 84.1239C82.7396 82.3529 82.0004 80.6158 81.2836 78.8787C80.5668 77.1416 79.8948 75.4101 79.234 73.673C78.5732 71.9358 77.9404 70.2156 77.3076 68.4165L87.1916 65.1678Z" fill="#0574B2"/>
<path opacity="0.6" d="M87.1916 65.1678C87.6844 66.8598 88.222 68.5518 88.7652 70.2438C89.3084 71.9358 89.8852 73.6278 90.4452 75.3198C91.0052 77.0118 91.6324 78.6249 92.2708 80.1759C92.59 80.9542 92.9204 81.7043 93.2508 82.3698C93.4076 82.7026 93.57 82.9902 93.7044 83.2384L93.7884 83.3794L93.8276 83.4471C93.7866 83.3938 93.7351 83.3497 93.6764 83.3174L93.3292 83.0297C93.1869 82.9516 93.0341 82.8946 92.8756 82.8605C92.7167 82.8282 92.5529 82.8282 92.394 82.8605C92.226 82.9282 92.5172 82.8944 92.898 82.6631C93.9463 81.9687 94.8894 81.1253 95.698 80.159C96.7023 79.0074 97.6373 77.7964 98.498 76.5324C98.946 75.8895 99.3884 75.224 99.8084 74.5528L100.436 73.5432L100.996 72.5619L108.13 76.2843C107.895 76.7637 107.704 77.1359 107.486 77.5533L106.909 78.7997C106.472 79.5931 106.017 80.3808 105.543 81.1629C104.578 82.7699 103.52 84.318 102.373 85.799C101.755 86.5863 101.095 87.3394 100.396 88.055C99.608 88.8755 98.7415 89.6161 97.8092 90.2658C96.5705 91.1494 95.1504 91.7411 93.654 91.9973C92.6548 92.1485 91.636 92.1064 90.6524 91.8732C89.6691 91.6314 88.74 91.2047 87.914 90.6155H87.886C87.7796 90.5366 87.662 90.4407 87.5612 90.3504C87.3484 90.153 87.1412 89.9444 86.9396 89.73C86.738 89.5157 86.654 89.3973 86.514 89.2224L86.318 88.9743L86.1668 88.7656L85.87 88.337C85.5284 87.8124 85.2316 87.3161 84.9684 86.848C84.442 85.9061 83.9996 85.0094 83.5796 84.1239C82.7396 82.3529 82.0004 80.6158 81.2836 78.8787C80.5668 77.1416 79.8948 75.4101 79.234 73.673C78.5732 71.9358 77.9404 70.2156 77.3076 68.4165L87.1916 65.1678Z" fill="white"/>
<path d="M76.5199 151.759C69.9231 130.699 64.8271 105.071 64.8271 105.071L84.6567 103.108C84.6567 103.108 85.9559 136.08 87.1935 150.682C88.4815 165.864 93.5216 201.126 93.5216 201.126L87.4903 201.622C87.4903 201.622 77.1303 170.608 76.5199 151.759Z" fill="#0574B2"/>
<path opacity="0.2" d="M72.5587 122.279L69.7979 127.23C71.2091 133.011 72.8611 139.368 74.6643 145.589C74.4123 135.826 73.3987 124.546 72.5587 122.279Z" fill="black"/>
<path d="M101.59 202.536C101.59 202.536 93.0612 201.825 92.2436 200.607L87.6572 201.306L88.4188 206.173L91.2188 205.745L91.5884 205.232L92.3668 205.57C94.6572 205.226 100.716 204.216 102.077 203.478C102.083 203.292 102.041 203.107 101.956 202.942C101.871 202.777 101.745 202.637 101.59 202.536Z" fill="#263238"/>
<path d="M57.237 150.354C57.5954 128.703 56.2122 114.23 58.0546 103.542L76.1762 103.266C76.1762 103.266 71.7298 137.619 69.5122 151.922C67.2946 166.225 64.4722 201.554 64.4722 201.554H58.8722C58.8722 201.554 54.0002 167.1 57.237 150.354Z" fill="#0574B2"/>
<path d="M69.9991 204.572C69.9991 204.572 64.6231 202.592 63.9119 201.267H59.2695L59.6223 206.196H63.4079L63.8167 205.739L64.5727 206.196C66.8855 206.196 69.0079 206.106 70.4303 205.581C70.4473 205.39 70.4167 205.198 70.3414 205.022C70.2662 204.845 70.1485 204.691 69.9991 204.572Z" fill="#263238"/>
<path d="M58.8682 60.3569C65.2746 59.556 74.4362 59.6293 80.5738 60.6953C82.1072 60.9776 83.5141 61.7374 84.5961 62.8676C85.6781 63.9979 86.3807 65.4415 86.605 66.9952C87.8986 76.335 86.7842 92.6572 85.961 109.087C71.961 113.92 57.1378 109.019 57.1378 109.019C56.6282 105.708 57.7762 94.8455 58.549 89.0476C57.3898 83.0635 54.937 76.2053 53.313 68.2529C53.1155 67.3628 53.1057 66.4409 53.2841 65.5467C53.4625 64.6526 53.8253 63.8061 54.3488 63.0619C54.8724 62.3178 55.5451 61.6925 56.3236 61.2266C57.102 60.7606 57.9689 60.4644 58.8682 60.3569Z" fill="white"/>
<path d="M64.585 48.028L72.5034 54.0515C71.5626 56.5838 71.2602 59.2177 75.3818 60.2273C76.4122 61.5978 74.5978 63.1714 72.8898 63.8876C70.1402 63.5436 66.2594 62.6243 64.585 60.3006C65.1114 58.4958 65.2906 51.7673 64.585 48.028Z" fill="#FFB573"/>
<path d="M74.6313 62.3647C74.3268 63.2473 73.8068 64.0386 73.1193 64.6658C71.9993 64.6658 70.3809 63.4025 70.3809 63.4025C70.3809 63.4025 71.0081 61.6259 71.8929 61.2593C74.1497 61.8176 74.6313 62.3647 74.6313 62.3647Z" fill="#263238"/>
<path d="M72.0938 63.9948C72.245 63.8247 72.4377 63.6974 72.6528 63.6252C72.8678 63.553 73.0978 63.5385 73.3201 63.583C74.7817 66.3354 77.0721 83.2836 77.9681 88.2129C77.5817 91.2021 77.005 92.2286 76.2322 95.6464C75.5266 93.0013 74.5186 91.4333 73.3986 88.4836C73.7178 84.9586 72.553 68.5237 72.0938 63.9948Z" fill="#263238"/>
<path opacity="0.2" d="M72.5091 54.0515L72.4419 54.0007L68.0179 50.6167C67.5755 50.6167 66.7243 50.5885 67.0883 53.7131C67.3123 55.704 70.3083 57.8528 72.2795 58.2533C71.6355 57.0576 71.9491 55.5573 72.4979 54.0853L72.5091 54.0515Z" fill="black"/>
<path d="M77.8396 40.7016C79.43 43.1945 78.3156 47.0353 77.0948 48.2648C74.8716 44.1251 75.4036 39.5679 77.8396 40.7016Z" fill="#263238"/>
<path d="M65.2233 43.2677C65.1001 47.9207 64.7921 50.6448 66.9033 53.2054C70.0953 57.0631 75.9697 55.3937 77.4761 50.8535C78.8313 46.7701 78.8033 39.8386 74.4465 37.639C73.4833 37.1536 72.4136 36.9221 71.3374 36.9659C70.2612 37.0098 69.2137 37.3277 68.2925 37.8898C67.3714 38.452 66.6067 39.2401 66.07 40.1805C65.5333 41.121 65.242 42.1831 65.2233 43.2677Z" fill="#FFB573"/>
<path d="M66.3643 46.9338C68.6491 46.7194 69.3043 42.7263 67.9379 39.5228C70.8107 38.784 73.5939 39.9966 75.5147 40.7128C77.4355 41.4291 80.2859 41.5363 80.2859 39.1393C79.3003 39.7033 77.3683 38.8122 77.1667 37.8195C79.2499 38.0902 79.4627 34.8078 78.2867 34.2776C78.2867 35.9696 72.7259 34.9149 69.8027 33.8659C64.2699 31.875 61.0667 35.0898 62.7523 38.0395C58.4179 40.1827 61.0723 44.3563 64.5107 47.6275C65.097 47.3184 65.7198 47.0853 66.3643 46.9338Z" fill="#263238"/>
<path d="M67.7591 45.0104C67.4063 48.1519 76.3271 49.7987 77.8391 49.669C78.3095 52.3931 80.1631 54.181 78.2927 55.873C76.4223 57.565 69.7695 57.9993 67.4175 54.5589C65.0655 51.1185 66.8855 45.2529 66.8855 45.2529L67.7591 45.0104Z" fill="#263238"/>
<path d="M74.2275 50.7745C74.466 50.7938 74.7057 50.7938 74.9443 50.7745C74.9634 50.7719 74.9816 50.7648 74.9974 50.7538C75.0133 50.7429 75.0264 50.7283 75.0356 50.7113C75.0449 50.6943 75.05 50.6753 75.0507 50.656C75.0514 50.6366 75.0475 50.6173 75.0395 50.5997C75.0327 50.5658 75.0132 50.5357 74.9851 50.5158C74.957 50.4958 74.9223 50.4875 74.8883 50.4925C74.3505 50.5613 73.8042 50.5078 73.2897 50.336C72.7751 50.1643 72.3052 49.8786 71.9147 49.4999C71.8907 49.4765 71.8585 49.4634 71.8251 49.4634C71.7916 49.4634 71.7595 49.4765 71.7355 49.4999C71.7122 49.5241 71.6992 49.5565 71.6992 49.5902C71.6992 49.6238 71.7122 49.6562 71.7355 49.6804C72.4063 50.3384 73.2923 50.7274 74.2275 50.7745Z" fill="#FFB573"/>
<path d="M64.1093 37.9662C61.9981 38.3158 61.3093 36.2065 62.0989 34.5822C59.1309 35.9358 61.4717 39.5228 64.1093 37.9662Z" fill="#263238"/>
<path d="M63.0906 46.5163C63.2181 47.0297 63.4456 47.5125 63.76 47.9366C64.0743 48.3607 64.4693 48.7176 64.9218 48.9866C66.1426 49.7029 67.1114 48.6934 67.0834 47.351C67.0498 46.1441 66.3834 44.3167 65.0114 44.1532C64.7124 44.1216 64.4102 44.1653 64.1321 44.2805C63.854 44.3957 63.6087 44.5787 63.4182 44.813C63.2278 45.0474 63.0981 45.3257 63.0409 45.623C62.9837 45.9203 63.0008 46.2273 63.0906 46.5163Z" fill="#FFB573"/>
<path d="M72.4026 44.672C72.369 45.0499 72.5426 45.3714 72.789 45.3883C73.0354 45.4052 73.2594 45.1176 73.293 44.7454C73.3266 44.3731 73.153 44.046 72.9066 44.0234C72.6602 44.0009 72.4362 44.2942 72.4026 44.672Z" fill="#263238"/>
<path d="M76.8381 45.3319C76.8045 45.7098 76.9781 46.0313 77.2245 46.0482C77.4709 46.0651 77.6949 45.7775 77.7285 45.3996C77.7621 45.0217 77.5885 44.7002 77.3421 44.6833C77.0957 44.6664 76.8717 44.9597 76.8381 45.3319Z" fill="#263238"/>
<path d="M75.5997 45.6309C75.9435 46.8247 76.4525 47.9639 77.1117 49.0149C76.8398 49.1789 76.5357 49.2815 76.2205 49.3156C75.9053 49.3497 75.5865 49.3144 75.2861 49.2123L75.5997 45.6309Z" fill="#ED893E"/>
<path d="M70.6388 43.217C70.6008 43.2164 70.5638 43.2046 70.5324 43.1832C70.4834 43.1518 70.4485 43.1025 70.4349 43.0457C70.4214 42.9889 70.4302 42.929 70.4596 42.8786C70.6351 42.5677 70.8815 42.3033 71.1785 42.1071C71.4755 41.911 71.8145 41.7888 72.1676 41.7506C72.2202 41.7591 72.2681 41.7861 72.3027 41.827C72.3373 41.8678 72.3563 41.9197 72.3563 41.9734C72.3563 42.0271 72.3373 42.079 72.3027 42.1198C72.2681 42.1606 72.2202 42.1877 72.1676 42.1962C71.8901 42.2266 71.6237 42.3226 71.3901 42.4765C71.1565 42.6304 70.9624 42.8378 70.8236 43.0817C70.8093 43.12 70.7842 43.1532 70.7514 43.1773C70.7185 43.2014 70.6794 43.2152 70.6388 43.217Z" fill="#263238"/>
<path d="M78.4 43.9502C78.3637 43.9509 78.3278 43.9426 78.2955 43.9258C78.2633 43.9091 78.2356 43.8845 78.2152 43.8543C78.0685 43.6177 77.8659 43.4212 77.6256 43.2824C77.3852 43.1437 77.1145 43.067 76.8376 43.0591C76.8084 43.0598 76.7794 43.0547 76.7523 43.044C76.7251 43.0333 76.7004 43.0172 76.6795 42.9967C76.6586 42.9762 76.642 42.9517 76.6307 42.9246C76.6194 42.8976 76.6136 42.8685 76.6136 42.8391C76.6121 42.81 76.6164 42.781 76.6264 42.7536C76.6365 42.7263 76.6519 42.7013 76.6718 42.6802C76.6917 42.6591 76.7157 42.6423 76.7423 42.6308C76.7688 42.6194 76.7975 42.6135 76.8264 42.6135C77.1759 42.6234 77.5179 42.7183 77.8231 42.8902C78.1284 43.0621 78.3878 43.3058 78.5792 43.6005C78.5961 43.6245 78.6081 43.6516 78.6145 43.6803C78.6208 43.7089 78.6214 43.7386 78.6162 43.7675C78.611 43.7964 78.6001 43.824 78.5841 43.8486C78.5681 43.8732 78.5474 43.8943 78.5232 43.9107C78.4875 43.9372 78.4442 43.951 78.4 43.9502Z" fill="#263238"/>
<path d="M64.7527 59.0598C64.7527 59.0598 62.5127 59.6689 62.5127 59.6746C62.5127 60.2386 63.1343 61.3102 64.7023 62.692C66.1695 63.9779 69.3447 66.2001 70.7615 66.2001C70.5879 64.5081 71.1031 62.0829 71.8815 61.2594C70.0391 61.3553 66.5391 60.2781 64.7527 59.0598Z" fill="#E0E0E0"/>
<path d="M71.8936 61.2594C73.4672 61.8798 75.2031 64.2316 75.6847 65.8334C76.5135 65.3878 77.3984 62.1787 76.9112 60.1088C76.1448 59.6902 75.2667 59.5263 74.4024 59.6407C74.296 60.3288 73.8032 61.1578 71.8936 61.2594Z" fill="#E0E0E0"/>
<path d="M64.809 201.718L58.593 201.893L57.9434 198.339L65.2234 198.779L64.809 201.718Z" fill="#0574B2"/>
<path opacity="0.2" d="M64.809 201.718L58.593 201.893L57.9434 198.339L65.2234 198.779L64.809 201.718Z" fill="black"/>
<path d="M93.7999 201.081L87.1471 202.118L86.0215 199.157L93.3967 197.477L93.7999 201.081Z" fill="#0574B2"/>
<path opacity="0.2" d="M93.7999 201.081L87.1471 202.118L86.0215 199.157L93.3967 197.477L93.7999 201.081Z" fill="black"/>
<path d="M61.387 59.0598C66.987 66.6174 69.2998 110.717 66.1526 148.736C57.943 150.174 49.6494 138.381 49.6494 138.381C49.6494 138.381 55.0982 100.142 53.6702 87.9197C52.2422 75.6978 50.6518 68.5519 51.0438 64.9198C51.4358 61.2876 57.3326 59.6689 61.387 59.0598Z" fill="#0574B2"/>
<path opacity="0.7" d="M61.387 59.0598C66.987 66.6174 69.2998 110.717 66.1526 148.736C57.943 150.174 49.6494 138.381 49.6494 138.381C49.6494 138.381 55.0982 100.142 53.6702 87.9197C52.2422 75.6978 50.6518 68.5519 51.0438 64.9198C51.4358 61.2876 57.3326 59.6689 61.387 59.0598Z" fill="white"/>
<path d="M77.0508 59.6236C80.7468 72.7592 85.3276 118.928 83.6532 146.553C86.7668 143.97 90.334 138.031 90.2556 135.882C90.1828 133.88 88.8276 97.9136 88.3124 92.5556C88.0156 83.8362 88.234 70.6047 87.1924 65.5118C86.1508 60.4189 80.8756 59.2852 77.0508 59.6236Z" fill="#0574B2"/>
<path opacity="0.7" d="M77.0508 59.6236C80.7468 72.7592 85.3276 118.928 83.6532 146.553C86.7668 143.97 90.334 138.031 90.2556 135.882C90.1828 133.88 88.8276 97.9136 88.3124 92.5556C88.0156 83.8362 88.234 70.6047 87.1924 65.5118C86.1508 60.4189 80.8756 59.2852 77.0508 59.6236Z" fill="white"/>
<path d="M74.6812 102.488L58.7996 102.161C58.6522 102.161 58.5066 102.128 58.3736 102.064C58.2407 101.999 58.1238 101.906 58.0318 101.79C57.9397 101.674 57.8749 101.538 57.842 101.394C57.8092 101.249 57.8092 101.098 57.842 100.954L62.0196 78.326C62.0926 78.0076 62.2698 77.7232 62.5227 77.5186C62.7756 77.314 63.0896 77.201 63.414 77.198L79.29 77.542C79.4375 77.5417 79.5831 77.5749 79.716 77.6391C79.849 77.7033 79.9658 77.7969 80.0579 77.9129C80.1499 78.0289 80.2148 78.1643 80.2476 78.3091C80.2805 78.4539 80.2805 78.6042 80.2476 78.749L76.0756 101.36C76.0009 101.677 75.8232 101.961 75.5707 102.165C75.3181 102.369 75.0051 102.483 74.6812 102.488Z" fill="#0574B2"/>
<path d="M69.6531 92.1609C69.5317 91.9372 69.4939 91.6771 69.5467 91.4277L69.9611 89.262C70.0028 89.057 70.1003 88.8677 70.2427 88.7153C70.3851 88.5629 70.5668 88.4534 70.7675 88.3991L72.5595 87.9366C74.3009 87.4806 76.12 87.4113 77.8907 87.7335L78.4507 87.8407C78.6903 87.8839 78.9189 87.9749 79.1231 88.1084C79.3272 88.2419 79.5028 88.4151 79.6395 88.618C79.7762 88.8208 79.8713 89.0492 79.9191 89.2895C79.9669 89.5299 79.9665 89.7775 79.9179 90.0177L79.4755 92.2399C79.3895 92.6681 79.1555 93.0516 78.815 93.3222C78.4745 93.5928 78.0497 93.7329 77.6163 93.7176L74.9731 93.6217C74.9731 93.6217 70.7675 94.1857 69.6531 92.1609Z" fill="#FFB573"/>
<path d="M70.0005 87.7729C70.8034 87.4572 71.6494 87.267 72.5093 87.2089C73.3381 88.3989 72.1397 92.894 71.1933 93.8584C70.4485 93.8584 68.4941 92.8658 68.4941 92.8658C69.1605 91.3655 69.6085 88.9065 70.0005 87.7729Z" fill="#E0E0E0"/>
<path d="M60.6088 67.9822C59.9816 69.6009 59.3544 71.3042 58.7496 72.9736C58.1448 74.6431 57.5624 76.3576 57.008 77.9989C56.4536 79.6401 55.9328 81.3434 55.4904 82.9677C55.272 83.7742 55.0704 84.5751 54.9304 85.297C54.8576 85.6636 54.8016 85.9907 54.7624 86.2671V86.4307V86.5096V86.5378C54.758 86.4706 54.7448 86.4042 54.7232 86.3404L54.6168 85.9005C54.5806 85.7959 54.5234 85.6999 54.4488 85.6185C54.3928 85.5677 54.3872 85.6185 54.4488 85.6636C54.8028 85.9324 55.2008 86.1366 55.6248 86.2671C57.0511 86.7104 58.5251 86.9793 60.0152 87.068C61.7128 87.1919 63.4159 87.2221 65.1168 87.1582C65.9848 87.1582 66.8584 87.0793 67.732 87.0116L69.0368 86.8988L70.28 86.7691L71.5624 94.7553C71.0024 94.8568 70.5488 94.9301 70.0448 95.0035L68.5832 95.2122C67.6088 95.3419 66.6288 95.4547 65.6432 95.5449C63.6348 95.7337 61.6176 95.8109 59.6008 95.7761C57.3743 95.7577 55.1585 95.4622 53.004 94.8963C51.6304 94.5277 50.3268 93.9332 49.1456 93.1366C48.3914 92.6127 47.7177 91.9799 47.1464 91.2585C46.5013 90.4356 46.0151 89.4982 45.7128 88.4949V88.4611C45.6731 88.3258 45.6413 88.1883 45.6176 88.0493C45.5728 87.7617 45.5336 87.4853 45.5056 87.1751C45.4776 86.865 45.5056 86.7352 45.5056 86.5096V85.9456L45.5336 85.4267C45.584 84.8007 45.6512 84.2254 45.7296 83.6953C45.892 82.6237 46.0824 81.6423 46.2896 80.6835C46.704 78.7659 47.18 76.9385 47.6728 75.1225C48.1656 73.3064 48.692 71.5241 49.2296 69.7475C49.7672 67.9709 50.316 66.2169 50.9096 64.4121L60.6088 67.9822Z" fill="#0574B2"/>
<path opacity="0.7" d="M60.6088 67.9822C59.9816 69.6009 59.3544 71.3042 58.7496 72.9736C58.1448 74.6431 57.5624 76.3576 57.008 77.9989C56.4536 79.6401 55.9328 81.3434 55.4904 82.9677C55.272 83.7742 55.0704 84.5751 54.9304 85.297C54.8576 85.6636 54.8016 85.9907 54.7624 86.2671V86.4307V86.5096V86.5378C54.758 86.4706 54.7448 86.4042 54.7232 86.3404L54.6168 85.9005C54.5806 85.7959 54.5234 85.6999 54.4488 85.6185C54.3928 85.5677 54.3872 85.6185 54.4488 85.6636C54.8028 85.9324 55.2008 86.1366 55.6248 86.2671C57.0511 86.7104 58.5251 86.9793 60.0152 87.068C61.7128 87.1919 63.4159 87.2221 65.1168 87.1582C65.9848 87.1582 66.8584 87.0793 67.732 87.0116L69.0368 86.8988L70.28 86.7691L71.5624 94.7553C71.0024 94.8568 70.5488 94.9301 70.0448 95.0035L68.5832 95.2122C67.6088 95.3419 66.6288 95.4547 65.6432 95.5449C63.6348 95.7337 61.6176 95.8109 59.6008 95.7761C57.3743 95.7577 55.1585 95.4622 53.004 94.8963C51.6304 94.5277 50.3268 93.9332 49.1456 93.1366C48.3914 92.6127 47.7177 91.9799 47.1464 91.2585C46.5013 90.4356 46.0151 89.4982 45.7128 88.4949V88.4611C45.6731 88.3258 45.6413 88.1883 45.6176 88.0493C45.5728 87.7617 45.5336 87.4853 45.5056 87.1751C45.4776 86.865 45.5056 86.7352 45.5056 86.5096V85.9456L45.5336 85.4267C45.584 84.8007 45.6512 84.2254 45.7296 83.6953C45.892 82.6237 46.0824 81.6423 46.2896 80.6835C46.704 78.7659 47.18 76.9385 47.6728 75.1225C48.1656 73.3064 48.692 71.5241 49.2296 69.7475C49.7672 67.9709 50.316 66.2169 50.9096 64.4121L60.6088 67.9822Z" fill="white"/>
<path d="M181.083 195.514C172.327 200.261 162.539 202.745 152.596 202.745H150.641C150.086 202.745 149.553 202.967 149.16 203.362C148.768 203.758 148.547 204.294 148.547 204.854C148.547 205.413 148.768 205.95 149.16 206.345C149.553 206.741 150.086 206.963 150.641 206.963H213.468C213.866 206.963 214.259 206.884 214.627 206.731C214.995 206.578 215.329 206.353 215.61 206.07C215.891 205.786 216.114 205.45 216.267 205.08C216.419 204.709 216.497 204.313 216.497 203.912V198.204C216.497 197.804 216.419 197.407 216.267 197.037C216.114 196.666 215.891 196.33 215.61 196.047C215.329 195.763 214.995 195.539 214.627 195.385C214.259 195.232 213.866 195.153 213.468 195.153H182.522C182.02 195.153 181.526 195.277 181.083 195.514Z" fill="#263238"/>
<path d="M203.841 198.204H191.045C190.244 198.204 189.462 197.964 188.796 197.517C188.131 197.069 187.611 196.433 187.304 195.689L180.45 179.068C180.196 178.448 180.098 177.775 180.163 177.108C180.229 176.441 180.457 175.8 180.827 175.243C181.196 174.685 181.697 174.228 182.283 173.912C182.87 173.595 183.525 173.429 184.191 173.428H196.975C197.777 173.428 198.56 173.667 199.226 174.114C199.893 174.562 200.413 175.198 200.722 175.943L207.571 192.57C207.824 193.188 207.923 193.86 207.858 194.526C207.793 195.192 207.566 195.832 207.197 196.388C206.829 196.945 206.33 197.402 205.744 197.719C205.159 198.035 204.505 198.202 203.841 198.204Z" fill="#E0E0E0"/>
<path opacity="0.2" d="M202.256 197.64H190.961C190.458 197.642 189.965 197.492 189.547 197.211C189.128 196.93 188.801 196.53 188.609 196.061L181.262 178.239C181.102 177.849 181.04 177.425 181.081 177.006C181.122 176.586 181.265 176.183 181.497 175.832C181.73 175.481 182.045 175.194 182.414 174.995C182.783 174.796 183.195 174.691 183.614 174.691H194.887C195.391 174.691 195.883 174.841 196.302 175.123C196.721 175.406 197.047 175.807 197.239 176.276L204.586 194.093C204.745 194.481 204.808 194.902 204.768 195.32C204.728 195.738 204.587 196.14 204.357 196.49C204.127 196.84 203.815 197.128 203.449 197.329C203.083 197.529 202.673 197.636 202.256 197.64Z" fill="black"/>
<path d="M200.392 164.432H178.126C175.949 164.432 174.184 166.21 174.184 168.403V171.612C174.184 173.805 175.949 175.582 178.126 175.582H200.392C202.569 175.582 204.334 173.805 204.334 171.612V168.403C204.334 166.21 202.569 164.432 200.392 164.432Z" fill="#263238"/>
<path d="M172.089 138.753H215.013V157.85C215.014 159.097 214.772 160.333 214.299 161.485C213.826 162.638 213.131 163.685 212.256 164.567C211.381 165.45 210.341 166.149 209.197 166.626C208.053 167.103 206.826 167.349 205.588 167.348H172.089V138.753Z" fill="#E0E0E0"/>
<path opacity="0.2" d="M172.969 142.729H207.202V157.957C207.202 159.965 206.41 161.89 205 163.309C203.591 164.729 201.68 165.526 199.686 165.526H172.969V142.729Z" fill="black"/>
<path opacity="0.6" d="M177.056 206.546H150.921C150.485 206.539 150.069 206.361 149.76 206.051C149.452 205.74 149.276 205.321 149.269 204.882C149.276 204.443 149.452 204.024 149.76 203.714C150.069 203.403 150.485 203.226 150.921 203.218H177.056C177.492 203.226 177.908 203.403 178.216 203.714C178.524 204.024 178.701 204.443 178.708 204.882C178.701 205.321 178.524 205.74 178.216 206.051C177.908 206.361 177.492 206.539 177.056 206.546Z" fill="black"/>
<path d="M142.947 141.968C142.948 142.199 142.881 142.425 142.755 142.618C142.628 142.811 142.447 142.961 142.236 143.051C142.024 143.14 141.791 143.164 141.565 143.119C141.34 143.075 141.133 142.964 140.97 142.801C140.808 142.638 140.697 142.43 140.652 142.203C140.606 141.977 140.629 141.742 140.717 141.528C140.804 141.314 140.953 141.132 141.144 141.003C141.334 140.875 141.559 140.806 141.788 140.806C141.94 140.805 142.091 140.835 142.231 140.893C142.372 140.951 142.5 141.036 142.607 141.144C142.715 141.252 142.801 141.381 142.859 141.522C142.917 141.663 142.947 141.815 142.947 141.968Z" fill="#263238"/>
<path d="M157.719 177.996C159.043 177.996 160.116 176.915 160.116 175.582C160.116 174.249 159.043 173.168 157.719 173.168C156.395 173.168 155.322 174.249 155.322 175.582C155.322 176.915 156.395 177.996 157.719 177.996Z" fill="#263238"/>
<path d="M162.351 191.887C162.234 191.916 162.112 191.898 162.008 191.838C161.904 191.779 161.826 191.681 161.791 191.566L147.757 142.131C147.729 142.014 147.747 141.89 147.806 141.786C147.865 141.681 147.962 141.603 148.076 141.567C148.193 141.539 148.316 141.557 148.42 141.616C148.524 141.676 148.601 141.773 148.636 141.889L162.676 191.323C162.705 191.441 162.687 191.566 162.627 191.672C162.566 191.777 162.467 191.854 162.351 191.887Z" fill="#E0E0E0"/>
<path d="M141.597 141.968C141.598 141.842 141.648 141.723 141.736 141.634C141.824 141.546 141.943 141.495 142.067 141.494H148.182C148.307 141.495 148.425 141.546 148.513 141.634C148.601 141.723 148.651 141.842 148.653 141.968C148.653 142.094 148.603 142.215 148.515 142.305C148.427 142.394 148.308 142.446 148.182 142.447H142.067C141.942 142.446 141.822 142.394 141.734 142.305C141.646 142.215 141.597 142.094 141.597 141.968Z" fill="#E0E0E0"/>
<path d="M141.765 145.577H141.821C142.066 145.577 142.264 145.378 142.264 145.132V139.802C142.264 139.556 142.066 139.356 141.821 139.356H141.765C141.521 139.356 141.323 139.556 141.323 139.802V145.132C141.323 145.378 141.521 145.577 141.765 145.577Z" fill="#E0E0E0"/>
<path d="M131.909 141.652C131.375 141.454 130.88 141.162 130.447 140.789C130.296 140.649 130.186 140.469 130.129 140.269C130.072 140.07 130.072 139.858 130.127 139.658C130.182 139.458 130.29 139.277 130.441 139.136C130.591 138.994 130.778 138.897 130.979 138.855C134.339 138.127 141.457 136.486 144.453 135.335C143.479 138.003 137.251 141.359 135.224 141.759C134.129 142.017 132.985 141.98 131.909 141.652Z" fill="black"/>
<path d="M131.909 141.652C134.3 142.329 136.652 140.338 136.686 137.597C136.692 137.29 136.788 136.993 136.961 136.741C137.134 136.489 137.378 136.294 137.66 136.181C140.096 135.194 145.304 133.688 147.83 132.978C148.018 132.924 148.216 132.915 148.408 132.95C148.601 132.986 148.782 133.065 148.94 133.182C149.097 133.299 149.225 133.451 149.316 133.626C149.406 133.8 149.455 133.993 149.46 134.19C149.488 135.882 149.012 138.341 146.1 139.159C136.552 141.844 134.054 142.475 131.909 141.652Z" fill="#263238"/>
<path d="M256.783 112.149L256.223 112.065C256.313 111.362 256.254 110.647 256.05 109.969C255.845 109.291 255.5 108.664 255.036 108.131C254.573 107.598 254.002 107.17 253.362 106.875C252.722 106.581 252.026 106.428 251.323 106.425H241.803V105.861H251.323C252.11 105.864 252.887 106.036 253.602 106.366C254.318 106.696 254.955 107.176 255.471 107.774C255.987 108.372 256.371 109.074 256.596 109.834C256.822 110.593 256.883 111.392 256.777 112.177L256.783 112.149Z" fill="#0574B2"/>
<path d="M253.379 117.005L252.992 116.593L255.07 114.614L255.49 114.98L255.439 115.042L253.379 117.005Z" fill="#0574B2"/>
<path d="M192.961 151.804H150.894C146.901 151.804 145.91 146.215 149.656 144.822L165.65 138.877C173.573 135.932 180.917 131.602 187.344 126.086L205.651 110.384C207.654 108.666 210.199 107.723 212.83 107.722H251.33C252.024 107.721 252.704 107.922 253.289 108.299C253.873 108.677 254.338 109.216 254.627 109.851C254.916 110.487 255.017 111.193 254.919 111.886C254.821 112.578 254.528 113.227 254.074 113.756L238.612 128.42C233.965 132.408 228.874 135.839 223.442 138.646L204.1 148.64C199.323 151.11 198.337 151.804 192.961 151.804Z" fill="#0574B2"/>
<path opacity="0.2" d="M231.175 132.69C231.124 132.691 231.074 132.677 231.031 132.652C230.987 132.626 230.952 132.588 230.928 132.543L230.368 131.489C229.818 130.488 229.011 129.653 228.032 129.072C227.053 128.491 225.938 128.184 224.802 128.184H187.131C187.056 128.184 186.985 128.154 186.933 128.101C186.88 128.048 186.851 127.976 186.851 127.902C186.851 127.827 186.88 127.755 186.933 127.702C186.985 127.649 187.056 127.62 187.131 127.62H224.785C226.021 127.619 227.236 127.952 228.3 128.585C229.365 129.218 230.242 130.127 230.839 131.218L231.399 132.273C231.433 132.339 231.44 132.416 231.42 132.487C231.399 132.559 231.351 132.619 231.287 132.656C231.252 132.675 231.214 132.686 231.175 132.69Z" fill="black"/>
<path opacity="0.2" d="M190.748 145.425H150.753C147.225 146.553 148.16 151.195 151.918 151.195H190.748C192.781 151.195 194.315 149.571 193.957 147.811C193.774 147.103 193.356 146.48 192.772 146.046C192.188 145.612 191.473 145.393 190.748 145.425Z" fill="black"/>
<path d="M164.406 177.342H125.313C124.372 177.342 123.454 177.055 122.679 176.518C121.904 175.982 121.31 175.22 120.974 174.336C120.638 173.451 120.577 172.484 120.799 171.564C121.021 170.643 121.515 169.812 122.216 169.181L142.079 151.285C144.202 149.369 146.952 148.311 149.802 148.313H188.895C189.836 148.312 190.754 148.6 191.529 149.136C192.304 149.673 192.899 150.435 193.234 151.319C193.57 152.204 193.631 153.171 193.409 154.091C193.187 155.012 192.693 155.843 191.992 156.474L172.129 174.37C170.007 176.285 167.256 177.344 164.406 177.342Z" fill="#0574B2"/>
<path opacity="0.2" d="M160.779 176.648H124.939C124.089 176.645 123.275 176.304 122.674 175.698C122.072 175.093 121.733 174.273 121.73 173.416C121.733 172.56 122.072 171.74 122.674 171.135C123.275 170.529 124.089 170.188 124.939 170.185H160.779C161.63 170.186 162.446 170.527 163.049 171.133C163.651 171.738 163.991 172.559 163.994 173.416C163.991 174.274 163.651 175.095 163.049 175.7C162.446 176.306 161.63 176.647 160.779 176.648Z" fill="black"/>
<path d="M193.992 82.449L192.284 83.7236C192.811 89.2734 198.299 91.1684 199.783 87.3671C201.043 84.1974 197.789 82.5054 193.992 82.449Z" fill="#263238"/>
<path d="M195.554 82.4996C195.431 84.1352 194.54 86.3122 191.847 85.4437C191.754 85.4122 191.671 85.3584 191.604 85.2868C191.538 85.2153 191.489 85.1283 191.464 85.0335C191.439 84.9387 191.437 84.8391 191.458 84.7434C191.48 84.6477 191.525 84.5589 191.589 84.4849C192.465 83.4786 193.496 82.6199 194.641 81.9413C194.735 81.8827 194.843 81.8514 194.954 81.851C195.065 81.8505 195.173 81.8808 195.268 81.9386C195.362 81.9964 195.439 82.0794 195.489 82.1784C195.54 82.2774 195.562 82.3886 195.554 82.4996Z" fill="#0574B2"/>
<path d="M180.741 66.8487C181.038 64.5927 189.326 63.0191 193.061 70.0804C195.122 73.9607 195.239 78.1907 195.021 80.8753C194.953 81.7143 194.646 82.5158 194.138 83.184C193.629 83.8521 192.94 84.3586 192.154 84.6429C189.203 85.7258 184.314 87.0681 181.844 85.3253C176.916 81.8793 180.741 66.8487 180.741 66.8487Z" fill="#263238"/>
<path d="M180.741 66.8486C172.525 72.8383 173.298 81.1122 178.299 83.3964C185.008 79.5104 180.741 66.8486 180.741 66.8486Z" fill="#263238"/>
<path d="M150.91 105.359L149.633 101.924L145.635 106.318C145.635 106.318 147.914 108.664 150.294 109.064L150.641 108.5C150.917 108.03 151.085 107.504 151.131 106.96C151.178 106.416 151.102 105.869 150.91 105.359Z" fill="#7F3E3B"/>
<path d="M145.691 102.014L144.616 103.593C144.389 103.922 144.294 104.325 144.35 104.722C144.406 105.118 144.609 105.479 144.918 105.731L145.635 106.323L149.633 101.924L147.393 101.36C147.077 101.281 146.745 101.301 146.44 101.418C146.136 101.535 145.875 101.743 145.691 102.014Z" fill="#7F3E3B"/>
<path d="M176.89 98.3592C176.733 98.8047 176.604 99.1375 176.458 99.4872C176.313 99.8368 176.162 100.209 176.005 100.559C175.697 101.269 175.372 101.963 175.03 102.651C174.353 104.033 173.605 105.379 172.79 106.684C171.963 107.998 171.064 109.266 170.097 110.48C169.116 111.716 168.049 112.881 166.905 113.965L166.014 114.766L165.796 114.963L165.74 115.014L165.639 115.099L165.337 115.336C164.945 115.601 164.517 115.806 164.066 115.945C163.388 116.142 162.678 116.201 161.977 116.12C161.457 116.066 160.943 115.963 160.442 115.809C158.858 115.292 157.351 114.559 155.962 113.632C153.442 111.994 151.096 110.098 148.962 107.975C148.694 107.71 148.531 107.355 148.502 106.978C148.474 106.6 148.583 106.225 148.809 105.922C149.035 105.619 149.363 105.409 149.731 105.332C150.099 105.254 150.483 105.314 150.81 105.499H150.861C153.291 106.887 155.8 108.286 158.247 109.397C159.356 109.927 160.521 110.33 161.719 110.598C161.915 110.635 162.114 110.65 162.313 110.643C162.458 110.643 162.492 110.587 162.363 110.643C162.253 110.665 162.148 110.709 162.055 110.773C162.021 110.791 161.989 110.814 161.96 110.84L161.999 110.795L162.167 110.621L162.839 109.916C164.606 107.934 166.162 105.772 167.482 103.463C168.17 102.302 168.786 101.095 169.397 99.882C169.699 99.2728 169.99 98.6581 170.259 98.0433L170.657 97.1184L171.015 96.2498L171.071 96.1144C171.368 95.3396 171.959 94.7153 172.713 94.379C173.467 94.0426 174.323 94.0218 175.092 94.3209C175.861 94.6201 176.481 95.2148 176.815 95.9742C177.149 96.7337 177.17 97.5956 176.873 98.3704L176.89 98.3592Z" fill="#7F3E3B"/>
<path d="M174.273 92.7475C168.964 95.9059 168.387 101.591 165.974 103.824C168.572 110.028 172.884 110.074 172.884 110.074C172.884 110.074 180.164 89.2507 174.273 92.7475Z" fill="#0574B2"/>
<path opacity="0.3" d="M174.273 92.7475C168.964 95.9059 168.387 101.591 165.974 103.824C168.572 110.028 172.884 110.074 172.884 110.074C172.884 110.074 180.164 89.2507 174.273 92.7475Z" fill="white"/>
<path d="M195.049 120.209C195.721 112.837 195.953 105.432 195.744 98.0322C195.615 94.9753 194.271 92.161 191.264 91.8282C190.457 91.7492 189.584 91.6816 188.727 91.6364C185.67 91.419 182.601 91.419 179.543 91.6364C178.546 91.7323 177.521 91.8564 176.547 91.9974C174.839 92.2383 173.282 93.1112 172.178 94.4459C171.074 95.7805 170.504 97.4813 170.577 99.2166C170.667 101.219 167.525 105.855 171.401 108.54C171.731 111.433 171.294 116.373 171.434 121.404C168.813 125.945 160.044 129.441 159.282 133.846C158.207 140.095 164.91 142.447 171.283 142.87C190.805 144.258 200.571 141.55 195.049 120.209Z" fill="#0574B2"/>
<path opacity="0.4" d="M195.049 120.209C195.721 112.837 195.953 105.432 195.744 98.0322C195.615 94.9753 194.271 92.161 191.264 91.8282C190.457 91.7492 189.584 91.6816 188.727 91.6364C185.67 91.419 182.601 91.419 179.543 91.6364C178.546 91.7323 177.521 91.8564 176.547 91.9974C174.839 92.2383 173.282 93.1112 172.178 94.4459C171.074 95.7805 170.504 97.4813 170.577 99.2166C170.667 101.219 167.525 105.855 171.401 108.54C171.731 111.433 171.294 116.373 171.434 121.404C168.813 125.945 160.044 129.441 159.282 133.846C158.207 140.095 164.91 142.447 171.283 142.87C190.805 144.258 200.571 141.55 195.049 120.209Z" fill="white"/>
<path opacity="0.6" d="M174.784 130.812C172.437 131.325 166.468 129.475 162.979 130.208C162.137 130.366 161.354 130.754 160.715 131.329C160.076 131.903 159.606 132.643 159.356 133.468C159.317 133.6 159.287 133.733 159.266 133.869C158.185 140.118 164.866 142.47 171.261 142.893C176.861 143.276 181.437 143.457 185.093 143C186 142.898 186.849 142.501 187.511 141.869C188.173 141.236 188.612 140.404 188.761 139.497C189.484 134.636 181.476 129.351 174.784 130.812Z" fill="#0574B2"/>
<path opacity="0.3" d="M179.118 110.254C181.918 112.939 187.395 117.744 189.271 118.511C185.093 117.919 180.457 112.465 179.118 110.254Z" fill="#0574B2"/>
<path opacity="0.3" d="M174.452 105.212C177.359 110.26 182.135 117.75 184.073 119.712C178.999 116.148 174.979 107.84 174.452 105.212Z" fill="#0574B2"/>
<path d="M173.439 134.365C170.426 129.938 163.594 129.757 161.388 131.85C157.708 135.324 150.647 141.539 146.458 146.378C141.211 152.441 134.228 171.262 131.797 177.646C130.75 180.545 125.94 183.467 121.46 182.937C119.466 182.7 120.827 185.193 122.249 185.548C125.811 186.496 125.609 185.227 127.67 185.65C129.406 186.011 129.283 186.456 131.344 186.958C132.503 187.24 133.152 186.09 133.376 184.702C133.6 183.315 134.11 182.294 137.039 177.821C142.894 170.429 148.047 162.498 152.428 154.133C164.535 148.042 166.988 146.119 171.4 142.171C173.685 140.107 175.354 137.174 173.439 134.365Z" fill="#7F3E3B"/>
<path opacity="0.2" d="M173.439 134.365C173.117 133.893 172.753 133.452 172.353 133.045C171.085 133.603 169.916 134.365 168.892 135.301C165.179 138.742 158.213 145.171 155.911 147.523C154.191 149.207 153.128 151.456 152.915 153.863C164.602 147.963 167.072 146.04 171.395 142.137C173.685 140.112 175.354 137.174 173.439 134.365Z" fill="black"/>
<path d="M187.802 81.2419C187.242 84.2199 186.643 89.6737 188.71 91.659C184.888 92.59 181.386 94.5379 178.568 97.299C176.49 93.4131 179.526 91.659 179.526 91.659C182.818 90.8694 182.734 88.4047 182.158 86.0923L187.802 81.2419Z" fill="#7F3E3B"/>
<path opacity="0.2" d="M185.502 83.2216L182.142 86.0923C182.285 86.6298 182.381 87.179 182.427 87.7336C183.682 87.5474 185.412 86.1544 185.546 84.829C185.628 84.2948 185.613 83.7502 185.502 83.2216Z" fill="black"/>
<path d="M190.916 75.7824C189.763 80.6215 189.376 82.697 186.531 84.7782C182.242 87.914 176.709 85.438 176.451 80.3508C176.205 75.7711 178.131 68.6252 183.138 67.5085C188.144 66.3918 192.081 70.9376 190.916 75.7824Z" fill="#7F3E3B"/>
<path d="M181.402 67.345C183.833 71.857 188.016 72.8046 188.094 75.9348C188.173 79.065 193.37 80.3114 192.798 76.1322C192.227 71.9529 188.867 63.9385 181.402 67.345Z" fill="#263238"/>
<path d="M182.001 67.1589C181.659 70.887 184.325 70.9095 185.019 70.6557C182.029 71.8232 180.153 70.0466 180.539 68.0162C180.71 67.7783 180.928 67.5791 181.18 67.4315C181.432 67.2838 181.711 67.191 182.001 67.1589Z" fill="#263238"/>
<path d="M183.412 75.8331C183.339 76.2335 183.07 76.5212 182.813 76.4704C182.555 76.4196 182.404 76.0643 182.471 75.6695C182.538 75.2747 182.807 74.9814 183.07 75.0322C183.333 75.083 183.479 75.4157 183.412 75.8331Z" fill="#263238"/>
<path d="M178.53 75.0379C178.463 75.4327 178.194 75.7204 177.937 75.6753C177.679 75.6302 177.528 75.2692 177.595 74.8687C177.662 74.4683 177.931 74.1863 178.194 74.2314C178.457 74.2765 178.603 74.6375 178.53 75.0379Z" fill="#263238"/>
<path d="M178.299 74.2877L177.397 73.8422C177.397 73.8422 177.756 74.6656 178.299 74.2877Z" fill="#263238"/>
<path d="M179.762 75.9346C179.254 76.7835 178.632 77.5578 177.914 78.2357C178.091 78.4163 178.305 78.5562 178.541 78.6458C178.777 78.7354 179.029 78.7725 179.28 78.7546L179.762 75.9346Z" fill="#630F0F"/>
<path d="M181.295 80.6214C181.07 80.6221 180.845 80.6014 180.623 80.5594C180.608 80.5574 180.593 80.5522 180.58 80.5442C180.566 80.5362 180.555 80.5254 180.546 80.5127C180.537 80.5 180.531 80.4856 180.528 80.4703C180.525 80.455 180.525 80.4393 180.528 80.424C180.53 80.4086 180.535 80.3937 180.543 80.3803C180.551 80.367 180.562 80.3554 180.574 80.3464C180.587 80.3374 180.601 80.3311 180.616 80.328C180.631 80.3249 180.647 80.3249 180.662 80.3282C181.153 80.4274 181.659 80.4087 182.141 80.2734C182.623 80.1382 183.066 79.8902 183.434 79.5498C183.445 79.5386 183.458 79.5296 183.473 79.5235C183.487 79.5174 183.503 79.5143 183.518 79.5143C183.534 79.5143 183.549 79.5174 183.564 79.5235C183.578 79.5296 183.591 79.5386 183.602 79.5498C183.623 79.5719 183.635 79.6012 183.635 79.6316C183.635 79.6621 183.623 79.6914 183.602 79.7134C182.98 80.308 182.152 80.6339 181.295 80.6214Z" fill="#263238"/>
<path d="M191.521 79.6007C191.253 79.9643 190.911 80.2664 190.518 80.4871C190.125 80.7078 189.69 80.842 189.242 80.881C188.122 80.943 187.836 79.6402 188.408 78.5065C188.917 77.4913 190.127 76.2505 191.146 76.7074C192.165 77.1642 192.227 78.6532 191.521 79.6007Z" fill="#7F3E3B"/>
<path d="M185.664 74.3724C185.602 74.3543 185.548 74.3143 185.513 74.2596C185.371 73.9976 185.17 73.7731 184.926 73.6045C184.681 73.4359 184.401 73.328 184.107 73.2895C184.076 73.288 184.046 73.2805 184.018 73.2672C183.99 73.2539 183.965 73.2352 183.944 73.2122C183.923 73.1891 183.907 73.1622 183.897 73.1329C183.886 73.1035 183.882 73.0724 183.883 73.0413C183.887 72.978 183.916 72.9189 183.963 72.8767C184.01 72.8345 184.072 72.8126 184.135 72.8157C184.508 72.8566 184.865 72.9877 185.176 73.1979C185.487 73.4081 185.743 73.6911 185.921 74.0227C185.937 74.0492 185.948 74.0787 185.952 74.1094C185.957 74.1401 185.955 74.1714 185.947 74.2014C185.939 74.2314 185.926 74.2594 185.907 74.284C185.888 74.3085 185.864 74.329 185.838 74.3442C185.785 74.3753 185.723 74.3853 185.664 74.3724Z" fill="#263238"/>
<path d="M177.206 72.6748C177.146 72.6698 177.09 72.6416 177.05 72.5959C177.007 72.5499 176.983 72.4895 176.983 72.4267C176.983 72.3639 177.007 72.3034 177.05 72.2575C177.328 72.0032 177.663 71.8195 178.026 71.7214C178.39 71.6233 178.771 71.6137 179.138 71.6935C179.168 71.7025 179.196 71.7174 179.22 71.7374C179.244 71.7573 179.264 71.782 179.279 71.8098C179.294 71.8376 179.303 71.8681 179.305 71.8995C179.308 71.9308 179.305 71.9624 179.295 71.9924C179.287 72.0223 179.273 72.0503 179.253 72.0746C179.234 72.0989 179.21 72.119 179.183 72.1337C179.156 72.1484 179.126 72.1575 179.095 72.1604C179.064 72.1632 179.033 72.1598 179.004 72.1503C178.714 72.09 178.413 72.0994 178.127 72.1778C177.841 72.2562 177.578 72.4014 177.358 72.6015C177.318 72.6448 177.264 72.671 177.206 72.6748Z" fill="#263238"/>
<path d="M183.178 75.0718L182.276 74.6262C182.276 74.6262 182.635 75.4609 183.178 75.0718Z" fill="#263238"/>
<path d="M187.137 123.254L183.536 122.747L185.451 128.387C185.451 128.387 188.587 127.49 190.077 125.567L189.735 125.003C189.459 124.534 189.083 124.134 188.633 123.832C188.183 123.529 187.672 123.332 187.137 123.254Z" fill="#7F3E3B"/>
<path d="M181.727 126.277L182.584 127.969C182.764 128.326 183.07 128.602 183.443 128.742C183.815 128.882 184.226 128.876 184.594 128.725L185.451 128.37L183.536 122.73L181.968 124.467C181.749 124.708 181.608 125.01 181.565 125.334C181.522 125.658 181.578 125.987 181.727 126.277Z" fill="#7F3E3B"/>
<path d="M194.982 94.9979C195.699 96.3459 196.265 97.6262 196.847 98.9459C197.429 100.266 197.928 101.625 198.404 103.007C199.413 105.84 200.082 108.784 200.397 111.777C200.397 112.177 200.453 112.572 200.465 112.984V113.294C200.476 113.482 200.476 113.67 200.465 113.858C200.439 114.182 200.383 114.503 200.297 114.817C200.034 115.754 199.621 116.641 199.076 117.445C198.212 118.732 197.215 119.923 196.102 120.998C194.042 123.023 191.791 124.842 189.382 126.43C189.069 126.64 188.691 126.728 188.318 126.678C187.945 126.629 187.603 126.444 187.355 126.159C187.107 125.875 186.971 125.509 186.971 125.13C186.971 124.751 187.107 124.385 187.355 124.1L187.389 124.061C189.153 122.025 190.939 119.927 192.49 117.857C193.231 116.878 193.892 115.841 194.467 114.755C194.665 114.384 194.805 113.984 194.881 113.57C194.881 113.525 194.881 113.491 194.881 113.508C194.879 113.521 194.879 113.535 194.881 113.548V113.339C194.853 113.057 194.809 112.775 194.764 112.471C194.289 109.963 193.575 107.508 192.63 105.139C192.165 103.903 191.65 102.68 191.135 101.456C190.62 100.232 190.015 98.9967 189.505 97.8743L189.472 97.8123C189.143 97.0758 189.11 96.2401 189.378 95.4792C189.646 94.7183 190.195 94.0908 190.911 93.7274C191.627 93.3641 192.454 93.2927 193.221 93.5283C193.987 93.7639 194.634 94.2883 195.027 94.9923L194.982 94.9979Z" fill="#7F3E3B"/>
<path d="M186.084 134.376C183.646 132.255 180.485 131.169 177.268 131.348C174.05 131.527 171.028 132.956 168.836 135.335C165.403 139.058 161.242 143.654 157.076 148.493C150.849 155.69 142.163 180.878 141.575 181.871L144.375 183.867C151.609 175.394 157.867 166.123 163.029 156.231C175.136 150.14 181.766 146 186.151 142.052C186.69 141.568 187.12 140.974 187.413 140.309C187.705 139.645 187.854 138.925 187.848 138.198C187.842 137.47 187.682 136.753 187.379 136.093C187.076 135.433 186.636 134.846 186.09 134.371L186.084 134.376Z" fill="#7F3E3B"/>
<path d="M145.354 187.381C145.298 185.982 144.704 184.403 147.633 179.931C147.633 179.931 142.974 178.16 142.391 179.756C141.339 182.655 137.234 188.024 132.726 188.092C130.721 188.12 133.151 190.348 134.624 190.455C138.303 190.664 137.984 189.795 140.067 189.801C141.32 189.728 142.576 189.796 143.814 190.004C144.99 190.224 145.415 188.78 145.354 187.381Z" fill="#7F3E3B"/>
<path d="M191.623 91.9071C195.201 92.3809 197.603 96.4191 199.782 102.742C197.942 106.121 195.085 108.826 191.623 110.468C189.769 106.802 187.927 101.884 187.585 99.1883C187.243 96.4924 187.731 91.3882 191.623 91.9071Z" fill="#0574B2"/>
<path opacity="0.4" d="M191.623 91.9071C195.201 92.3809 197.603 96.4191 199.782 102.742C197.942 106.121 195.085 108.826 191.623 110.468C189.769 106.802 187.927 101.884 187.585 99.1883C187.243 96.4924 187.731 91.3882 191.623 91.9071Z" fill="white"/>
<path d="M194.5 192.294C194.437 192.283 194.377 192.261 194.323 192.226C194.269 192.192 194.223 192.147 194.187 192.095C194.151 192.042 194.125 191.982 194.113 191.92C194.1 191.857 194.1 191.792 194.113 191.73L202.855 141.071C202.865 141.008 202.888 140.947 202.922 140.893C202.955 140.839 203 140.792 203.052 140.756C203.105 140.719 203.164 140.694 203.226 140.681C203.288 140.669 203.353 140.669 203.415 140.682C203.477 140.693 203.537 140.716 203.59 140.75C203.644 140.785 203.69 140.83 203.726 140.882C203.762 140.935 203.787 140.994 203.8 141.056C203.813 141.119 203.813 141.183 203.801 141.246L195.06 191.899C195.05 191.962 195.028 192.024 194.995 192.078C194.961 192.133 194.917 192.181 194.864 192.218C194.812 192.255 194.752 192.28 194.69 192.293C194.627 192.306 194.562 192.306 194.5 192.294Z" fill="#E0E0E0"/>
<path d="M196.757 141.133C196.758 141.008 196.808 140.888 196.896 140.8C196.984 140.711 197.103 140.661 197.227 140.659H203.342C203.467 140.659 203.587 140.709 203.675 140.798C203.763 140.887 203.813 141.008 203.813 141.133C203.814 141.196 203.802 141.258 203.779 141.315C203.755 141.373 203.721 141.426 203.677 141.47C203.633 141.514 203.581 141.549 203.523 141.572C203.466 141.596 203.404 141.608 203.342 141.607H197.227C197.102 141.607 196.983 141.557 196.895 141.468C196.806 141.379 196.757 141.259 196.757 141.133Z" fill="#E0E0E0"/>
<path d="M196.919 144.726H196.975C197.219 144.726 197.417 144.526 197.417 144.28V138.95C197.417 138.704 197.219 138.505 196.975 138.505H196.919C196.674 138.505 196.476 138.704 196.476 138.95V144.28C196.476 144.526 196.674 144.726 196.919 144.726Z" fill="#E0E0E0"/>
<path d="M199.781 175.582C199.782 176.061 199.642 176.53 199.379 176.929C199.115 177.327 198.74 177.638 198.301 177.822C197.862 178.006 197.378 178.054 196.912 177.961C196.445 177.868 196.017 177.637 195.68 177.299C195.344 176.96 195.115 176.528 195.022 176.059C194.93 175.589 194.978 175.102 195.161 174.659C195.343 174.217 195.652 173.839 196.048 173.574C196.444 173.308 196.909 173.167 197.385 173.168C198.02 173.168 198.63 173.423 199.079 173.875C199.529 174.328 199.781 174.942 199.781 175.582Z" fill="white"/>
<path d="M198.113 141.133C198.113 141.364 198.045 141.59 197.918 141.782C197.791 141.974 197.61 142.123 197.398 142.212C197.186 142.3 196.953 142.323 196.728 142.278C196.503 142.233 196.297 142.122 196.134 141.959C195.972 141.795 195.862 141.587 195.817 141.361C195.772 141.134 195.795 140.9 195.883 140.686C195.971 140.473 196.119 140.291 196.31 140.162C196.501 140.034 196.725 139.966 196.954 139.966C197.262 139.966 197.556 140.089 197.774 140.308C197.991 140.527 198.113 140.824 198.113 141.133Z" fill="white"/>
<path d="M187.07 140.795C186.786 140.686 186.51 140.554 186.247 140.4C186.011 140.262 185.823 140.055 185.706 139.807C185.59 139.559 185.55 139.281 185.593 139.01C185.636 138.739 185.76 138.488 185.947 138.289C186.135 138.09 186.378 137.953 186.645 137.896C190.156 137.123 196.764 135.578 199.614 134.512C198.645 137.179 192.418 140.535 190.385 140.936C189.287 141.185 188.143 141.136 187.07 140.795Z" fill="black"/>
<path d="M187.069 140.795C189.461 141.477 191.813 139.486 191.852 136.745C191.856 136.438 191.951 136.14 192.123 135.887C192.295 135.634 192.538 135.438 192.821 135.324C195.262 134.342 200.465 132.837 202.99 132.126C203.178 132.071 203.377 132.061 203.569 132.096C203.762 132.131 203.944 132.21 204.102 132.327C204.259 132.445 204.388 132.597 204.478 132.772C204.568 132.948 204.616 133.141 204.62 133.339C204.653 135.031 204.172 137.49 201.26 138.307C191.717 140.992 189.214 141.618 187.069 140.795Z" fill="#263238"/>
<path d="M156.167 32.0898C159.453 18.0657 150.829 4.0136 136.904 0.7036C122.98 -2.6064 109.027 6.07912 105.741 20.1033C102.454 34.1274 111.078 48.1795 125.003 51.4895C138.928 54.7995 152.88 46.114 156.167 32.0898Z" fill="#0574B2"/>
<path d="M108.495 30.059L97.541 41.8184L113.456 42.5854L108.495 30.059Z" fill="#0574B2"/>
<path d="M153.152 31.3735C156.045 19.0258 148.452 6.65353 136.192 3.73921C123.932 0.824899 111.648 8.47214 108.754 20.8198C105.86 33.1675 113.453 45.5398 125.714 48.4541C137.974 51.3684 150.258 43.7212 153.152 31.3735Z" fill="white"/>
<path d="M115.36 21.9879C116.87 22.4811 118.338 23.094 119.751 23.8209C121.154 24.5269 122.519 25.3082 123.839 26.1615C124.494 26.5957 125.155 27.0244 125.788 27.4981C126.42 27.9719 127.053 28.4513 127.669 28.9476C128.932 29.9722 130.118 31.0881 131.22 32.2865L126.829 32.5854C128.03 30.6316 129.384 28.7777 130.878 27.0413C132.342 25.3485 133.901 23.7422 135.548 22.2304C137.197 20.7333 138.93 19.3341 140.74 18.0399C142.558 16.7122 144.493 15.5531 146.519 14.5769C145.399 16.5791 144.161 18.4121 142.901 20.2169C141.641 22.0217 140.342 23.7588 139.048 25.479L135.128 30.555C133.84 32.247 132.586 33.8995 131.421 35.5633L129.26 38.6428L127.02 35.8623C126.146 34.7681 125.194 33.6683 124.22 32.5572L121.235 29.1732C120.232 28.0452 119.219 26.9172 118.228 25.6933C117.236 24.4695 116.318 23.3076 115.36 21.9879Z" fill="#0574B2"/>
</svg>
