<svg width="24" height="30" viewBox="0 0 24 30" fill="none" xmlns="http://www.w3.org/2000/svg">
<path fill-rule="evenodd" clip-rule="evenodd" d="M10.7003 0H13.2997C15.5618 0 17.3538 0 18.7557 0.213488C20.1982 0.433953 21.3662 0.897209 22.288 1.94093C23.2086 2.98605 23.6172 4.31023 23.8117 5.94558C24 7.53628 24 9.56651 24 12.1312V17.8688C24 20.4335 24 22.4651 23.8117 24.0544C23.6172 25.6898 23.2086 27.014 22.288 28.0591C21.3662 29.1028 20.1982 29.566 18.7557 29.7865C17.3526 30 15.5618 30 13.2997 30H10.7003C8.43815 30 6.64615 30 5.24431 29.7865C3.80185 29.566 2.63385 29.1028 1.712 28.0591C0.791385 27.014 0.382769 25.6898 0.188308 24.0544C1.46719e-07 22.4637 0 20.4335 0 17.8688V12.1312C0 9.56651 1.46719e-07 7.53488 0.188308 5.94558C0.382769 4.31023 0.791385 2.98605 1.712 1.94093C2.63385 0.897209 3.80185 0.433953 5.24431 0.213488C6.64739 0 8.43815 0 10.7003 0ZM5.48923 2.28837C4.25108 2.47674 3.53723 2.83116 3.01538 3.4214C2.496 4.01163 2.18338 4.82093 2.01723 6.22465C1.84738 7.65907 1.84492 9.54837 1.84492 12.2093V17.7907C1.84492 20.4516 1.84738 22.3423 2.01723 23.7767C2.18338 25.1791 2.496 25.9884 3.01662 26.5786C3.53723 27.1688 4.25108 27.5233 5.48923 27.7116C6.75446 27.9042 8.42092 27.907 10.768 27.907H13.2295C15.5766 27.907 17.2443 27.9042 18.5095 27.7116C19.7465 27.5233 20.4603 27.1688 20.9809 26.5786C21.5015 25.9884 21.8142 25.1791 21.9803 23.7753C22.1502 22.3423 22.1526 20.4516 22.1526 17.7907V12.2093C22.1526 9.54837 22.1502 7.65907 21.9803 6.22326C21.8142 4.82093 21.5015 4.01163 20.9809 3.4214C20.4603 2.83116 19.7465 2.47674 18.5083 2.28837C17.2443 2.09581 15.5766 2.09302 13.2295 2.09302H10.768C8.42092 2.09302 6.75569 2.09581 5.48923 2.28837ZM6.15385 12.2093C6.15385 11.9317 6.2511 11.6656 6.42421 11.4693C6.59732 11.273 6.83211 11.1628 7.07692 11.1628H16.9231C17.1679 11.1628 17.4027 11.273 17.5758 11.4693C17.7489 11.6656 17.8462 11.9317 17.8462 12.2093C17.8462 12.4869 17.7489 12.753 17.5758 12.9493C17.4027 13.1456 17.1679 13.2558 16.9231 13.2558H7.07692C6.83211 13.2558 6.59732 13.1456 6.42421 12.9493C6.2511 12.753 6.15385 12.4869 6.15385 12.2093ZM6.15385 17.7907C6.15385 17.5131 6.2511 17.247 6.42421 17.0507C6.59732 16.8544 6.83211 16.7442 7.07692 16.7442H13.2308C13.4756 16.7442 13.7104 16.8544 13.8835 17.0507C14.0566 17.247 14.1538 17.5131 14.1538 17.7907C14.1538 18.0682 14.0566 18.3344 13.8835 18.5307C13.7104 18.727 13.4756 18.8372 13.2308 18.8372H7.07692C6.83211 18.8372 6.59732 18.727 6.42421 18.5307C6.2511 18.3344 6.15385 18.0682 6.15385 17.7907Z" fill="#022C49"/>
</svg>
