<svg width="24" height="24" viewBox="0 0 24 24" fill="none" xmlns="http://www.w3.org/2000/svg">
<path d="M23.7455 11.495L20.0055 7.61766V1.73387C20.0055 1.50395 19.9212 1.28344 19.7712 1.12086C19.6211 0.958274 19.4176 0.866936 19.2055 0.866936H16.8055C16.5933 0.866936 16.3898 0.958274 16.2398 1.12086C16.0898 1.28344 16.0055 1.50395 16.0055 1.73387V3.46775L13.1095 0.467062C12.8385 0.170136 12.4355 0 12 0C11.566 0 11.164 0.170136 10.893 0.467604L0.258018 11.494C-0.0529809 11.8191 -0.0919808 12.3538 0.191018 12.706C0.262084 12.7949 0.349099 12.8672 0.446767 12.9185C0.544436 12.9698 0.650715 12.9991 0.759137 13.0044C0.867559 13.0098 0.975857 12.9912 1.07744 12.9498C1.17902 12.9084 1.27176 12.845 1.35002 12.7635L11.725 2.01996C11.7994 1.94279 11.8985 1.89972 12.0015 1.89972C12.1045 1.89972 12.2035 1.94279 12.278 2.01996L22.654 12.7635C22.8068 12.9223 23.0115 13.009 23.2233 13.0045C23.435 13.0001 23.6364 12.9048 23.7835 12.7396C24.0905 12.395 24.065 11.8261 23.7455 11.495Z" fill="white"/>
<path d="M12.2834 3.47961C12.2089 3.40244 12.1099 3.35938 12.0069 3.35938C11.9039 3.35938 11.8048 3.40244 11.7304 3.47961L2.52539 13.0089C2.4863 13.0494 2.4552 13.0981 2.43397 13.152C2.41274 13.2059 2.40183 13.264 2.40189 13.3226L2.40039 22.2661C2.40039 22.726 2.56896 23.167 2.86902 23.4922C3.16908 23.8173 3.57604 24 4.00039 24H8.80537C9.01755 24 9.22103 23.9087 9.37106 23.7461C9.52109 23.5835 9.60537 23.363 9.60537 23.1331V15.7641C9.60537 15.6491 9.64752 15.5389 9.72253 15.4576C9.79754 15.3763 9.89929 15.3306 10.0054 15.3306H14.0054C14.1114 15.3306 14.2132 15.3763 14.2882 15.4576C14.3632 15.5389 14.4054 15.6491 14.4054 15.7641V23.1331C14.4054 23.363 14.4896 23.5835 14.6397 23.7461C14.7897 23.9087 14.9932 24 15.2054 24H20.0083C20.4327 24 20.8397 23.8173 21.1397 23.4922C21.4398 23.167 21.6083 22.726 21.6083 22.2661V13.3226C21.6084 13.264 21.5975 13.2059 21.5763 13.152C21.555 13.0981 21.5239 13.0494 21.4848 13.0089L12.2834 3.47961Z" fill="white"/>
</svg>
