<svg width="32" height="32" viewBox="0 0 32 32" fill="none" xmlns="http://www.w3.org/2000/svg">
<path d="M0.761905 15.6092C0.761905 9.71558 0.761905 6.76798 2.54781 4.93785C4.33219 3.10615 7.2061 3.10615 12.9524 3.10615H19.0476C24.7939 3.10615 27.6678 3.10615 29.4522 4.93785C31.2381 6.76798 31.2381 9.71558 31.2381 15.6092V18.735C31.2381 24.6286 31.2381 27.5762 29.4522 29.4063C27.6678 31.238 24.7939 31.238 19.0476 31.238H12.9524C7.2061 31.238 4.33219 31.238 2.54781 29.4063C0.761905 27.5762 0.761905 24.6286 0.761905 18.735V15.6092Z" stroke="white" stroke-width="1.5"/>
<path opacity="0.5" d="M8.38095 3.10623V0.761905M23.619 3.10623V0.761905M1.52381 10.9206H30.4762" stroke="white" stroke-width="1.5" stroke-linecap="round"/>
<path d="M25.1429 23.4238C25.1429 23.8383 24.9823 24.2358 24.6965 24.5289C24.4108 24.822 24.0232 24.9867 23.619 24.9867C23.2149 24.9867 22.8273 24.822 22.5416 24.5289C22.2558 24.2358 22.0952 23.8383 22.0952 23.4238C22.0952 23.0093 22.2558 22.6118 22.5416 22.3187C22.8273 22.0256 23.2149 21.8609 23.619 21.8609C24.0232 21.8609 24.4108 22.0256 24.6965 22.3187C24.9823 22.6118 25.1429 23.0093 25.1429 23.4238ZM25.1429 17.1723C25.1429 17.5868 24.9823 17.9843 24.6965 18.2774C24.4108 18.5705 24.0232 18.7351 23.619 18.7351C23.2149 18.7351 22.8273 18.5705 22.5416 18.2774C22.2558 17.9843 22.0952 17.5868 22.0952 17.1723C22.0952 16.7578 22.2558 16.3602 22.5416 16.0671C22.8273 15.774 23.2149 15.6094 23.619 15.6094C24.0232 15.6094 24.4108 15.774 24.6965 16.0671C24.9823 16.3602 25.1429 16.7578 25.1429 17.1723ZM17.5238 23.4238C17.5238 23.8383 17.3633 24.2358 17.0775 24.5289C16.7917 24.822 16.4041 24.9867 16 24.9867C15.5959 24.9867 15.2083 24.822 14.9225 24.5289C14.6367 24.2358 14.4762 23.8383 14.4762 23.4238C14.4762 23.0093 14.6367 22.6118 14.9225 22.3187C15.2083 22.0256 15.5959 21.8609 16 21.8609C16.4041 21.8609 16.7917 22.0256 17.0775 22.3187C17.3633 22.6118 17.5238 23.0093 17.5238 23.4238ZM17.5238 17.1723C17.5238 17.5868 17.3633 17.9843 17.0775 18.2774C16.7917 18.5705 16.4041 18.7351 16 18.7351C15.5959 18.7351 15.2083 18.5705 14.9225 18.2774C14.6367 17.9843 14.4762 17.5868 14.4762 17.1723C14.4762 16.7578 14.6367 16.3602 14.9225 16.0671C15.2083 15.774 15.5959 15.6094 16 15.6094C16.4041 15.6094 16.7917 15.774 17.0775 16.0671C17.3633 16.3602 17.5238 16.7578 17.5238 17.1723ZM9.90476 23.4238C9.90476 23.8383 9.74422 24.2358 9.45845 24.5289C9.17268 24.822 8.78509 24.9867 8.38095 24.9867C7.97681 24.9867 7.58923 24.822 7.30346 24.5289C7.01769 24.2358 6.85714 23.8383 6.85714 23.4238C6.85714 23.0093 7.01769 22.6118 7.30346 22.3187C7.58923 22.0256 7.97681 21.8609 8.38095 21.8609C8.78509 21.8609 9.17268 22.0256 9.45845 22.3187C9.74422 22.6118 9.90476 23.0093 9.90476 23.4238ZM9.90476 17.1723C9.90476 17.5868 9.74422 17.9843 9.45845 18.2774C9.17268 18.5705 8.78509 18.7351 8.38095 18.7351C7.97681 18.7351 7.58923 18.5705 7.30346 18.2774C7.01769 17.9843 6.85714 17.5868 6.85714 17.1723C6.85714 16.7578 7.01769 16.3602 7.30346 16.0671C7.58923 15.774 7.97681 15.6094 8.38095 15.6094C8.78509 15.6094 9.17268 15.774 9.45845 16.0671C9.74422 16.3602 9.90476 16.7578 9.90476 17.1723Z" fill="white"/>
</svg>
