<svg width="24" height="30" viewBox="0 0 24 30" fill="none" xmlns="http://www.w3.org/2000/svg">
<path d="M10.682 4.65099C10.4601 4.04689 10.0154 3.55059 9.43925 3.26389C8.86307 2.9772 8.19904 2.92184 7.58334 3.10917C4.6647 4.00906 2.62494 6.51376 3.06289 9.41142C3.55268 12.6274 4.64246 15.7228 6.2755 18.5363C7.89107 21.3434 10.009 23.8294 12.5237 25.8705C14.7855 27.7002 17.9591 27.1963 20.1968 25.0965C20.6675 24.6548 20.9531 24.0509 20.996 23.4068C21.0388 22.7626 20.8358 22.1262 20.4278 21.626L18.826 19.6672C18.5051 19.2733 18.0734 18.9849 17.5866 18.8394C17.0999 18.694 16.5807 18.6981 16.0963 18.8513L12.4008 20.0212L11.7558 19.3552C10.9432 18.5125 10.2325 17.5772 9.63809 16.5686C9.06121 15.5486 8.6119 14.4616 8.30025 13.332L8.05128 12.4471L10.9009 9.82237C11.277 9.47322 11.5407 9.02019 11.6588 8.52082C11.7768 8.02144 11.7438 7.49826 11.5639 7.0177L10.682 4.65099ZM6.70145 0.241511C8.04874 -0.170707 9.50268 -0.052066 10.7653 0.573123C12.028 1.19831 13.0037 2.28271 13.4926 3.60411L14.3715 5.96783C14.7592 7.00629 14.8293 8.13659 14.573 9.21501C14.3166 10.2934 13.7453 11.2712 12.9317 12.0241L11.4619 13.3769C11.6508 13.8989 11.9058 14.4958 12.2358 15.0747C12.5657 15.6447 12.9497 16.1636 13.3006 16.5866L15.1904 15.9866C16.2469 15.6531 17.3792 15.6443 18.4408 15.9614C19.5023 16.2786 20.4443 16.907 21.1447 17.7654L22.7465 19.7242C23.6367 20.8128 24.0804 22.1987 23.988 23.6019C23.8956 25.0051 23.2739 26.3209 22.2486 27.2833C19.2669 30.082 14.3985 31.2428 10.64 28.2012C7.83933 25.9291 5.48038 23.1614 3.68082 20.0361C1.85899 16.898 0.643036 13.4455 0.0962528 9.85836C-0.623659 5.07993 2.80492 1.44137 6.70145 0.244511" fill="#008000"/>
</svg>
