<svg width="49" height="37" viewBox="0 0 49 37" fill="none" xmlns="http://www.w3.org/2000/svg">
<path d="M44.406 36.7498H4.59372C2.05186 36.7498 0 34.6979 0 32.1561V4.59372C0 2.05186 2.05186 0 4.59372 0H44.406C46.9479 0 48.9997 2.05186 48.9997 4.59372V32.1561C48.9997 34.6979 46.9479 36.7498 44.406 36.7498ZM4.59372 3.06248C3.73623 3.06248 3.06248 3.73623 3.06248 4.59372V32.1561C3.06248 33.0136 3.73623 33.6873 4.59372 33.6873H44.406C45.2635 33.6873 45.9372 33.0136 45.9372 32.1561V4.59372C45.9372 3.73623 45.2635 3.06248 44.406 3.06248H4.59372Z" fill="white"/>
<path d="M40.3941 13.5946C40.3941 13.5794 40.3817 13.5671 40.3665 13.5671H38.0972C37.3928 13.5671 36.8722 13.7815 36.5353 14.4858L32.9983 22.5424C32.5868 23.4796 33.2734 24.5308 34.2969 24.5308H34.4073C34.9164 24.5308 35.3246 24.3491 35.5133 23.8762C35.7185 23.3619 36.2714 22.877 36.8251 22.877H38.9434C39.4074 22.877 39.837 23.3003 39.9345 23.7539C40.0429 24.2581 40.46 24.5002 40.9757 24.5002H41.1932C42.0544 24.5002 42.6927 23.7003 42.5016 22.8606L40.3947 13.6007C40.3943 13.5987 40.3941 13.5967 40.3941 13.5946ZM36.7497 20.6414C36.7497 20.6212 36.7533 20.6024 36.7612 20.5838C36.9596 20.1159 37.4439 18.8577 37.7275 18.1163C37.7718 18.0005 38.0806 17.2399 38.1231 17.1234C38.1636 17.0126 38.3881 16.8878 38.4134 17.003L38.5259 17.5177L38.9332 19.3593C39.0857 20.049 38.5608 20.7027 37.8545 20.7027H36.811C36.7771 20.7027 36.7497 20.6753 36.7497 20.6414ZM32.3244 20.917C32.3329 20.917 32.3397 20.9241 32.3397 20.9325C32.3304 23.1901 30.2807 24.6839 27.1335 24.6839C26.2538 24.6839 25.4001 24.5664 24.7175 24.3996C24.1644 24.2645 23.8636 23.7072 23.9606 23.1461L24.1563 22.0137C24.1911 21.8128 24.4034 21.6961 24.5916 21.7745C25.5716 22.2033 26.2148 22.3564 27.3785 22.3564C28.236 22.3564 29.1547 22.0195 29.1547 21.2845C29.1547 20.7945 28.7872 20.4883 27.5929 19.9371C26.4598 19.3858 24.9591 18.5283 24.9591 16.9971C24.9591 14.8533 27.0416 13.3833 30.0122 13.3833C30.7969 13.3833 31.4935 13.4861 32.0511 13.6409C32.4455 13.7504 32.6558 14.1562 32.5826 14.5589L32.3273 15.9628C32.3067 16.0763 32.167 16.12 32.0854 16.0384C32.0713 16.0243 32.0546 16.0134 32.0361 16.0062C31.49 15.7955 30.8216 15.5883 29.7979 15.5883C28.6647 15.6496 28.1441 16.1396 28.1441 16.5683C28.1441 17.0583 28.7872 17.4258 29.7979 17.9158C31.506 18.7089 32.3027 19.6235 32.3091 20.9016C32.3091 20.9101 32.316 20.917 32.3244 20.917ZM6.2512 13.6898C6.18273 13.6728 6.14105 13.6023 6.16044 13.5345C6.17564 13.4813 6.22428 13.4446 6.27962 13.4446H10.8105C11.4536 13.4446 11.9436 13.659 12.0967 14.3633C12.2013 14.8639 10.4822 15.6905 10.065 15.3948C9.01127 14.6479 7.73554 14.0602 6.2512 13.6898Z" fill="white"/>
<path d="M19.6004 13.5567C19.6004 13.5636 19.599 13.5704 19.5963 13.5768L15.5039 23.0988C15.1465 23.9306 14.3281 24.4696 13.4228 24.4696C12.4189 24.4696 11.5347 23.8088 11.2504 22.8459L10.7863 21.2746C10.1792 19.2186 12.3028 17.8844 13.1692 19.8453C13.2791 20.2151 13.795 20.2364 13.935 19.8768L15.9462 14.7112C16.2291 13.9845 16.929 13.5059 17.7088 13.5059H19.5496C19.5777 13.5059 19.6004 13.5287 19.6004 13.5567ZM20.6506 14.7116C20.7692 14.0153 21.3727 13.5059 22.0791 13.5059C22.9767 13.5059 23.6584 14.3136 23.5076 15.1984L22.1333 23.2639C22.0147 23.9603 21.4112 24.4696 20.7048 24.4696C19.8072 24.4696 19.1255 23.6619 19.2763 22.7771L20.6506 14.7116Z" fill="white"/>
</svg>
