<svg width="24" height="24" viewBox="0 0 24 24" fill="none" xmlns="http://www.w3.org/2000/svg">
<path d="M12.711 13.2001L9.95034 15.948C9.83784 16.0596 9.74854 16.1923 9.6876 16.3385C9.62667 16.4848 9.59529 16.6416 9.59529 16.8C9.59529 16.9585 9.62667 17.1153 9.6876 17.2615C9.74854 17.4078 9.83784 17.5405 9.95034 17.652C10.0619 17.7645 10.1947 17.8538 10.3409 17.9147C10.4872 17.9756 10.6441 18.007 10.8025 18.007C10.961 18.007 11.1179 17.9756 11.2641 17.9147C11.4104 17.8538 11.5432 17.7645 11.6547 17.652L16.4559 12.8521C16.5651 12.7379 16.6508 12.6034 16.7079 12.4561C16.828 12.1639 16.828 11.8362 16.7079 11.5441C16.6508 11.3968 16.5651 11.2622 16.4559 11.1481L11.6547 6.34809C11.5428 6.2362 11.41 6.14745 11.2637 6.0869C11.1175 6.02635 10.9608 5.99518 10.8025 5.99518C10.6443 5.99518 10.4875 6.02635 10.3413 6.0869C10.1951 6.14745 10.0622 6.2362 9.95034 6.34809C9.83842 6.45997 9.74965 6.5928 9.68908 6.73899C9.62852 6.88517 9.59734 7.04185 9.59734 7.20008C9.59734 7.35831 9.62852 7.515 9.68908 7.66118C9.74965 7.80737 9.83842 7.94019 9.95034 8.05208L12.711 10.8001H1.20028C0.881947 10.8001 0.576651 10.9265 0.351554 11.1515C0.126458 11.3766 0 11.6818 0 12.0001C0 12.3183 0.126458 12.6235 0.351554 12.8486C0.576651 13.0736 0.881947 13.2001 1.20028 13.2001H12.711ZM12.0028 0.000119632C9.7596 -0.00989286 7.55847 0.608772 5.64909 1.78594C3.73971 2.96311 2.1985 4.65167 1.20028 6.66009C1.05703 6.94652 1.03346 7.27811 1.13475 7.58192C1.23605 7.88573 1.45391 8.13686 1.74041 8.28008C2.02691 8.42329 2.35858 8.44686 2.66246 8.34559C2.96634 8.24432 3.21754 8.02651 3.36079 7.74008C4.1196 6.20807 5.27384 4.90644 6.70423 3.96968C8.13463 3.03293 9.78928 2.49505 11.4972 2.41162C13.2051 2.32819 14.9044 2.70224 16.4193 3.49511C17.9342 4.28799 19.2099 5.47093 20.1145 6.92168C21.019 8.37243 21.5197 10.0384 21.5647 11.7473C21.6098 13.4563 21.1975 15.1463 20.3706 16.6426C19.5437 18.139 18.3321 19.3874 16.861 20.2589C15.3899 21.1304 13.7128 21.5934 12.0028 21.6C10.2131 21.6078 8.45737 21.1109 6.93726 20.1663C5.41715 19.2218 4.19421 17.8679 3.4088 16.26C3.26555 15.9736 3.01435 15.7558 2.71047 15.6545C2.40659 15.5533 2.07492 15.5768 1.78842 15.72C1.50192 15.8633 1.28406 16.1144 1.18276 16.4182C1.08147 16.722 1.10504 17.0536 1.24829 17.34C2.19991 19.2546 3.64588 20.8803 5.43664 22.0489C7.2274 23.2174 9.29792 23.8865 11.434 23.9868C13.5701 24.0871 15.6943 23.615 17.5867 22.6194C19.4791 21.6238 21.0712 20.1408 22.1981 18.3238C23.325 16.5068 23.9459 14.4218 23.9966 12.2845C24.0473 10.1471 23.5259 8.03503 22.4864 6.16669C21.4468 4.29834 19.9269 2.74159 18.0838 1.65744C16.2406 0.573291 14.1413 0.00112337 12.0028 0.000119632Z" fill="white"/>
</svg>
