<svg width="28" height="28" viewBox="0 0 28 28" fill="none" xmlns="http://www.w3.org/2000/svg">
<path d="M14.3077 10.6154C16.6868 10.6154 18.6154 8.68677 18.6154 6.30769C18.6154 3.92862 16.6868 2 14.3077 2C11.9286 2 10 3.92862 10 6.30769C10 8.68677 11.9286 10.6154 14.3077 10.6154Z" fill="white" stroke="#022C49" stroke-width="3" stroke-linecap="round" stroke-linejoin="round"/>
<path d="M2 24.7692C2 19.3313 6.95932 14.9231 13.0769 14.9231" stroke="#022C49" stroke-width="3" stroke-linecap="round" stroke-linejoin="round"/>
<path d="M20.4613 26C23.5201 26 25.9998 23.5204 25.9998 20.4616C25.9998 17.4027 23.5201 14.9231 20.4613 14.9231C17.4025 14.9231 14.9229 17.4027 14.9229 20.4616C14.9229 23.5204 17.4025 26 20.4613 26Z" fill="white" stroke="#022C49" stroke-width="3"/>
<path d="M19.8457 18.6155V21.077H22.3072" stroke="#022C49" stroke-width="3" stroke-linecap="round" stroke-linejoin="round"/>
</svg>
