<svg width="30" height="30" viewBox="0 0 30 30" fill="none" xmlns="http://www.w3.org/2000/svg">
<path d="M21.9403 9.81412C21.8487 9.71951 21.7392 9.6443 21.6181 9.59294C21.4971 9.54158 21.367 9.51512 21.2356 9.51512C21.1041 9.51512 20.9741 9.54158 20.853 9.59294C20.732 9.6443 20.6224 9.71951 20.5308 9.81412L12.309 18.0642L9.19113 14.9356C9.00422 14.748 8.75072 14.6427 8.4864 14.6427C8.22208 14.6427 7.96858 14.748 7.78167 14.9356C7.59477 15.1231 7.48976 15.3775 7.48976 15.6427C7.48976 15.908 7.59477 16.1623 7.78167 16.3499L11.6577 20.1856C11.7492 20.2802 11.8588 20.3554 11.9798 20.4068C12.1009 20.4581 12.231 20.4846 12.3624 20.4846C12.4938 20.4846 12.6239 20.4581 12.745 20.4068C12.866 20.3554 12.9756 20.2802 13.0671 20.1856L21.9937 11.2284C22.0846 11.133 22.1555 11.0202 22.2021 10.8968C22.2488 10.7734 22.2703 10.6418 22.2653 10.5099C22.2603 10.378 22.229 10.2485 22.1731 10.1289C22.1173 10.0094 22.0381 9.90235 21.9403 9.81412Z" fill="#008000"/>
<path d="M14.7762 30.0002C11.8538 30.0002 8.99693 29.1205 6.56699 27.4722C4.13706 25.824 2.24316 23.4813 1.12478 20.7404C0.00640228 17.9995 -0.286216 14.9835 0.283927 12.0737C0.854071 9.16399 2.26137 6.49123 4.32786 4.39343C6.39435 2.29563 9.02722 0.867011 11.8935 0.288229C14.7598 -0.290553 17.7308 0.00649929 20.4308 1.14182C23.1308 2.27714 25.4386 4.19974 27.0622 6.66649C28.6858 9.13325 29.5524 12.0334 29.5524 15.0001C29.5524 18.9784 27.9957 22.7937 25.2246 25.6068C22.4535 28.4198 18.6951 30.0002 14.7762 30.0002ZM14.7762 2.00359C12.2441 2.00359 9.76888 2.76582 7.66351 4.1939C5.55815 5.62197 3.91721 7.65175 2.94822 10.0266C1.97923 12.4014 1.7257 15.0145 2.21968 17.5356C2.71367 20.0567 3.933 22.3724 5.72346 24.19C7.51393 26.0076 9.79512 27.2454 12.2786 27.7469C14.762 28.2484 17.3362 27.991 19.6755 27.0073C22.0149 26.0236 24.0144 24.3578 25.4211 22.2206C26.8279 20.0833 27.5788 17.5706 27.5788 15.0001C27.576 11.5541 26.2262 8.25002 23.8259 5.81331C21.4256 3.37661 18.1708 2.00643 14.7762 2.00359Z" fill="#05DA05"/>
</svg>
