<svg width="24" height="30" viewBox="0 0 24 30" fill="none" xmlns="http://www.w3.org/2000/svg">
<path d="M23.7273 12.8571H14.1818C13.3138 12.8571 12.4814 12.5185 11.8677 11.9157C11.2539 11.3129 10.9091 10.4953 10.9091 9.64286V0.267857C10.9091 0.196817 10.8804 0.128687 10.8292 0.0784536C10.7781 0.0282206 10.7087 0 10.6364 0H4.36364C3.20633 0 2.09642 0.451529 1.27808 1.25526C0.459739 2.05898 0 3.14907 0 4.28571V25.7143C0 26.8509 0.459739 27.941 1.27808 28.7447C2.09642 29.5485 3.20633 30 4.36364 30H19.6364C20.7937 30 21.9036 29.5485 22.7219 28.7447C23.5403 27.941 24 26.8509 24 25.7143V13.125C24 13.054 23.9713 12.9858 23.9201 12.9356C23.869 12.8854 23.7996 12.8571 23.7273 12.8571Z" fill="#0189CD"/>
<path d="M23.1285 10.486L13.3233 0.855841C13.3043 0.837224 13.28 0.824559 13.2536 0.819437C13.2273 0.814316 13.1999 0.816967 13.1751 0.827058C13.1502 0.837148 13.129 0.854227 13.114 0.876149C13.099 0.89807 13.0909 0.923854 13.0908 0.950261V9.64289C13.0908 9.92706 13.2058 10.1996 13.4103 10.4005C13.6149 10.6014 13.8924 10.7143 14.1817 10.7143H23.0324C23.0593 10.7142 23.0856 10.7063 23.1079 10.6916C23.1302 10.6769 23.1476 10.656 23.1579 10.6316C23.1681 10.6072 23.1708 10.5803 23.1656 10.5544C23.1604 10.5285 23.1475 10.5047 23.1285 10.486Z" fill="#0189CD"/>
</svg>
