<svg width="20" height="26" viewBox="0 0 20 26" fill="none" xmlns="http://www.w3.org/2000/svg">
<path d="M0 2.6C0 1.91044 0.263392 1.24912 0.732233 0.761522C1.20107 0.273928 1.83696 0 2.5 0H12.5C12.8315 7.36286e-05 13.1494 0.137086 13.3837 0.3809L19.6338 6.8809C19.8682 7.12464 19.9999 7.45525 20 7.8V23.4C20 24.0896 19.7366 24.7509 19.2678 25.2385C18.7989 25.7261 18.163 26 17.5 26H2.5C1.83696 26 1.20107 25.7261 0.732233 25.2385C0.263392 24.7509 0 24.0896 0 23.4V2.6ZM16.9825 7.8L12.5 3.1382V7.8H16.9825ZM10 2.6H2.5V23.4H17.5V10.4H11.25C10.9185 10.4 10.6005 10.263 10.3661 10.0192C10.1317 9.77544 10 9.44478 10 9.1V2.6ZM5 14.3C5 13.9552 5.1317 13.6246 5.36612 13.3808C5.60054 13.137 5.91848 13 6.25 13H13.75C14.0815 13 14.3995 13.137 14.6339 13.3808C14.8683 13.6246 15 13.9552 15 14.3C15 14.6448 14.8683 14.9754 14.6339 15.2192C14.3995 15.463 14.0815 15.6 13.75 15.6H6.25C5.91848 15.6 5.60054 15.463 5.36612 15.2192C5.1317 14.9754 5 14.6448 5 14.3ZM5 19.5C5 19.1552 5.1317 18.8246 5.36612 18.5808C5.60054 18.337 5.91848 18.2 6.25 18.2H13.75C14.0815 18.2 14.3995 18.337 14.6339 18.5808C14.8683 18.8246 15 19.1552 15 19.5C15 19.8448 14.8683 20.1754 14.6339 20.4192C14.3995 20.663 14.0815 20.8 13.75 20.8H6.25C5.91848 20.8 5.60054 20.663 5.36612 20.4192C5.1317 20.1754 5 19.8448 5 19.5Z" fill="black" fill-opacity="0.7"/>
</svg>
