<svg width="150" height="150" viewBox="0 0 150 150" fill="none" xmlns="http://www.w3.org/2000/svg">
<path d="M74.9988 0C60.1653 0.000230269 45.6649 4.3991 33.3314 12.6403C20.9979 20.8816 11.3851 32.5951 5.70873 46.2995C0.0323406 60.004 -1.45274 75.084 1.44128 89.6325C4.3353 104.181 11.4785 117.545 21.9674 128.033C32.4564 138.522 45.8201 145.665 60.3687 148.559C74.9172 151.453 89.9971 149.967 103.702 144.291C117.406 138.614 129.119 129.001 137.36 116.668C145.601 104.334 150 89.8335 150 75C149.977 55.1155 142.068 36.0518 128.008 21.9915C113.947 7.93109 94.8834 0.0222246 74.9988 0ZM74.9988 144.178C61.3167 144.178 47.9419 140.121 36.5657 132.519C25.1895 124.918 16.3228 114.114 11.087 101.473C5.85111 88.8323 4.48124 74.9229 7.15056 61.5036C9.81988 48.0844 16.4085 35.7581 26.0833 26.0834C35.758 16.4087 48.0844 9.82021 61.5036 7.151C74.9229 4.48179 88.8323 5.85179 101.473 11.0877C114.114 16.3237 124.918 25.1904 132.519 36.5667C140.12 47.943 144.178 61.3179 144.178 75C144.157 93.3409 136.862 110.925 123.893 123.894C110.924 136.863 93.3398 144.158 74.9988 144.178Z" fill="#022C49"/>
<path d="M113.92 39.0639C113.227 38.723 112.427 38.6711 111.696 38.9198C110.965 39.1685 110.363 39.6973 110.022 40.39L78.5044 104.388L39.4695 69.5534C39.1842 69.2989 38.8516 69.1029 38.4906 68.9769C38.1296 68.8509 37.7473 68.7972 37.3655 68.8189C36.9838 68.8406 36.61 68.9373 36.2656 69.1034C35.9213 69.2696 35.613 69.5019 35.3584 69.7872C35.1038 70.0725 34.9079 70.4051 34.7819 70.7661C34.6558 71.1271 34.6021 71.5094 34.6238 71.8912C34.6455 72.2729 34.7422 72.6467 34.9084 72.9911C35.0745 73.3354 35.3069 73.6437 35.5922 73.8983L77.484 111.283C77.819 111.582 78.2185 111.799 78.6514 111.918C79.0843 112.037 79.5389 112.054 79.9796 111.969C80.4202 111.883 80.8351 111.696 81.1917 111.423C81.5484 111.151 81.8371 110.799 82.0354 110.396L115.246 42.9621C115.415 42.6191 115.515 42.2462 115.54 41.8646C115.565 41.483 115.514 41.1003 115.391 40.7383C115.268 40.3763 115.074 40.0421 114.822 39.7548C114.57 39.4675 114.263 39.2328 113.92 39.0639Z" fill="#022C49"/>
</svg>
