<svg width="30" height="30" viewBox="0 0 30 30" fill="none" xmlns="http://www.w3.org/2000/svg">
<path d="M14.7762 30.0002C11.8538 30.0002 8.99693 29.1205 6.56699 27.4722C4.13706 25.824 2.24316 23.4813 1.12478 20.7404C0.00640228 17.9995 -0.286216 14.9835 0.283927 12.0737C0.854071 9.16399 2.26137 6.49123 4.32786 4.39343C6.39435 2.29563 9.02722 0.867011 11.8935 0.288229C14.7598 -0.290553 17.7308 0.00649929 20.4308 1.14182C23.1308 2.27714 25.4386 4.19974 27.0622 6.66649C28.6858 9.13325 29.5524 12.0334 29.5524 15.0001C29.5524 18.9784 27.9957 22.7937 25.2246 25.6068C22.4535 28.4198 18.6951 30.0002 14.7762 30.0002ZM14.7762 2.00359C12.2441 2.00359 9.76888 2.76582 7.66351 4.1939C5.55815 5.62197 3.91721 7.65175 2.94822 10.0266C1.97923 12.4014 1.7257 15.0145 2.21968 17.5356C2.71367 20.0567 3.933 22.3724 5.72346 24.19C7.51393 26.0076 9.79512 27.2454 12.2786 27.7469C14.762 28.2484 17.3362 27.991 19.6755 27.0073C22.0149 26.0236 24.0144 24.3578 25.4211 22.2206C26.8279 20.0833 27.5788 17.5706 27.5788 15.0001C27.576 11.5541 26.2262 8.25002 23.8259 5.81331C21.4256 3.37661 18.1708 2.00643 14.7762 2.00359Z" fill="#FF0000"/>
</svg>
