<svg width="25" height="25" viewBox="0 0 25 25" fill="none" xmlns="http://www.w3.org/2000/svg">
<path d="M19.5 12.4468C19.5005 11.8318 19.3711 11.2262 19.1235 10.6838C18.8758 10.1415 18.5175 9.67904 18.0804 9.33767C17.6433 8.9963 17.1409 8.78655 16.6179 8.72704C16.0948 8.66754 15.5673 8.76012 15.0822 8.99657C14.5971 9.23303 14.1694 9.60602 13.8371 10.0824C13.5048 10.5588 13.2782 11.1239 13.1774 11.7275C13.0766 12.331 13.1048 12.9543 13.2594 13.5421C13.414 14.1298 13.6903 14.6638 14.0636 15.0965V19.085C14.0636 19.1557 14.079 19.2252 14.1084 19.287C14.1379 19.3488 14.1803 19.4007 14.2316 19.4379C14.283 19.4751 14.3417 19.4964 14.4021 19.4996C14.4624 19.5028 14.5225 19.4879 14.5765 19.4563L16.3091 18.4426L18.0416 19.4563C18.0908 19.485 18.145 19.4999 18.2 19.4999C18.2658 19.5 18.3303 19.4784 18.3861 19.4376C18.4376 19.4005 18.48 19.3486 18.5095 19.2869C18.539 19.2252 18.5545 19.1557 18.5545 19.085V15.0965C18.8542 14.7501 19.0921 14.3375 19.2544 13.8826C19.4167 13.4277 19.5002 12.9397 19.5 12.4468ZM13.8273 12.4468C13.8273 11.8723 13.9728 11.3108 14.2455 10.8332C14.5182 10.3557 14.9058 9.98341 15.3593 9.7636C15.8128 9.54378 16.3118 9.48627 16.7933 9.59833C17.2747 9.71039 17.7169 9.98699 18.064 10.3932C18.4111 10.7993 18.6475 11.3168 18.7432 11.8802C18.839 12.4435 18.7898 13.0275 18.602 13.5582C18.4141 14.0888 18.096 14.5424 17.6879 14.8615C17.2798 15.1806 16.7999 15.351 16.3091 15.351C15.6509 15.351 15.0196 15.045 14.5542 14.5003C14.0887 13.9557 13.8273 13.217 13.8273 12.4468ZM17.8455 18.4136L16.4675 17.6073C16.4183 17.5786 16.3641 17.5636 16.3091 17.5636C16.2541 17.5636 16.1999 17.5786 16.1507 17.6073L14.7727 18.4136V15.7168C15.2433 16.0202 15.7718 16.1794 16.3091 16.1794C16.8464 16.1794 17.3749 16.0202 17.8455 15.7168V18.4136ZM12.8818 16.8722C12.8818 16.9823 12.8445 17.0878 12.778 17.1656C12.7115 17.2434 12.6213 17.2871 12.5273 17.2871H7.32727C7.10787 17.2871 6.89745 17.1851 6.7423 17.0036C6.58716 16.822 6.5 16.5758 6.5 16.3191V7.46808C6.5 7.21133 6.58716 6.96509 6.7423 6.78354C6.89745 6.60199 7.10787 6.5 7.32727 6.5H17.7273C17.9467 6.5 18.1571 6.60199 18.3122 6.78354C18.4674 6.96509 18.5545 7.21133 18.5545 7.46808C18.5545 7.57811 18.5172 7.68364 18.4507 7.76145C18.3842 7.83925 18.294 7.88297 18.2 7.88297C18.106 7.88297 18.0158 7.83925 17.9493 7.76145C17.8828 7.68364 17.8455 7.57811 17.8455 7.46808C17.8455 7.4314 17.833 7.39622 17.8108 7.37029C17.7887 7.34435 17.7586 7.32978 17.7273 7.32978H7.32727C7.29593 7.32978 7.26587 7.34435 7.24371 7.37029C7.22154 7.39622 7.20909 7.4314 7.20909 7.46808V16.3191C7.20909 16.3557 7.22154 16.3909 7.24371 16.4168C7.26587 16.4428 7.29593 16.4574 7.32727 16.4574H12.5273C12.6213 16.4574 12.7115 16.5011 12.778 16.5789C12.8445 16.6567 12.8818 16.7622 12.8818 16.8722ZM11.9364 12.9999C11.9364 13.11 11.899 13.2155 11.8325 13.2933C11.766 13.3711 11.6758 13.4148 11.5818 13.4148H9.21818C9.12415 13.4148 9.03397 13.3711 8.96748 13.2933C8.90099 13.2155 8.86364 13.11 8.86364 12.9999C8.86364 12.8899 8.90099 12.7844 8.96748 12.7066C9.03397 12.6288 9.12415 12.585 9.21818 12.585H11.5818C11.6758 12.585 11.766 12.6288 11.8325 12.7066C11.899 12.7844 11.9364 12.8899 11.9364 12.9999ZM11.9364 10.7872C11.9364 10.8972 11.899 11.0028 11.8325 11.0806C11.766 11.1584 11.6758 11.2021 11.5818 11.2021H9.21818C9.12415 11.2021 9.03397 11.1584 8.96748 11.0806C8.90099 11.0028 8.86364 10.8972 8.86364 10.7872C8.86364 10.6772 8.90099 10.5716 8.96748 10.4938C9.03397 10.416 9.12415 10.3723 9.21818 10.3723H11.5818C11.6758 10.3723 11.766 10.416 11.8325 10.4938C11.899 10.5716 11.9364 10.6772 11.9364 10.7872Z" fill="black"/>
<path d="M21.9054 0.5H3.09459C1.66164 0.5 0.5 1.66164 0.5 3.09459V21.9054C0.5 23.3384 1.66164 24.5 3.09459 24.5H21.9054C23.3384 24.5 24.5 23.3384 24.5 21.9054V3.09459C24.5 1.66164 23.3384 0.5 21.9054 0.5Z" stroke="black" stroke-linecap="round" stroke-linejoin="round"/>
</svg>
