<svg width="123" height="23" viewBox="0 0 123 23" fill="none" xmlns="http://www.w3.org/2000/svg">
<path d="M21.8049 10.1868L17.3052 14.2625L18.6531 20.3304C18.7245 20.6476 18.7041 20.9796 18.5946 21.2848C18.4851 21.5901 18.2914 21.8551 18.0376 22.0467C17.7838 22.2383 17.4811 22.348 17.1676 22.3621C16.854 22.3762 16.5434 22.294 16.2746 22.1259L11.1753 18.9159L6.08703 22.1259C5.81822 22.294 5.50762 22.3762 5.19406 22.3621C4.8805 22.348 4.57789 22.2383 4.32408 22.0467C4.07026 21.8551 3.8765 21.5901 3.76701 21.2848C3.65752 20.9796 3.63717 20.6476 3.7085 20.3304L5.0544 14.2687L0.553749 10.1868C0.315705 9.97374 0.143574 9.69247 0.0589427 9.37827C-0.0256891 9.06406 -0.0190543 8.73092 0.0780149 8.42062C0.175084 8.11031 0.358267 7.83666 0.604591 7.63397C0.850915 7.43129 1.14942 7.30859 1.46266 7.28127L7.39503 6.748L9.7107 1.0156C9.83163 0.714807 10.0356 0.457876 10.2969 0.277154C10.5583 0.096432 10.8653 0 11.1793 0C11.4934 0 11.8004 0.096432 12.0617 0.277154C12.3231 0.457876 12.527 0.714807 12.648 1.0156L14.9706 6.748L20.901 7.28127C21.2142 7.30859 21.5127 7.43129 21.7591 7.63397C22.0054 7.83666 22.1886 8.11031 22.2856 8.42062C22.3827 8.73092 22.3893 9.06406 22.3047 9.37827C22.2201 9.69247 22.0479 9.97374 21.8099 10.1868H21.8049Z" fill="black"/>
<path d="M46.964 10.1868L42.4643 14.2625L43.8123 20.3304C43.8836 20.6476 43.8632 20.9796 43.7537 21.2848C43.6442 21.5901 43.4505 21.8551 43.1967 22.0467C42.9429 22.2383 42.6403 22.348 42.3267 22.3621C42.0131 22.3762 41.7025 22.294 41.4337 22.1259L36.3344 18.9159L31.2461 22.1259C30.9773 22.294 30.6667 22.3762 30.3532 22.3621C30.0396 22.348 29.737 22.2383 29.4832 22.0467C29.2294 21.8551 29.0356 21.5901 28.9261 21.2848C28.8166 20.9796 28.7963 20.6476 28.8676 20.3304L30.2135 14.2687L25.7129 10.1868C25.4748 9.97374 25.3027 9.69247 25.218 9.37827C25.1334 9.06406 25.14 8.73092 25.2371 8.42062C25.3342 8.11031 25.5174 7.83666 25.7637 7.63397C26.01 7.43129 26.3085 7.30859 26.6218 7.28127L32.5541 6.748L34.8698 1.0156C34.9907 0.714807 35.1947 0.457876 35.456 0.277154C35.7174 0.096432 36.0244 0 36.3384 0C36.6525 0 36.9595 0.096432 37.2208 0.277154C37.4822 0.457876 37.6861 0.714807 37.8071 1.0156L40.1297 6.748L46.0601 7.28127C46.3733 7.30859 46.6718 7.43129 46.9182 7.63397C47.1645 7.83666 47.3477 8.11031 47.4447 8.42062C47.5418 8.73092 47.5484 9.06406 47.4638 9.37827C47.3792 9.69247 47.207 9.97374 46.969 10.1868H46.964Z" fill="black"/>
<path d="M72.1231 10.1868L67.6235 14.2625L68.9714 20.3304C69.0427 20.6476 69.0223 20.9796 68.9128 21.2848C68.8034 21.5901 68.6096 21.8551 68.3558 22.0467C68.102 22.2383 67.7994 22.348 67.4858 22.3621C67.1722 22.3762 66.8616 22.294 66.5928 22.1259L61.4935 18.9159L56.4052 22.1259C56.1364 22.294 55.8258 22.3762 55.5123 22.3621C55.1987 22.348 54.8961 22.2383 54.6423 22.0467C54.3885 21.8551 54.1947 21.5901 54.0852 21.2848C53.9757 20.9796 53.9554 20.6476 54.0267 20.3304L55.3726 14.2687L50.872 10.1868C50.6339 9.97374 50.4618 9.69247 50.3771 9.37827C50.2925 9.06406 50.2991 8.73092 50.3962 8.42062C50.4933 8.11031 50.6765 7.83666 50.9228 7.63397C51.1691 7.43129 51.4676 7.30859 51.7809 7.28127L57.7132 6.748L60.0289 1.0156C60.1498 0.714807 60.3538 0.457876 60.6151 0.277154C60.8765 0.096432 61.1835 0 61.4975 0C61.8116 0 62.1186 0.096432 62.3799 0.277154C62.6413 0.457876 62.8452 0.714807 62.9662 1.0156L65.2888 6.748L71.2192 7.28127C71.5324 7.30859 71.8309 7.43129 72.0773 7.63397C72.3236 7.83666 72.5068 8.11031 72.6038 8.42062C72.7009 8.73092 72.7075 9.06406 72.6229 9.37827C72.5383 9.69247 72.3661 9.97374 72.1281 10.1868H72.1231Z" fill="black"/>
<path d="M97.2822 10.1868L92.7826 14.2625L94.1305 20.3304C94.2018 20.6476 94.1814 20.9796 94.0719 21.2848C93.9625 21.5901 93.7687 21.8551 93.5149 22.0467C93.2611 22.2383 92.9585 22.348 92.6449 22.3621C92.3313 22.3762 92.0207 22.294 91.7519 22.1259L86.6526 18.9159L81.5643 22.1259C81.2955 22.294 80.9849 22.3762 80.6714 22.3621C80.3578 22.348 80.0552 22.2383 79.8014 22.0467C79.5476 21.8551 79.3538 21.5901 79.2443 21.2848C79.1348 20.9796 79.1145 20.6476 79.1858 20.3304L80.5317 14.2687L76.0311 10.1868C75.793 9.97374 75.6209 9.69247 75.5362 9.37827C75.4516 9.06406 75.4583 8.73092 75.5553 8.42062C75.6524 8.11031 75.8356 7.83666 76.0819 7.63397C76.3282 7.43129 76.6267 7.30859 76.94 7.28127L82.8723 6.748L85.188 1.0156C85.3089 0.714807 85.5129 0.457876 85.7742 0.277154C86.0356 0.096432 86.3426 0 86.6566 0C86.9707 0 87.2777 0.096432 87.539 0.277154C87.8004 0.457876 88.0043 0.714807 88.1253 1.0156L90.4479 6.748L96.3783 7.28127C96.6915 7.30859 96.99 7.43129 97.2364 7.63397C97.4827 7.83666 97.6659 8.11031 97.7629 8.42062C97.86 8.73092 97.8666 9.06406 97.782 9.37827C97.6974 9.69247 97.5252 9.97374 97.2872 10.1868H97.2822Z" fill="black"/>
<path d="M122.441 10.1868L117.942 14.2625L119.29 20.3304C119.361 20.6476 119.341 20.9796 119.231 21.2848C119.122 21.5901 118.928 21.8551 118.674 22.0467C118.42 22.2383 118.118 22.348 117.804 22.3621C117.49 22.3762 117.18 22.294 116.911 22.1259L111.812 18.9159L106.723 22.1259C106.455 22.294 106.144 22.3762 105.83 22.3621C105.517 22.348 105.214 22.2383 104.96 22.0467C104.707 21.8551 104.513 21.5901 104.403 21.2848C104.294 20.9796 104.274 20.6476 104.345 20.3304L105.691 14.2687L101.19 10.1868C100.952 9.97374 100.78 9.69247 100.695 9.37827C100.611 9.06406 100.617 8.73092 100.714 8.42062C100.811 8.11031 100.995 7.83666 101.241 7.63397C101.487 7.43129 101.786 7.30859 102.099 7.28127L108.031 6.748L110.347 1.0156C110.468 0.714807 110.672 0.457876 110.933 0.277154C111.195 0.096432 111.502 0 111.816 0C112.13 0 112.437 0.096432 112.698 0.277154C112.959 0.457876 113.163 0.714807 113.284 1.0156L115.607 6.748L121.537 7.28127C121.851 7.30859 122.149 7.43129 122.395 7.63397C122.642 7.83666 122.825 8.11031 122.922 8.42062C123.019 8.73092 123.026 9.06406 122.941 9.37827C122.856 9.69247 122.684 9.97374 122.446 10.1868H122.441Z" fill="black"/>
</svg>
