<svg width="24" height="20" viewBox="0 0 24 20" fill="none" xmlns="http://www.w3.org/2000/svg">
<path d="M0 0V15H12.3826C12.1276 14.1933 11.998 13.3493 11.9986 12.5H4.79945C4.79945 11.837 4.54663 11.2011 4.09659 10.7322C3.64655 10.2634 3.03617 10 2.39973 10V5C3.73158 5 4.79945 3.8875 4.79945 2.5H16.7981C16.7981 3.16304 17.0509 3.79893 17.5009 4.26777C17.951 4.73661 18.5614 5 19.1978 5V5.075C20.0017 5.075 20.8056 5.225 21.5975 5.5V0H0ZM10.7988 3.75C8.759 3.7875 7.19918 5.375 7.19918 7.5C7.19918 9.625 8.759 11.175 10.7988 11.25C11.2547 11.25 11.7227 11.15 12.1666 10.9625C12.4906 9.5875 13.0305 8.2875 14.3624 7.0125C14.2184 5.35 12.7066 3.7125 10.7988 3.75ZM19.1978 6.25L21.8975 9.0625L19.1978 11.875V10C16.9781 10 15.5262 12.45 16.5101 14.525L15.2023 15.8875C13.0905 12.5625 15.3702 8.125 19.1978 8.125V6.25ZM19.1978 20L16.4981 17.1875L19.1978 14.375V16.25C21.4176 16.25 22.8694 13.8 21.8855 11.725L23.1934 10.3625C25.3051 13.6875 23.0254 18.125 19.1978 18.125V20Z" fill="white"/>
</svg>
