<svg width="22" height="28" viewBox="0 0 22 28" fill="none" xmlns="http://www.w3.org/2000/svg">
<path d="M14.5706 19.0554H7.42773M10.9992 22.6666V15.4443" stroke="#0189CD" stroke-width="2" stroke-linecap="round" stroke-linejoin="round"/>
<path d="M1 25.5556V2.44444C1 2.06135 1.15051 1.69395 1.41842 1.42307C1.68633 1.15218 2.04969 1 2.42857 1H11.2457C12.0034 1.00016 12.73 1.30464 13.2657 1.84644L20.1629 8.82022C20.6987 9.36187 20.9998 10.0965 21 10.8627V25.5556C21 25.9386 20.8495 26.306 20.5816 26.5769C20.3137 26.8478 19.9503 27 19.5714 27H2.42857C2.04969 27 1.68633 26.8478 1.41842 26.5769C1.15051 26.306 1 25.9386 1 25.5556Z" stroke="#0189CD" stroke-width="2" stroke-linejoin="round"/>
<path d="M11 1V9.66667C11 10.0498 11.1505 10.4172 11.4184 10.688C11.6863 10.9589 12.0497 11.1111 12.4286 11.1111H21" stroke="#0189CD" stroke-width="2" stroke-linejoin="round"/>
</svg>
