<svg width="30" height="30" viewBox="0 0 30 30" fill="none" xmlns="http://www.w3.org/2000/svg">
<path d="M29.3693 20.7127C29.2397 20.5788 29.1125 20.4449 28.9876 20.3156C27.2703 18.5337 26.2313 17.4583 26.2313 12.4138C26.2313 9.80223 25.5031 7.65937 24.0675 6.05223C23.0091 4.86495 21.5782 3.96429 19.6923 3.29866C19.6681 3.28708 19.6464 3.27189 19.6283 3.25379C18.95 1.30513 17.0937 0 15.0002 0C12.9066 0 11.0512 1.30513 10.3728 3.25179C10.3547 3.26921 10.3334 3.28393 10.3096 3.29531C5.90864 4.84955 3.76982 7.83147 3.76982 12.4118C3.76982 17.4583 2.73242 18.5337 1.01355 20.3136C0.888659 20.4429 0.761423 20.5741 0.631845 20.7107C0.297128 21.057 0.085057 21.4783 0.0207303 21.9248C-0.0435964 22.3712 0.0425135 22.8241 0.26887 23.2299C0.750495 24.1004 1.77697 24.6408 2.94864 24.6408H27.0603C28.2265 24.6408 29.246 24.1011 29.7292 23.2346C29.9565 22.8287 30.0434 22.3754 29.9797 21.9285C29.9159 21.4815 29.7041 21.0596 29.3693 20.7127ZM15.0002 30C16.1282 29.9992 17.2349 29.7365 18.2029 29.2399C19.171 28.7432 19.9643 28.031 20.4987 27.1788C20.5239 27.138 20.5363 27.0922 20.5348 27.046C20.5333 26.9999 20.5179 26.9548 20.49 26.9152C20.4622 26.8757 20.423 26.843 20.3761 26.8203C20.3292 26.7976 20.2762 26.7857 20.2223 26.7857H9.7796C9.72568 26.7856 9.67263 26.7974 9.62562 26.82C9.5786 26.8427 9.53923 26.8754 9.51132 26.915C9.48342 26.9545 9.46794 26.9996 9.46639 27.0459C9.46484 27.0921 9.47728 27.1379 9.50249 27.1788C10.0368 28.0309 10.83 28.743 11.7979 29.2397C12.7658 29.7364 13.8723 29.9991 15.0002 30Z" fill="#0189CD"/>
</svg>
