<svg width="25" height="25" viewBox="0 0 25 25" fill="none" xmlns="http://www.w3.org/2000/svg">
<path fill-rule="evenodd" clip-rule="evenodd" d="M20.253 5.159C20.3395 5.06011 20.4056 4.94516 20.4477 4.82071C20.4897 4.69626 20.5069 4.56475 20.4981 4.43368C20.4893 4.30261 20.4548 4.17455 20.3965 4.05682C20.3383 3.93908 20.2574 3.83398 20.1585 3.7475C20.0596 3.66102 19.9447 3.59487 19.8202 3.55282C19.6958 3.51077 19.5642 3.49364 19.4332 3.50242C19.3021 3.51119 19.1741 3.5457 19.0563 3.60396C18.9386 3.66223 18.8335 3.74311 18.747 3.842L13.637 9.682L9.3 3.9C9.20685 3.7758 9.08607 3.675 8.94721 3.60557C8.80836 3.53614 8.65525 3.5 8.5 3.5H4.5C4.31429 3.5 4.13225 3.55171 3.97427 3.64935C3.81629 3.74698 3.68863 3.88668 3.60557 4.05279C3.52252 4.21889 3.48736 4.40484 3.50404 4.58981C3.52072 4.77477 3.58857 4.95143 3.7 5.1L10.137 13.682L4.747 19.842C4.66053 19.9409 4.59437 20.0558 4.55232 20.1803C4.51027 20.3047 4.49314 20.4363 4.50192 20.5673C4.51069 20.6984 4.5452 20.8264 4.60347 20.9442C4.66173 21.0619 4.74261 21.167 4.8415 21.2535C4.94039 21.34 5.05534 21.4061 5.17979 21.4482C5.30424 21.4902 5.43575 21.5074 5.56682 21.4986C5.69789 21.4898 5.82595 21.4553 5.94368 21.397C6.06142 21.3388 6.16652 21.2579 6.253 21.159L11.363 15.318L15.7 21.1C15.7931 21.2242 15.9139 21.325 16.0528 21.3944C16.1916 21.4639 16.3448 21.5 16.5 21.5H20.5C20.6857 21.5 20.8678 21.4483 21.0257 21.3507C21.1837 21.253 21.3114 21.1133 21.3944 20.9472C21.4775 20.7811 21.5126 20.5952 21.496 20.4102C21.4793 20.2252 21.4114 20.0486 21.3 19.9L14.863 11.318L20.253 5.159ZM17 19.5L6.5 5.5H8L18.5 19.5H17Z" fill="black"/>
<path d="M21.9054 0.5H3.09459C1.66164 0.5 0.5 1.66164 0.5 3.09459V21.9054C0.5 23.3384 1.66164 24.5 3.09459 24.5H21.9054C23.3384 24.5 24.5 23.3384 24.5 21.9054V3.09459C24.5 1.66164 23.3384 0.5 21.9054 0.5Z" stroke="black" stroke-linecap="round" stroke-linejoin="round"/>
<path d="M21.9054 0.5H3.09459C1.66164 0.5 0.5 1.66164 0.5 3.09459V21.9054C0.5 23.3384 1.66164 24.5 3.09459 24.5H21.9054C23.3384 24.5 24.5 23.3384 24.5 21.9054V3.09459C24.5 1.66164 23.3384 0.5 21.9054 0.5Z" stroke="black" stroke-linecap="round" stroke-linejoin="round"/>
</svg>
