<svg width="25" height="25" viewBox="0 0 25 25" fill="none" xmlns="http://www.w3.org/2000/svg">
<path d="M13.5286 2.5C14.6536 2.503 15.2246 2.509 15.7176 2.523L15.9116 2.53C16.1356 2.538 16.3566 2.548 16.6236 2.56C17.6876 2.61 18.4136 2.778 19.0506 3.025C19.7106 3.279 20.2666 3.623 20.8226 4.178C21.3311 4.6779 21.7245 5.28259 21.9756 5.95C22.2226 6.587 22.3906 7.313 22.4406 8.378C22.4526 8.644 22.4626 8.865 22.4706 9.09L22.4766 9.284C22.4916 9.776 22.4976 10.347 22.4996 11.472L22.5006 12.218V13.528C22.503 14.2574 22.4954 14.9868 22.4776 15.716L22.4716 15.91C22.4636 16.135 22.4536 16.356 22.4416 16.622C22.3916 17.687 22.2216 18.412 21.9756 19.05C21.7253 19.7178 21.3317 20.3226 20.8226 20.822C20.3225 21.3303 19.7179 21.7238 19.0506 21.975C18.4136 22.222 17.6876 22.39 16.6236 22.44C16.3863 22.4512 16.149 22.4612 15.9116 22.47L15.7176 22.476C15.2246 22.49 14.6536 22.497 13.5286 22.499L12.7826 22.5H11.4736C10.7438 22.5025 10.0141 22.4949 9.28458 22.477L9.09058 22.471C8.85319 22.462 8.61585 22.4517 8.37858 22.44C7.31458 22.39 6.58858 22.222 5.95058 21.975C5.28325 21.7244 4.67879 21.3308 4.17958 20.822C3.67062 20.3223 3.2768 19.7176 3.02558 19.05C2.77858 18.413 2.61058 17.687 2.56058 16.622C2.54944 16.3847 2.53944 16.1474 2.53058 15.91L2.52558 15.716C2.50715 14.9868 2.49881 14.2574 2.50058 13.528V11.472C2.49779 10.7426 2.50512 10.0132 2.52258 9.284L2.52958 9.09C2.53758 8.865 2.54758 8.644 2.55958 8.378C2.60958 7.313 2.77758 6.588 3.02458 5.95C3.27569 5.2819 3.6703 4.67702 4.18058 4.178C4.67967 3.66947 5.28372 3.27599 5.95058 3.025C6.58858 2.778 7.31358 2.61 8.37858 2.56C8.64458 2.548 8.86658 2.538 9.09058 2.53L9.28458 2.524C10.0138 2.50623 10.7432 2.49857 11.4726 2.501L13.5286 2.5ZM12.5006 7.5C11.1745 7.5 9.90273 8.02678 8.96504 8.96447C8.02736 9.90215 7.50058 11.1739 7.50058 12.5C7.50058 13.8261 8.02736 15.0979 8.96504 16.0355C9.90273 16.9732 11.1745 17.5 12.5006 17.5C13.8267 17.5 15.0984 16.9732 16.0361 16.0355C16.9738 15.0979 17.5006 13.8261 17.5006 12.5C17.5006 11.1739 16.9738 9.90215 16.0361 8.96447C15.0984 8.02678 13.8267 7.5 12.5006 7.5ZM12.5006 9.5C12.8945 9.49993 13.2847 9.57747 13.6487 9.72817C14.0127 9.87887 14.3434 10.0998 14.622 10.3783C14.9007 10.6569 15.1217 10.9875 15.2725 11.3515C15.4233 11.7154 15.501 12.1055 15.5011 12.4995C15.5011 12.8935 15.4236 13.2836 15.2729 13.6476C15.1222 14.0116 14.9013 14.3423 14.6228 14.621C14.3442 14.8996 14.0135 15.1206 13.6496 15.2714C13.2856 15.4223 12.8955 15.4999 12.5016 15.5C11.7059 15.5 10.9429 15.1839 10.3803 14.6213C9.81765 14.0587 9.50158 13.2956 9.50158 12.5C9.50158 11.7044 9.81765 10.9413 10.3803 10.3787C10.9429 9.81607 11.7059 9.5 12.5016 9.5M17.7516 6C17.4201 6 17.1021 6.1317 16.8677 6.36612C16.6333 6.60054 16.5016 6.91848 16.5016 7.25C16.5016 7.58152 16.6333 7.89946 16.8677 8.13388C17.1021 8.3683 17.4201 8.5 17.7516 8.5C18.0831 8.5 18.401 8.3683 18.6355 8.13388C18.8699 7.89946 19.0016 7.58152 19.0016 7.25C19.0016 6.91848 18.8699 6.60054 18.6355 6.36612C18.401 6.1317 18.0831 6 17.7516 6Z" fill="black"/>
<path d="M21.9054 0.5H3.09459C1.66164 0.5 0.5 1.66164 0.5 3.09459V21.9054C0.5 23.3384 1.66164 24.5 3.09459 24.5H21.9054C23.3384 24.5 24.5 23.3384 24.5 21.9054V3.09459C24.5 1.66164 23.3384 0.5 21.9054 0.5Z" stroke="black" stroke-linecap="round" stroke-linejoin="round"/>
</svg>
