<svg width="30" height="30" viewBox="0 0 30 30" fill="none" xmlns="http://www.w3.org/2000/svg">
<path d="M30 30H27.8571V24.6429C27.8554 23.2226 27.2905 21.861 26.2862 20.8567C25.2819 19.8524 23.9203 19.2874 22.5 19.2857V17.1429C24.4884 17.1451 26.3948 17.936 27.8008 19.3421C29.2068 20.7481 29.9977 22.6544 30 24.6429V30ZM21.4286 30H19.2857V24.6429C19.284 23.2226 18.7191 21.861 17.7148 20.8567C16.7105 19.8524 15.3489 19.2874 13.9286 19.2857H7.5C6.07972 19.2874 4.7181 19.8524 3.71381 20.8567C2.70952 21.861 2.14456 23.2226 2.14286 24.6429V30H0V24.6429C0.0022686 22.6544 0.793174 20.7481 2.1992 19.3421C3.60524 17.936 5.51157 17.1451 7.5 17.1429H13.9286C15.917 17.1451 17.8233 17.936 19.2294 19.3421C20.6354 20.7481 21.4263 22.6544 21.4286 24.6429V30ZM19.2857 0V2.14286C20.7065 2.14286 22.0691 2.70727 23.0738 3.71193C24.0784 4.71659 24.6429 6.0792 24.6429 7.5C24.6429 8.9208 24.0784 10.2834 23.0738 11.2881C22.0691 12.2927 20.7065 12.8571 19.2857 12.8571V15C21.2748 15 23.1825 14.2098 24.589 12.8033C25.9955 11.3968 26.7857 9.48912 26.7857 7.5C26.7857 5.51088 25.9955 3.60322 24.589 2.1967C23.1825 0.790176 21.2748 0 19.2857 0ZM10.7143 2.14286C11.7738 2.14286 12.8096 2.45705 13.6906 3.0457C14.5715 3.63435 15.2582 4.47102 15.6636 5.44991C16.0691 6.4288 16.1752 7.50594 15.9685 8.54513C15.7618 9.58431 15.2516 10.5389 14.5024 11.2881C13.7531 12.0373 12.7986 12.5475 11.7594 12.7542C10.7202 12.9609 9.64309 12.8548 8.6642 12.4494C7.68531 12.0439 6.84863 11.3572 6.25998 10.4763C5.67133 9.59529 5.35714 8.55954 5.35714 7.5C5.35714 6.0792 5.92155 4.71659 6.92621 3.71193C7.93087 2.70727 9.29348 2.14286 10.7143 2.14286ZM10.7143 0C9.23093 0 7.78088 0.439867 6.54751 1.26398C5.31414 2.08809 4.35285 3.25943 3.78519 4.62987C3.21753 6.00032 3.06901 7.50832 3.3584 8.96318C3.64778 10.418 4.36209 11.7544 5.41098 12.8033C6.45988 13.8522 7.79625 14.5665 9.25111 14.8559C10.706 15.1453 12.214 14.9968 13.5844 14.4291C14.9549 13.8614 16.1262 12.9001 16.9503 11.6668C17.7744 10.4334 18.2143 8.98336 18.2143 7.5C18.2143 5.51088 17.4241 3.60322 16.0176 2.1967C14.6111 0.790176 12.7034 0 10.7143 0Z" fill="white"/>
</svg>
