<svg width="14" height="24" viewBox="0 0 14 24" fill="none" xmlns="http://www.w3.org/2000/svg">
<path d="M12.0909 5.45455V18C12.0909 19.1573 11.5545 20.2672 10.5998 21.0856C9.64509 21.9039 8.35019 22.3636 7 22.3636C5.64981 22.3636 4.35491 21.9039 3.40018 21.0856C2.44545 20.2672 1.90909 19.1573 1.90909 18V4.36364C1.90909 3.64032 2.24432 2.94663 2.84102 2.43516C3.43773 1.9237 4.24704 1.63636 5.09091 1.63636C5.93478 1.63636 6.74409 1.9237 7.34079 2.43516C7.9375 2.94663 8.27273 3.64032 8.27273 4.36364V15.8182C8.27273 16.1075 8.13864 16.385 7.89995 16.5896C7.66127 16.7942 7.33755 16.9091 7 16.9091C6.66245 16.9091 6.33873 16.7942 6.10005 16.5896C5.86136 16.385 5.72727 16.1075 5.72727 15.8182V5.45455H3.81818V15.8182C3.81818 16.5415 4.15341 17.2352 4.75011 17.7467C5.34682 18.2581 6.15613 18.5455 7 18.5455C7.84387 18.5455 8.65318 18.2581 9.24988 17.7467C9.84659 17.2352 10.1818 16.5415 10.1818 15.8182V4.36364C10.1818 3.20633 9.64546 2.09642 8.69073 1.27808C7.73599 0.459739 6.4411 0 5.09091 0C3.74072 0 2.44582 0.459739 1.49109 1.27808C0.536362 2.09642 0 3.20633 0 4.36364V18C0 19.5913 0.737497 21.1174 2.05025 22.2426C3.36301 23.3679 5.14348 24 7 24C8.85651 24 10.637 23.3679 11.9497 22.2426C13.2625 21.1174 14 19.5913 14 18V5.45455H12.0909Z" fill="#022C49"/>
</svg>
