<svg width="32" height="32" viewBox="0 0 32 32" fill="none" xmlns="http://www.w3.org/2000/svg">
<path d="M0.761905 15.6092C0.761905 9.71558 0.761905 6.76798 2.54781 4.93785C4.33219 3.10615 7.2061 3.10615 12.9524 3.10615H19.0476C24.7939 3.10615 27.6678 3.10615 29.4522 4.93785C31.2381 6.76798 31.2381 9.71558 31.2381 15.6092V18.735C31.2381 24.6286 31.2381 27.5762 29.4522 29.4063C27.6678 31.238 24.7939 31.238 19.0476 31.238H12.9524C7.2061 31.238 4.33219 31.238 2.54781 29.4063C0.761905 27.5762 0.761905 24.6286 0.761905 18.735V15.6092Z" stroke="black" stroke-width="1.5"/>
<path opacity="0.5" d="M8.38095 3.10623V0.761905M23.619 3.10623V0.761905M1.52381 10.9206H30.4762" stroke="black" stroke-width="1.5" stroke-linecap="round"/>
<path d="M25.1429 23.4235C25.1429 23.838 24.9823 24.2356 24.6965 24.5287C24.4108 24.8218 24.0232 24.9864 23.619 24.9864C23.2149 24.9864 22.8273 24.8218 22.5416 24.5287C22.2558 24.2356 22.0952 23.838 22.0952 23.4235C22.0952 23.009 22.2558 22.6115 22.5416 22.3184C22.8273 22.0253 23.2149 21.8607 23.619 21.8607C24.0232 21.8607 24.4108 22.0253 24.6965 22.3184C24.9823 22.6115 25.1429 23.009 25.1429 23.4235ZM25.1429 17.172C25.1429 17.5865 24.9823 17.984 24.6965 18.2771C24.4108 18.5702 24.0232 18.7349 23.619 18.7349C23.2149 18.7349 22.8273 18.5702 22.5416 18.2771C22.2558 17.984 22.0952 17.5865 22.0952 17.172C22.0952 16.7575 22.2558 16.36 22.5416 16.0669C22.8273 15.7738 23.2149 15.6091 23.619 15.6091C24.0232 15.6091 24.4108 15.7738 24.6965 16.0669C24.9823 16.36 25.1429 16.7575 25.1429 17.172ZM17.5238 23.4235C17.5238 23.838 17.3633 24.2356 17.0775 24.5287C16.7917 24.8218 16.4041 24.9864 16 24.9864C15.5959 24.9864 15.2083 24.8218 14.9225 24.5287C14.6367 24.2356 14.4762 23.838 14.4762 23.4235C14.4762 23.009 14.6367 22.6115 14.9225 22.3184C15.2083 22.0253 15.5959 21.8607 16 21.8607C16.4041 21.8607 16.7917 22.0253 17.0775 22.3184C17.3633 22.6115 17.5238 23.009 17.5238 23.4235ZM17.5238 17.172C17.5238 17.5865 17.3633 17.984 17.0775 18.2771C16.7917 18.5702 16.4041 18.7349 16 18.7349C15.5959 18.7349 15.2083 18.5702 14.9225 18.2771C14.6367 17.984 14.4762 17.5865 14.4762 17.172C14.4762 16.7575 14.6367 16.36 14.9225 16.0669C15.2083 15.7738 15.5959 15.6091 16 15.6091C16.4041 15.6091 16.7917 15.7738 17.0775 16.0669C17.3633 16.36 17.5238 16.7575 17.5238 17.172ZM9.90476 23.4235C9.90476 23.838 9.74422 24.2356 9.45845 24.5287C9.17268 24.8218 8.78509 24.9864 8.38095 24.9864C7.97681 24.9864 7.58923 24.8218 7.30346 24.5287C7.01769 24.2356 6.85714 23.838 6.85714 23.4235C6.85714 23.009 7.01769 22.6115 7.30346 22.3184C7.58923 22.0253 7.97681 21.8607 8.38095 21.8607C8.78509 21.8607 9.17268 22.0253 9.45845 22.3184C9.74422 22.6115 9.90476 23.009 9.90476 23.4235ZM9.90476 17.172C9.90476 17.5865 9.74422 17.984 9.45845 18.2771C9.17268 18.5702 8.78509 18.7349 8.38095 18.7349C7.97681 18.7349 7.58923 18.5702 7.30346 18.2771C7.01769 17.984 6.85714 17.5865 6.85714 17.172C6.85714 16.7575 7.01769 16.36 7.30346 16.0669C7.58923 15.7738 7.97681 15.6091 8.38095 15.6091C8.78509 15.6091 9.17268 15.7738 9.45845 16.0669C9.74422 16.36 9.90476 16.7575 9.90476 17.172Z" fill="black"/>
</svg>
