<svg width="30" height="30" viewBox="0 0 30 30" fill="none" xmlns="http://www.w3.org/2000/svg">
<path d="M15.15 25.4223L15 25.5858L14.835 25.4223C7.71 18.376 3 13.7166 3 8.99183C3 5.72207 5.25 3.26975 8.25 3.26975C10.56 3.26975 12.81 4.90463 13.605 7.12807H16.395C17.19 4.90463 19.44 3.26975 21.75 3.26975C24.75 3.26975 27 5.72207 27 8.99183C27 13.7166 22.29 18.376 15.15 25.4223ZM21.75 0C19.14 0 16.635 1.32425 15 3.40054C13.365 1.32425 10.86 0 8.25 0C3.63 0 0 3.94005 0 8.99183C0 15.1553 5.1 20.2071 12.825 27.842L15 30L17.175 27.842C24.9 20.2071 30 15.1553 30 8.99183C30 3.94005 26.37 0 21.75 0Z" fill="black"/>
</svg>
