<svg width="25" height="25" viewBox="0 0 25 25" fill="none" xmlns="http://www.w3.org/2000/svg">
<path d="M12.423 20.038L6.423 16.777V11.931L3.5 10.346L12.423 5.5L21.346 10.346V16.731H20.346V10.908L18.423 11.931V16.777L12.423 20.038ZM12.423 14.046L19.253 10.346L12.423 6.646L5.593 10.346L12.423 14.046ZM12.423 18.898L17.423 16.198V12.481L12.423 15.189L7.423 12.481V16.198L12.423 18.898Z" fill="black"/>
<path d="M21.9054 0.5H3.09459C1.66164 0.5 0.5 1.66164 0.5 3.09459V21.9054C0.5 23.3384 1.66164 24.5 3.09459 24.5H21.9054C23.3384 24.5 24.5 23.3384 24.5 21.9054V3.09459C24.5 1.66164 23.3384 0.5 21.9054 0.5Z" stroke="black" stroke-linecap="round" stroke-linejoin="round"/>
</svg>
