<svg width="67" height="43" viewBox="0 0 67 43" fill="none" xmlns="http://www.w3.org/2000/svg">
<path d="M62.388 42.9982H4.45629C3.27441 42.9982 2.14093 42.5451 1.30522 41.7387C0.4695 40.9323 0 39.8385 0 38.698L0 20.6086H3.21038L3.93453 18.9172H5.5555L6.27779 20.6014H12.5946V19.3203L13.159 20.6104H16.4381L17.0026 19.2988V20.6068H32.698V17.8404H32.9951C33.2068 17.8475 33.268 17.8654 33.268 18.2059V20.6104H41.3878V19.9672C42.2177 20.3739 43.1963 20.6122 44.2342 20.6122L44.4106 20.6104H44.4013H47.8178L48.5494 18.9262H50.1704L50.8852 20.6104H57.4694V19.0086L58.4646 20.6104H63.7305V10.032H58.5185V11.2808L57.7887 10.032H52.4301V11.2808L51.7598 10.032H44.5239C43.4276 9.97849 42.3353 10.1962 41.3506 10.6644L41.3896 10.6483V10.032H36.3986V10.6483C35.7944 10.1888 35.0314 9.96903 34.2651 10.0337H34.2763H16.0371L14.8134 12.7662L13.5564 10.0337H7.8115V11.2826L7.17833 10.0337H2.27642L0.00557036 15.0506V4.30018C0.00557036 3.1597 0.475071 2.06593 1.31079 1.25949C2.1465 0.453053 3.27998 0 4.46186 0H62.3936C63.5755 0 64.7089 0.453053 65.5446 1.25949C66.3804 2.06593 66.8499 3.1597 66.8499 4.30018V23.0776H63.3721C63.3164 23.074 63.2496 23.074 63.1846 23.074C62.3787 23.074 61.6304 23.307 61.0066 23.7065L61.0214 23.6976V23.0776H55.8781C55.0746 23.0348 54.2796 23.2551 53.6221 23.7029L53.6333 23.6958V23.0758H44.4496V23.6958C43.6978 23.2866 42.8487 23.073 41.9856 23.0758H41.9132H41.9169H35.8583V23.6958C35.0667 23.2065 34.1274 22.9887 33.1919 23.0776L33.2086 23.0758H26.4295L24.8772 24.6956L23.4252 23.0758H13.2983V33.6614H23.2358L24.8345 32.0166L26.3404 33.6614H32.4659V31.1834H33.32C34.1413 31.2144 34.9604 31.0821 35.7264 30.7946L35.6856 30.809V33.665H40.736V30.9075H40.9793C41.2875 30.9075 41.3191 30.9183 41.3191 31.2193V33.6668H56.6672L56.8548 33.6704C57.7349 33.6704 58.5556 33.416 59.2389 32.9806L59.2222 32.9895V33.6668H64.0907L64.3228 33.6704C65.2345 33.6704 66.1016 33.4894 66.8888 33.1615L66.8461 33.1777V38.6998C66.8461 39.8403 66.3767 40.934 65.5409 41.7405C64.7052 42.5469 63.5717 43 62.3899 43L62.388 42.9982ZM39.1875 32.1779H37.2973V24.5898H41.6347C42.4181 24.5198 43.2069 24.6469 43.9241 24.9589L43.8944 24.9482C44.4756 25.2564 44.8637 25.8441 44.8637 26.5178L44.8599 26.6378V26.6324L44.8618 26.7005C44.8618 27.5713 44.3178 28.3202 43.5379 28.6463L43.5231 28.6517C43.8963 28.7807 44.2082 29.0011 44.4403 29.286L44.444 29.2896C44.7062 29.7083 44.816 30.1996 44.756 30.6853L44.7578 30.6746V32.1761H42.8713V31.2265C42.9606 30.7094 42.8531 30.1787 42.5687 29.7321L42.5742 29.7411C42.3782 29.5975 42.1541 29.4938 41.9154 29.4362C41.6767 29.3786 41.4283 29.3684 41.1854 29.406L41.1965 29.4042H39.1875V32.1761V32.1779ZM39.1875 26.1576V27.8616H41.4713C41.7938 27.8903 42.1184 27.8346 42.4108 27.7003L42.3997 27.7057C42.5192 27.6312 42.6175 27.5291 42.6856 27.4086C42.7537 27.2881 42.7895 27.1531 42.7896 27.0159L42.7878 26.9747C42.797 26.8377 42.7658 26.7028 42.6977 26.5823C42.6297 26.4618 42.5276 26.3624 42.4034 26.2956L42.3997 26.2938C42.1179 26.1722 41.8084 26.1228 41.501 26.1505H41.5084L39.1875 26.1576ZM22.43 32.1761H14.9898V24.5898H22.5469L24.8586 27.0768L27.2483 24.5898H33.2513C35.3829 24.5898 36.419 25.4087 36.419 27.0893C36.419 28.8004 35.3476 29.6318 33.1511 29.6318H30.8022V32.1743H27.1499L24.8364 29.6676L22.43 32.1761ZM28.9306 25.4033L26.0451 28.3955L28.9306 31.4845V25.4033ZM16.8633 29.0853V30.594H21.483L23.6183 28.3686L21.5647 26.1576H16.8615V27.5373H20.9873V29.0835L16.8633 29.0853ZM30.8022 26.1594V28.0909H33.229C33.9718 28.0909 34.3988 27.7254 34.3988 27.0875C34.3988 26.4783 34.0015 26.1576 33.2495 26.1576L30.8022 26.1594ZM64.2949 32.1797H60.6668V30.5492H64.2801C64.5504 30.5851 64.8246 30.5169 65.0432 30.3592L65.0414 30.361C65.1111 30.2986 65.1667 30.2229 65.2048 30.1387C65.2428 30.0546 65.2624 29.9637 65.2623 29.8719V29.8432C65.2624 29.7525 65.2421 29.6629 65.2026 29.5806C65.1632 29.4983 65.1056 29.4253 65.0339 29.3666C64.8418 29.2326 64.6048 29.1726 64.3692 29.1982H64.3729L64.0257 29.1875C62.3286 29.1444 60.4068 29.0943 60.4068 26.8492C60.4068 25.7563 61.1161 24.5898 63.101 24.5898H66.8461V26.206H63.4204C63.1558 26.1774 62.8885 26.2287 62.6554 26.3529L62.6628 26.3493C62.5711 26.4076 62.4974 26.4885 62.4494 26.5837C62.4014 26.679 62.3808 26.7849 62.3899 26.8904V26.8886V26.9084C62.3899 27.0291 62.4293 27.1467 62.5027 27.2445C62.576 27.3423 62.6795 27.4153 62.7984 27.453L62.8021 27.4548C63.0375 27.5249 63.2839 27.554 63.5299 27.5408H63.5244L64.5437 27.5659C65.3121 27.4919 66.0798 27.7127 66.6809 28.1805L66.6753 28.1769C66.731 28.2199 66.7793 28.2665 66.822 28.3185L66.8239 28.3202L66.8461 31.2085C66.5339 31.5606 66.1367 31.8332 65.6895 32.0023C65.2423 32.1713 64.7589 32.2316 64.2819 32.1779L64.2949 32.1797ZM56.9625 32.1797H53.3009V30.5492H56.9439C57.2165 30.5836 57.4924 30.5156 57.7145 30.3592L57.7108 30.361C57.7801 30.2984 57.8353 30.2226 57.873 30.1385C57.9107 30.0543 57.9301 29.9636 57.9299 29.8719V29.854C57.9298 29.7618 57.9094 29.6706 57.87 29.5866C57.8306 29.5026 57.7732 29.4276 57.7015 29.3666C57.5059 29.2325 57.2659 29.1725 57.0275 29.1982H57.0312L56.6858 29.1875C54.9943 29.1444 53.0744 29.0943 53.0744 26.8492C53.0744 25.7563 53.7799 24.5898 55.7611 24.5898H59.5267V26.206H56.0805C55.8177 26.1777 55.5523 26.2291 55.3211 26.3529L55.3285 26.3493C55.231 26.4141 55.1534 26.5031 55.1039 26.6069C55.0545 26.7107 55.035 26.8255 55.0475 26.9391C55.0601 27.0527 55.1042 27.1609 55.1752 27.2523C55.2463 27.3438 55.3416 27.415 55.4511 27.4584L55.4548 27.4602C55.6933 27.5308 55.9429 27.5599 56.1919 27.5462H56.1863L57.1983 27.5713C57.9708 27.4995 58.7419 27.7205 59.3484 28.1877L59.3429 28.1823C59.5469 28.3993 59.7021 28.6549 59.7986 28.9327C59.8951 29.2106 59.9309 29.5048 59.9036 29.7966V29.7877C59.9092 31.3698 58.9158 32.1761 56.9569 32.1761L56.9625 32.1797ZM52.1757 32.1797H45.8997V24.5881H52.1701V26.1558H47.7751V27.5355H52.068V29.0817H47.7751V30.5904L52.1757 30.5975V32.1743V32.1797ZM55.8336 19.125H52.0067L51.2751 17.4336H47.3722L46.6629 19.125H44.4645C43.4772 19.1753 42.505 18.8751 41.7313 18.2811L41.7405 18.2865C41.373 17.895 41.094 17.4339 40.9214 16.9326C40.7487 16.4313 40.6862 15.9008 40.7379 15.3749L40.736 15.3893C40.6882 14.8537 40.7538 14.3143 40.9287 13.8039C41.1036 13.2935 41.3842 12.8228 41.7535 12.4203L41.7498 12.4239C42.1397 12.0949 42.5957 11.8469 43.0892 11.6952C43.5827 11.5436 44.1033 11.4916 44.6186 11.5424L44.6037 11.5406H46.4234V13.1585H44.6408C44.38 13.1261 44.115 13.1496 43.8647 13.2273C43.6143 13.3051 43.3848 13.4351 43.1925 13.6083L43.1944 13.6065C42.7974 14.0971 42.6047 14.7131 42.6541 15.3337V15.3248C42.5949 15.9624 42.7806 16.5988 43.1758 17.1129L43.1703 17.1057C43.5394 17.3968 44.0119 17.537 44.4867 17.4963H44.4793H45.3223L47.9793 11.5298H50.8017L53.9823 18.6968V11.5298H56.8436L60.145 16.8119V11.5298H62.0761V19.1125H59.3949L55.8298 13.4183V19.1125L55.8336 19.125ZM49.3367 12.8217L48.0425 15.8462H50.6364L49.3367 12.8217ZM31.142 19.1215H29.2629V11.5352H33.5855C34.3746 11.4562 35.1711 11.5857 35.8898 11.9097L35.862 11.8989C36.1509 12.0532 36.3919 12.2792 36.5597 12.5537C36.7275 12.8281 36.8161 13.1409 36.8163 13.4596L36.8126 13.585V13.5796V13.6351C36.8128 14.049 36.6892 14.454 36.4566 14.8017C36.2241 15.1494 35.8926 15.425 35.5017 15.5953L35.4869 15.6007C35.8601 15.7369 36.1739 15.9554 36.4134 16.235L36.4171 16.2385C36.6821 16.6588 36.7914 17.1534 36.7272 17.6415L36.7291 17.6307V19.1197H34.8333L34.8259 18.1629V18.0195C34.8933 17.5517 34.7861 17.076 34.5232 16.6775L34.5288 16.6865C34.3321 16.5471 34.1088 16.4466 33.8717 16.391C33.6346 16.3353 33.3884 16.3255 33.1473 16.3622L33.1585 16.3604H31.1439V19.1197L31.142 19.1215ZM31.142 13.1137V14.798H33.4221C33.7442 14.8317 34.0696 14.7757 34.3598 14.6367L34.3505 14.6403C34.4695 14.5705 34.5678 14.4724 34.6361 14.3554C34.7044 14.2383 34.7403 14.1063 34.7405 13.972L34.7386 13.9218C34.7481 13.7857 34.716 13.6516 34.6464 13.5329C34.5767 13.4141 34.4726 13.3176 34.3468 13.2553L34.3431 13.2535C34.0606 13.1365 33.7528 13.0873 33.4463 13.1102H33.4519L31.142 13.1137ZM11.2447 19.1215H7.42714L6.70485 17.43H2.79075L2.06289 19.1215H0.0204246L3.38678 11.5352H6.17753L9.37305 18.7147V11.5352H12.4386L14.897 16.6793L17.1567 11.5352H20.2854V19.1179H18.3543L18.3506 13.1836L15.6267 19.1197H13.9779L11.2466 13.1747V19.1197L11.2447 19.1215ZM4.73852 12.8217L3.45919 15.8462H6.02527L4.73852 12.8217ZM39.8095 19.1197H37.8933V11.5352H39.8113V19.1179L39.8095 19.1197ZM27.9521 19.1197H21.6873V11.5352H27.9632V13.112H23.5663V14.4791H27.8574V16.0361H23.5626V17.5519H27.9595V19.1179L27.9521 19.1197Z" fill="black"/>
</svg>
