<svg width="20" height="20" viewBox="0 0 20 20" fill="none" xmlns="http://www.w3.org/2000/svg">
<path d="M8.89574 2.00629e-08C10.5662 -0.000112141 12.2029 0.470056 13.6185 1.3567C15.0342 2.24334 16.1717 3.51063 16.9007 5.01354C17.6298 6.51644 17.921 8.19425 17.7411 9.85494C17.5611 11.5156 16.9172 13.0921 15.8832 14.404L19.7055 18.2263C19.8962 18.4237 20.0017 18.6881 19.9993 18.9625C19.9969 19.2369 19.8868 19.4995 19.6928 19.6935C19.4987 19.8876 19.2362 19.9976 18.9618 20C18.6873 20.0024 18.423 19.8969 18.2256 19.7063L14.4032 15.8839C13.289 16.762 11.9809 17.3609 10.5882 17.6307C9.19544 17.9004 7.75837 17.8332 6.39689 17.4346C5.0354 17.036 3.78897 16.3176 2.76159 15.3394C1.73421 14.3611 0.955677 13.1513 0.490935 11.811C0.0261937 10.4706 -0.111276 9.03857 0.0899962 7.63429C0.291268 6.23 0.825444 4.89421 1.64796 3.73836C2.47047 2.58251 3.55748 1.64012 4.81827 0.989808C6.07907 0.339495 7.47711 0.000120879 8.89574 2.00629e-08ZM8.89574 2.09329C7.09142 2.09329 5.361 2.81006 4.08515 4.08591C2.8093 5.36175 2.09254 7.09218 2.09254 8.8965C2.09254 10.7008 2.8093 12.4312 4.08515 13.7071C5.361 14.9829 7.09142 15.6997 8.89574 15.6997C10.7001 15.6997 12.4305 14.9829 13.7063 13.7071C14.9822 12.4312 15.6989 10.7008 15.6989 8.8965C15.6989 7.09218 14.9822 5.36175 13.7063 4.08591C12.4305 2.81006 10.7001 2.09329 8.89574 2.09329ZM8.89574 3.13994C10.4225 3.13994 11.8867 3.74643 12.9662 4.826C14.0458 5.90556 14.6523 7.36976 14.6523 8.8965C14.6523 10.4232 14.0458 11.8874 12.9662 12.967C11.8867 14.0466 10.4225 14.6531 8.89574 14.6531C7.36901 14.6531 5.9048 14.0466 4.82524 12.967C3.74568 11.8874 3.13918 10.4232 3.13918 8.8965C3.13918 7.36976 3.74568 5.90556 4.82524 4.826C5.9048 3.74643 7.36901 3.13994 8.89574 3.13994Z" fill="#0189CD"/>
</svg>
