<svg width="23" height="27" viewBox="0 0 23 27" fill="none" xmlns="http://www.w3.org/2000/svg">
<path d="M3.34076 1.57455C3.13244 1.70926 2.98448 1.9195 2.92799 2.16106C2.8715 2.40263 2.91088 2.65668 3.03786 2.8698C3.16484 3.08292 3.36951 3.2385 3.60884 3.30381C3.84817 3.36912 4.1035 3.33908 4.32113 3.22001L4.32976 3.21522L4.38726 3.18359C4.44572 3.15388 4.54059 3.10692 4.67476 3.04751C4.94309 2.92963 5.36764 2.7648 5.95318 2.59709C7.12522 2.26455 8.95277 1.91667 11.5 1.91667C14.0473 1.91667 15.8748 2.26359 17.0469 2.59901C17.6334 2.76576 18.057 2.93059 18.3253 3.04942C18.4424 3.10057 18.5575 3.1562 18.6703 3.21617L18.6799 3.22097C18.8979 3.34435 19.1555 3.37747 19.3977 3.31322C19.6398 3.24898 19.8471 3.09248 19.9753 2.87725C20.1035 2.66201 20.1423 2.40515 20.0834 2.16166C20.0245 1.91818 19.8726 1.70743 19.6603 1.57455L19.6583 1.57263H19.6564L19.6516 1.56975L19.6401 1.56209C19.5922 1.53473 19.5436 1.50853 19.4945 1.4835C19.3636 1.41602 19.2307 1.35274 19.0958 1.29375C18.6007 1.08077 18.0919 0.900852 17.573 0.755169C16.2294 0.371834 14.2236 0 11.5 0C8.77644 0 6.77064 0.371834 5.42705 0.755169C4.75622 0.946836 4.25022 1.14234 3.90522 1.29375C3.71959 1.37513 3.53765 1.46466 3.35992 1.56209L3.34842 1.56975L3.34363 1.57167L3.34172 1.57263L3.34076 1.57455ZM3.35417 5.27085C2.46459 5.27085 1.61144 5.62423 0.982415 6.25326C0.353385 6.88229 0 7.73544 0 8.62502V18.2084C0 19.098 0.353385 19.9511 0.982415 20.5801C1.61144 21.2092 2.46459 21.5626 3.35417 21.5626H12.9375C13.8271 21.5626 14.6803 21.2092 15.3093 20.5801C15.9383 19.9511 16.2917 19.098 16.2917 18.2084V16.2649L20.8313 18.9501C21.0495 19.079 21.2979 19.148 21.5514 19.15C21.8048 19.1519 22.0543 19.0869 22.2744 18.9613C22.4946 18.8358 22.6777 18.6543 22.8051 18.4353C22.9326 18.2162 22.9998 17.9673 23.0001 17.7139V9.1176C23.0001 8.87324 22.9379 8.63289 22.8193 8.41926C22.7006 8.20563 22.5295 8.02577 22.322 7.89666C22.1146 7.76755 21.8776 7.69347 21.6335 7.6814C21.3895 7.66933 21.1464 7.71968 20.9272 7.82769L16.2917 10.1133V8.62502C16.2917 7.73544 15.9383 6.88229 15.3093 6.25326C14.6803 5.62423 13.8271 5.27085 12.9375 5.27085H3.35417ZM16.2917 12.2494L21.0834 9.88811V16.8734L16.2917 14.0377V12.2494ZM1.91667 8.62502C1.91667 8.24377 2.06812 7.87814 2.33771 7.60855C2.60729 7.33897 2.97292 7.18752 3.35417 7.18752H12.9375C13.3188 7.18752 13.6844 7.33897 13.954 7.60855C14.2236 7.87814 14.375 8.24377 14.375 8.62502V18.2084C14.375 18.5896 14.2236 18.9553 13.954 19.2248C13.6844 19.4944 13.3188 19.6459 12.9375 19.6459H3.35417C2.97292 19.6459 2.60729 19.4944 2.33771 19.2248C2.06812 18.9553 1.91667 18.5896 1.91667 18.2084V8.62502ZM3.01205 23.944C2.94715 24.052 2.90417 24.1717 2.88556 24.2962C2.86696 24.4208 2.8731 24.5479 2.90363 24.6701C2.93415 24.7923 2.98848 24.9073 3.06348 25.0084C3.13849 25.1096 3.23271 25.1951 3.34076 25.2598L3.34363 25.2617L3.34842 25.2646L3.35992 25.2704C3.40751 25.2986 3.4561 25.3251 3.50559 25.3499C3.59951 25.3988 3.73176 25.4639 3.90522 25.5396C4.25022 25.6911 4.75526 25.8856 5.42705 26.0782C6.77064 26.4616 8.77644 26.8334 11.5 26.8334C14.2236 26.8334 16.2294 26.4616 17.573 26.0782C18.2448 25.8866 18.7498 25.6911 19.0958 25.5396C19.2694 25.4637 19.4398 25.3806 19.6066 25.2905L19.6401 25.2713L19.6516 25.2636L19.6564 25.2617L19.6583 25.2598H19.6603C19.8787 25.1297 20.0365 24.9181 20.099 24.6716C20.1614 24.4251 20.1234 24.1639 19.9933 23.9455C19.8631 23.727 19.6516 23.5692 19.4051 23.5067C19.1586 23.4443 18.8974 23.4823 18.6789 23.6124L18.6713 23.6172C18.5581 23.6775 18.4427 23.7335 18.3253 23.7849C18.057 23.9028 17.6334 24.0676 17.0469 24.2353C15.8748 24.5698 14.0473 24.9167 11.5 24.9167C8.95277 24.9167 7.12522 24.5698 5.95318 24.2344C5.51776 24.113 5.09098 23.9625 4.67572 23.784C4.5583 23.7329 4.4429 23.6772 4.32976 23.6172L4.32113 23.6124C4.10334 23.4837 3.8435 23.4464 3.59827 23.5085C3.35303 23.5706 3.14231 23.7272 3.01205 23.944Z" fill="#FAFAFA"/>
</svg>
