<svg width="13" height="26" viewBox="0 0 13 26" fill="none" xmlns="http://www.w3.org/2000/svg">
<path d="M11.9822 1.75494L12.8796 1.87618L13.0009 0.978748L12.1034 0.857513L11.9822 1.75494ZM4.12664 16.8501C4.27223 17.0412 4.48775 17.1666 4.7258 17.1988C4.96385 17.2309 5.20493 17.1672 5.39599 17.0216C5.58706 16.876 5.71246 16.6605 5.74462 16.4225C5.77678 16.1844 5.71306 15.9433 5.56747 15.7523L4.12664 16.8501ZM12.0222 8.22292L12.8796 1.87618L11.0848 1.63371L10.2274 7.98045L12.0222 8.22292ZM12.1034 0.857513L5.7567 0.000115797L5.51422 1.79497L11.861 2.65237L12.1034 0.857513ZM11.4333 1.03453L4.22913 6.52387L5.327 7.9647L12.5311 2.47536L11.4333 1.03453ZM3.02877 15.4093L4.12664 16.8501L5.56747 15.7523L4.4696 14.3114L3.02877 15.4093ZM4.22913 6.52387C2.89167 7.54298 2.01383 9.05165 1.78872 10.718C1.56361 12.3843 2.00967 14.0719 3.02877 15.4093L4.4696 14.3114C3.74167 13.3561 3.42305 12.1507 3.58385 10.9605C3.74464 9.77026 4.37167 8.69263 5.327 7.9647L4.22913 6.52387Z" fill="#0574B2"/>
<path d="M1.0178 24.1071L0.120367 23.9859L-0.000869326 24.8833L0.89656 25.0045L1.0178 24.1071ZM8.87336 9.01191C8.72777 8.82084 8.51225 8.69543 8.2742 8.66328C8.03615 8.63112 7.79507 8.69484 7.60401 8.84043C7.41294 8.98601 7.28754 9.20154 7.25538 9.43959C7.22322 9.67764 7.28694 9.91871 7.43253 10.1098L8.87336 9.01191ZM0.977764 17.6391L0.120367 23.9859L1.91523 24.2283L2.77262 17.8816L0.977764 17.6391ZM0.89656 25.0045L7.2433 25.8619L7.48578 24.0671L1.13903 23.2097L0.89656 25.0045ZM1.56673 24.8275L8.77087 19.3382L7.673 17.8973L0.468861 23.3867L1.56673 24.8275ZM9.97123 10.4527L8.87336 9.01191L7.43253 10.1098L8.5304 11.5506L9.97123 10.4527ZM8.77087 19.3382C10.1083 18.3191 10.9862 16.8104 11.2113 15.1441C11.4364 13.4777 10.9903 11.7902 9.97123 10.4527L8.5304 11.5506C9.25833 12.5059 9.57695 13.7113 9.41615 14.9015C9.25536 16.0918 8.62833 17.1694 7.673 17.8973L8.77087 19.3382Z" fill="#0574B2"/>
</svg>
