<svg width="30" height="32" viewBox="0 0 30 32" fill="none" xmlns="http://www.w3.org/2000/svg">
<path d="M15.373 34.0002C12.48 34.0002 9.65209 33.1293 7.24671 31.4978C4.84134 29.8662 2.96658 27.5472 1.8595 24.834C0.752431 22.1208 0.462771 19.1352 1.02715 16.2549C1.59153 13.3746 2.98461 10.7288 5.03021 8.65225C7.07581 6.57565 9.68207 5.16147 12.5194 4.58854C15.3567 4.01561 18.2977 4.30966 20.9704 5.4335C23.6431 6.55735 25.9275 8.46052 27.5348 10.9023C29.142 13.3442 29.9998 16.215 29.9998 19.1517C29.9998 23.0898 28.4588 26.8665 25.7157 29.6512C22.9726 32.4358 19.2522 34.0002 15.373 34.0002ZM15.373 6.28656C12.8665 6.28656 10.4162 7.04109 8.33215 8.45473C6.24806 9.86837 4.62372 11.8776 3.66452 14.2284C2.70532 16.5792 2.45435 19.166 2.94334 21.6616C3.43234 24.1572 4.63934 26.4495 6.41171 28.2487C8.18408 30.048 10.4422 31.2733 12.9006 31.7697C15.3589 32.2661 17.907 32.0113 20.2228 31.0376C22.5385 30.0638 24.5177 28.4149 25.9103 26.2992C27.3028 24.1835 28.0461 21.6962 28.0461 19.1517C28.0433 15.7405 26.7072 12.4699 24.3312 10.0578C21.9551 7.6457 18.7332 6.28937 15.373 6.28656Z" fill="#FF0000"/>
<path d="M11.0096 25.15C10.7929 25.15 10.6012 25.0833 10.4346 24.95C10.2679 24.8167 10.1762 24.6417 10.1596 24.425C10.1596 24.1917 10.2679 23.95 10.4846 23.7L14.8596 18.2V19.25L10.7596 14.125C10.5429 13.8583 10.4346 13.6167 10.4346 13.4C10.4512 13.1833 10.5429 13.0083 10.7096 12.875C10.8762 12.7417 11.0679 12.675 11.2846 12.675C11.5346 12.675 11.7429 12.725 11.9096 12.825C12.0929 12.9083 12.2596 13.05 12.4096 13.25L15.9846 17.775H15.2846L18.8846 13.25C19.0346 13.05 19.1929 12.9083 19.3596 12.825C19.5262 12.725 19.7346 12.675 19.9846 12.675C20.2179 12.675 20.4096 12.7417 20.5596 12.875C20.7262 13.0083 20.8096 13.1917 20.8096 13.425C20.8262 13.6417 20.7262 13.8833 20.5096 14.15L16.4346 19.2V18.275L20.8096 23.7C21.0096 23.95 21.1012 24.1917 21.0846 24.425C21.0846 24.6417 21.0012 24.8167 20.8346 24.95C20.6679 25.0833 20.4679 25.15 20.2346 25.15C20.0012 25.15 19.7929 25.1 19.6096 25C19.4429 24.9167 19.2762 24.775 19.1096 24.575L15.2596 19.725H15.9846L12.1346 24.575C11.9846 24.7583 11.8179 24.9 11.6346 25C11.4679 25.1 11.2596 25.15 11.0096 25.15Z" fill="#FF0000"/>
</svg>
