<svg width="24" height="24" viewBox="0 0 24 24" fill="none" xmlns="http://www.w3.org/2000/svg">
<path d="M23.7455 11.495L20.0055 7.61766V1.73387C20.0055 1.50395 19.9212 1.28344 19.7712 1.12086C19.6211 0.958274 19.4176 0.866936 19.2055 0.866936H16.8055C16.5933 0.866936 16.3898 0.958274 16.2398 1.12086C16.0898 1.28344 16.0055 1.50395 16.0055 1.73387V3.46775L13.1095 0.467062C12.8385 0.170136 12.4355 0 12 0C11.566 0 11.164 0.170136 10.893 0.467604L0.258018 11.494C-0.0529809 11.8191 -0.0919808 12.3538 0.191018 12.706C0.262084 12.7949 0.349099 12.8672 0.446767 12.9185C0.544436 12.9698 0.650715 12.9991 0.759137 13.0044C0.867559 13.0098 0.975857 12.9912 1.07744 12.9498C1.17902 12.9084 1.27176 12.845 1.35002 12.7635L11.725 2.01996C11.7994 1.94279 11.8985 1.89972 12.0015 1.89972C12.1045 1.89972 12.2035 1.94279 12.278 2.01996L22.654 12.7635C22.8068 12.9223 23.0115 13.009 23.2233 13.0045C23.435 13.0001 23.6364 12.9048 23.7835 12.7396C24.0905 12.395 24.065 11.8261 23.7455 11.495Z" fill="#022C49"/>
<path d="M12.2829 3.47961C12.2084 3.40244 12.1094 3.35938 12.0064 3.35938C11.9034 3.35938 11.8043 3.40244 11.7299 3.47961L2.5249 13.0089C2.48581 13.0494 2.45471 13.0981 2.43348 13.152C2.41225 13.2059 2.40134 13.264 2.4014 13.3226L2.3999 22.2661C2.3999 22.726 2.56847 23.167 2.86853 23.4922C3.16859 23.8173 3.57555 24 3.9999 24H8.80489C9.01706 24 9.22054 23.9087 9.37057 23.7461C9.5206 23.5835 9.60488 23.363 9.60488 23.1331V15.7641C9.60488 15.6491 9.64703 15.5389 9.72204 15.4576C9.79706 15.3763 9.8988 15.3306 10.0049 15.3306H14.0049C14.111 15.3306 14.2127 15.3763 14.2877 15.4576C14.3627 15.5389 14.4049 15.6491 14.4049 15.7641V23.1331C14.4049 23.363 14.4892 23.5835 14.6392 23.7461C14.7892 23.9087 14.9927 24 15.2049 24H20.0079C20.4322 24 20.8392 23.8173 21.1392 23.4922C21.4393 23.167 21.6079 22.726 21.6079 22.2661V13.3226C21.6079 13.264 21.597 13.2059 21.5758 13.152C21.5545 13.0981 21.5234 13.0494 21.4844 13.0089L12.2829 3.47961Z" fill="#022C49"/>
</svg>
