<svg width="258" height="30" viewBox="0 0 258 30" fill="none" xmlns="http://www.w3.org/2000/svg">
<path d="M29.3691 20.7126C29.2395 20.5786 29.1123 20.4447 28.9874 20.3155C27.2701 18.5336 26.2311 17.4581 26.2311 12.4137C26.2311 9.80215 25.5028 7.65931 24.0673 6.05218C23.0089 4.86492 21.5781 3.96425 19.6922 3.29863C19.6679 3.28705 19.6462 3.27186 19.6282 3.25377C18.9498 1.30512 17.0936 0 15.0001 0C12.9065 0 11.0511 1.30512 10.3728 3.25176C10.3547 3.26919 10.3333 3.2839 10.3095 3.29529C5.9086 4.84951 3.76979 7.83141 3.76979 12.4117C3.76979 17.4581 2.73239 18.5336 1.01355 20.3135C0.888652 20.4427 0.761417 20.5739 0.63184 20.7105C0.297125 21.0568 0.0850563 21.4781 0.0207301 21.9246C-0.0435961 22.371 0.0425132 22.8239 0.268867 23.2297C0.750488 24.1002 1.77696 24.6406 2.94862 24.6406H27.0601C28.2263 24.6406 29.2457 24.1009 29.7289 23.2344C29.9563 22.8285 30.0432 22.3752 29.9794 21.9283C29.9156 21.4813 29.7038 21.0594 29.3691 20.7126ZM15.0001 29.9998C16.128 29.999 17.2347 29.7363 18.2028 29.2396C19.1708 28.7429 19.9641 28.0307 20.4985 27.1786C20.5237 27.1377 20.5361 27.092 20.5346 27.0458C20.5331 26.9996 20.5177 26.9546 20.4899 26.915C20.4621 26.8755 20.4228 26.8427 20.3759 26.82C20.329 26.7974 20.276 26.7854 20.2222 26.7855H9.77952C9.7256 26.7853 9.67255 26.7972 9.62554 26.8198C9.57852 26.8425 9.53915 26.8752 9.51125 26.9147C9.48334 26.9543 9.46786 26.9994 9.46632 27.0457C9.46477 27.0919 9.4772 27.1377 9.50241 27.1786C10.0367 28.0306 10.8299 28.7428 11.7978 29.2394C12.7657 29.7361 13.8722 29.9989 15.0001 29.9998Z" fill="#0189CD"/>
<g clip-path="url(#clip0_437_138)">
<mask id="mask0_437_138" style="mask-type:luminance" maskUnits="userSpaceOnUse" x="110" y="0" width="30" height="30">
<path d="M124.999 27.4998C126.641 27.5019 128.267 27.1796 129.784 26.5512C131.301 25.9229 132.678 25.001 133.838 23.8386C135 22.6792 135.922 21.3014 136.55 19.7846C137.179 18.2678 137.501 16.6417 137.499 14.9999C137.501 13.3581 137.179 11.732 136.55 10.2152C135.922 8.69836 135 7.32064 133.838 6.16121C132.678 4.99874 131.301 4.07685 129.784 3.44854C128.267 2.82022 126.641 2.49786 124.999 2.49999C123.357 2.4979 121.731 2.82027 120.214 3.44858C118.697 4.0769 117.32 4.99876 116.16 6.16121C114.998 7.32064 114.076 8.69836 113.448 10.2152C112.819 11.732 112.497 13.3581 112.499 14.9999C112.497 16.6417 112.819 18.2678 113.448 19.7846C114.076 21.3014 114.998 22.6792 116.16 23.8386C117.32 25.001 118.697 25.9229 120.214 26.5512C121.731 27.1795 123.357 27.5019 124.999 27.4998Z" fill="white" stroke="white" stroke-width="4" stroke-linejoin="round"/>
<path d="M124.999 17.8905V15.3905C125.741 15.3905 126.466 15.1706 127.082 14.7585C127.699 14.3465 128.18 13.7608 128.464 13.0756C128.747 12.3904 128.822 11.6364 128.677 10.9089C128.532 10.1815 128.175 9.51335 127.651 8.9889C127.126 8.46446 126.458 8.10731 125.731 7.96262C125.003 7.81792 124.249 7.89219 123.564 8.17601C122.879 8.45984 122.293 8.94048 121.881 9.55716C121.469 10.1738 121.249 10.8989 121.249 11.6405" stroke="black" stroke-width="4" stroke-linecap="round" stroke-linejoin="round"/>
<path fill-rule="evenodd" clip-rule="evenodd" d="M124.999 23.5154C125.413 23.5154 125.811 23.3508 126.104 23.0578C126.397 22.7648 126.561 22.3673 126.561 21.9529C126.561 21.5385 126.397 21.1411 126.104 20.8481C125.811 20.5551 125.413 20.3905 124.999 20.3905C124.585 20.3905 124.187 20.5551 123.894 20.8481C123.601 21.1411 123.436 21.5385 123.436 21.9529C123.436 22.3673 123.601 22.7648 123.894 23.0578C124.187 23.3508 124.585 23.5154 124.999 23.5154Z" fill="black"/>
</mask>
<g mask="url(#mask0_437_138)">
<path d="M109.999 0H139.999V29.9998H109.999V0Z" fill="#0189CD"/>
</g>
</g>
<path d="M257.627 12.7201L254.274 11.7201C254.042 10.9114 253.723 10.1302 253.323 9.39008L254.964 6.3201C255.026 6.20422 255.048 6.07159 255.029 5.94189C255.009 5.81218 254.948 5.69233 254.854 5.60011L252.462 3.20013C252.37 3.1068 252.25 3.04569 252.12 3.02587C251.99 3.00606 251.857 3.02859 251.741 3.09013L248.688 4.72011C247.94 4.30078 247.148 3.96541 246.326 3.72012L245.325 0.41015C245.283 0.288167 245.203 0.182751 245.096 0.109074C244.99 0.0353975 244.864 -0.00273922 244.734 0.000153167H241.351C241.221 0.000757736 241.095 0.0427874 240.99 0.120125C240.886 0.197463 240.809 0.306074 240.771 0.43015L239.77 3.73012C238.941 3.9741 238.142 4.3095 237.387 4.73011L234.384 3.11013C234.268 3.04859 234.136 3.02606 234.006 3.04587C233.876 3.06569 233.756 3.1268 233.664 3.22013L231.231 5.59011C231.138 5.68233 231.077 5.80218 231.057 5.93189C231.037 6.06159 231.06 6.19422 231.121 6.3101L232.743 9.31008C232.322 10.0607 231.987 10.8555 231.742 11.6801L228.429 12.6801C228.304 12.7184 228.196 12.7953 228.118 12.8996C228.041 13.0039 227.999 13.1302 227.998 13.26V16.64C227.999 16.7699 228.041 16.8961 228.118 17.0005C228.196 17.1048 228.304 17.1817 228.429 17.22L231.762 18.22C232.009 19.0308 232.345 19.8121 232.763 20.55L231.121 23.69C231.06 23.8058 231.037 23.9385 231.057 24.0682C231.077 24.1979 231.138 24.3177 231.231 24.41L233.624 26.7999C233.716 26.8933 233.836 26.9544 233.966 26.9742C234.096 26.994 234.228 26.9715 234.344 26.9099L237.437 25.2599C238.169 25.6544 238.941 25.9695 239.74 26.1999L240.74 29.5699C240.779 29.694 240.856 29.8026 240.96 29.8799C241.065 29.9573 241.191 29.9993 241.321 29.9999H244.704C244.834 29.9993 244.961 29.9573 245.065 29.8799C245.17 29.8026 245.247 29.694 245.285 29.5699L246.286 26.1899C247.078 25.9583 247.843 25.6432 248.568 25.2499L251.681 26.9099C251.797 26.9715 251.93 26.994 252.06 26.9742C252.19 26.9544 252.309 26.8933 252.402 26.7999L254.794 24.41C254.888 24.3177 254.949 24.1979 254.969 24.0682C254.988 23.9385 254.966 23.8058 254.904 23.69L253.243 20.59C253.64 19.8627 253.959 19.095 254.194 18.3L257.567 17.3C257.691 17.2617 257.8 17.1848 257.877 17.0805C257.955 16.9761 257.997 16.8499 257.997 16.72V13.31C258.003 13.1857 257.971 13.0625 257.905 12.9571C257.838 12.8516 257.741 12.7689 257.627 12.7201ZM243.043 20.5C241.954 20.5 240.889 20.1774 239.984 19.5731C239.079 18.9687 238.373 18.1098 237.956 17.1048C237.54 16.0998 237.431 14.9939 237.643 13.927C237.856 12.8602 238.38 11.8802 239.15 11.111C239.92 10.3418 240.901 9.81797 241.969 9.60576C243.037 9.39354 244.144 9.50246 245.15 9.91874C246.155 10.335 247.015 11.04 247.62 11.9444C248.225 12.8489 248.548 13.9122 248.548 15C248.548 16.4587 247.968 17.8576 246.936 18.8891C245.903 19.9205 244.503 20.5 243.043 20.5Z" fill="#0189CD"/>
<defs>
<clipPath id="clip0_437_138">
<rect width="30" height="30" fill="white" transform="translate(109.999)"/>
</clipPath>
</defs>
</svg>
