<svg width="30" height="30" viewBox="0 0 30 30" fill="none" xmlns="http://www.w3.org/2000/svg">
<g clip-path="url(#clip0_425_2623)">
<mask id="mask0_425_2623" style="mask-type:luminance" maskUnits="userSpaceOnUse" x="0" y="0" width="30" height="30">
<path d="M15 27.5C16.6418 27.5021 18.2679 27.1798 19.7848 26.5515C21.3016 25.9231 22.6793 25.0012 23.8388 23.8388C25.0012 22.6793 25.9231 21.3016 26.5515 19.7848C27.1798 18.2679 27.5021 16.6418 27.5 15C27.5021 13.3582 27.1797 11.7321 26.5514 10.2153C25.9231 8.69843 25.0012 7.3207 23.8388 6.16126C22.6793 4.99878 21.3016 4.07688 19.7848 3.44856C18.2679 2.82024 16.6418 2.49788 15 2.50001C13.3582 2.49792 11.7321 2.82029 10.2153 3.44861C8.69843 4.07693 7.3207 4.99881 6.16126 6.16126C4.99881 7.3207 4.07693 8.69843 3.44861 10.2153C2.82029 11.7321 2.49792 13.3582 2.50001 15C2.49788 16.6418 2.82024 18.2679 3.44856 19.7848C4.07688 21.3016 4.99878 22.6793 6.16126 23.8388C7.3207 25.0012 8.69843 25.9231 10.2153 26.5514C11.7321 27.1797 13.3582 27.5021 15 27.5Z" fill="white" stroke="white" stroke-width="4" stroke-linejoin="round"/>
<path d="M15 17.8906V15.3906C15.7417 15.3906 16.4667 15.1707 17.0834 14.7586C17.7001 14.3466 18.1807 13.7609 18.4645 13.0757C18.7484 12.3905 18.8226 11.6365 18.6779 10.909C18.5333 10.1816 18.1761 9.51342 17.6517 8.98898C17.1272 8.46453 16.459 8.10738 15.7316 7.96268C15.0042 7.81799 14.2502 7.89225 13.5649 8.17608C12.8797 8.45991 12.294 8.94055 11.882 9.55724C11.4699 10.1739 11.25 10.8989 11.25 11.6406" stroke="black" stroke-width="4" stroke-linecap="round" stroke-linejoin="round"/>
<path fill-rule="evenodd" clip-rule="evenodd" d="M15 23.5156C15.4144 23.5156 15.8118 23.351 16.1049 23.058C16.3979 22.765 16.5625 22.3675 16.5625 21.9531C16.5625 21.5387 16.3979 21.1413 16.1049 20.8483C15.8118 20.5552 15.4144 20.3906 15 20.3906C14.5856 20.3906 14.1882 20.5552 13.8951 20.8483C13.6021 21.1413 13.4375 21.5387 13.4375 21.9531C13.4375 22.3675 13.6021 22.765 13.8951 23.058C14.1882 23.351 14.5856 23.5156 15 23.5156Z" fill="black"/>
</mask>
<g mask="url(#mask0_425_2623)">
<path d="M0 0H30V30H0V0Z" fill="#0189CD"/>
</g>
</g>
<defs>
<clipPath id="clip0_425_2623">
<rect width="30" height="30" fill="white"/>
</clipPath>
</defs>
</svg>
