<svg width="24" height="24" viewBox="0 0 24 24" fill="none" xmlns="http://www.w3.org/2000/svg">
<path d="M6.66667 8.31903V10.7315H2.66667V21.5875H21.3333V10.7315H17.3333V8.31903H21.3333C22.0406 8.31903 22.7189 8.5732 23.219 9.02563C23.719 9.47805 24 10.0917 24 10.7315V21.5875C24 22.2274 23.719 22.841 23.219 23.2934C22.7189 23.7458 22.0406 24 21.3333 24H2.66667C1.95942 24 1.28115 23.7458 0.781048 23.2934C0.280951 22.841 0 22.2274 0 21.5875V10.7315C0 10.0917 0.280951 9.47805 0.781048 9.02563C1.28115 8.5732 1.95942 8.31903 2.66667 8.31903H6.66667ZM13.1787 0.441158L17.6573 4.49167C17.9075 4.71801 18.0481 5.02499 18.0481 5.34508C18.0481 5.66517 17.9075 5.97215 17.6573 6.19849C17.4071 6.42482 17.0678 6.55198 16.714 6.55198C16.3602 6.55198 16.0209 6.42482 15.7707 6.19849L13.3333 3.99229V15.5564C13.3333 15.8763 13.1929 16.1831 12.9428 16.4093C12.6928 16.6355 12.3536 16.7626 12 16.7626C11.6464 16.7626 11.3072 16.6355 11.0572 16.4093C10.8071 16.1831 10.6667 15.8763 10.6667 15.5564V3.99229L8.22933 6.19849C8.10545 6.31056 7.95839 6.39946 7.79653 6.46011C7.63467 6.52076 7.46119 6.55198 7.286 6.55198C7.11081 6.55198 6.93733 6.52076 6.77547 6.46011C6.61361 6.39946 6.46655 6.31056 6.34267 6.19849C6.21879 6.08641 6.12052 5.95337 6.05348 5.80694C5.98643 5.66051 5.95193 5.50357 5.95193 5.34508C5.95193 5.18659 5.98643 5.02965 6.05348 4.88322C6.12052 4.73679 6.21879 4.60374 6.34267 4.49167L10.8227 0.441158C11.1352 0.158676 11.5589 0 12.0007 0C12.4424 0 12.8661 0.158676 13.1787 0.441158Z" fill="black"/>
</svg>
