<svg width="30" height="30" viewBox="0 0 30 30" fill="none" xmlns="http://www.w3.org/2000/svg">
<path d="M4.3575 1.76036C4.08578 1.91096 3.89279 2.14602 3.8191 2.41609C3.74542 2.68616 3.79679 2.9702 3.96242 3.20847C4.12804 3.44674 4.39501 3.62067 4.70717 3.69369C5.01934 3.76671 5.35238 3.73313 5.63625 3.6L5.6475 3.59464L5.7225 3.55929C5.79875 3.52607 5.9225 3.47357 6.0975 3.40714C6.4475 3.27536 7.00125 3.09107 7.765 2.90357C9.29375 2.53179 11.6775 2.14286 15 2.14286C18.3225 2.14286 20.7063 2.53071 22.235 2.90571C23 3.09214 23.5525 3.27643 23.9025 3.40929C24.0552 3.46647 24.2053 3.52866 24.3525 3.59571L24.365 3.60107C24.6494 3.73902 24.9854 3.77604 25.3012 3.70422C25.6171 3.63239 25.8875 3.45743 26.0547 3.21679C26.2219 2.97615 26.2725 2.68898 26.1957 2.41676C26.1188 2.14454 25.9207 1.90892 25.6437 1.76036L25.6413 1.75821H25.6388L25.6325 1.755L25.6175 1.74643C25.555 1.71585 25.4916 1.68655 25.4275 1.65857C25.2568 1.58313 25.0834 1.51238 24.9075 1.44643C24.2617 1.20832 23.5981 1.00716 22.9212 0.844286C21.1687 0.415714 18.5525 0 15 0C11.4475 0 8.83125 0.415714 7.07875 0.844286C6.20375 1.05857 5.54375 1.27714 5.09375 1.44643C4.85163 1.53741 4.61432 1.6375 4.3825 1.74643L4.3675 1.755L4.36125 1.75714L4.35875 1.75821L4.3575 1.76036ZM4.375 5.89286C3.21468 5.89286 2.10188 6.28795 1.28141 6.99121C0.460936 7.69447 0 8.6483 0 9.64286V20.3571C0 21.3517 0.460936 22.3055 1.28141 23.0088C2.10188 23.7121 3.21468 24.1071 4.375 24.1071H16.875C18.0353 24.1071 19.1481 23.7121 19.9686 23.0088C20.7891 22.3055 21.25 21.3517 21.25 20.3571V18.1843L27.1712 21.1864C27.4559 21.3306 27.7799 21.4076 28.1104 21.4098C28.441 21.412 28.7664 21.3393 29.0536 21.199C29.3407 21.0586 29.5795 20.8557 29.7458 20.6108C29.912 20.3659 29.9997 20.0876 30 19.8043V10.1936C30.0001 9.92037 29.919 9.65166 29.7642 9.41282C29.6095 9.17397 29.3862 8.97288 29.1156 8.82854C28.845 8.6842 28.5359 8.60137 28.2176 8.58788C27.8993 8.57439 27.5822 8.63068 27.2962 8.75143L21.25 11.3068V9.64286C21.25 8.6483 20.7891 7.69447 19.9686 6.99121C19.1481 6.28795 18.0353 5.89286 16.875 5.89286H4.375ZM21.25 13.695L27.5 11.055V18.8646L21.25 15.6943V13.695ZM2.5 9.64286C2.5 9.21662 2.69754 8.80783 3.04917 8.50644C3.4008 8.20504 3.87772 8.03571 4.375 8.03571H16.875C17.3723 8.03571 17.8492 8.20504 18.2008 8.50644C18.5525 8.80783 18.75 9.21662 18.75 9.64286V20.3571C18.75 20.7834 18.5525 21.1922 18.2008 21.4936C17.8492 21.795 17.3723 21.9643 16.875 21.9643H4.375C3.87772 21.9643 3.4008 21.795 3.04917 21.4936C2.69754 21.1922 2.5 20.7834 2.5 20.3571V9.64286ZM3.92875 26.7696C3.8441 26.8903 3.78803 27.0242 3.76377 27.1634C3.7395 27.3027 3.74751 27.4447 3.78733 27.5814C3.82715 27.718 3.898 27.8466 3.99584 27.9597C4.09367 28.0728 4.21657 28.1683 4.3575 28.2407L4.36125 28.2429L4.3675 28.2461L4.3825 28.2525C4.44457 28.2841 4.50794 28.3138 4.5725 28.3414C4.695 28.3961 4.8675 28.4689 5.09375 28.5536C5.54375 28.7229 6.2025 28.9404 7.07875 29.1557C8.83125 29.5843 11.4475 30 15 30C18.5525 30 21.1687 29.5843 22.9212 29.1557C23.7975 28.9414 24.4562 28.7229 24.9075 28.5536C25.134 28.4687 25.3563 28.3757 25.5737 28.275L25.6175 28.2536L25.6325 28.245L25.6388 28.2429L25.6413 28.2407H25.6437C25.9287 28.0952 26.1345 27.8587 26.216 27.5831C26.2975 27.3075 26.2479 27.0155 26.0781 26.7712C25.9084 26.527 25.6324 26.3506 25.3109 26.2808C24.9894 26.2109 24.6487 26.2534 24.3637 26.3989L24.3537 26.4043C24.2062 26.4717 24.0557 26.5343 23.9025 26.5918C23.5525 26.7236 23 26.9079 22.235 27.0954C20.7063 27.4693 18.3225 27.8571 15 27.8571C11.6775 27.8571 9.29375 27.4693 7.765 27.0943C7.19706 26.9586 6.64039 26.7903 6.09875 26.5907C5.9456 26.5336 5.79507 26.4714 5.6475 26.4043L5.63625 26.3989C5.35218 26.255 5.01325 26.2133 4.69338 26.2827C4.37351 26.3521 4.09865 26.5272 3.92875 26.7696Z" fill="#022C49"/>
</svg>
