<svg width="24" height="24" viewBox="0 0 24 24" fill="none" xmlns="http://www.w3.org/2000/svg">
<path d="M3.486 1.40829C3.26862 1.52877 3.11423 1.71682 3.05528 1.93287C2.99634 2.14893 3.03744 2.37616 3.16993 2.56677C3.30243 2.75739 3.51601 2.89654 3.76574 2.95495C4.01547 3.01337 4.2819 2.9865 4.509 2.88L4.518 2.87571L4.578 2.84743C4.639 2.82086 4.738 2.77886 4.878 2.72571C5.158 2.62029 5.601 2.47286 6.212 2.32286C7.435 2.02543 9.342 1.71429 12 1.71429C14.658 1.71429 16.565 2.02457 17.788 2.32457C18.4 2.47371 18.842 2.62114 19.122 2.72743C19.2442 2.77318 19.3643 2.82293 19.482 2.87657L19.492 2.88086C19.7195 2.99121 19.9883 3.02083 20.241 2.96337C20.4937 2.90591 20.71 2.76594 20.8438 2.57343C20.9775 2.38092 21.018 2.15118 20.9565 1.93341C20.8951 1.71563 20.7366 1.52714 20.515 1.40829L20.513 1.40657H20.511L20.506 1.404L20.494 1.39714C20.444 1.37268 20.3933 1.34924 20.342 1.32686C20.2055 1.2665 20.0667 1.2099 19.926 1.15714C19.4093 0.966653 18.8785 0.805729 18.337 0.675429C16.935 0.332572 14.842 0 12 0C9.158 0 7.065 0.332572 5.663 0.675429C4.963 0.846857 4.435 1.02171 4.075 1.15714C3.8813 1.22992 3.69145 1.31 3.506 1.39714L3.494 1.404L3.489 1.40571L3.487 1.40657L3.486 1.40829ZM3.5 4.71429C2.57174 4.71429 1.6815 5.03036 1.02513 5.59297C0.368749 6.15557 0 6.91864 0 7.71429V16.2857C0 17.0814 0.368749 17.8444 1.02513 18.407C1.6815 18.9696 2.57174 19.2857 3.5 19.2857H13.5C14.4283 19.2857 15.3185 18.9696 15.9749 18.407C16.6313 17.8444 17 17.0814 17 16.2857V14.5474L21.737 16.9491C21.9647 17.0644 22.2239 17.1261 22.4883 17.1279C22.7528 17.1296 23.0131 17.0714 23.2428 16.9592C23.4726 16.8469 23.6636 16.6846 23.7966 16.4886C23.9296 16.2927 23.9997 16.0701 24 15.8434V8.15486C24.0001 7.9363 23.9352 7.72133 23.8114 7.53025C23.6876 7.33918 23.509 7.17831 23.2925 7.06283C23.076 6.94736 22.8288 6.8811 22.5741 6.8703C22.3194 6.85951 22.0657 6.90454 21.837 7.00114L17 9.04543V7.71429C17 6.91864 16.6313 6.15557 15.9749 5.59297C15.3185 5.03036 14.4283 4.71429 13.5 4.71429H3.5ZM17 10.956L22 8.844V15.0917L17 12.5554V10.956ZM2 7.71429C2 7.37329 2.15804 7.04627 2.43934 6.80515C2.72064 6.56403 3.10218 6.42857 3.5 6.42857H13.5C13.8978 6.42857 14.2794 6.56403 14.5607 6.80515C14.842 7.04627 15 7.37329 15 7.71429V16.2857C15 16.6267 14.842 16.9537 14.5607 17.1949C14.2794 17.436 13.8978 17.5714 13.5 17.5714H3.5C3.10218 17.5714 2.72064 17.436 2.43934 17.1949C2.15804 16.9537 2 16.6267 2 16.2857V7.71429ZM3.143 21.4157C3.07528 21.5123 3.03043 21.6193 3.01101 21.7307C2.9916 21.8422 2.99801 21.9558 3.02986 22.0651C3.06172 22.1744 3.1184 22.2772 3.19667 22.3678C3.27494 22.4583 3.37326 22.5347 3.486 22.5926L3.489 22.5943L3.494 22.5969L3.506 22.602C3.55565 22.6273 3.60635 22.651 3.658 22.6731C3.756 22.7169 3.894 22.7751 4.075 22.8429C4.435 22.9783 4.962 23.1523 5.663 23.3246C7.065 23.6674 9.158 24 12 24C14.842 24 16.935 23.6674 18.337 23.3246C19.038 23.1531 19.565 22.9783 19.926 22.8429C20.1072 22.7749 20.285 22.7006 20.459 22.62L20.494 22.6029L20.506 22.596L20.511 22.5943L20.513 22.5926H20.515C20.743 22.4762 20.9076 22.2869 20.9728 22.0665C21.038 21.846 20.9983 21.6124 20.8625 21.417C20.7267 21.2216 20.5059 21.0805 20.2487 21.0246C19.9915 20.9687 19.719 21.0028 19.491 21.1191L19.483 21.1234C19.365 21.1774 19.2445 21.2274 19.122 21.2734C18.842 21.3789 18.4 21.5263 17.788 21.6763C16.565 21.9754 14.658 22.2857 12 22.2857C9.342 22.2857 7.435 21.9754 6.212 21.6754C5.75765 21.5669 5.31232 21.4323 4.879 21.2726C4.75648 21.2269 4.63605 21.1771 4.518 21.1234L4.509 21.1191C4.28174 21.004 4.0106 20.9706 3.7547 21.0262C3.49881 21.0817 3.27892 21.2218 3.143 21.4157Z" fill="white"/>
</svg>
